<?xml version="1.0" standalone="no"?>
<!DOCTYPE svg PUBLIC "-//W3C//DTD SVG 1.1//EN" "http://www.w3.org/Graphics/SVG/1.1/DTD/svg11.dtd" >
<svg>
<metadata>
Created by FontForge 20090622 at Wed Mar  4 21:19:36 2020
 By deploy user
Copyright (c) House Industries/Brand Design Co. Inc, 2003. All rights reserved.
</metadata>
<defs>
<font id="ChaletBook-BoldItalic" horiz-adv-x="237" >
  <font-face 
    font-family="ChaletBook"
    font-weight="700"
    font-style="italic"
    font-stretch="normal"
    units-per-em="1000"
    panose-1="2 0 8 0 4 0 0 9 0 4"
    ascent="800"
    descent="-200"
    x-height="515"
    cap-height="680"
    bbox="-165 -311 1478 935"
    underline-thickness="8"
    underline-position="-47"
    unicode-range="U+0020-U+FB04"
  />
<missing-glyph horiz-adv-x="271" 
 />
    <glyph glyph-name="ff" unicode="ff" horiz-adv-x="613" 
d="M12 -125l94 538h-59l17 102h60l8 43q33 186 208 186q28 0 57 -8l-18 -101q-17 5 -32 5q-40 0 -63.5 -18.5t-31.5 -67.5l-7 -39h158l8 43q33 186 210 186q31 0 60 -8l-18 -101q-17 5 -35 5q-82 0 -97 -88l-7 -37h107l-18 -102h-107l-88 -508h-121l88 508h-158l-94 -538
h-121z" />
    <glyph glyph-name="fi" unicode="fi" horiz-adv-x="546" 
d="M386 413h-159l-94 -538h-121l94 538h-59l17 102h60l7 43q16 96 72 141t136 45q29 0 50 -6l-18 -101q-13 3 -25 3q-80 0 -95 -88l-6 -37h280l-90 -515h-121zM414 589l22 125h126l-21 -125h-127z" />
    <glyph glyph-name="fl" unicode="fl" horiz-adv-x="546" 
d="M12 -125l94 538h-59l17 102h60l7 43q16 96 72 141t136 45q29 0 50 -6l-18 -101q-13 3 -25 3q-80 0 -95 -88l-6 -37h106l-18 -102h-106l-94 -538h-121zM314 0l130 744h120l-129 -744h-121z" />
    <glyph glyph-name="ffi" unicode="ffi" horiz-adv-x="826" 
d="M666 413h-160l-88 -508h-121l88 508h-158l-94 -538h-121l94 538h-59l17 102h60l8 43q33 186 208 186q28 0 57 -8l-18 -101q-17 5 -32 5q-40 0 -63.5 -18.5t-31.5 -67.5l-7 -39h158l8 43q33 186 208 186q29 0 50 -6l-18 -101q-12 3 -25 3q-80 0 -95 -88l-7 -37h281
l-90 -515h-121zM694 589l22 125h127l-22 -125h-127z" />
    <glyph glyph-name="ffl" unicode="ffl" horiz-adv-x="826" 
d="M297 -95l88 508h-158l-94 -538h-121l94 538h-59l17 102h60l8 43q33 186 208 186q28 0 57 -8l-18 -101q-17 5 -32 5q-40 0 -63.5 -18.5t-31.5 -67.5l-7 -39h158l8 43q33 186 208 186q29 0 50 -6l-18 -101q-12 3 -25 3q-80 0 -95 -88l-7 -37h107l-18 -102h-107l-88 -508
h-121zM594 0l130 744h121l-130 -744h-121z" />
    <glyph glyph-name=".notdef" horiz-adv-x="271" 
 />
    <glyph glyph-name=".null" horiz-adv-x="0" 
 />
    <glyph glyph-name="nonmarkingreturn" horiz-adv-x="333" 
 />
    <glyph glyph-name="space" unicode=" " horiz-adv-x="271" 
 />
    <glyph glyph-name="space" unicode="&#xa0;" horiz-adv-x="271" 
 />
    <glyph glyph-name="exclam" unicode="!" horiz-adv-x="289" 
d="M88 203l66 477h131l-103 -477h-94zM33 0l23 138h136l-24 -138h-135z" />
    <glyph glyph-name="quotedbl" unicode="&#x22;" horiz-adv-x="378" 
d="M264 429l21 251h131l-67 -251h-85zM90 429l21 251h131l-67 -251h-85z" />
    <glyph glyph-name="numbersign" unicode="#" horiz-adv-x="529" 
d="M81 458l22 100h81l26 122h94l-26 -122h89l25 122h94l-25 -122h83l-22 -100h-82l-22 -111h83l-22 -100h-82l-25 -124h-94l25 124h-89l-25 -124h-94l25 124h-81l21 100h81l23 111h-83zM258 458l-23 -111h89l22 111h-88z" />
    <glyph glyph-name="dollar" unicode="$" horiz-adv-x="555" 
d="M185 -82l20 116q-79 19 -127.5 71.5t-49.5 128.5h115q5 -75 80 -98l28 162q-165 50 -165 180q0 82 58.5 132.5t155.5 50.5h14l10 56h66l-11 -65q75 -19 114 -70.5t40 -111.5h-114q-3 54 -58 77l-27 -152q37 -11 64.5 -23.5t54 -33t41 -50.5t14.5 -68q0 -90 -55 -143
t-161 -53h-22l-18 -106h-67zM391 210q0 24 -18.5 39t-58.5 30l-26 -152h2q101 0 101 83zM200 485q0 -24 16.5 -40.5t54.5 -30.5l25 144q-46 -2 -71 -20.5t-25 -52.5z" />
    <glyph glyph-name="percent" unicode="%" horiz-adv-x="806" 
d="M232 348q-70 0 -114 46.5t-44 112.5q0 75 54 129t125 54q70 0 114 -46t44 -111q0 -78 -54 -131.5t-125 -53.5zM582 -10q-70 0 -113.5 46t-43.5 113q0 75 54 129t125 54q69 0 113 -46t44 -111q0 -78 -54 -131.5t-125 -53.5zM131 0l477 680h97l-477 -680h-97zM234 431
q34 0 59 28t25 71q0 34 -19 55.5t-49 21.5q-32 0 -57.5 -28t-25.5 -69q0 -34 19 -56.5t48 -22.5zM584 73q34 0 59 27.5t25 71.5q0 34 -18.5 55.5t-49.5 21.5q-32 0 -57 -28t-25 -69q0 -34 19 -56.5t47 -22.5z" />
    <glyph glyph-name="ampersand" unicode="&#x26;" horiz-adv-x="655" 
d="M512 542q0 -101 -150 -169l98 -154q19 42 30 98l7 40h107l-9 -48q-20 -106 -75 -186l79 -123h-134l-26 40q-76 -52 -175 -52q-99 1 -167 61.5t-68 143.5q0 75 42 122t139 87l-1 2q-35 55 -35 120q0 75 52.5 124t126.5 49q69 0 114 -43t45 -112zM155 202q0 -44 32.5 -75.5
t88.5 -31.5q62 0 108 31l-130 207q-55 -24 -77 -56t-22 -75zM286 530q0 -35 20 -68l11 -18q86 40 86 96q0 27 -14.5 44.5t-38.5 17.5q-28 0 -46 -21t-18 -51z" />
    <glyph glyph-name="quotesingle" unicode="'" horiz-adv-x="204" 
d="M90 429l21 251h131l-67 -251h-85z" />
    <glyph glyph-name="parenleft" unicode="(" horiz-adv-x="317" 
d="M156 -122q-105 166 -105 371q0 173 67.5 310.5t177.5 224.5h111q-108 -103 -169.5 -242t-62.5 -305q-2 -194 77 -359h-96z" />
    <glyph glyph-name="parenright" unicode=")" horiz-adv-x="316" 
d="M186 784q106 -165 106 -371q0 -173 -68 -310.5t-177 -224.5h-111q107 103 168.5 242.5t62.5 304.5q2 196 -76 359h95z" />
    <glyph glyph-name="asterisk" unicode="*" horiz-adv-x="387" 
d="M169 367l-64 43l84 96l-116 -14l15 85l111 -13l-51 100l76 38l27 -110l65 110l64 -42l-85 -98l117 15l-15 -85l-112 12l52 -98l-76 -39l-28 109z" />
    <glyph glyph-name="plus" unicode="+" horiz-adv-x="499" 
d="M159 82l29 163h-149l19 112h150l29 162h118l-28 -162h149l-20 -112h-149l-29 -163h-119z" />
    <glyph glyph-name="comma" unicode="," 
d="M-22 -157l12 67q64 0 75 66l4 24h-63l25 141h135l-30 -175q-10 -60 -52.5 -91.5t-105.5 -31.5z" />
    <glyph glyph-name="hyphen" unicode="-" horiz-adv-x="334" 
d="M35 218l20 119h251l-21 -119h-250z" />
    <glyph glyph-name="hyphen" unicode="&#xad;" horiz-adv-x="334" 
d="M35 218l20 119h251l-21 -119h-250z" />
    <glyph glyph-name="period" unicode="." 
d="M6 0l25 141h135l-24 -141h-136z" />
    <glyph glyph-name="slash" unicode="/" horiz-adv-x="354" 
d="M-73 -122l404 906h125l-403 -906h-126z" />
    <glyph glyph-name="zero" unicode="0" horiz-adv-x="598" 
d="M353 697q102 0 162 -77t60 -210q0 -186 -84.5 -304t-213.5 -118q-105 0 -164 77.5t-59 211.5q0 182 86 301t213 119zM281 99q76 0 122.5 93.5t46.5 218.5q0 81 -27 128t-78 47q-71 0 -118.5 -94t-47.5 -223q0 -79 25 -124.5t77 -45.5z" />
    <glyph glyph-name="one" unicode="1" horiz-adv-x="406" 
d="M128 0l84 481h-112l16 89q54 1 99.5 30.5t55.5 79.5h102l-118 -680h-127z" />
    <glyph glyph-name="two" unicode="2" horiz-adv-x="536" 
d="M-5 0l14 77q9 49 32.5 90.5t60 74.5t71.5 55.5t82 47.5q92 48 123 83.5t31 80.5q0 33 -21 56.5t-60 23.5q-47 0 -77 -33t-37 -87h-127q10 99 76.5 163.5t170.5 64.5q97 0 148.5 -55t51.5 -134q0 -33 -6.5 -60.5t-23.5 -51t-32 -40t-48 -37.5t-54.5 -32.5l-66.5 -35.5
q-72 -38 -109.5 -71t-46.5 -69h316l-19 -111h-449z" />
    <glyph glyph-name="three" unicode="3" horiz-adv-x="558" 
d="M24 222h123q-3 -54 28 -88t92 -34q54 0 88 30.5t34 76.5q0 42 -25 69t-73 27h-44l18 106h23q58 0 88.5 26t30.5 70q0 34 -21.5 57t-62.5 23q-47 0 -78 -31.5t-36 -77.5h-123q9 99 76 160t168 61q97 0 150.5 -52.5t53.5 -129.5q0 -53 -32 -94.5t-89 -63.5
q45 -15 73.5 -60.5t28.5 -95.5q0 -84 -68 -148.5t-179 -64.5q-124 0 -188.5 70.5t-55.5 163.5z" />
    <glyph glyph-name="four" unicode="4" horiz-adv-x="589" 
d="M309 0l25 143h-320l19 106l375 431h139l-76 -431h78l-19 -106h-77l-25 -143h-119zM157 249h196l48 277z" />
    <glyph glyph-name="five" unicode="5" horiz-adv-x="551" 
d="M23 185h127q3 -38 31 -61.5t73 -23.5q55 0 89.5 39t34.5 98q0 52 -26 82t-70 30q-65 0 -112 -64l-97 45l103 350h363l-19 -110h-266l-52 -169q45 52 125 52q76 0 127 -57.5t51 -152.5q0 -112 -69.5 -183.5t-181.5 -71.5q-103 0 -166.5 58t-64.5 139z" />
    <glyph glyph-name="six" unicode="6" horiz-adv-x="571" 
d="M549 515h-124q-12 73 -84 73q-55 0 -94.5 -55.5t-54.5 -145.5q52 58 129 58q92 0 148 -58.5t56 -151.5q0 -107 -69 -177t-173 -70q-45 0 -84.5 15.5t-72.5 46.5t-52.5 85.5t-19.5 125.5q0 186 80.5 311t214.5 125q86 0 139.5 -48.5t60.5 -133.5zM284 94q50 0 83 40t33 96
q0 47 -28.5 79t-73.5 32q-50 0 -82.5 -38.5t-32.5 -90.5q0 -51 27 -84.5t74 -33.5z" />
    <glyph glyph-name="seven" unicode="7" horiz-adv-x="528" 
d="M94 0q30 170 112 317t191 245h-307l21 118h453l-19 -111q-118 -101 -205 -247.5t-117 -321.5h-129z" />
    <glyph glyph-name="eight" unicode="8" horiz-adv-x="556" 
d="M36 190q0 65 35 113.5t102 74.5q-65 45 -65 129q0 81 61.5 135.5t151.5 54.5q89 0 149.5 -50t60.5 -126q0 -110 -106 -159q44 -26 67.5 -67.5t23.5 -89.5q0 -93 -66 -155t-172 -62q-109 0 -175.5 56.5t-66.5 145.5zM273 96q51 0 85 30.5t34 81.5q0 47 -33 75t-80 28
q-48 0 -83 -28.5t-35 -79.5q0 -48 32 -77.5t80 -29.5zM316 416q39 0 66 25.5t27 66.5q0 36 -25.5 59t-60.5 23q-39 0 -67 -24.5t-28 -66.5q0 -38 25.5 -60.5t62.5 -22.5z" />
    <glyph glyph-name="nine" unicode="9" horiz-adv-x="571" 
d="M40 163h123q16 -66 87 -66q63 0 105.5 55t54.5 146q-52 -58 -129 -58q-91 0 -147.5 58.5t-56.5 151.5q0 107 69 177t173 70q96 0 163 -68t67 -205q0 -190 -79.5 -313t-225.5 -123q-87 0 -142 47t-62 128zM318 591q-50 0 -83 -40.5t-33 -95.5q0 -47 28.5 -79t73.5 -32
q50 0 82.5 38.5t32.5 90.5q0 51 -27 84.5t-74 33.5z" />
    <glyph glyph-name="colon" unicode=":" horiz-adv-x="245" 
d="M60 290l25 141h136l-25 -141h-136zM10 0l25 141h135l-24 -141h-136z" />
    <glyph glyph-name="semicolon" unicode=";" horiz-adv-x="245" 
d="M-18 -157l12 67q64 0 75 66l4 24h-63l25 141h135l-30 -175q-10 -60 -52.5 -91.5t-105.5 -31.5zM60 290l25 141h136l-25 -141h-136z" />
    <glyph glyph-name="semicolon" unicode="&#x37e;" horiz-adv-x="245" 
d="M-18 -157l12 67q64 0 75 66l4 24h-63l25 141h135l-30 -175q-10 -60 -52.5 -91.5t-105.5 -31.5zM60 290l25 141h136l-25 -141h-136z" />
    <glyph glyph-name="less" unicode="&#x3c;" horiz-adv-x="435" 
d="M356 34l-324 175l22 123l386 176l-24 -135l-261 -106l224 -106z" />
    <glyph glyph-name="equal" unicode="=" horiz-adv-x="468" 
d="M55 332l18 110h387l-18 -110h-387zM17 118l19 110h387l-19 -110h-387z" />
    <glyph glyph-name="greater" unicode="&#x3e;" horiz-adv-x="435" 
d="M83 507l326 -175l-22 -123l-386 -176l23 135l260 106l-224 106z" />
    <glyph glyph-name="question" unicode="?" horiz-adv-x="508" 
d="M175 203l6 36q7 45 27 77.5t38 47.5t49 33q54 32 74 57.5t20 57.5q0 33 -21.5 54t-60.5 21q-48 0 -79.5 -31t-37.5 -77h-119q9 97 75 157.5t168 60.5q88 0 143.5 -50t55.5 -129q0 -64 -33.5 -108.5t-103.5 -82.5q-40 -22 -60.5 -43.5t-26.5 -55.5l-4 -25h-110zM126 0
l24 138h135l-24 -138h-135z" />
    <glyph glyph-name="at" unicode="@" horiz-adv-x="769" 
d="M425 -13q-158 0 -261 98.5t-103 262.5q0 155 102.5 258.5t250.5 103.5q83 0 155.5 -33t120.5 -103t48 -163q0 -98 -55.5 -168.5t-131.5 -70.5q-78 0 -101 63q-44 -65 -110 -65q-65 0 -94 55.5t-5 140.5q21 70 68.5 114.5t98.5 44.5t73 -48l10 32h94l-59 -194
q-7 -28 0 -42.5t25 -14.5q38 0 66 45.5t28 106.5q0 106 -69.5 162.5t-162.5 56.5q-110 0 -184 -78.5t-74 -201.5q0 -132 74.5 -205.5t194.5 -73.5q113 0 190 62h113q-45 -65 -121.5 -105t-180.5 -40zM361 260q23 0 44.5 24t34.5 65q27 91 -24 91q-22 0 -43 -24t-34 -67
q-13 -41 -6.5 -65t28.5 -24z" />
    <glyph glyph-name="A" unicode="A" horiz-adv-x="633" 
d="M448 0l-22 138h-259l-69 -138h-131l358 680h130l121 -680h-128zM338 480l-118 -235h188l-37 233q-6 31 -6 68l-5 -12l-11.5 -29t-10.5 -25z" />
    <glyph glyph-name="B" unicode="B" horiz-adv-x="624" 
d="M22 0l119 680h265q88 0 137.5 -45t49.5 -119q0 -120 -111 -157q98 -45 98 -154q0 -102 -69 -153.5t-178 -51.5h-311zM164 111h163q126 0 126 102q0 86 -98 86h-158zM216 410h145q107 0 107 87q0 31 -19 52t-57 21h-147z" />
    <glyph glyph-name="C" unicode="C" horiz-adv-x="717" 
d="M365 -12q-142 0 -226 93.5t-84 232.5q0 158 100 270.5t247 112.5q110 0 189.5 -62.5t99.5 -162.5h-132q-20 53 -56 82.5t-100 29.5q-97 0 -157 -76t-60 -192q0 -100 48 -157.5t134 -57.5q67 0 109.5 34t62.5 81h136q-29 -107 -113.5 -167.5t-197.5 -60.5z" />
    <glyph glyph-name="D" unicode="D" horiz-adv-x="658" 
d="M22 0l119 680h195q135 0 217 -83t82 -216q0 -179 -106 -280t-269 -101h-238zM165 115h101q81 0 137 39.5t79.5 97.5t23.5 128q0 23 -4 45.5t-16 48.5t-31 46t-51.5 33t-75.5 13h-83z" />
    <glyph glyph-name="E" unicode="E" horiz-adv-x="570" 
d="M22 0l119 680h458l-20 -114h-334l-28 -156h282l-20 -113h-282l-32 -183h342l-20 -114h-465z" />
    <glyph glyph-name="F" unicode="F" horiz-adv-x="544" 
d="M22 0l119 680h443l-20 -114h-319l-30 -170h272l-20 -114h-272l-49 -282h-124z" />
    <glyph glyph-name="G" unicode="G" horiz-adv-x="724" 
d="M350 -12q-130 0 -212.5 94t-82.5 230q0 160 100.5 272.5t253.5 112.5q112 0 186.5 -65t93.5 -151h-135q-15 41 -50 72t-97 31q-100 0 -160.5 -76.5t-60.5 -193.5q0 -99 47 -157t129 -58q80 0 131.5 44.5t63.5 113.5h-173l20 112h290l-65 -369h-115l12 67
q-57 -79 -176 -79z" />
    <glyph glyph-name="H" unicode="H" horiz-adv-x="661" 
d="M22 0l119 680h124l-48 -276h279l49 276h124l-119 -680h-124l50 291h-279l-50 -291h-125z" />
    <glyph glyph-name="I" unicode="I" horiz-adv-x="263" 
d="M25 0l119 680h124l-118 -680h-125z" />
    <glyph glyph-name="J" unicode="J" horiz-adv-x="508" 
d="M216 -10q-107 0 -162.5 57t-38.5 167l4 27h125l-5 -33q-16 -105 77 -105q81 0 98 98l83 479h126l-86 -494q-35 -196 -221 -196z" />
    <glyph glyph-name="K" unicode="K" horiz-adv-x="620" 
d="M22 0l119 680h124l-50 -287l305 287h154l-306 -287l195 -393h-137l-153 305l-88 -83l-38 -222h-125z" />
    <glyph glyph-name="L" unicode="L" horiz-adv-x="526" 
d="M22 0l119 680h124l-99 -567h307l-20 -113h-431z" />
    <glyph glyph-name="M" unicode="M" horiz-adv-x="792" 
d="M22 0l119 680h176l67 -512l232 512h185l-119 -680h-122l90 512l-232 -512h-131l-56 512l-89 -512h-120z" />
    <glyph glyph-name="N" unicode="N" horiz-adv-x="663" 
d="M22 0l119 680h141l185 -504l88 504h116l-119 -680h-140l-186 504l-88 -504h-116z" />
    <glyph glyph-name="O" unicode="O" horiz-adv-x="731" 
d="M358 -12q-137 0 -220 94t-83 232q0 159 98.5 271t248.5 112q135 0 219 -94t84 -232q0 -160 -97.5 -271.5t-249.5 -111.5zM364 101q95 0 153.5 78.5t58.5 191.5q0 98 -48.5 155.5t-127.5 57.5q-94 0 -154 -76.5t-60 -191.5q0 -99 48.5 -157t129.5 -58z" />
    <glyph glyph-name="P" unicode="P" horiz-adv-x="592" 
d="M22 0l119 680h234q100 0 160.5 -55.5t60.5 -144.5q0 -103 -71 -168.5t-193 -65.5h-143l-42 -246h-125zM209 358h123q138 0 138 118q0 41 -27 66t-74 25h-123z" />
    <glyph glyph-name="Q" unicode="Q" horiz-adv-x="729" 
d="M686 0h-145l-25 28q-75 -40 -161 -40q-136 0 -218 93.5t-82 232.5q0 159 98.5 271t248.5 112q135 0 219 -94t84 -232q0 -165 -103 -276zM361 99q44 0 80 14l-114 131h145l55 -63q49 73 49 190q0 98 -48.5 155.5t-127.5 57.5q-94 0 -154 -76.5t-60 -191.5
q0 -100 47.5 -158.5t127.5 -58.5z" />
    <glyph glyph-name="R" unicode="R" horiz-adv-x="632" 
d="M22 0l119 680h270q92 0 149.5 -50.5t57.5 -135.5q0 -66 -35 -112.5t-100 -66.5q42 -20 57 -47t12 -91l-4 -91q-2 -50 14 -86h-122q-18 32 -15 79l5 99q2 48 -15.5 68.5t-63.5 20.5h-159l-46 -267h-124zM211 375h158q57 0 89.5 27t32.5 78q0 83 -94 83h-153z" />
    <glyph glyph-name="S" unicode="S" horiz-adv-x="617" 
d="M303 -12q-125 0 -201 60.5t-82 172.5h124q5 -58 44.5 -89.5t112.5 -32.5q64 -1 102 23.5t38 66.5q0 37 -33.5 58t-127.5 53q-97 34 -139.5 78.5t-42.5 122.5q0 85 70 140.5t179 55.5q65 0 114 -19.5t76.5 -52t40.5 -68.5t12 -73h-127q-8 102 -124 102q-51 0 -83.5 -20.5
t-32.5 -57.5q0 -34 26 -54t100 -45q111 -38 164.5 -83t53.5 -129q0 -94 -71.5 -151.5t-192.5 -57.5z" />
    <glyph glyph-name="T" unicode="T" horiz-adv-x="540" 
d="M163 0l99 566h-182l20 114h488l-20 -114h-182l-99 -566h-124z" />
    <glyph glyph-name="U" unicode="U" horiz-adv-x="626" 
d="M64 280l71 400h124l-72 -412q-29 -169 102 -169q123 0 150 153l75 428h126l-79 -446q-43 -246 -277 -246q-129 0 -187 76t-33 216z" />
    <glyph glyph-name="V" unicode="V" horiz-adv-x="579" 
d="M182 0l-99 680h129l50 -425q7 -61 7 -108q1 2 8 21.5t18 45.5t18 41l199 425h133l-337 -680h-126z" />
    <glyph glyph-name="W" unicode="W" horiz-adv-x="851" 
d="M130 0l-47 680h128l17 -357q2 -52 2 -123q10 41 47 121l161 359h120l36 -356q6 -62 6 -124q8 31 43 119l141 361h132l-284 -680h-125l-34 394q-5 51 -5 110q-14 -41 -41 -107l-172 -397h-125z" />
    <glyph glyph-name="X" unicode="X" horiz-adv-x="584" 
d="M-35 0l271 348l-142 332h140l90 -233l172 233h145l-261 -332l150 -348h-140l-98 249l-182 -249h-145z" />
    <glyph glyph-name="Y" unicode="Y" horiz-adv-x="577" 
d="M181 0l46 261l-146 419h136l93 -294l196 294h139l-293 -421l-45 -259h-126z" />
    <glyph glyph-name="Z" unicode="Z" horiz-adv-x="558" 
d="M-16 0l19 109l413 457h-321l20 114h479l-19 -108l-413 -458h342l-20 -114h-500z" />
    <glyph glyph-name="bracketleft" unicode="[" horiz-adv-x="326" 
d="M2 -121l157 905h231l-18 -101h-117l-122 -703h117l-17 -101h-231z" />
    <glyph glyph-name="backslash" unicode="\" horiz-adv-x="354" 
d="M294 -122h-117l-95 906h117z" />
    <glyph glyph-name="bracketright" unicode="]" horiz-adv-x="326" 
d="M351 783l-159 -905h-231l18 101h118l123 703h-118l18 101h231z" />
    <glyph glyph-name="asciicircum" unicode="^" horiz-adv-x="544" 
d="M36 244l257 436h106l105 -436h-124l-63 278l-162 -278h-119z" />
    <glyph glyph-name="underscore" unicode="_" horiz-adv-x="527" 
d="M-71 -176l19 106h518l-18 -106h-519z" />
    <glyph glyph-name="grave" unicode="`" horiz-adv-x="515" 
d="M287 593l-82 147h146l25 -147h-89z" />
    <glyph glyph-name="a" unicode="a" horiz-adv-x="596" 
d="M575 515l-68 -390q-11 -63 2 -125h-117q-12 33 -10 73q-50 -85 -149 -85q-82 0 -139 70.5t-57 177.5q0 127 74 209.5t172 82.5q57 0 97.5 -28t61.5 -76l15 91h118zM303 421q-56 0 -98 -50.5t-42 -128.5q0 -67 30 -106t80 -39q55 0 97 50.5t42 131.5q0 63 -30 102.5
t-79 39.5z" />
    <glyph glyph-name="b" unicode="b" horiz-adv-x="604" 
d="M19 0l130 744h120l-51 -295q61 79 155 79q80 0 137.5 -70.5t57.5 -177.5q0 -127 -75 -209.5t-176 -82.5q-60 0 -101.5 30t-61.5 80l-17 -98h-118zM297 97q59 0 102 49.5t43 127.5q0 67 -32.5 107t-82.5 40q-57 0 -101 -51.5t-44 -132.5q0 -62 32 -101t83 -39z" />
    <glyph glyph-name="c" unicode="c" horiz-adv-x="549" 
d="M511 174q-24 -88 -88.5 -137t-153.5 -49q-99 0 -166 70.5t-67 179.5q0 129 81.5 209.5t193.5 80.5q87 0 144.5 -51.5t68.5 -134.5h-123q-19 78 -98 78q-58 0 -99.5 -49.5t-41.5 -129.5q0 -65 29.5 -104.5t81.5 -39.5q41 0 69.5 21.5t41.5 55.5h127z" />
    <glyph glyph-name="d" unicode="d" horiz-adv-x="604" 
d="M626 744l-130 -744h-118l12 67q-61 -79 -152 -79q-84 0 -142.5 70.5t-58.5 177.5q0 127 75 209.5t176 82.5q59 0 100 -30t61 -78l56 324h121zM308 421q-58 0 -101.5 -50.5t-43.5 -128.5q0 -67 31 -106t84 -39q58 0 101.5 50.5t43.5 131.5q0 62 -32 102t-83 40z" />
    <glyph glyph-name="e" unicode="e" horiz-adv-x="569" 
d="M531 218h-377q9 -122 123 -122q34 0 63.5 13t44.5 37h131q-29 -75 -93 -116.5t-153 -41.5q-108 0 -173.5 71.5t-65.5 180.5q0 123 81.5 205.5t191.5 82.5q122 0 185.5 -89t41.5 -221zM296 422q-49 0 -84.5 -30.5t-49.5 -85.5h249q-4 55 -34.5 85.5t-80.5 30.5z" />
    <glyph glyph-name="f" unicode="f" horiz-adv-x="333" 
d="M12 -125l94 538h-59l17 102h60l7 43q16 97 71.5 141.5t138.5 44.5q31 0 60 -8l-18 -101q-17 5 -35 5q-39 0 -64 -19t-33 -69l-6 -37h106l-18 -102h-106l-94 -538h-121z" />
    <glyph glyph-name="g" unicode="g" horiz-adv-x="600" 
d="M498 12q-21 -116 -86.5 -175t-169.5 -59q-109 0 -173 50t-68 124h127q10 -34 35.5 -50t73.5 -16q117 0 142 137l7 40q-60 -75 -148 -75q-84 0 -142.5 70.5t-58.5 177.5q0 127 75 209.5t176 82.5q60 0 101.5 -31t61.5 -83l17 101h118zM308 421q-58 0 -101.5 -50.5
t-43.5 -128.5q0 -67 31 -106t84 -39q58 0 101.5 50.5t43.5 131.5q0 62 -32 102t-83 40z" />
    <glyph glyph-name="h" unicode="h" horiz-adv-x="559" 
d="M19 0l130 744h120l-52 -301q57 85 148 85q78 0 119 -64.5t22 -170.5l-52 -293h-120l52 300q9 53 -10 85.5t-67 32.5q-97 0 -116 -111l-53 -307h-121z" />
    <glyph glyph-name="i" unicode="i" horiz-adv-x="253" 
d="M21 0l90 515h121l-90 -515h-121zM121 589l22 125h126l-21 -125h-127z" />
    <glyph glyph-name="j" unicode="j" horiz-adv-x="253" 
d="M-71 -209h-35l18 104h21q69 0 80 62l98 558h121l-100 -571q-15 -82 -64.5 -117.5t-138.5 -35.5zM121 589l22 125h126l-21 -125h-127z" />
    <glyph glyph-name="k" unicode="k" horiz-adv-x="528" 
d="M19 0l130 744h120l-76 -438l217 209h141l-226 -215l145 -300h-127l-106 217l-72 -69l-25 -148h-121z" />
    <glyph glyph-name="l" unicode="l" horiz-adv-x="253" 
d="M21 0l130 744h120l-129 -744h-121z" />
    <glyph glyph-name="m" unicode="m" horiz-adv-x="860" 
d="M360 528q94 0 126 -95q72 95 179 95q77 0 118 -64.5t22 -170.5l-52 -293h-120l52 300q9 53 -8.5 85.5t-63.5 32.5q-94 0 -113 -111l-53 -307h-121l52 300q9 53 -8.5 85.5t-63.5 32.5q-94 0 -113 -111l-53 -307h-121l90 515h118l-14 -78q56 91 147 91z" />
    <glyph glyph-name="n" unicode="n" horiz-adv-x="559" 
d="M19 0l90 515h118l-14 -78q56 91 152 91q78 0 119 -64.5t22 -170.5l-52 -293h-120l52 300q9 53 -10 85.5t-67 32.5q-97 0 -116 -111l-53 -307h-121z" />
    <glyph glyph-name="o" unicode="o" horiz-adv-x="582" 
d="M311 528q99 0 167 -73t68 -181q0 -129 -79.5 -207.5t-194.5 -78.5q-99 0 -167 72.5t-68 180.5q0 124 80.5 205.5t193.5 81.5zM280 96q59 0 100 50.5t41 128.5q0 65 -33 105t-85 40q-59 0 -100.5 -50t-41.5 -129q0 -68 32.5 -106.5t86.5 -38.5z" />
    <glyph glyph-name="p" unicode="p" horiz-adv-x="604" 
d="M-18 -209l127 724h118l-13 -72q57 85 159 85q80 0 137.5 -70.5t57.5 -177.5q0 -127 -75 -209.5t-176 -82.5q-60 0 -101 28.5t-61 76.5l-52 -302h-121zM297 97q59 0 102 49.5t43 127.5q0 67 -32.5 107t-82.5 40q-57 0 -101 -51.5t-44 -132.5q0 -62 32 -101t83 -39z" />
    <glyph glyph-name="q" unicode="q" horiz-adv-x="604" 
d="M586 515l-127 -724h-120l47 272q-60 -75 -148 -75q-84 0 -142.5 70.5t-58.5 177.5q0 127 75 209.5t176 82.5q60 0 101.5 -31t61.5 -83l17 101h118zM308 421q-58 0 -101.5 -50.5t-43.5 -128.5q0 -67 31 -106t84 -39q58 0 101.5 50.5t43.5 131.5q0 62 -32 102t-83 40z" />
    <glyph glyph-name="r" unicode="r" horiz-adv-x="388" 
d="M19 0l90 515h121l-17 -95q65 114 195 101l-22 -122q-73 14 -126 -17.5t-65 -99.5l-49 -282h-127z" />
    <glyph glyph-name="s" unicode="s" horiz-adv-x="510" 
d="M5 159h123q9 -69 113 -69q95 0 98 54q0 23 -24.5 36.5t-82.5 28.5q-40 10 -64.5 19.5t-52.5 27.5t-41 47t-12 69q3 71 57 113.5t149 42.5q97 0 153 -42t62 -112h-121q-15 52 -101 52q-38 0 -59 -12.5t-21 -33.5q-1 -22 20 -35.5t72 -26.5q26 -7 32.5 -9l30.5 -9.5
t32.5 -12.5t27 -15t26 -20.5l17.5 -25.5t13.5 -33t2.5 -40q-3 -80 -60 -122.5t-159 -42.5q-107 0 -170 50t-61 121z" />
    <glyph glyph-name="t" unicode="t" horiz-adv-x="356" 
d="M272 -2q-28 -6 -49 -6q-88 0 -128.5 52t-23.5 144l40 225h-64l17 102h65l25 145h120l-24 -145h106l-17 -102h-107l-41 -229q-15 -85 63 -85q14 0 36 4z" />
    <glyph glyph-name="u" unicode="u" horiz-adv-x="559" 
d="M542 515l-91 -515h-117l14 78q-55 -90 -149 -90q-79 0 -121 63t-23 171l51 293h121l-53 -300q-21 -118 78 -118q46 0 76 29.5t39 81.5l54 307h121z" />
    <glyph glyph-name="v" unicode="v" horiz-adv-x="524" 
d="M160 0l-102 515h125l46 -292q8 -48 8 -100q18 55 41 97l152 295h126l-281 -515h-115z" />
    <glyph glyph-name="w" unicode="w" horiz-adv-x="764" 
d="M118 0l-58 515h126l20 -271v-94q18 54 35 89l130 276h109l38 -272q3 -22 3 -93q28 85 30 89l115 276h130l-240 -515h-117l-33 282q-5 43 -5 84q0 -1 -5 -15.5t-12 -33t-13 -32.5l-134 -285h-119z" />
    <glyph glyph-name="x" unicode="x" horiz-adv-x="505" 
d="M-33 0l219 266l-119 249h135l67 -157l117 157h142l-206 -249l127 -266h-135l-74 175l-131 -175h-142z" />
    <glyph glyph-name="y" unicode="y" horiz-adv-x="523" 
d="M24 -209h-43l19 105h28q81 0 112 60l18 35l-99 524h125l48 -294q8 -47 8 -103q21 63 41 101l148 296h126l-321 -604q-63 -120 -210 -120z" />
    <glyph glyph-name="z" unicode="z" horiz-adv-x="471" 
d="M-19 0l18 100l311 310h-247l19 105h398l-19 -104l-307 -306h265l-21 -105h-417z" />
    <glyph glyph-name="braceleft" unicode="{" horiz-adv-x="339" 
d="M244 -123q-86 -5 -129 45.5t-26 144.5l19 107q10 59 -9.5 86.5t-68.5 29.5l16 93q50 -1 78 23t38 82l23 128q18 100 72 138t145 28l-17 -97q-72 6 -87 -80l-25 -140q-10 -59 -36.5 -90t-78.5 -47q48 -20 62 -55.5t3 -98.5l-20 -112q-7 -44 5 -66.5t53 -21.5z" />
    <glyph glyph-name="bar" unicode="|" horiz-adv-x="269" 
d="M85 -160v904h111v-904h-111z" />
    <glyph glyph-name="braceright" unicode="}" horiz-adv-x="338" 
d="M121 785q86 5 128.5 -45t25.5 -145l-19 -107q-10 -59 9.5 -86.5t69.5 -29.5l-16 -93q-51 1 -79 -23t-38 -82l-23 -128q-18 -100 -72 -138t-145 -28l17 97q72 -6 87 80l25 140q10 59 36.5 90t78.5 47q-47 20 -61 55.5t-3 98.5l19 112q7 44 -5 66.5t-53 21.5z" />
    <glyph glyph-name="asciitilde" unicode="~" horiz-adv-x="426" 
d="M43 211q9 64 39.5 101t77.5 37q31 0 72 -18.5t56 -18.5q31 0 46 42h58q-6 -61 -36.5 -100t-75.5 -39q-30 0 -73 18.5t-58 18.5q-34 0 -48 -41h-58z" />
    <glyph glyph-name="exclamdown" unicode="&#xa1;" horiz-adv-x="289" 
d="M213 372l-65 -477h-132l103 477h94zM268 575l-23 -138h-136l24 138h135z" />
    <glyph glyph-name="cent" unicode="&#xa2;" horiz-adv-x="549" 
d="M78 -110l62 137q-48 33 -76 88t-28 123q0 129 81.5 209.5t193.5 80.5q27 0 53 -6l49 109h70l-60 -131q87 -50 103 -158h-122q-7 29 -28 52l-133 -295q12 -4 30 -4q41 0 71 22.5t43 56.5h126q-24 -88 -89.5 -137t-154.5 -49q-36 0 -71 11l-49 -109h-71zM161 241
q0 -64 29 -104l128 284q-2 0 -7 0.5t-8 0.5q-58 0 -100 -50.5t-42 -130.5z" />
    <glyph glyph-name="sterling" unicode="&#xa3;" horiz-adv-x="538" 
d="M389 370l-14 -83h-122q0 -53 -24.5 -100t-67.5 -78q36 14 62 14q31 0 78 -12t67 -12q36 0 76 33l48 -94q-56 -48 -126 -48q-38 0 -98.5 21t-94.5 21q-51 0 -114 -42l-49 91q137 82 137 196q0 1 -0.5 5t-0.5 5h-100l13 83h68q-20 64 -20 108q0 99 63.5 159t163.5 60
q97 0 154.5 -59.5t53.5 -152.5h-116q2 44 -23 72.5t-73 29.5q-50 1 -77 -29.5t-27 -80.5q0 -26 17 -107h146z" />
    <glyph glyph-name="yen" unicode="&#xa5;" horiz-adv-x="577" 
d="M536 346l-14 -79h-169l-11 -63h169l-14 -79h-169l-21 -125h-126l22 125h-168l14 79h168l11 63h-169l14 79h129l-121 334h138l91 -288l192 288h143l-239 -334h130z" />
    <glyph glyph-name="brokenbar" unicode="&#xa6;" horiz-adv-x="251" 
d="M177 243l-70 -403h-108l70 403h108zM89 359l67 385h108l-67 -385h-108z" />
    <glyph glyph-name="section" unicode="&#xa7;" horiz-adv-x="538" 
d="M44 311q0 95 104 133q-30 39 -30 89q0 71 49.5 117.5t137.5 46.5q83 0 142.5 -43t63.5 -114h-121q-3 21 -24 36.5t-56 15.5t-52.5 -15.5t-17.5 -39.5q0 -21 16 -35.5t60 -28.5q42 -13 71.5 -26t60.5 -33.5t47.5 -49t16.5 -64.5q0 -92 -102 -130q29 -37 29 -84
q0 -72 -51 -121t-140 -49q-85 0 -141 45.5t-57 112.5h118q3 -21 24 -37t56 -16q32 0 50 18t18 43q0 19 -16 31.5t-61 27.5q-43 14 -71 26t-60 32t-48 48t-16 64zM280 248q33 -11 52 -20q55 13 55 54q0 26 -25.5 45.5t-86.5 38.5q-30 9 -49 19q-59 -12 -59 -53
q0 -25 25.5 -44.5t87.5 -39.5z" />
    <glyph glyph-name="dieresis" unicode="&#xa8;" horiz-adv-x="515" 
d="M167 593l20 114h117l-20 -114h-117zM349 593l19 114h117l-20 -114h-116z" />
    <glyph glyph-name="copyright" unicode="&#xa9;" horiz-adv-x="799" 
d="M414 -12q-141 0 -241 104t-100 251q0 146 100 250t241 104t240.5 -104t99.5 -250q0 -147 -99.5 -251t-240.5 -104zM414 37q119 0 202 89t83 217q0 127 -83 216t-202 89q-120 0 -202.5 -89t-82.5 -216q0 -128 82.5 -217t202.5 -89zM418 131q-86 0 -143.5 61.5t-57.5 150.5
q0 88 57.5 149.5t143.5 61.5q71 0 123 -43.5t69 -115.5h-116q-22 52 -75 52q-37 0 -60 -29.5t-23 -74.5q0 -44 23 -74t60 -30q57 0 75 52h116q-14 -72 -67 -116t-125 -44z" />
    <glyph glyph-name="ordfeminine" unicode="&#xaa;" horiz-adv-x="454" 
d="M54 383q0 116 167 127q131 9 131 60q0 42 -71 42q-26 0 -47.5 -13.5t-28.5 -36.5h-110q13 60 65 97.5t127 37.5q92 0 135 -44.5t31 -118.5l-29 -173q-8 -47 0 -87h-105q-5 16 -3 57q-17 -29 -51 -48t-78 -19q-56 0 -94.5 33.5t-38.5 85.5zM218 347q44 0 75.5 22.5
t37.5 58.5l7 40q-41 -22 -110 -29q-66 -6 -66 -51q0 -41 56 -41z" />
    <glyph glyph-name="guillemotleft" unicode="&#xab;" horiz-adv-x="478" 
d="M400 46l-156 169l15 89l215 169l-24 -145l-109 -77l81 -79zM183 46l-155 169l16 89l213 169l-24 -145l-108 -77l80 -79z" />
    <glyph glyph-name="logicalnot" unicode="&#xac;" 
d="M53 267l24 141h136l-25 -141h-135z" />
    <glyph glyph-name="registered" unicode="&#xae;" horiz-adv-x="560" 
d="M314 200q-99 0 -169 72.5t-70 175.5t70 175.5t169 72.5t168.5 -72.5t69.5 -175.5t-69.5 -175.5t-168.5 -72.5zM314 252q80 0 130.5 56.5t50.5 139.5q0 82 -51 139t-130 57t-130 -57t-51 -139q0 -83 50.5 -139.5t130.5 -56.5zM210 322v254h120q46 0 72 -21.5t26 -59.5
q0 -44 -40 -59q39 -14 39 -55v-59h-76v50q0 29 -29 29h-37v-79h-75zM285 459h31q33 0 33 28t-33 28h-31v-56z" />
    <glyph glyph-name="macron" unicode="&#xaf;" horiz-adv-x="515" 
d="M192 606l15 84h252l-14 -84h-253z" />
    <glyph glyph-name="macron" unicode="&#x2c9;" horiz-adv-x="515" 
d="M192 606l15 84h252l-14 -84h-253z" />
    <glyph glyph-name="degree" unicode="&#xb0;" horiz-adv-x="366" 
d="M83 537q0 67 46.5 113.5t110.5 46.5q60 0 100.5 -42.5t40.5 -104.5q0 -67 -46 -113.5t-111 -46.5q-60 0 -100.5 42.5t-40.5 104.5zM226 461q33 0 55 27t22 64q0 33 -17.5 53.5t-47.5 20.5q-34 0 -55.5 -27t-21.5 -65q0 -33 18 -53t47 -20z" />
    <glyph glyph-name="plusminus" unicode="&#xb1;" 
d="M53 267l24 141h136l-25 -141h-135z" />
    <glyph glyph-name="twosuperior" unicode="&#xb2;" horiz-adv-x="368" 
d="M48 272l7 45q16 104 150 169q45 22 63 41t18 44q0 18 -12 30.5t-31 12.5q-22 0 -37 -16.5t-18 -39.5h-91q5 57 45.5 96t106.5 39q58 0 93 -34.5t35 -86.5q0 -58 -34 -91t-101 -65q-68 -33 -76 -67h175l-14 -77h-279z" />
    <glyph glyph-name="threesuperior" unicode="&#xb3;" horiz-adv-x="393" 
d="M66 409h93q0 -62 62 -62q27 0 44 17t17 37q0 19 -13 31.5t-27 12.5h-34l13 76h20q20 0 34.5 14t14.5 35q0 19 -11.5 31.5t-32.5 12.5q-22 0 -38 -15.5t-18 -36.5h-93q9 59 49 95.5t107 36.5q63 0 97.5 -34t34.5 -80q0 -32 -18 -57.5t-49 -37.5q28 -10 43.5 -35t15.5 -57
q0 -49 -42 -89t-114 -40q-79 0 -119 44t-36 101z" />
    <glyph glyph-name="acute" unicode="&#xb4;" horiz-adv-x="515" 
d="M347 593h-93l68 147h152z" />
    <glyph glyph-name="mu" unicode="&#xb5;" 
d="M53 267l24 141h136l-25 -141h-135z" />
    <glyph glyph-name="mu" unicode="&#x3bc;" 
d="M53 267l24 141h136l-25 -141h-135z" />
    <glyph glyph-name="paragraph" unicode="&#xb6;" horiz-adv-x="587" 
d="M185 -140l76 380h-1q-89 0 -143 58.5t-54 144.5q0 109 71.5 173t186.5 64h274l-144 -820h-98l127 725h-70l-127 -725h-98z" />
    <glyph glyph-name="periodcentered" unicode="&#xb7;" 
d="M53 267l24 141h136l-25 -141h-135z" />
    <glyph glyph-name="periodcentered" unicode="&#x2219;" 
d="M53 267l24 141h136l-25 -141h-135z" />
    <glyph glyph-name="cedilla" unicode="&#xb8;" horiz-adv-x="515" 
d="M258 0l-53 -56q5 1 16 1q36 0 61.5 -23.5t25.5 -63.5q0 -44 -33.5 -69t-80.5 -25q-43 0 -75 21.5t-42 57.5h74q8 -23 40 -23q16 0 29 10t13 26q0 17 -11.5 27.5t-28.5 10.5q-24 0 -39 -17l-38 34l75 89h67z" />
    <glyph glyph-name="onesuperior" unicode="&#xb9;" horiz-adv-x="298" 
d="M135 272l45 260h-81l12 67q98 2 118 81h73l-71 -408h-96z" />
    <glyph glyph-name="ordmasculine" unicode="&#xba;" horiz-adv-x="481" 
d="M295 696q79 0 135 -58.5t56 -144.5q0 -103 -65 -166t-157 -63q-80 0 -135.5 58t-55.5 144q0 99 65.5 164.5t156.5 65.5zM270 356q46 0 78.5 38.5t32.5 98.5q0 50 -26 80t-66 30q-46 0 -78.5 -38t-32.5 -99q0 -52 25.5 -81t66.5 -29z" />
    <glyph glyph-name="guillemotright" unicode="&#xbb;" horiz-adv-x="488" 
d="M80 473l157 -169l-16 -89l-215 -169l25 145l109 77l-82 79zM297 473l155 -169l-15 -89l-214 -169l25 145l107 77l-80 79z" />
    <glyph glyph-name="onequarter" unicode="&#xbc;" horiz-adv-x="856" 
d="M619 0l14 78h-188l13 78l216 252h102l-44 -256h61l-13 -74h-61l-14 -78h-86zM123 0l477 680h97l-477 -680h-97zM125 272l45 260h-81l12 67q98 2 118 81h73l-71 -408h-96zM545 152h101l26 156z" />
    <glyph glyph-name="onehalf" unicode="&#xbd;" horiz-adv-x="855" 
d="M477 0l8 45q19 106 150 169q45 21 63 40.5t18 44.5q0 18 -12 30.5t-32 12.5q-21 0 -36 -16.5t-18 -39.5h-91q5 57 45.5 96t105.5 39q58 0 93.5 -34.5t35.5 -86.5q0 -58 -34 -91t-102 -65q-67 -32 -75 -67h174l-14 -77h-279zM123 0l477 680h97l-477 -680h-97zM125 272
l45 260h-81l12 67q98 2 118 81h73l-71 -408h-96z" />
    <glyph glyph-name="threequarters" unicode="&#xbe;" horiz-adv-x="943" 
d="M705 0l14 78h-188l14 78l215 252h102l-44 -256h61l-13 -74h-61l-14 -78h-86zM67 409h93q0 -62 62 -62q27 0 44 17t17 37q0 19 -13 31.5t-27 12.5h-34l13 76h20q20 0 34.5 14t14.5 35q0 19 -11.5 31.5t-32.5 12.5q-22 0 -38 -15.5t-18 -36.5h-93q9 59 49 95.5t107 36.5
q63 0 97.5 -34t34.5 -80q0 -32 -18 -57.5t-49 -37.5q28 -10 43.5 -35t15.5 -57q0 -49 -42 -89t-114 -40q-79 0 -119 44t-36 101zM209 0l477 680h97l-477 -680h-97zM631 152h101l26 156z" />
    <glyph glyph-name="questiondown" unicode="&#xbf;" horiz-adv-x="508" 
d="M344 372l-6 -36q-7 -45 -27 -77.5t-38 -47.5t-49 -33q-54 -32 -74 -57.5t-20 -57.5q0 -33 21.5 -54t60.5 -21q48 0 79.5 31t37.5 77h119q-9 -97 -75 -157.5t-168 -60.5q-88 0 -143.5 50t-55.5 129q0 64 33.5 108.5t103.5 82.5q40 22 60.5 43.5t26.5 55.5l4 25h110z
M393 575l-24 -138h-135l23 138h136z" />
    <glyph glyph-name="Agrave" unicode="&#xc0;" horiz-adv-x="633" 
d="M448 0l-22 138h-259l-69 -138h-131l358 680h130l121 -680h-128zM338 480l-118 -235h188l-37 233q-6 31 -6 68l-5 -12l-11.5 -29t-10.5 -25zM345 730l-82 147h146l25 -147h-89z" />
    <glyph glyph-name="Aacute" unicode="&#xc1;" horiz-adv-x="633" 
d="M448 0l-22 138h-259l-69 -138h-131l358 680h130l121 -680h-128zM338 480l-118 -235h188l-37 233q-6 31 -6 68l-5 -12l-11.5 -29t-10.5 -25zM441 730h-93l68 147h152z" />
    <glyph glyph-name="Acircumflex" unicode="&#xc2;" horiz-adv-x="633" 
d="M448 0l-22 138h-259l-69 -138h-131l358 680h130l121 -680h-128zM338 480l-118 -235h188l-37 233q-6 31 -6 68l-5 -12l-11.5 -29t-10.5 -25zM231 730l149 154h77l100 -154h-101l-49 71l-69 -71h-107z" />
    <glyph glyph-name="Atilde" unicode="&#xc3;" horiz-adv-x="633" 
d="M448 0l-22 138h-259l-69 -138h-131l358 680h130l121 -680h-128zM338 480l-118 -235h188l-37 233q-6 31 -6 68l-5 -12l-11.5 -29t-10.5 -25zM239 727q10 57 40 94t76 37q27 0 63 -22t49 -22q31 0 42 44h60q-10 -58 -39 -94.5t-73 -36.5q-27 0 -64.5 21.5t-50.5 21.5
q-31 0 -43 -43h-60z" />
    <glyph glyph-name="Adieresis" unicode="&#xc4;" horiz-adv-x="633" 
d="M448 0l-22 138h-259l-69 -138h-131l358 680h130l121 -680h-128zM338 480l-118 -235h188l-37 233q-6 31 -6 68l-5 -12l-11.5 -29t-10.5 -25zM245 730l20 114h117l-20 -114h-117zM427 730l19 114h117l-20 -114h-116z" />
    <glyph glyph-name="Aring" unicode="&#xc5;" horiz-adv-x="633" 
d="M448 0l-22 138h-259l-69 -138h-131l358 680h130l121 -680h-128zM338 480l-118 -235h188l-37 233q-6 31 -6 68l-5 -12l-11.5 -29t-10.5 -25zM400 722q-45 0 -76.5 31t-31.5 75t31.5 75.5t76.5 31.5q44 0 76 -31.5t32 -75.5q0 -43 -32 -74.5t-76 -31.5zM400 777q19 0 33 15
t14 36t-14 36t-33 15q-20 0 -34 -15t-14 -36t14 -36t34 -15z" />
    <glyph glyph-name="AE" unicode="&#xc6;" horiz-adv-x="931" 
d="M92 0h-125l405 680h587l-19 -114h-335l-28 -156h282l-19 -113h-283l-31 -183h341l-20 -114h-465l24 136h-234zM428 566l-192 -323h188l57 323h-53z" />
    <glyph glyph-name="Ccedilla" unicode="&#xc7;" horiz-adv-x="727" 
d="M676 216q-27 -99 -102.5 -159t-178.5 -68l-43 -45q5 1 16 1q36 0 61.5 -23.5t25.5 -63.5q0 -44 -33.5 -69t-80.5 -25q-43 0 -75 21.5t-42 57.5h74q8 -23 40 -23q16 0 29 10t13 26q0 17 -11.5 27.5t-28.5 10.5q-24 0 -39 -17l-38 34l66 79q-127 12 -200.5 103t-73.5 221
q0 158 100 270.5t247 112.5q110 0 189.5 -62.5t99.5 -162.5h-132q-20 53 -56 82.5t-100 29.5q-97 0 -157 -76t-60 -192q0 -100 48 -157.5t134 -57.5q67 0 109.5 34t62.5 81h136z" />
    <glyph glyph-name="Egrave" unicode="&#xc8;" horiz-adv-x="570" 
d="M22 0l119 680h458l-20 -114h-334l-28 -156h282l-20 -113h-282l-32 -183h342l-20 -114h-465zM329 730l-82 147h146l25 -147h-89z" />
    <glyph glyph-name="Eacute" unicode="&#xc9;" horiz-adv-x="570" 
d="M22 0l119 680h458l-20 -114h-334l-28 -156h282l-20 -113h-282l-32 -183h342l-20 -114h-465zM425 730h-93l68 147h152z" />
    <glyph glyph-name="Ecircumflex" unicode="&#xca;" horiz-adv-x="570" 
d="M22 0l119 680h458l-20 -114h-334l-28 -156h282l-20 -113h-282l-32 -183h342l-20 -114h-465zM215 730l149 154h77l100 -154h-101l-49 71l-69 -71h-107z" />
    <glyph glyph-name="Edieresis" unicode="&#xcb;" horiz-adv-x="570" 
d="M22 0l119 680h458l-20 -114h-334l-28 -156h282l-20 -113h-282l-32 -183h342l-20 -114h-465zM229 730l20 114h117l-20 -114h-117zM411 730l19 114h117l-20 -114h-116z" />
    <glyph glyph-name="Igrave" unicode="&#xcc;" horiz-adv-x="263" 
d="M25 0l119 680h124l-118 -680h-125zM164 730l-82 147h146l25 -147h-89z" />
    <glyph glyph-name="Iacute" unicode="&#xcd;" horiz-adv-x="263" 
d="M25 0l119 680h124l-118 -680h-125zM260 730h-93l68 147h152z" />
    <glyph glyph-name="Icircumflex" unicode="&#xce;" horiz-adv-x="263" 
d="M25 0l119 680h124l-118 -680h-125zM50 730l149 154h77l100 -154h-101l-49 71l-69 -71h-107z" />
    <glyph glyph-name="Idieresis" unicode="&#xcf;" horiz-adv-x="263" 
d="M25 0l119 680h124l-118 -680h-125zM64 730l20 114h117l-20 -114h-117zM246 730l19 114h117l-20 -114h-116z" />
    <glyph glyph-name="Eth" unicode="&#xd0;" horiz-adv-x="668" 
d="M32 0l50 288h-65l20 113h65l49 279h195q135 0 217 -83t82 -216q0 -179 -106 -280t-269 -101h-238zM175 115h101q81 0 137 39.5t79.5 97.5t23.5 128q0 23 -4 45.5t-16 48.5t-31 46t-51.5 33t-75.5 13h-84l-29 -165h164l-20 -113h-164z" />
    <glyph glyph-name="Ntilde" unicode="&#xd1;" horiz-adv-x="663" 
d="M22 0l119 680h141l185 -504l88 504h116l-119 -680h-140l-186 504l-88 -504h-116zM262 727q10 57 40 94t76 37q27 0 63 -22t49 -22q31 0 42 44h60q-10 -58 -39 -94.5t-73 -36.5q-27 0 -64.5 21.5t-50.5 21.5q-31 0 -43 -43h-60z" />
    <glyph glyph-name="Ograve" unicode="&#xd2;" horiz-adv-x="731" 
d="M358 -12q-137 0 -220 94t-83 232q0 159 98.5 271t248.5 112q135 0 219 -94t84 -232q0 -160 -97.5 -271.5t-249.5 -111.5zM364 101q95 0 153.5 78.5t58.5 191.5q0 98 -48.5 155.5t-127.5 57.5q-94 0 -154 -76.5t-60 -191.5q0 -99 48.5 -157t129.5 -58zM373 730l-82 147
h146l25 -147h-89z" />
    <glyph glyph-name="Oacute" unicode="&#xd3;" horiz-adv-x="731" 
d="M358 -12q-137 0 -220 94t-83 232q0 159 98.5 271t248.5 112q135 0 219 -94t84 -232q0 -160 -97.5 -271.5t-249.5 -111.5zM364 101q95 0 153.5 78.5t58.5 191.5q0 98 -48.5 155.5t-127.5 57.5q-94 0 -154 -76.5t-60 -191.5q0 -99 48.5 -157t129.5 -58zM469 730h-93l68 147
h152z" />
    <glyph glyph-name="Ocircumflex" unicode="&#xd4;" horiz-adv-x="731" 
d="M358 -12q-137 0 -220 94t-83 232q0 159 98.5 271t248.5 112q135 0 219 -94t84 -232q0 -160 -97.5 -271.5t-249.5 -111.5zM364 101q95 0 153.5 78.5t58.5 191.5q0 98 -48.5 155.5t-127.5 57.5q-94 0 -154 -76.5t-60 -191.5q0 -99 48.5 -157t129.5 -58zM259 730l149 154h77
l100 -154h-101l-49 71l-69 -71h-107z" />
    <glyph glyph-name="Otilde" unicode="&#xd5;" horiz-adv-x="731" 
d="M358 -12q-137 0 -220 94t-83 232q0 159 98.5 271t248.5 112q135 0 219 -94t84 -232q0 -160 -97.5 -271.5t-249.5 -111.5zM364 101q95 0 153.5 78.5t58.5 191.5q0 98 -48.5 155.5t-127.5 57.5q-94 0 -154 -76.5t-60 -191.5q0 -99 48.5 -157t129.5 -58zM267 727
q10 57 40 94t76 37q27 0 63 -22t49 -22q31 0 42 44h60q-10 -58 -39 -94.5t-73 -36.5q-27 0 -64.5 21.5t-50.5 21.5q-31 0 -43 -43h-60z" />
    <glyph glyph-name="Odieresis" unicode="&#xd6;" horiz-adv-x="731" 
d="M358 -12q-137 0 -220 94t-83 232q0 159 98.5 271t248.5 112q135 0 219 -94t84 -232q0 -160 -97.5 -271.5t-249.5 -111.5zM364 101q95 0 153.5 78.5t58.5 191.5q0 98 -48.5 155.5t-127.5 57.5q-94 0 -154 -76.5t-60 -191.5q0 -99 48.5 -157t129.5 -58zM273 730l20 114h117
l-20 -114h-117zM455 730l19 114h117l-20 -114h-116z" />
    <glyph glyph-name="multiply" unicode="&#xd7;" horiz-adv-x="486" 
d="M97 88l-66 77l147 133l-102 131l81 73l102 -131l145 131l65 -77l-148 -134l103 -130l-80 -73l-103 130z" />
    <glyph glyph-name="Oslash" unicode="&#xd8;" horiz-adv-x="731" 
d="M35 -32l-47 53l115 108q-48 81 -48 185q0 159 98.5 271t248.5 112q129 0 213 -89l108 101l48 -52l-113 -106q47 -81 47 -180q0 -160 -97.5 -271.5t-249.5 -111.5q-127 0 -211 84zM186 316q0 -52 14 -96l328 306q-49 58 -128 58q-94 0 -154 -76.5t-60 -191.5zM364 101
q95 0 153.5 78.5t58.5 191.5q0 47 -13 91l-327 -306q46 -55 128 -55z" />
    <glyph glyph-name="Ugrave" unicode="&#xd9;" horiz-adv-x="626" 
d="M64 280l71 400h124l-72 -412q-29 -169 102 -169q123 0 150 153l75 428h126l-79 -446q-43 -246 -277 -246q-129 0 -187 76t-33 216zM338 730l-82 147h146l25 -147h-89z" />
    <glyph glyph-name="Uacute" unicode="&#xda;" horiz-adv-x="626" 
d="M64 280l71 400h124l-72 -412q-29 -169 102 -169q123 0 150 153l75 428h126l-79 -446q-43 -246 -277 -246q-129 0 -187 76t-33 216zM434 730h-93l68 147h152z" />
    <glyph glyph-name="Ucircumflex" unicode="&#xdb;" horiz-adv-x="626" 
d="M64 280l71 400h124l-72 -412q-29 -169 102 -169q123 0 150 153l75 428h126l-79 -446q-43 -246 -277 -246q-129 0 -187 76t-33 216zM224 730l149 154h77l100 -154h-101l-49 71l-69 -71h-107z" />
    <glyph glyph-name="Udieresis" unicode="&#xdc;" horiz-adv-x="626" 
d="M64 280l71 400h124l-72 -412q-29 -169 102 -169q123 0 150 153l75 428h126l-79 -446q-43 -246 -277 -246q-129 0 -187 76t-33 216zM238 730l20 114h117l-20 -114h-117zM420 730l19 114h117l-20 -114h-116z" />
    <glyph glyph-name="Yacute" unicode="&#xdd;" horiz-adv-x="577" 
d="M181 0l46 261l-146 419h136l93 -294l196 294h139l-293 -421l-45 -259h-126zM410 730h-93l68 147h152z" />
    <glyph glyph-name="Thorn" unicode="&#xde;" horiz-adv-x="591" 
d="M22 0l119 680h124l-17 -104h109q100 0 160.5 -55.5t60.5 -144.5q0 -103 -71 -168.5t-193 -65.5h-143l-24 -142h-125zM191 254h123q138 0 138 118q0 41 -27 66t-73 25h-124z" />
    <glyph glyph-name="germandbls" unicode="&#xdf;" horiz-adv-x="583" 
d="M193 10l18 105q35 -16 80 -16q55 0 88 33.5t33 90.5q0 47 -25.5 73.5t-77.5 26.5h-51l19 109h28q55 0 86.5 30.5t31.5 88.5q0 41 -20.5 62.5t-57.5 21.5q-94 0 -115 -121l-112 -639h-121l114 654q18 103 79.5 159t158.5 56q89 0 143.5 -51.5t54.5 -136.5
q0 -123 -112 -172q100 -51 100 -164q0 -99 -60.5 -164.5t-170.5 -65.5q-66 0 -111 20z" />
    <glyph glyph-name="agrave" unicode="&#xe0;" horiz-adv-x="596" 
d="M575 515l-68 -390q-11 -63 2 -125h-117q-12 33 -10 73q-50 -85 -149 -85q-82 0 -139 70.5t-57 177.5q0 127 74 209.5t172 82.5q57 0 97.5 -28t61.5 -76l15 91h118zM303 421q-56 0 -98 -50.5t-42 -128.5q0 -67 30 -106t80 -39q55 0 97 50.5t42 131.5q0 63 -30 102.5
t-79 39.5zM283 593l-82 147h146l25 -147h-89z" />
    <glyph glyph-name="aacute" unicode="&#xe1;" horiz-adv-x="596" 
d="M575 515l-68 -390q-11 -63 2 -125h-117q-12 33 -10 73q-50 -85 -149 -85q-82 0 -139 70.5t-57 177.5q0 127 74 209.5t172 82.5q57 0 97.5 -28t61.5 -76l15 91h118zM303 421q-56 0 -98 -50.5t-42 -128.5q0 -67 30 -106t80 -39q55 0 97 50.5t42 131.5q0 63 -30 102.5
t-79 39.5zM379 593h-93l68 147h152z" />
    <glyph glyph-name="acircumflex" unicode="&#xe2;" horiz-adv-x="596" 
d="M575 515l-68 -390q-11 -63 2 -125h-117q-12 33 -10 73q-50 -85 -149 -85q-82 0 -139 70.5t-57 177.5q0 127 74 209.5t172 82.5q57 0 97.5 -28t61.5 -76l15 91h118zM303 421q-56 0 -98 -50.5t-42 -128.5q0 -67 30 -106t80 -39q55 0 97 50.5t42 131.5q0 63 -30 102.5
t-79 39.5zM169 593l149 154h77l100 -154h-101l-49 71l-69 -71h-107z" />
    <glyph glyph-name="atilde" unicode="&#xe3;" horiz-adv-x="596" 
d="M575 515l-68 -390q-11 -63 2 -125h-117q-12 33 -10 73q-50 -85 -149 -85q-82 0 -139 70.5t-57 177.5q0 127 74 209.5t172 82.5q57 0 97.5 -28t61.5 -76l15 91h118zM303 421q-56 0 -98 -50.5t-42 -128.5q0 -67 30 -106t80 -39q55 0 97 50.5t42 131.5q0 63 -30 102.5
t-79 39.5zM177 590q10 57 40 94t76 37q27 0 63 -22t49 -22q31 0 42 44h60q-10 -58 -39 -94.5t-73 -36.5q-27 0 -64.5 21.5t-50.5 21.5q-31 0 -43 -43h-60z" />
    <glyph glyph-name="adieresis" unicode="&#xe4;" horiz-adv-x="596" 
d="M575 515l-68 -390q-11 -63 2 -125h-117q-12 33 -10 73q-50 -85 -149 -85q-82 0 -139 70.5t-57 177.5q0 127 74 209.5t172 82.5q57 0 97.5 -28t61.5 -76l15 91h118zM303 421q-56 0 -98 -50.5t-42 -128.5q0 -67 30 -106t80 -39q55 0 97 50.5t42 131.5q0 63 -30 102.5
t-79 39.5zM183 593l20 114h117l-20 -114h-117zM365 593l19 114h117l-20 -114h-116z" />
    <glyph glyph-name="aring" unicode="&#xe5;" horiz-adv-x="596" 
d="M575 515l-68 -390q-11 -63 2 -125h-117q-12 33 -10 73q-50 -85 -149 -85q-82 0 -139 70.5t-57 177.5q0 127 74 209.5t172 82.5q57 0 97.5 -28t61.5 -76l15 91h118zM303 421q-56 0 -98 -50.5t-42 -128.5q0 -67 30 -106t80 -39q55 0 97 50.5t42 131.5q0 63 -30 102.5
t-79 39.5zM349 585q-45 0 -76.5 31t-31.5 75t31.5 75.5t76.5 31.5q44 0 76 -31.5t32 -75.5q0 -43 -32 -74.5t-76 -31.5zM349 640q19 0 33 15t14 36t-14 36t-33 15q-20 0 -34 -15t-14 -36t14 -36t34 -15z" />
    <glyph glyph-name="ae" unicode="&#xe6;" horiz-adv-x="905" 
d="M15 136q0 83 55.5 118t153.5 42q87 6 125.5 23t38.5 51q0 58 -89 58q-79 0 -101 -67h-131q21 77 83.5 122t156.5 45q123 0 166 -68q71 68 171 68q121 0 183 -89t39 -221h-376q9 -122 123 -122q34 0 65 15t44 41h130q-26 -78 -91 -121t-155 -43q-67 0 -118.5 28.5
t-82.5 79.5q-67 -108 -215 -108q-77 0 -126 38.5t-49 109.5zM220 85q55 0 94.5 30.5t45.5 77.5l7 55q-49 -28 -134 -36q-93 -9 -93 -69q0 -58 80 -58zM637 422q-50 0 -87 -30.5t-52 -85.5h248q-4 56 -32 86t-77 30z" />
    <glyph glyph-name="ccedilla" unicode="&#xe7;" horiz-adv-x="549" 
d="M511 174q-23 -83 -82.5 -131.5t-141.5 -53.5l-42 -45q5 1 16 1q36 0 61.5 -23.5t25.5 -63.5q0 -44 -33.5 -69t-80.5 -25q-43 0 -75 21.5t-42 57.5h74q8 -23 40 -23q16 0 29 10t13 26q0 17 -11.5 27.5t-28.5 10.5q-24 0 -39 -17l-38 34l68 81q-82 15 -135 82.5t-53 163.5
q0 129 81.5 209.5t193.5 80.5q87 0 144.5 -51.5t68.5 -134.5h-123q-19 78 -98 78q-58 0 -99.5 -49.5t-41.5 -129.5q0 -65 29.5 -104.5t81.5 -39.5q41 0 69.5 21.5t41.5 55.5h127z" />
    <glyph glyph-name="egrave" unicode="&#xe8;" horiz-adv-x="569" 
d="M531 218h-377q9 -122 123 -122q34 0 63.5 13t44.5 37h131q-29 -75 -93 -116.5t-153 -41.5q-108 0 -173.5 71.5t-65.5 180.5q0 123 81.5 205.5t191.5 82.5q122 0 185.5 -89t41.5 -221zM296 422q-49 0 -84.5 -30.5t-49.5 -85.5h249q-4 55 -34.5 85.5t-80.5 30.5zM270 593
l-82 147h146l25 -147h-89z" />
    <glyph glyph-name="eacute" unicode="&#xe9;" horiz-adv-x="569" 
d="M531 218h-377q9 -122 123 -122q34 0 63.5 13t44.5 37h131q-29 -75 -93 -116.5t-153 -41.5q-108 0 -173.5 71.5t-65.5 180.5q0 123 81.5 205.5t191.5 82.5q122 0 185.5 -89t41.5 -221zM296 422q-49 0 -84.5 -30.5t-49.5 -85.5h249q-4 55 -34.5 85.5t-80.5 30.5zM366 593
h-93l68 147h152z" />
    <glyph glyph-name="ecircumflex" unicode="&#xea;" horiz-adv-x="569" 
d="M531 218h-377q9 -122 123 -122q34 0 63.5 13t44.5 37h131q-29 -75 -93 -116.5t-153 -41.5q-108 0 -173.5 71.5t-65.5 180.5q0 123 81.5 205.5t191.5 82.5q122 0 185.5 -89t41.5 -221zM296 422q-49 0 -84.5 -30.5t-49.5 -85.5h249q-4 55 -34.5 85.5t-80.5 30.5zM156 593
l149 154h77l100 -154h-101l-49 71l-69 -71h-107z" />
    <glyph glyph-name="edieresis" unicode="&#xeb;" horiz-adv-x="569" 
d="M531 218h-377q9 -122 123 -122q34 0 63.5 13t44.5 37h131q-29 -75 -93 -116.5t-153 -41.5q-108 0 -173.5 71.5t-65.5 180.5q0 123 81.5 205.5t191.5 82.5q122 0 185.5 -89t41.5 -221zM296 422q-49 0 -84.5 -30.5t-49.5 -85.5h249q-4 55 -34.5 85.5t-80.5 30.5zM170 593
l20 114h117l-20 -114h-117zM352 593l19 114h117l-20 -114h-116z" />
    <glyph glyph-name="igrave" unicode="&#xec;" horiz-adv-x="253" 
d="M21 0l90 515h121l-90 -515h-121zM137 593l-82 147h146l25 -147h-89z" />
    <glyph glyph-name="iacute" unicode="&#xed;" horiz-adv-x="253" 
d="M21 0l90 515h121l-90 -515h-121zM233 593h-93l68 147h152z" />
    <glyph glyph-name="icircumflex" unicode="&#xee;" horiz-adv-x="253" 
d="M21 0l90 515h121l-90 -515h-121zM23 593l149 154h77l100 -154h-101l-49 71l-69 -71h-107z" />
    <glyph glyph-name="idieresis" unicode="&#xef;" horiz-adv-x="253" 
d="M21 0l90 515h121l-90 -515h-121zM37 593l20 114h117l-20 -114h-117zM219 593l19 114h117l-20 -114h-116z" />
    <glyph glyph-name="eth" unicode="&#xf0;" horiz-adv-x="570" 
d="M254 529l-37 54l59 43q-30 21 -58 37l43 89q55 -22 105 -60l87 64l38 -52l-75 -55q123 -126 123 -324q0 -156 -72 -246.5t-194 -90.5q-100 0 -169 73t-69 179q0 114 73.5 188.5t163.5 74.5q85 0 130 -53q-25 76 -76 132zM278 96q56 0 94 47.5t38 121.5q0 60 -33.5 96
t-85.5 36q-57 0 -95.5 -42.5t-38.5 -120.5q0 -59 34.5 -98.5t86.5 -39.5z" />
    <glyph glyph-name="ntilde" unicode="&#xf1;" horiz-adv-x="559" 
d="M19 0l90 515h118l-14 -78q56 91 152 91q78 0 119 -64.5t22 -170.5l-52 -293h-120l52 300q9 53 -10 85.5t-67 32.5q-97 0 -116 -111l-53 -307h-121zM160 590q10 57 40 94t76 37q28 0 64 -22t48 -22q31 0 42 44h60q-10 -58 -39 -94.5t-73 -36.5q-27 0 -64.5 21.5
t-50.5 21.5q-31 0 -43 -43h-60z" />
    <glyph glyph-name="ograve" unicode="&#xf2;" horiz-adv-x="582" 
d="M311 528q99 0 167 -73t68 -181q0 -129 -79.5 -207.5t-194.5 -78.5q-99 0 -167 72.5t-68 180.5q0 124 80.5 205.5t193.5 81.5zM280 96q59 0 100 50.5t41 128.5q0 65 -33 105t-85 40q-59 0 -100.5 -50t-41.5 -129q0 -68 32.5 -106.5t86.5 -38.5zM274 593l-82 147h146
l25 -147h-89z" />
    <glyph glyph-name="oacute" unicode="&#xf3;" horiz-adv-x="582" 
d="M311 528q99 0 167 -73t68 -181q0 -129 -79.5 -207.5t-194.5 -78.5q-99 0 -167 72.5t-68 180.5q0 124 80.5 205.5t193.5 81.5zM280 96q59 0 100 50.5t41 128.5q0 65 -33 105t-85 40q-59 0 -100.5 -50t-41.5 -129q0 -68 32.5 -106.5t86.5 -38.5zM370 593h-93l68 147h152z
" />
    <glyph glyph-name="ocircumflex" unicode="&#xf4;" horiz-adv-x="582" 
d="M311 528q99 0 167 -73t68 -181q0 -129 -79.5 -207.5t-194.5 -78.5q-99 0 -167 72.5t-68 180.5q0 124 80.5 205.5t193.5 81.5zM280 96q59 0 100 50.5t41 128.5q0 65 -33 105t-85 40q-59 0 -100.5 -50t-41.5 -129q0 -68 32.5 -106.5t86.5 -38.5zM160 593l149 154h77
l100 -154h-101l-49 71l-69 -71h-107z" />
    <glyph glyph-name="otilde" unicode="&#xf5;" horiz-adv-x="582" 
d="M311 528q99 0 167 -73t68 -181q0 -129 -79.5 -207.5t-194.5 -78.5q-99 0 -167 72.5t-68 180.5q0 124 80.5 205.5t193.5 81.5zM280 96q59 0 100 50.5t41 128.5q0 65 -33 105t-85 40q-59 0 -100.5 -50t-41.5 -129q0 -68 32.5 -106.5t86.5 -38.5zM168 590q10 57 40 94t76 37
q28 0 64 -22t48 -22q31 0 42 44h60q-10 -58 -39 -94.5t-73 -36.5q-27 0 -64.5 21.5t-50.5 21.5q-31 0 -43 -43h-60z" />
    <glyph glyph-name="odieresis" unicode="&#xf6;" horiz-adv-x="582" 
d="M311 528q99 0 167 -73t68 -181q0 -129 -79.5 -207.5t-194.5 -78.5q-99 0 -167 72.5t-68 180.5q0 124 80.5 205.5t193.5 81.5zM280 96q59 0 100 50.5t41 128.5q0 65 -33 105t-85 40q-59 0 -100.5 -50t-41.5 -129q0 -68 32.5 -106.5t86.5 -38.5zM174 593l20 114h117
l-20 -114h-117zM356 593l19 114h117l-20 -114h-116z" />
    <glyph glyph-name="divide" unicode="&#xf7;" horiz-adv-x="499" 
d="M39 245l19 112h418l-20 -112h-417zM210 412l24 136h133l-23 -136h-134zM148 54l23 136h134l-24 -136h-133z" />
    <glyph glyph-name="oslash" unicode="&#xf8;" horiz-adv-x="582" 
d="M26 -33l-45 47l92 89q-36 61 -36 138q0 124 80.5 205.5t193.5 81.5q82 0 145 -52l95 92l45 -46l-96 -94q46 -67 46 -154q0 -129 -79.5 -207.5t-194.5 -78.5q-92 0 -159 64zM280 96q59 0 100 50.5t41 128.5q0 34 -10 67l-217 -211q32 -35 86 -35zM161 241q0 -28 4 -48
l209 203q-28 24 -71 24q-59 0 -100.5 -50t-41.5 -129z" />
    <glyph glyph-name="ugrave" unicode="&#xf9;" horiz-adv-x="559" 
d="M542 515l-91 -515h-117l14 78q-55 -90 -149 -90q-79 0 -121 63t-23 171l51 293h121l-53 -300q-21 -118 78 -118q46 0 76 29.5t39 81.5l54 307h121zM275 593l-82 147h146l25 -147h-89z" />
    <glyph glyph-name="uacute" unicode="&#xfa;" horiz-adv-x="559" 
d="M542 515l-91 -515h-117l14 78q-55 -90 -149 -90q-79 0 -121 63t-23 171l51 293h121l-53 -300q-21 -118 78 -118q46 0 76 29.5t39 81.5l54 307h121zM371 593h-93l68 147h152z" />
    <glyph glyph-name="ucircumflex" unicode="&#xfb;" horiz-adv-x="559" 
d="M542 515l-91 -515h-117l14 78q-55 -90 -149 -90q-79 0 -121 63t-23 171l51 293h121l-53 -300q-21 -118 78 -118q46 0 76 29.5t39 81.5l54 307h121zM161 593l149 154h77l100 -154h-101l-49 71l-69 -71h-107z" />
    <glyph glyph-name="udieresis" unicode="&#xfc;" horiz-adv-x="559" 
d="M542 515l-91 -515h-117l14 78q-55 -90 -149 -90q-79 0 -121 63t-23 171l51 293h121l-53 -300q-21 -118 78 -118q46 0 76 29.5t39 81.5l54 307h121zM175 593l20 114h117l-20 -114h-117zM357 593l19 114h117l-20 -114h-116z" />
    <glyph glyph-name="yacute" unicode="&#xfd;" horiz-adv-x="523" 
d="M24 -209h-43l19 105h28q81 0 112 60l18 35l-99 524h125l48 -294q8 -47 8 -103q21 63 41 101l148 296h126l-321 -604q-63 -120 -210 -120zM357 593h-93l68 147h152z" />
    <glyph glyph-name="thorn" unicode="&#xfe;" horiz-adv-x="604" 
d="M-18 -209l167 953h120l-51 -295q61 79 155 79q80 0 137.5 -70.5t57.5 -177.5q0 -127 -75 -209.5t-176 -82.5q-60 0 -101 28.5t-61 76.5l-52 -302h-121zM297 97q59 0 102 49.5t43 127.5q0 67 -32.5 107t-82.5 40q-57 0 -101 -51.5t-44 -132.5q0 -62 32 -101t83 -39z" />
    <glyph glyph-name="ydieresis" unicode="&#xff;" horiz-adv-x="523" 
d="M24 -209h-43l19 105h28q81 0 112 60l18 35l-99 524h125l48 -294q8 -47 8 -103q21 63 41 101l148 296h126l-321 -604q-63 -120 -210 -120zM161 593l20 114h117l-20 -114h-117zM343 593l19 114h117l-20 -114h-116z" />
    <glyph glyph-name="Amacron" unicode="&#x100;" horiz-adv-x="633" 
d="M448 0l-22 138h-259l-69 -138h-131l358 680h130l121 -680h-128zM338 480l-118 -235h188l-37 233q-6 31 -6 68l-5 -12l-11.5 -29t-10.5 -25zM269 743l15 84h252l-14 -84h-253z" />
    <glyph glyph-name="amacron" unicode="&#x101;" horiz-adv-x="596" 
d="M575 515l-68 -390q-11 -63 2 -125h-117q-12 33 -10 73q-50 -85 -149 -85q-82 0 -139 70.5t-57 177.5q0 127 74 209.5t172 82.5q57 0 97.5 -28t61.5 -76l15 91h118zM303 421q-56 0 -98 -50.5t-42 -128.5q0 -67 30 -106t80 -39q55 0 97 50.5t42 131.5q0 63 -30 102.5
t-79 39.5zM207 606l15 84h252l-14 -84h-253z" />
    <glyph glyph-name="Abreve" unicode="&#x102;" horiz-adv-x="633" 
d="M448 0l-22 138h-259l-69 -138h-131l358 680h130l121 -680h-128zM338 480l-118 -235h188l-37 233q-6 31 -6 68l-5 -12l-11.5 -29t-10.5 -25zM407 728q-61 0 -97 42t-35 101h69q9 -57 68 -57q60 0 77 57h70q-8 -60 -49.5 -101.5t-102.5 -41.5z" />
    <glyph glyph-name="abreve" unicode="&#x103;" horiz-adv-x="596" 
d="M575 515l-68 -390q-11 -63 2 -125h-117q-12 33 -10 73q-50 -85 -149 -85q-82 0 -139 70.5t-57 177.5q0 127 74 209.5t172 82.5q57 0 97.5 -28t61.5 -76l15 91h118zM303 421q-56 0 -98 -50.5t-42 -128.5q0 -67 30 -106t80 -39q55 0 97 50.5t42 131.5q0 63 -30 102.5
t-79 39.5zM345 591q-61 0 -97 42t-35 101h69q9 -57 68 -57q60 0 77 57h70q-8 -60 -49.5 -101.5t-102.5 -41.5z" />
    <glyph glyph-name="Aogonek" unicode="&#x104;" horiz-adv-x="633" 
d="M448 0l-22 138h-259l-69 -138h-131l358 680h130l121 -680h-7q-109 -75 -109 -137q0 -36 32 -36q29 0 39 22h76q-11 -39 -43 -62t-78 -23q-48 0 -80.5 25.5t-32.5 71.5q0 43 35 80t87 59h-47zM338 480l-118 -235h188l-37 233q-6 31 -6 68l-5 -12l-11.5 -29t-10.5 -25z" />
    <glyph glyph-name="aogonek" unicode="&#x105;" horiz-adv-x="596" 
d="M421 -236q-48 0 -80.5 25.5t-32.5 71.5q0 43 35 80t87 59h-38q-12 33 -10 73q-50 -85 -149 -85q-82 0 -139 70.5t-57 177.5q0 127 74 209.5t172 82.5q57 0 97.5 -28t61.5 -76l15 91h118l-68 -390q-11 -63 2 -125h-5q-109 -75 -109 -137q0 -36 32 -36q29 0 39 22h76
q-11 -39 -43 -62t-78 -23zM303 421q-56 0 -98 -50.5t-42 -128.5q0 -67 30 -106t80 -39q55 0 97 50.5t42 131.5q0 63 -30 102.5t-79 39.5z" />
    <glyph glyph-name="Cacute" unicode="&#x106;" horiz-adv-x="727" 
d="M365 -12q-142 0 -226 93.5t-84 232.5q0 158 100 270.5t247 112.5q110 0 189.5 -62.5t99.5 -162.5h-132q-20 53 -56 82.5t-100 29.5q-97 0 -157 -76t-60 -192q0 -100 48 -157.5t134 -57.5q67 0 109.5 34t62.5 81h136q-29 -107 -113.5 -167.5t-197.5 -60.5zM466 730h-93
l68 147h152z" />
    <glyph glyph-name="cacute" unicode="&#x107;" horiz-adv-x="549" 
d="M511 174q-24 -88 -88.5 -137t-153.5 -49q-99 0 -166 70.5t-67 179.5q0 129 81.5 209.5t193.5 80.5q87 0 144.5 -51.5t68.5 -134.5h-123q-19 78 -98 78q-58 0 -99.5 -49.5t-41.5 -129.5q0 -65 29.5 -104.5t81.5 -39.5q41 0 69.5 21.5t41.5 55.5h127zM364 593h-93l68 147
h152z" />
    <glyph glyph-name="Ccircumflex" unicode="&#x108;" horiz-adv-x="727" 
d="M365 -12q-142 0 -226 93.5t-84 232.5q0 158 100 270.5t247 112.5q110 0 189.5 -62.5t99.5 -162.5h-132q-20 53 -56 82.5t-100 29.5q-97 0 -157 -76t-60 -192q0 -100 48 -157.5t134 -57.5q67 0 109.5 34t62.5 81h136q-29 -107 -113.5 -167.5t-197.5 -60.5zM256 730
l149 154h77l100 -154h-101l-49 71l-69 -71h-107z" />
    <glyph glyph-name="ccircumflex" unicode="&#x109;" horiz-adv-x="549" 
d="M511 174q-24 -88 -88.5 -137t-153.5 -49q-99 0 -166 70.5t-67 179.5q0 129 81.5 209.5t193.5 80.5q87 0 144.5 -51.5t68.5 -134.5h-123q-19 78 -98 78q-58 0 -99.5 -49.5t-41.5 -129.5q0 -65 29.5 -104.5t81.5 -39.5q41 0 69.5 21.5t41.5 55.5h127zM154 593l149 154h77
l100 -154h-101l-49 71l-69 -71h-107z" />
    <glyph glyph-name="Ccaron" unicode="&#x10c;" horiz-adv-x="727" 
d="M365 -12q-142 0 -226 93.5t-84 232.5q0 158 100 270.5t247 112.5q110 0 189.5 -62.5t99.5 -162.5h-132q-20 53 -56 82.5t-100 29.5q-97 0 -157 -76t-60 -192q0 -100 48 -157.5t134 -57.5q67 0 109.5 34t62.5 81h136q-29 -107 -113.5 -167.5t-197.5 -60.5zM608 881
l-150 -154h-77l-100 154h101l50 -71l68 71h108z" />
    <glyph glyph-name="ccaron" unicode="&#x10d;" horiz-adv-x="549" 
d="M511 174q-24 -88 -88.5 -137t-153.5 -49q-99 0 -166 70.5t-67 179.5q0 129 81.5 209.5t193.5 80.5q87 0 144.5 -51.5t68.5 -134.5h-123q-19 78 -98 78q-58 0 -99.5 -49.5t-41.5 -129.5q0 -65 29.5 -104.5t81.5 -39.5q41 0 69.5 21.5t41.5 55.5h127zM506 744l-150 -154
h-77l-100 154h101l50 -71l68 71h108z" />
    <glyph glyph-name="Dcaron" unicode="&#x10e;" horiz-adv-x="658" 
d="M22 0l119 680h195q135 0 217 -83t82 -216q0 -179 -106 -280t-269 -101h-238zM165 115h101q81 0 137 39.5t79.5 97.5t23.5 128q0 23 -4 45.5t-16 48.5t-31 46t-51.5 33t-75.5 13h-83zM540 881l-150 -154h-77l-100 154h101l50 -71l68 71h108z" />
    <glyph glyph-name="dcaron" unicode="&#x10f;" horiz-adv-x="694" 
d="M626 744l-130 -744h-118l12 67q-61 -79 -152 -79q-84 0 -142.5 70.5t-58.5 177.5q0 127 75 209.5t176 82.5q59 0 100 -30t61 -78l56 324h121zM308 421q-58 0 -101.5 -50.5t-43.5 -128.5q0 -67 31 -106t84 -39q58 0 101.5 50.5t43.5 131.5q0 62 -32 102t-83 40zM625 475
l12 67q60 0 68 59l1 9h-57l24 134h128l-26 -152q-9 -57 -49.5 -87t-100.5 -30z" />
    <glyph glyph-name="Dcroat" unicode="&#x110;" horiz-adv-x="668" 
d="M32 0l50 288h-65l20 113h65l49 279h195q135 0 217 -83t82 -216q0 -179 -106 -280t-269 -101h-238zM175 115h101q81 0 137 39.5t79.5 97.5t23.5 128q0 23 -4 45.5t-16 48.5t-31 46t-51.5 33t-75.5 13h-84l-29 -165h164l-20 -113h-164z" />
    <glyph glyph-name="dcroat" unicode="&#x111;" horiz-adv-x="604" 
d="M626 744l-13 -74h68l-17 -96h-68l-100 -574h-118l12 67q-61 -79 -152 -79q-84 0 -142.5 70.5t-58.5 177.5q0 127 75 209.5t176 82.5q59 0 100 -30t61 -78l26 154h-101l17 96h101l13 74h121zM308 421q-58 0 -101.5 -50.5t-43.5 -128.5q0 -67 31 -106t84 -39
q58 0 101.5 50.5t43.5 131.5q0 62 -32 102t-83 40z" />
    <glyph glyph-name="Emacron" unicode="&#x112;" horiz-adv-x="570" 
d="M22 0l119 680h458l-20 -114h-334l-28 -156h282l-20 -113h-282l-32 -183h342l-20 -114h-465zM253 743l15 84h252l-14 -84h-253z" />
    <glyph glyph-name="emacron" unicode="&#x113;" horiz-adv-x="569" 
d="M531 218h-377q9 -122 123 -122q34 0 63.5 13t44.5 37h131q-29 -75 -93 -116.5t-153 -41.5q-108 0 -173.5 71.5t-65.5 180.5q0 123 81.5 205.5t191.5 82.5q122 0 185.5 -89t41.5 -221zM296 422q-49 0 -84.5 -30.5t-49.5 -85.5h249q-4 55 -34.5 85.5t-80.5 30.5zM194 606
l15 84h252l-14 -84h-253z" />
    <glyph glyph-name="Edotaccent" unicode="&#x116;" horiz-adv-x="570" 
d="M22 0l119 680h458l-20 -114h-334l-28 -156h282l-20 -113h-282l-32 -183h342l-20 -114h-465zM319 730l20 114h117l-20 -114h-117z" />
    <glyph glyph-name="edotaccent" unicode="&#x117;" horiz-adv-x="569" 
d="M531 218h-377q9 -122 123 -122q34 0 63.5 13t44.5 37h131q-29 -75 -93 -116.5t-153 -41.5q-108 0 -173.5 71.5t-65.5 180.5q0 123 81.5 205.5t191.5 82.5q122 0 185.5 -89t41.5 -221zM296 422q-49 0 -84.5 -30.5t-49.5 -85.5h249q-4 55 -34.5 85.5t-80.5 30.5zM260 593
l20 114h117l-20 -114h-117z" />
    <glyph glyph-name="Eogonek" unicode="&#x118;" horiz-adv-x="570" 
d="M22 0l119 680h458l-20 -114h-334l-28 -156h282l-20 -113h-282l-32 -183h342l-20 -114h-27q-109 -75 -109 -137q0 -36 32 -36q29 0 39 22h76q-11 -39 -43 -62t-78 -23q-48 0 -80.5 25.5t-32.5 71.5q0 43 35 80t87 59h-364z" />
    <glyph glyph-name="eogonek" unicode="&#x119;" horiz-adv-x="569" 
d="M531 218h-377q9 -122 123 -122q34 0 63.5 13t44.5 37h131q-29 -75 -93 -116.5t-153 -41.5q-108 0 -173.5 71.5t-65.5 180.5q0 123 81.5 205.5t191.5 82.5q122 0 185.5 -89t41.5 -221zM296 422q-49 0 -84.5 -30.5t-49.5 -85.5h249q-4 55 -34.5 85.5t-80.5 30.5zM237 -236
q-48 0 -80.5 25.5t-32.5 71.5q0 43 35 80t87 59h74q-109 -75 -109 -137q0 -36 32 -36q29 0 39 22h76q-11 -39 -43 -62t-78 -23z" />
    <glyph glyph-name="Ecaron" unicode="&#x11a;" horiz-adv-x="570" 
d="M22 0l119 680h458l-20 -114h-334l-28 -156h282l-20 -113h-282l-32 -183h342l-20 -114h-465zM567 881l-150 -154h-77l-100 154h101l50 -71l68 71h108z" />
    <glyph glyph-name="ecaron" unicode="&#x11b;" horiz-adv-x="569" 
d="M531 218h-377q9 -122 123 -122q34 0 63.5 13t44.5 37h131q-29 -75 -93 -116.5t-153 -41.5q-108 0 -173.5 71.5t-65.5 180.5q0 123 81.5 205.5t191.5 82.5q122 0 185.5 -89t41.5 -221zM296 422q-49 0 -84.5 -30.5t-49.5 -85.5h249q-4 55 -34.5 85.5t-80.5 30.5zM508 744
l-150 -154h-77l-100 154h101l50 -71l68 71h108z" />
    <glyph glyph-name="Gcircumflex" unicode="&#x11c;" horiz-adv-x="738" 
d="M350 -12q-130 0 -212.5 94t-82.5 230q0 160 100.5 272.5t253.5 112.5q112 0 186.5 -65t93.5 -151h-135q-15 41 -50 72t-97 31q-100 0 -160.5 -76.5t-60.5 -193.5q0 -99 47 -157t129 -58q80 0 131.5 44.5t63.5 113.5h-173l20 112h290l-65 -369h-115l12 67
q-57 -79 -176 -79zM259 730l149 154h77l100 -154h-101l-49 71l-69 -71h-107z" />
    <glyph glyph-name="gcircumflex" unicode="&#x11d;" horiz-adv-x="600" 
d="M498 12q-21 -116 -86.5 -175t-169.5 -59q-109 0 -173 50t-68 124h127q10 -34 35.5 -50t73.5 -16q117 0 142 137l7 40q-60 -75 -148 -75q-84 0 -142.5 70.5t-58.5 177.5q0 127 75 209.5t176 82.5q60 0 101.5 -31t61.5 -83l17 101h118zM308 421q-58 0 -101.5 -50.5
t-43.5 -128.5q0 -67 31 -106t84 -39q58 0 101.5 50.5t43.5 131.5q0 62 -32 102t-83 40zM169 593l149 154h77l100 -154h-101l-49 71l-69 -71h-107z" />
    <glyph glyph-name="Gbreve" unicode="&#x11e;" horiz-adv-x="738" 
d="M350 -12q-130 0 -212.5 94t-82.5 230q0 160 100.5 272.5t253.5 112.5q112 0 186.5 -65t93.5 -151h-135q-15 41 -50 72t-97 31q-100 0 -160.5 -76.5t-60.5 -193.5q0 -99 47 -157t129 -58q80 0 131.5 44.5t63.5 113.5h-173l20 112h290l-65 -369h-115l12 67
q-57 -79 -176 -79zM435 728q-61 0 -97 42t-35 101h69q9 -57 68 -57q60 0 77 57h70q-8 -60 -49.5 -101.5t-102.5 -41.5z" />
    <glyph glyph-name="gbreve" unicode="&#x11f;" horiz-adv-x="600" 
d="M498 12q-21 -116 -86.5 -175t-169.5 -59q-109 0 -173 50t-68 124h127q10 -34 35.5 -50t73.5 -16q117 0 142 137l7 40q-60 -75 -148 -75q-84 0 -142.5 70.5t-58.5 177.5q0 127 75 209.5t176 82.5q60 0 101.5 -31t61.5 -83l17 101h118zM308 421q-58 0 -101.5 -50.5
t-43.5 -128.5q0 -67 31 -106t84 -39q58 0 101.5 50.5t43.5 131.5q0 62 -32 102t-83 40zM345 591q-61 0 -97 42t-35 101h69q9 -57 68 -57q60 0 77 57h70q-8 -60 -49.5 -101.5t-102.5 -41.5z" />
    <glyph glyph-name="Gcommaaccent" unicode="&#x122;" horiz-adv-x="738" 
d="M350 -12q-130 0 -212.5 94t-82.5 230q0 160 100.5 272.5t253.5 112.5q112 0 186.5 -65t93.5 -151h-135q-15 41 -50 72t-97 31q-100 0 -160.5 -76.5t-60.5 -193.5q0 -99 47 -157t129 -58q80 0 131.5 44.5t63.5 113.5h-173l20 112h290l-65 -369h-115l12 67
q-57 -79 -176 -79zM232 -311l12 67q60 0 68 59l1 9h-57l24 134h128l-26 -152q-9 -57 -49.5 -87t-100.5 -30z" />
    <glyph glyph-name="gcommaaccent" unicode="&#x123;" horiz-adv-x="600" 
d="M449 862l-12 -67q-60 0 -68 -59l-1 -9h57l-24 -134h-128l26 152q9 57 49.5 87t100.5 30zM498 12q-21 -116 -86.5 -175t-169.5 -59q-109 0 -173 50t-68 124h127q10 -34 35.5 -50t73.5 -16q117 0 142 137l7 40q-60 -75 -148 -75q-84 0 -142.5 70.5t-58.5 177.5
q0 127 75 209.5t176 82.5q60 0 101.5 -31t61.5 -83l17 101h118zM308 421q-58 0 -101.5 -50.5t-43.5 -128.5q0 -67 31 -106t84 -39q58 0 101.5 50.5t43.5 131.5q0 62 -32 102t-83 40z" />
    <glyph glyph-name="Hcircumflex" unicode="&#x124;" horiz-adv-x="661" 
d="M22 0l119 680h124l-48 -276h279l49 276h124l-119 -680h-124l50 291h-279l-50 -291h-125zM241 730l149 154h77l100 -154h-101l-49 71l-69 -71h-107z" />
    <glyph glyph-name="hcircumflex" unicode="&#x125;" horiz-adv-x="559" 
d="M19 0l130 744h120l-52 -301q57 85 148 85q78 0 119 -64.5t22 -170.5l-52 -293h-120l52 300q9 53 -10 85.5t-67 32.5q-97 0 -116 -111l-53 -307h-121zM172 778l149 154h77l100 -154h-101l-49 71l-69 -71h-107z" />
    <glyph glyph-name="Imacron" unicode="&#x12a;" horiz-adv-x="263" 
d="M25 0l119 680h124l-118 -680h-125zM88 743l15 84h252l-14 -84h-253z" />
    <glyph glyph-name="imacron" unicode="&#x12b;" horiz-adv-x="253" 
d="M21 0l90 515h121l-90 -515h-121zM61 606l15 84h252l-14 -84h-253z" />
    <glyph glyph-name="Iogonek" unicode="&#x12e;" horiz-adv-x="263" 
d="M25 0l119 680h124l-118 -680h-8q-109 -75 -109 -137q0 -36 32 -36q29 0 39 22h76q-11 -39 -43 -62t-78 -23q-48 0 -80.5 25.5t-32.5 71.5q0 43 35 80t87 59h-43z" />
    <glyph glyph-name="iogonek" unicode="&#x12f;" horiz-adv-x="253" 
d="M21 0l90 515h121l-90 -515h-14q-109 -75 -109 -137q0 -36 32 -36q29 0 39 22h76q-11 -39 -43 -62t-78 -23q-48 0 -80.5 25.5t-32.5 71.5q0 43 35 80t87 59h-33zM121 589l22 125h126l-21 -125h-127z" />
    <glyph glyph-name="Idotaccent" unicode="&#x130;" horiz-adv-x="263" 
d="M25 0l119 680h124l-118 -680h-125zM154 730l20 114h117l-20 -114h-117z" />
    <glyph glyph-name="dotlessi" unicode="&#x131;" horiz-adv-x="253" 
d="M21 0l90 515h121l-90 -515h-121z" />
    <glyph glyph-name="Jcircumflex" unicode="&#x134;" horiz-adv-x="508" 
d="M216 -10q-107 0 -162.5 57t-38.5 167l4 27h125l-5 -33q-16 -105 77 -105q81 0 98 98l83 479h126l-86 -494q-35 -196 -221 -196zM306 730l149 154h77l100 -154h-101l-49 71l-69 -71h-107z" />
    <glyph glyph-name="jcircumflex" unicode="&#x135;" horiz-adv-x="253" 
d="M-71 -209h-35l18 104h21q69 0 80 62l98 558h121l-100 -571q-15 -82 -64.5 -117.5t-138.5 -35.5zM17 593l149 154h77l100 -154h-101l-49 71l-69 -71h-107z" />
    <glyph glyph-name="Kcommaaccent" unicode="&#x136;" horiz-adv-x="620" 
d="M22 0l119 680h124l-50 -287l305 287h154l-306 -287l195 -393h-137l-153 305l-88 -83l-38 -222h-125zM161 -311l12 67q60 0 68 59l1 9h-57l24 134h128l-26 -152q-9 -57 -49.5 -87t-100.5 -30z" />
    <glyph glyph-name="kcommaaccent" unicode="&#x137;" horiz-adv-x="528" 
d="M19 0l130 744h120l-76 -438l217 209h141l-226 -215l145 -300h-127l-106 217l-72 -69l-25 -148h-121zM131 -311l12 67q60 0 68 59l1 9h-57l24 134h128l-26 -152q-9 -57 -49.5 -87t-100.5 -30z" />
    <glyph glyph-name="Lacute" unicode="&#x139;" horiz-adv-x="526" 
d="M22 0l119 680h124l-99 -567h307l-20 -113h-431zM256 730h-93l68 147h152z" />
    <glyph glyph-name="lacute" unicode="&#x13a;" horiz-adv-x="253" 
d="M21 0l130 744h120l-129 -744h-121zM266 778h-93l68 147h152z" />
    <glyph glyph-name="Lcommaaccent" unicode="&#x13b;" horiz-adv-x="526" 
d="M22 0l119 680h124l-99 -567h307l-20 -113h-431zM121 -311l12 67q60 0 68 59l1 9h-57l24 134h128l-26 -152q-9 -57 -49.5 -87t-100.5 -30z" />
    <glyph glyph-name="lcommaaccent" unicode="&#x13c;" horiz-adv-x="253" 
d="M21 0l130 744h120l-129 -744h-121zM-38 -311l12 67q60 0 68 59l1 9h-57l24 134h128l-26 -152q-9 -57 -49.5 -87t-100.5 -30z" />
    <glyph glyph-name="Lcaron" unicode="&#x13d;" horiz-adv-x="526" 
d="M22 0l119 680h124l-99 -567h307l-20 -113h-431zM401 411l12 67q60 0 68 59l1 9h-57l24 134h128l-26 -152q-9 -57 -49.5 -87t-100.5 -30z" />
    <glyph glyph-name="lcaron" unicode="&#x13e;" horiz-adv-x="339" 
d="M21 0l130 744h120l-129 -744h-121zM270 475l12 67q60 0 68 59l1 9h-57l24 134h128l-26 -152q-9 -57 -49.5 -87t-100.5 -30z" />
    <glyph glyph-name="Lslash" unicode="&#x141;" horiz-adv-x="546" 
d="M8 184l19 105l70 31l63 360h125l-52 -299l165 74l-18 -105l-166 -74l-28 -163h307l-20 -113h-431l37 216z" />
    <glyph glyph-name="lslash" unicode="&#x142;" horiz-adv-x="290" 
d="M12 231l17 97l76 39l65 377h121l-54 -309l86 44l-17 -97l-86 -44l-59 -338h-120l47 270z" />
    <glyph glyph-name="Nacute" unicode="&#x143;" horiz-adv-x="663" 
d="M22 0l119 680h141l185 -504l88 504h116l-119 -680h-140l-186 504l-88 -504h-116zM464 730h-93l68 147h152z" />
    <glyph glyph-name="nacute" unicode="&#x144;" horiz-adv-x="559" 
d="M19 0l90 515h118l-14 -78q56 91 152 91q78 0 119 -64.5t22 -170.5l-52 -293h-120l52 300q9 53 -10 85.5t-67 32.5q-97 0 -116 -111l-53 -307h-121zM362 593h-93l68 147h152z" />
    <glyph glyph-name="Ncommaaccent" unicode="&#x145;" horiz-adv-x="663" 
d="M22 0l119 680h141l185 -504l88 504h116l-119 -680h-140l-186 504l-88 -504h-116zM169 -311l12 67q60 0 68 59l1 9h-57l24 134h128l-26 -152q-9 -57 -49.5 -87t-100.5 -30z" />
    <glyph glyph-name="ncommaaccent" unicode="&#x146;" horiz-adv-x="559" 
d="M19 0l90 515h118l-14 -78q56 91 152 91q78 0 119 -64.5t22 -170.5l-52 -293h-120l52 300q9 53 -10 85.5t-67 32.5q-97 0 -116 -111l-53 -307h-121zM119 -311l12 67q60 0 68 59l1 9h-57l24 134h128l-26 -152q-9 -57 -49.5 -87t-100.5 -30z" />
    <glyph glyph-name="Ncaron" unicode="&#x147;" horiz-adv-x="663" 
d="M22 0l119 680h141l185 -504l88 504h116l-119 -680h-140l-186 504l-88 -504h-116zM606 881l-150 -154h-77l-100 154h101l50 -71l68 71h108z" />
    <glyph glyph-name="ncaron" unicode="&#x148;" horiz-adv-x="559" 
d="M19 0l90 515h118l-14 -78q56 91 152 91q78 0 119 -64.5t22 -170.5l-52 -293h-120l52 300q9 53 -10 85.5t-67 32.5q-97 0 -116 -111l-53 -307h-121zM504 744l-150 -154h-77l-100 154h101l50 -71l68 71h108z" />
    <glyph glyph-name="Omacron" unicode="&#x14c;" horiz-adv-x="731" 
d="M358 -12q-137 0 -220 94t-83 232q0 159 98.5 271t248.5 112q135 0 219 -94t84 -232q0 -160 -97.5 -271.5t-249.5 -111.5zM364 101q95 0 153.5 78.5t58.5 191.5q0 98 -48.5 155.5t-127.5 57.5q-94 0 -154 -76.5t-60 -191.5q0 -99 48.5 -157t129.5 -58zM297 743l15 84h252
l-14 -84h-253z" />
    <glyph glyph-name="omacron" unicode="&#x14d;" horiz-adv-x="582" 
d="M311 528q99 0 167 -73t68 -181q0 -129 -79.5 -207.5t-194.5 -78.5q-99 0 -167 72.5t-68 180.5q0 124 80.5 205.5t193.5 81.5zM280 96q59 0 100 50.5t41 128.5q0 65 -33 105t-85 40q-59 0 -100.5 -50t-41.5 -129q0 -68 32.5 -106.5t86.5 -38.5zM198 606l15 84h252l-14 -84
h-253z" />
    <glyph glyph-name="Ohungarumlaut" unicode="&#x150;" horiz-adv-x="731" 
d="M358 -12q-137 0 -220 94t-83 232q0 159 98.5 271t248.5 112q135 0 219 -94t84 -232q0 -160 -97.5 -271.5t-249.5 -111.5zM364 101q95 0 153.5 78.5t58.5 191.5q0 98 -48.5 155.5t-127.5 57.5q-94 0 -154 -76.5t-60 -191.5q0 -99 48.5 -157t129.5 -58zM462 730l56 147h134
l-105 -147h-85zM285 730l56 147h134l-105 -147h-85z" />
    <glyph glyph-name="ohungarumlaut" unicode="&#x151;" horiz-adv-x="582" 
d="M311 528q99 0 167 -73t68 -181q0 -129 -79.5 -207.5t-194.5 -78.5q-99 0 -167 72.5t-68 180.5q0 124 80.5 205.5t193.5 81.5zM280 96q59 0 100 50.5t41 128.5q0 65 -33 105t-85 40q-59 0 -100.5 -50t-41.5 -129q0 -68 32.5 -106.5t86.5 -38.5zM373 593l56 147h134
l-105 -147h-85zM196 593l56 147h134l-105 -147h-85z" />
    <glyph glyph-name="OE" unicode="&#x152;" horiz-adv-x="1068" 
d="M533 0l12 69q-83 -81 -193 -81q-133 0 -215 94t-82 232q0 159 99 271t250 112q160 0 227 -133l20 116h446l-20 -114h-334l-28 -156h282l-20 -113h-282l-32 -183h342l-20 -114h-452zM364 101q95 0 153.5 78.5t58.5 191.5q0 98 -48.5 155.5t-127.5 57.5q-94 0 -154 -76.5
t-60 -191.5q0 -99 48.5 -157t129.5 -58z" />
    <glyph glyph-name="oe" unicode="&#x153;" horiz-adv-x="956" 
d="M311 528q118 0 180 -104q36 49 89.5 76.5t115.5 27.5q120 0 182 -89t40 -221h-376q9 -122 122 -122q35 0 65.5 14.5t43.5 41.5h131q-27 -78 -92 -121t-155 -43q-123 0 -182 98q-72 -98 -203 -98q-99 0 -167 72.5t-68 180.5q0 124 80.5 205.5t193.5 81.5zM280 96
q59 0 100 50.5t41 128.5q0 65 -33 105t-85 40q-59 0 -100.5 -50t-41.5 -129q0 -68 32.5 -106.5t86.5 -38.5zM688 422q-50 0 -86.5 -30.5t-51.5 -85.5h248q-4 56 -32.5 86t-77.5 30z" />
    <glyph glyph-name="Racute" unicode="&#x154;" horiz-adv-x="638" 
d="M22 0l119 680h270q92 0 149.5 -50.5t57.5 -135.5q0 -66 -35 -112.5t-100 -66.5q42 -20 57 -47t12 -91l-4 -91q-2 -50 14 -86h-122q-18 32 -15 79l5 99q2 48 -15.5 68.5t-63.5 20.5h-159l-46 -267h-124zM211 375h158q57 0 89.5 27t32.5 78q0 83 -94 83h-153zM417 730h-93
l68 147h152z" />
    <glyph glyph-name="racute" unicode="&#x155;" horiz-adv-x="382" 
d="M19 0l90 515h121l-17 -95q65 114 195 101l-22 -122q-73 14 -126 -17.5t-65 -99.5l-49 -282h-127zM323 593h-93l68 147h152z" />
    <glyph glyph-name="Rcommaaccent" unicode="&#x156;" horiz-adv-x="638" 
d="M22 0l119 680h270q92 0 149.5 -50.5t57.5 -135.5q0 -66 -35 -112.5t-100 -66.5q42 -20 57 -47t12 -91l-4 -91q-2 -50 14 -86h-122q-18 32 -15 79l5 99q2 48 -15.5 68.5t-63.5 20.5h-159l-46 -267h-124zM211 375h158q57 0 89.5 27t32.5 78q0 83 -94 83h-153zM178 -311
l12 67q60 0 68 59l1 9h-57l24 134h128l-26 -152q-9 -57 -49.5 -87t-100.5 -30z" />
    <glyph glyph-name="rcommaaccent" unicode="&#x157;" horiz-adv-x="382" 
d="M19 0l90 515h121l-17 -95q65 114 195 101l-22 -122q-73 14 -126 -17.5t-65 -99.5l-49 -282h-127zM-36 -311l12 67q60 0 68 59l1 9h-57l24 134h128l-26 -152q-9 -57 -49.5 -87t-100.5 -30z" />
    <glyph glyph-name="Rcaron" unicode="&#x158;" horiz-adv-x="638" 
d="M22 0l119 680h270q92 0 149.5 -50.5t57.5 -135.5q0 -66 -35 -112.5t-100 -66.5q42 -20 57 -47t12 -91l-4 -91q-2 -50 14 -86h-122q-18 32 -15 79l5 99q2 48 -15.5 68.5t-63.5 20.5h-159l-46 -267h-124zM211 375h158q57 0 89.5 27t32.5 78q0 83 -94 83h-153zM559 881
l-150 -154h-77l-100 154h101l50 -71l68 71h108z" />
    <glyph glyph-name="rcaron" unicode="&#x159;" horiz-adv-x="382" 
d="M19 0l90 515h121l-17 -95q65 114 195 101l-22 -122q-73 14 -126 -17.5t-65 -99.5l-49 -282h-127zM465 744l-150 -154h-77l-100 154h101l50 -71l68 71h108z" />
    <glyph glyph-name="Sacute" unicode="&#x15a;" horiz-adv-x="643" 
d="M313 -12q-125 0 -201 60.5t-82 172.5h124q5 -58 44.5 -89.5t112.5 -32.5q64 -1 102 23.5t38 66.5q0 37 -33.5 58t-127.5 53q-97 34 -139.5 78.5t-42.5 122.5q0 85 70 140.5t179 55.5q65 0 114 -19.5t76.5 -52t40.5 -68.5t12 -73h-127q-8 102 -124 102q-51 0 -83.5 -20.5
t-32.5 -57.5q0 -34 26 -54t100 -45q111 -38 164.5 -83t53.5 -129q0 -94 -71.5 -151.5t-192.5 -57.5zM419 730h-93l68 147h152z" />
    <glyph glyph-name="sacute" unicode="&#x15b;" horiz-adv-x="510" 
d="M5 159h123q9 -69 113 -69q95 0 98 54q0 23 -24.5 36.5t-82.5 28.5q-40 10 -64.5 19.5t-52.5 27.5t-41 47t-12 69q3 71 57 113.5t149 42.5q97 0 153 -42t62 -112h-121q-15 52 -101 52q-38 0 -59 -12.5t-21 -33.5q-1 -22 20 -35.5t72 -26.5q26 -7 32.5 -9l30.5 -9.5
t32.5 -12.5t27 -15t26 -20.5l17.5 -25.5t13.5 -33t2.5 -40q-3 -80 -60 -122.5t-159 -42.5q-107 0 -170 50t-61 121zM353 593h-93l68 147h152z" />
    <glyph glyph-name="Scircumflex" unicode="&#x15c;" horiz-adv-x="643" 
d="M313 -12q-125 0 -201 60.5t-82 172.5h124q5 -58 44.5 -89.5t112.5 -32.5q64 -1 102 23.5t38 66.5q0 37 -33.5 58t-127.5 53q-97 34 -139.5 78.5t-42.5 122.5q0 85 70 140.5t179 55.5q65 0 114 -19.5t76.5 -52t40.5 -68.5t12 -73h-127q-8 102 -124 102q-51 0 -83.5 -20.5
t-32.5 -57.5q0 -34 26 -54t100 -45q111 -38 164.5 -83t53.5 -129q0 -94 -71.5 -151.5t-192.5 -57.5zM209 730l149 154h77l100 -154h-101l-49 71l-69 -71h-107z" />
    <glyph glyph-name="scircumflex" unicode="&#x15d;" horiz-adv-x="510" 
d="M5 159h123q9 -69 113 -69q95 0 98 54q0 23 -24.5 36.5t-82.5 28.5q-40 10 -64.5 19.5t-52.5 27.5t-41 47t-12 69q3 71 57 113.5t149 42.5q97 0 153 -42t62 -112h-121q-15 52 -101 52q-38 0 -59 -12.5t-21 -33.5q-1 -22 20 -35.5t72 -26.5q26 -7 32.5 -9l30.5 -9.5
t32.5 -12.5t27 -15t26 -20.5l17.5 -25.5t13.5 -33t2.5 -40q-3 -80 -60 -122.5t-159 -42.5q-107 0 -170 50t-61 121zM138 593l149 154h77l100 -154h-101l-49 71l-69 -71h-107z" />
    <glyph glyph-name="Scedilla" unicode="&#x15e;" horiz-adv-x="643" 
d="M577 197q0 -91 -67 -148t-181 -61l-42 -44q5 1 16 1q36 0 61.5 -23.5t25.5 -63.5q0 -44 -33.5 -69t-80.5 -25q-43 0 -75 21.5t-42 57.5h74q8 -23 40 -23q16 0 29 10t13 26q0 17 -11.5 27.5t-28.5 10.5q-24 0 -39 -17l-38 34l67 80q-105 11 -167.5 70t-67.5 160h124
q5 -58 44.5 -89.5t112.5 -32.5q64 -1 102 23.5t38 66.5q0 37 -33.5 58t-127.5 53q-97 34 -139.5 78.5t-42.5 122.5q0 85 70 140.5t179 55.5q65 0 114 -19.5t76.5 -52t40.5 -68.5t12 -73h-127q-8 102 -124 102q-51 0 -83.5 -20.5t-32.5 -57.5q0 -34 26 -54t100 -45
q111 -38 164.5 -83t53.5 -129z" />
    <glyph glyph-name="Scedilla" unicode="&#xf6c1;" horiz-adv-x="643" 
d="M577 197q0 -91 -67 -148t-181 -61l-42 -44q5 1 16 1q36 0 61.5 -23.5t25.5 -63.5q0 -44 -33.5 -69t-80.5 -25q-43 0 -75 21.5t-42 57.5h74q8 -23 40 -23q16 0 29 10t13 26q0 17 -11.5 27.5t-28.5 10.5q-24 0 -39 -17l-38 34l67 80q-105 11 -167.5 70t-67.5 160h124
q5 -58 44.5 -89.5t112.5 -32.5q64 -1 102 23.5t38 66.5q0 37 -33.5 58t-127.5 53q-97 34 -139.5 78.5t-42.5 122.5q0 85 70 140.5t179 55.5q65 0 114 -19.5t76.5 -52t40.5 -68.5t12 -73h-127q-8 102 -124 102q-51 0 -83.5 -20.5t-32.5 -57.5q0 -34 26 -54t100 -45
q111 -38 164.5 -83t53.5 -129z" />
    <glyph glyph-name="scedilla" unicode="&#x15f;" horiz-adv-x="510" 
d="M5 159h123q9 -69 113 -69q95 0 98 54q0 23 -24.5 36.5t-82.5 28.5q-40 10 -64.5 19.5t-52.5 27.5t-41 47t-12 69q3 71 57 113.5t149 42.5q97 0 153 -42t62 -112h-121q-15 52 -101 52q-38 0 -59 -12.5t-21 -33.5q-1 -22 20 -35.5t72 -26.5q26 -7 32.5 -9l30.5 -9.5
t32.5 -12.5t27 -15t26 -20.5l17.5 -25.5t13.5 -33t2.5 -40q-3 -80 -60 -122.5t-159 -42.5q-107 0 -170 50t-61 121zM252 0l-53 -56q5 1 16 1q36 0 61.5 -23.5t25.5 -63.5q0 -44 -33.5 -69t-80.5 -25q-43 0 -75 21.5t-42 57.5h74q8 -23 40 -23q16 0 29 10t13 26
q0 17 -11.5 27.5t-28.5 10.5q-24 0 -39 -17l-38 34l75 89h67z" />
    <glyph glyph-name="scedilla" unicode="&#xf6c2;" horiz-adv-x="510" 
d="M5 159h123q9 -69 113 -69q95 0 98 54q0 23 -24.5 36.5t-82.5 28.5q-40 10 -64.5 19.5t-52.5 27.5t-41 47t-12 69q3 71 57 113.5t149 42.5q97 0 153 -42t62 -112h-121q-15 52 -101 52q-38 0 -59 -12.5t-21 -33.5q-1 -22 20 -35.5t72 -26.5q26 -7 32.5 -9l30.5 -9.5
t32.5 -12.5t27 -15t26 -20.5l17.5 -25.5t13.5 -33t2.5 -40q-3 -80 -60 -122.5t-159 -42.5q-107 0 -170 50t-61 121zM252 0l-53 -56q5 1 16 1q36 0 61.5 -23.5t25.5 -63.5q0 -44 -33.5 -69t-80.5 -25q-43 0 -75 21.5t-42 57.5h74q8 -23 40 -23q16 0 29 10t13 26
q0 17 -11.5 27.5t-28.5 10.5q-24 0 -39 -17l-38 34l75 89h67z" />
    <glyph glyph-name="Scaron" unicode="&#x160;" horiz-adv-x="643" 
d="M313 -12q-125 0 -201 60.5t-82 172.5h124q5 -58 44.5 -89.5t112.5 -32.5q64 -1 102 23.5t38 66.5q0 37 -33.5 58t-127.5 53q-97 34 -139.5 78.5t-42.5 122.5q0 85 70 140.5t179 55.5q65 0 114 -19.5t76.5 -52t40.5 -68.5t12 -73h-127q-8 102 -124 102q-51 0 -83.5 -20.5
t-32.5 -57.5q0 -34 26 -54t100 -45q111 -38 164.5 -83t53.5 -129q0 -94 -71.5 -151.5t-192.5 -57.5zM561 881l-150 -154h-77l-100 154h101l50 -71l68 71h108z" />
    <glyph glyph-name="scaron" unicode="&#x161;" horiz-adv-x="510" 
d="M5 159h123q9 -69 113 -69q95 0 98 54q0 23 -24.5 36.5t-82.5 28.5q-40 10 -64.5 19.5t-52.5 27.5t-41 47t-12 69q3 71 57 113.5t149 42.5q97 0 153 -42t62 -112h-121q-15 52 -101 52q-38 0 -59 -12.5t-21 -33.5q-1 -22 20 -35.5t72 -26.5q26 -7 32.5 -9l30.5 -9.5
t32.5 -12.5t27 -15t26 -20.5l17.5 -25.5t13.5 -33t2.5 -40q-3 -80 -60 -122.5t-159 -42.5q-107 0 -170 50t-61 121zM475 744l-150 -154h-77l-100 154h101l50 -71l68 71h108z" />
    <glyph glyph-name="Tcommaaccent" unicode="&#x162;" horiz-adv-x="540" 
d="M163 0l99 566h-182l20 114h488l-20 -114h-182l-99 -566h-124zM108 -311l12 67q60 0 68 59l1 9h-57l24 134h128l-26 -152q-9 -57 -49.5 -87t-100.5 -30z" />
    <glyph glyph-name="Tcommaaccent" unicode="&#x21a;" horiz-adv-x="540" 
d="M163 0l99 566h-182l20 114h488l-20 -114h-182l-99 -566h-124zM108 -311l12 67q60 0 68 59l1 9h-57l24 134h128l-26 -152q-9 -57 -49.5 -87t-100.5 -30z" />
    <glyph glyph-name="tcommaaccent" unicode="&#x163;" horiz-adv-x="346" 
d="M272 -2q-28 -6 -49 -6q-88 0 -128.5 52t-23.5 144l40 225h-64l17 102h65l25 145h120l-24 -145h106l-17 -102h-107l-41 -229q-15 -85 63 -85q14 0 36 4zM51 -311l12 67q60 0 68 59l1 9h-57l24 134h128l-26 -152q-9 -57 -49.5 -87t-100.5 -30z" />
    <glyph glyph-name="tcommaaccent" unicode="&#x21b;" horiz-adv-x="346" 
d="M272 -2q-28 -6 -49 -6q-88 0 -128.5 52t-23.5 144l40 225h-64l17 102h65l25 145h120l-24 -145h106l-17 -102h-107l-41 -229q-15 -85 63 -85q14 0 36 4zM51 -311l12 67q60 0 68 59l1 9h-57l24 134h128l-26 -152q-9 -57 -49.5 -87t-100.5 -30z" />
    <glyph glyph-name="Tcaron" unicode="&#x164;" horiz-adv-x="540" 
d="M163 0l99 566h-182l20 114h488l-20 -114h-182l-99 -566h-124zM537 881l-150 -154h-77l-100 154h101l50 -71l68 71h108z" />
    <glyph glyph-name="tcaron" unicode="&#x165;" horiz-adv-x="455" 
d="M272 -2q-28 -6 -49 -6q-88 0 -128.5 52t-23.5 144l40 225h-64l17 102h65l25 145h120l-24 -145h106l-17 -102h-107l-41 -229q-15 -85 63 -85q14 0 36 4zM386 475l12 67q60 0 68 59l1 9h-57l24 134h128l-26 -152q-9 -57 -49.5 -87t-100.5 -30z" />
    <glyph glyph-name="Umacron" unicode="&#x16a;" horiz-adv-x="626" 
d="M64 280l71 400h124l-72 -412q-29 -169 102 -169q123 0 150 153l75 428h126l-79 -446q-43 -246 -277 -246q-129 0 -187 76t-33 216zM262 743l15 84h252l-14 -84h-253z" />
    <glyph glyph-name="umacron" unicode="&#x16b;" horiz-adv-x="559" 
d="M542 515l-91 -515h-117l14 78q-55 -90 -149 -90q-79 0 -121 63t-23 171l51 293h121l-53 -300q-21 -118 78 -118q46 0 76 29.5t39 81.5l54 307h121zM199 606l15 84h252l-14 -84h-253z" />
    <glyph glyph-name="Ubreve" unicode="&#x16c;" horiz-adv-x="626" 
d="M64 280l71 400h124l-72 -412q-29 -169 102 -169q123 0 150 153l75 428h126l-79 -446q-43 -246 -277 -246q-129 0 -187 76t-33 216zM400 728q-61 0 -97 42t-35 101h69q9 -57 68 -57q60 0 77 57h70q-8 -60 -49 -101.5t-103 -41.5z" />
    <glyph glyph-name="ubreve" unicode="&#x16d;" horiz-adv-x="559" 
d="M542 515l-91 -515h-117l14 78q-55 -90 -149 -90q-79 0 -121 63t-23 171l51 293h121l-53 -300q-21 -118 78 -118q46 0 76 29.5t39 81.5l54 307h121zM337 591q-61 0 -97 42t-35 101h69q9 -57 68 -57q60 0 77 57h70q-8 -60 -49.5 -101.5t-102.5 -41.5z" />
    <glyph glyph-name="Uring" unicode="&#x16e;" horiz-adv-x="626" 
d="M64 280l71 400h124l-72 -412q-29 -169 102 -169q123 0 150 153l75 428h126l-79 -446q-43 -246 -277 -246q-129 0 -187 76t-33 216zM404 722q-45 0 -76.5 31t-31.5 75t31.5 75.5t76.5 31.5q44 0 76 -31.5t32 -75.5q0 -43 -32 -74.5t-76 -31.5zM404 777q19 0 33 15t14 36
t-14 36t-33 15q-20 0 -34 -15t-14 -36t14 -36t34 -15z" />
    <glyph glyph-name="uring" unicode="&#x16f;" horiz-adv-x="559" 
d="M542 515l-91 -515h-117l14 78q-55 -90 -149 -90q-79 0 -121 63t-23 171l51 293h121l-53 -300q-21 -118 78 -118q46 0 76 29.5t39 81.5l54 307h121zM341 585q-45 0 -76.5 31t-31.5 75t31.5 75.5t76.5 31.5q44 0 76 -31.5t32 -75.5q0 -43 -32 -74.5t-76 -31.5zM341 640
q19 0 33 15t14 36t-14 36t-33 15q-20 0 -34 -15t-14 -36t14 -36t34 -15z" />
    <glyph glyph-name="Uhungarumlaut" unicode="&#x170;" horiz-adv-x="626" 
d="M64 280l71 400h124l-72 -412q-29 -169 102 -169q123 0 150 153l75 428h126l-79 -446q-43 -246 -277 -246q-129 0 -187 76t-33 216zM437 730l56 147h134l-105 -147h-85zM260 730l56 147h134l-105 -147h-85z" />
    <glyph glyph-name="uhungarumlaut" unicode="&#x171;" horiz-adv-x="559" 
d="M542 515l-91 -515h-117l14 78q-55 -90 -149 -90q-79 0 -121 63t-23 171l51 293h121l-53 -300q-21 -118 78 -118q46 0 76 29.5t39 81.5l54 307h121zM374 593l56 147h134l-105 -147h-85zM197 593l56 147h134l-105 -147h-85z" />
    <glyph glyph-name="Uogonek" unicode="&#x172;" horiz-adv-x="626" 
d="M235 -236q-48 0 -80.5 25.5t-32.5 71.5q0 40 29.5 74.5t75.5 57.5q-100 16 -142.5 89.5t-20.5 197.5l71 400h124l-72 -412q-29 -169 102 -169q123 0 150 153l75 428h126l-79 -446q-42 -236 -260 -246q-92 -69 -92 -125q0 -36 32 -36q29 0 39 22h76q-11 -39 -43 -62
t-78 -23z" />
    <glyph glyph-name="uogonek" unicode="&#x173;" horiz-adv-x="559" 
d="M362 -236q-48 0 -80.5 25.5t-32.5 71.5q0 43 35 80t87 59h-37l14 78q-55 -90 -149 -90q-79 0 -121 63t-23 171l51 293h121l-53 -300q-21 -118 78 -118q46 0 76 29.5t39 81.5l54 307h121l-91 -515h-6q-109 -75 -109 -137q0 -36 32 -36q29 0 39 22h76q-11 -39 -43 -62
t-78 -23z" />
    <glyph glyph-name="Ydieresis" unicode="&#x178;" horiz-adv-x="577" 
d="M181 0l46 261l-146 419h136l93 -294l196 294h139l-293 -421l-45 -259h-126zM214 730l20 114h117l-20 -114h-117zM396 730l19 114h117l-20 -114h-116z" />
    <glyph glyph-name="Zacute" unicode="&#x179;" horiz-adv-x="558" 
d="M-16 0l19 109l413 457h-321l20 114h479l-19 -108l-413 -458h342l-20 -114h-500zM398 730h-93l68 147h152z" />
    <glyph glyph-name="zacute" unicode="&#x17a;" horiz-adv-x="471" 
d="M-19 0l18 100l311 310h-247l19 105h398l-19 -104l-307 -306h265l-21 -105h-417zM339 593h-93l68 147h152z" />
    <glyph glyph-name="Zdotaccent" unicode="&#x17b;" horiz-adv-x="558" 
d="M-16 0l19 109l413 457h-321l20 114h479l-19 -108l-413 -458h342l-20 -114h-500zM292 730l20 114h117l-20 -114h-117z" />
    <glyph glyph-name="zdotaccent" unicode="&#x17c;" horiz-adv-x="471" 
d="M-19 0l18 100l311 310h-247l19 105h398l-19 -104l-307 -306h265l-21 -105h-417zM233 593l20 114h117l-20 -114h-117z" />
    <glyph glyph-name="Zcaron" unicode="&#x17d;" horiz-adv-x="558" 
d="M-16 0l19 109l413 457h-321l20 114h479l-19 -108l-413 -458h342l-20 -114h-500zM540 881l-150 -154h-77l-100 154h101l50 -71l68 71h108z" />
    <glyph glyph-name="zcaron" unicode="&#x17e;" horiz-adv-x="471" 
d="M-19 0l18 100l311 310h-247l19 105h398l-19 -104l-307 -306h265l-21 -105h-417zM481 744l-150 -154h-77l-100 154h101l50 -71l68 71h108z" />
    <glyph glyph-name="florin" unicode="&#x192;" horiz-adv-x="464" 
d="M63 311l15 83h88l30 137q17 82 68.5 123.5t124.5 41.5q48 0 84 -13l-20 -99q-29 8 -50 8q-35 0 -56 -23t-32 -74l-22 -101h116l-15 -83h-119l-70 -326q-16 -73 -64 -111.5t-119 -38.5q-41 0 -78 11l19 99q25 -6 45 -6q35 0 52 19.5t26 63.5l62 289h-85z" />
    <glyph glyph-name="Scommaaccent" unicode="&#x218;" horiz-adv-x="643" 
d="M313 -12q-125 0 -201 60.5t-82 172.5h124q5 -58 44.5 -89.5t112.5 -32.5q64 -1 102 23.5t38 66.5q0 37 -33.5 58t-127.5 53q-97 34 -139.5 78.5t-42.5 122.5q0 85 70 140.5t179 55.5q65 0 114 -19.5t76.5 -52t40.5 -68.5t12 -73h-127q-8 102 -124 102q-51 0 -83.5 -20.5
t-32.5 -57.5q0 -34 26 -54t100 -45q111 -38 164.5 -83t53.5 -129q0 -94 -71.5 -151.5t-192.5 -57.5zM180 -311l12 67q60 0 68 59l1 9h-57l24 134h128l-26 -152q-9 -57 -49.5 -87t-100.5 -30z" />
    <glyph glyph-name="scommaaccent" unicode="&#x219;" horiz-adv-x="510" 
d="M5 159h123q9 -69 113 -69q95 0 98 54q0 23 -24.5 36.5t-82.5 28.5q-40 10 -64.5 19.5t-52.5 27.5t-41 47t-12 69q3 71 57 113.5t149 42.5q97 0 153 -42t62 -112h-121q-15 52 -101 52q-38 0 -59 -12.5t-21 -33.5q-1 -22 20 -35.5t72 -26.5q26 -7 32.5 -9l30.5 -9.5
t32.5 -12.5t27 -15t26 -20.5l17.5 -25.5t13.5 -33t2.5 -40q-3 -80 -60 -122.5t-159 -42.5q-107 0 -170 50t-61 121zM102 -311l12 67q60 0 68 59l1 9h-57l24 134h128l-26 -152q-9 -57 -49.5 -87t-100.5 -30z" />
    <glyph glyph-name="circumflex" unicode="&#x2c6;" horiz-adv-x="515" 
d="M154 593l149 154h77l100 -154h-101l-49 71l-69 -71h-107z" />
    <glyph glyph-name="caron" unicode="&#x2c7;" horiz-adv-x="515" 
d="M506 744l-150 -154h-77l-100 154h101l50 -71l68 71h108z" />
    <glyph glyph-name="breve" unicode="&#x2d8;" horiz-adv-x="515" 
d="M330 591q-61 0 -97 42t-35 101h69q9 -57 68 -57q60 0 77 57h70q-8 -60 -49 -101.5t-103 -41.5z" />
    <glyph glyph-name="dotaccent" unicode="&#x2d9;" horiz-adv-x="515" 
d="M258 593l20 114h117l-20 -114h-117z" />
    <glyph glyph-name="ring" unicode="&#x2da;" horiz-adv-x="515" 
d="M334 585q-45 0 -76.5 31t-31.5 75t31.5 75.5t76.5 31.5q44 0 76 -31.5t32 -75.5q0 -43 -32 -74.5t-76 -31.5zM334 640q19 0 33 15t14 36t-14 36t-33 15q-20 0 -34 -15t-14 -36t14 -36t34 -15z" />
    <glyph glyph-name="ogonek" unicode="&#x2db;" horiz-adv-x="515" 
d="M191 -236q-48 0 -80.5 25.5t-32.5 71.5q0 43 35 80t87 59h74q-109 -75 -109 -137q0 -36 32 -36q29 0 39 22h76q-11 -39 -43 -62t-78 -23z" />
    <glyph glyph-name="tilde" unicode="&#x2dc;" horiz-adv-x="515" 
d="M162 590q10 57 40 94t76 37q28 0 64 -22t48 -22q31 0 42 44h60q-10 -58 -39 -94.5t-73 -36.5q-27 0 -64.5 21.5t-50.5 21.5q-31 0 -43 -43h-60z" />
    <glyph glyph-name="hungarumlaut" unicode="&#x2dd;" horiz-adv-x="515" 
d="M334 593l56 147h134l-105 -147h-85zM157 593l56 147h134l-105 -147h-85z" />
    <glyph glyph-name="Delta" unicode="&#x394;" horiz-adv-x="227" 
d="M55 282l23 131h127l-23 -131h-127z" />
    <glyph glyph-name="Delta" unicode="&#x2206;" horiz-adv-x="227" 
d="M55 282l23 131h127l-23 -131h-127z" />
    <glyph glyph-name="Omega" unicode="&#x3a9;" 
d="M53 267l24 141h136l-25 -141h-135z" />
    <glyph glyph-name="Omega" unicode="&#x2126;" 
d="M53 267l24 141h136l-25 -141h-135z" />
    <glyph glyph-name="pi" unicode="&#x3c0;" 
d="M53 267l24 141h136l-25 -141h-135z" />
    <glyph glyph-name="endash" unicode="&#x2013;" horiz-adv-x="539" 
d="M35 218l20 119h456l-21 -119h-455z" />
    <glyph glyph-name="emdash" unicode="&#x2014;" horiz-adv-x="841" 
d="M35 218l20 119h758l-21 -119h-757z" />
    <glyph glyph-name="quoteleft" unicode="&#x2018;" horiz-adv-x="226" 
d="M253 690l-11 -67q-61 0 -69 -59l-3 -20h58l-24 -134h-129l29 163q10 57 50 87t99 30z" />
    <glyph glyph-name="quoteright" unicode="&#x2019;" horiz-adv-x="226" 
d="M73 400l12 67q63 0 69 59l2 20h-57l24 134h129l-29 -163q-10 -57 -50 -87t-100 -30z" />
    <glyph glyph-name="quotesinglbase" unicode="&#x201a;" horiz-adv-x="226" 
d="M-22 -146l12 67q60 0 68 59l3 20h-57l24 134h128l-28 -163q-9 -57 -49.5 -87t-100.5 -30z" />
    <glyph glyph-name="quotedblleft" unicode="&#x201c;" horiz-adv-x="421" 
d="M449 690l-12 -67q-61 0 -69 -59l-3 -20h58l-24 -134h-129l29 163q10 57 50 87t100 30zM253 690l-11 -67q-61 0 -69 -59l-3 -20h58l-24 -134h-129l29 163q10 57 50 87t99 30z" />
    <glyph glyph-name="quotedblright" unicode="&#x201d;" horiz-adv-x="421" 
d="M268 400l12 67q61 0 69 59l3 20h-58l24 134h129l-29 -163q-10 -57 -50 -87t-100 -30zM73 400l12 67q63 0 69 59l2 20h-57l24 134h129l-29 -163q-10 -57 -50 -87t-100 -30z" />
    <glyph glyph-name="quotedblbase" unicode="&#x201e;" horiz-adv-x="421" 
d="M173 -146l12 67q60 0 68 59l3 20h-57l24 134h129l-29 -163q-10 -57 -50 -87t-100 -30zM-22 -146l12 67q60 0 68 59l3 20h-57l24 134h128l-28 -163q-9 -57 -49.5 -87t-100.5 -30z" />
    <glyph glyph-name="dagger" unicode="&#x2020;" horiz-adv-x="386" 
d="M132 195l48 273h-100l16 95h100l21 117h102l-21 -117h99l-16 -95h-99l-48 -273h-102z" />
    <glyph glyph-name="daggerdbl" unicode="&#x2021;" horiz-adv-x="385" 
d="M131 195l19 105h-99l15 92h99l17 93h-99l16 92h99l18 103h102l-18 -103h99l-16 -92h-99l-17 -93h99l-15 -92h-99l-19 -105h-102z" />
    <glyph glyph-name="bullet" unicode="&#x2022;" horiz-adv-x="297" 
d="M151 192q-49 0 -79.5 34t-30.5 82q0 51 37 90t88 39q48 0 80 -32.5t32 -82.5q0 -54 -37 -92t-90 -38z" />
    <glyph glyph-name="ellipsis" unicode="&#x2026;" horiz-adv-x="841" 
d="M610 0l25 141h135l-24 -141h-136zM6 0l25 141h135l-24 -141h-136zM308 0l25 141h135l-24 -141h-136z" />
    <glyph glyph-name="perthousand" unicode="&#x2030;" horiz-adv-x="1177" 
d="M232 348q-70 0 -114 46.5t-44 112.5q0 75 54 129t125 54q70 0 114 -46t44 -111q0 -78 -54 -131.5t-125 -53.5zM953 -10q-70 0 -113.5 46t-43.5 113q0 75 54 129t125 54q69 0 113.5 -46t44.5 -111q0 -78 -54.5 -131.5t-125.5 -53.5zM582 -10q-70 0 -113.5 46t-43.5 113
q0 75 54 129t125 54q69 0 113 -46t44 -111q0 -78 -54 -131.5t-125 -53.5zM131 0l477 680h97l-477 -680h-97zM234 431q34 0 59 28t25 71q0 34 -19 55.5t-49 21.5q-32 0 -57.5 -28t-25.5 -69q0 -34 19 -56.5t48 -22.5zM955 73q34 0 59.5 27.5t25.5 71.5q0 34 -19 55.5
t-50 21.5t-56.5 -28t-25.5 -69q0 -34 19 -56.5t47 -22.5zM584 73q34 0 59 27.5t25 71.5q0 34 -18.5 55.5t-49.5 21.5q-32 0 -57 -28t-25 -69q0 -34 19 -56.5t47 -22.5z" />
    <glyph glyph-name="guilsinglleft" unicode="&#x2039;" horiz-adv-x="262" 
d="M184 46l-156 169l16 89l214 169l-24 -145l-109 -77l81 -79z" />
    <glyph glyph-name="guilsinglright" unicode="&#x203a;" horiz-adv-x="262" 
d="M80 473l157 -169l-16 -89l-215 -169l25 145l109 77l-82 79z" />
    <glyph glyph-name="fraction" unicode="&#x2044;" horiz-adv-x="214" 
d="M-165 0l477 680h97l-477 -680h-97z" />
    <glyph glyph-name="fraction" unicode="&#x2215;" horiz-adv-x="214" 
d="M-165 0l477 680h97l-477 -680h-97z" />
    <glyph glyph-name="Euro" unicode="&#x20ac;" horiz-adv-x="612" 
d="M23 223l14 79h63q1 25 5 63h-57l13 79h60q33 117 107.5 185t174.5 68q89 0 144 -52t66 -145h-121q-5 42 -30.5 65t-65.5 23q-48 0 -85 -39t-58 -105h234l-36 -79h-217q-4 -31 -6 -63h193l-36 -79h-154q18 -125 113 -125q80 0 108 85h126q-24 -96 -86.5 -145.5
t-149.5 -49.5q-99 0 -162 62t-77 173h-80z" />
    <glyph glyph-name="trademark" unicode="&#x2122;" horiz-adv-x="758" 
d="M354 338l60 342h115l30 -220l107 220h117l-59 -342h-79l37 216l-105 -216h-77l-29 215l-37 -215h-80zM138 338l45 261h-86l14 81h256l-14 -81h-86l-45 -261h-84z" />
    <glyph glyph-name="onethird" unicode="&#x2153;" horiz-adv-x="889" 
d="M513 137h93q0 -62 61 -62q28 0 45 17t17 37q0 19 -13.5 31.5t-27.5 12.5h-34l13 76h20q21 0 35.5 14t14.5 35q0 19 -11.5 31.5t-33.5 12.5t-37.5 -15.5t-17.5 -36.5h-93q8 59 48.5 95.5t107.5 36.5q63 0 97.5 -34.5t34.5 -79.5q0 -32 -18 -57.5t-50 -37.5
q29 -10 44.5 -35t15.5 -57q0 -48 -42.5 -88.5t-114.5 -40.5q-78 0 -118 44t-36 101zM135 0l477 680h97l-477 -680h-97zM137 272l45 260h-81l12 67q98 2 118 81h73l-71 -408h-96z" />
    <glyph glyph-name="twothirds" unicode="&#x2154;" horiz-adv-x="959" 
d="M583 137h93q0 -62 62 -62q27 0 44 17t17 37q0 19 -13.5 31.5t-27.5 12.5h-33l13 76h19q21 0 35.5 14t14.5 35q0 19 -11.5 31.5t-33.5 12.5q-21 0 -37 -15.5t-18 -36.5h-93q9 59 49 95.5t107 36.5q63 0 97.5 -34.5t34.5 -79.5q0 -32 -18 -57.5t-49 -37.5q28 -10 43.5 -35
t15.5 -57q0 -49 -42 -89t-114 -40q-79 0 -119 44t-36 101zM50 272l7 45q16 104 150 169q45 22 63 41t18 44q0 18 -12 30.5t-31 12.5q-22 0 -37 -16.5t-18 -39.5h-91q5 57 45.5 96t106.5 39q58 0 93 -34.5t35 -86.5q0 -58 -34 -91t-101 -65q-68 -33 -76 -67h175l-14 -77h-279
zM205 0l477 680h97l-477 -680h-97z" />
    <glyph glyph-name="oneeighth" unicode="&#x215b;" horiz-adv-x="875" 
d="M508 120q0 33 20 61.5t61 42.5q-39 27 -39 75q0 52 42 86.5t99 34.5q55 0 94.5 -33.5t39.5 -81.5q0 -64 -66 -91q57 -31 57 -89q0 -59 -44.5 -95.5t-112.5 -36.5q-69 0 -110 36t-41 91zM135 0l477 680h97l-477 -680h-97zM137 272l45 260h-81l12 67q98 2 118 81h73
l-71 -408h-96zM660 71q29 0 48 14.5t19 40.5q0 25 -19.5 38t-42.5 13q-22 0 -43 -13t-21 -41q0 -21 17 -36.5t42 -15.5zM683 252q21 0 37.5 12.5t16.5 33.5q0 19 -15 31.5t-33 12.5q-19 0 -35 -12t-16 -33q0 -20 12 -32.5t33 -12.5z" />
    <glyph glyph-name="threeeighths" unicode="&#x215c;" horiz-adv-x="951" 
d="M584 120q0 33 20 61.5t61 42.5q-38 27 -38 75q0 52 41.5 86.5t98.5 34.5q55 0 94.5 -33.5t39.5 -81.5q0 -64 -65 -91q56 -31 56 -89q0 -59 -44 -95.5t-112 -36.5q-69 0 -110.5 36t-41.5 91zM69 409h93q0 -62 62 -62q27 0 44 17t17 37q0 19 -13 31.5t-27 12.5h-34l13 76
h20q20 0 34.5 14t14.5 35q0 19 -11.5 31.5t-32.5 12.5q-22 0 -38 -15.5t-18 -36.5h-93q9 59 49 95.5t107 36.5q63 0 97.5 -34t34.5 -80q0 -32 -18 -57.5t-49 -37.5q28 -10 43.5 -35t15.5 -57q0 -49 -42 -89t-114 -40q-79 0 -119 44t-36 101zM211 0l477 680h97l-477 -680h-97
zM737 71q28 0 47 14.5t19 40.5q0 25 -19 38t-42 13t-44 -13t-21 -41q0 -21 17 -36.5t43 -15.5zM759 252q21 0 37.5 12.5t16.5 33.5q0 19 -15 31.5t-33 12.5q-19 0 -35 -12t-16 -33q0 -20 12 -32.5t33 -12.5z" />
    <glyph glyph-name="fiveeighths" unicode="&#x215d;" horiz-adv-x="927" 
d="M559 120q0 33 20 61.5t62 42.5q-39 27 -39 75q0 52 41.5 86.5t99.5 34.5q55 0 94 -33.5t39 -81.5q0 -64 -65 -91q56 -31 56 -89q0 -59 -44 -95.5t-112 -36.5q-69 0 -110.5 36t-41.5 91zM62 386h94q3 -20 20 -29.5t37 -9.5q28 0 45.5 18.5t17.5 46.5q0 24 -15.5 39
t-37.5 15q-35 0 -61 -32l-72 38l63 208h232l-15 -82h-160l-28 -88q33 33 79 33q43 0 76.5 -34t33.5 -94q0 -62 -42 -105.5t-115 -43.5q-63 0 -106.5 34t-45.5 86zM186 0l477 680h97l-477 -680h-97zM712 71q28 0 47 14.5t19 40.5q0 25 -19 38t-42 13t-44 -13t-21 -41
q0 -21 17 -36.5t43 -15.5zM735 252q21 0 37 12.5t16 33.5q0 19 -14.5 31.5t-32.5 12.5q-19 0 -35.5 -12t-16.5 -33q0 -20 12.5 -32.5t33.5 -12.5z" />
    <glyph glyph-name="seveneighths" unicode="&#x215e;" horiz-adv-x="893" 
d="M526 120q0 33 20 61.5t61 42.5q-39 27 -39 75q0 52 42 86.5t99 34.5q55 0 94.5 -33.5t39.5 -81.5q0 -64 -66 -91q57 -31 57 -89q0 -59 -44.5 -95.5t-112.5 -36.5q-69 0 -110 36t-41 91zM153 0l477 680h97l-477 -680h-97zM105 272q15 103 68.5 188.5t113.5 130.5h-184
l16 89h284l-15 -84q-66 -55 -118 -138t-68 -186h-97zM678 71q29 0 48 14.5t19 40.5q0 25 -19.5 38t-42.5 13t-43.5 -13t-20.5 -41q0 -21 17 -36.5t42 -15.5zM701 252q21 0 37 12.5t16 33.5q0 19 -14.5 31.5t-32.5 12.5q-19 0 -35.5 -12t-16.5 -33q0 -20 12.5 -32.5
t33.5 -12.5z" />
    <glyph glyph-name="partialdiff" unicode="&#x2202;" 
d="M53 267l24 141h136l-25 -141h-135z" />
    <glyph glyph-name="product" unicode="&#x220f;" 
d="M53 267l24 141h136l-25 -141h-135z" />
    <glyph glyph-name="summation" unicode="&#x2211;" 
d="M53 267l24 141h136l-25 -141h-135z" />
    <glyph glyph-name="minus" unicode="&#x2212;" horiz-adv-x="469" 
d="M39 245l19 112h389l-20 -112h-388z" />
    <glyph glyph-name="radical" unicode="&#x221a;" 
d="M53 267l24 141h136l-25 -141h-135z" />
    <glyph glyph-name="infinity" unicode="&#x221e;" 
d="M53 267l24 141h136l-25 -141h-135z" />
    <glyph glyph-name="integral" unicode="&#x222b;" 
d="M53 267l24 141h136l-25 -141h-135z" />
    <glyph glyph-name="approxequal" unicode="&#x2248;" 
d="M53 267l24 141h136l-25 -141h-135z" />
    <glyph glyph-name="notequal" unicode="&#x2260;" 
d="M53 267l24 141h136l-25 -141h-135z" />
    <glyph glyph-name="lessequal" unicode="&#x2264;" 
d="M53 267l24 141h136l-25 -141h-135z" />
    <glyph glyph-name="greaterequal" unicode="&#x2265;" 
d="M53 267l24 141h136l-25 -141h-135z" />
    <glyph glyph-name="lozenge" unicode="&#x25ca;" 
d="M53 267l24 141h136l-25 -141h-135z" />
    <glyph glyph-name="commaaccent" unicode="&#xf004;" horiz-adv-x="500" 
d="M98 -311l12 67q60 0 68 59l1 9h-57l24 134h128l-26 -152q-9 -57 -49.5 -87t-100.5 -30z" />
    <glyph glyph-name="commaaccent" unicode="&#xf6c3;" horiz-adv-x="500" 
d="M98 -311l12 67q60 0 68 59l1 9h-57l24 134h128l-26 -152q-9 -57 -49.5 -87t-100.5 -30z" />
    <glyph glyph-name="dotlessj" unicode="&#xf6be;" horiz-adv-x="253" 
d="M-71 -209h-35l18 104h21q69 0 80 62l98 558h121l-100 -571q-15 -82 -64.5 -117.5t-138.5 -35.5z" />
    <glyph glyph-name="dotlessj" unicode="&#xfb0f;" horiz-adv-x="253" 
d="M-71 -209h-35l18 104h21q69 0 80 62l98 558h121l-100 -571q-15 -82 -64.5 -117.5t-138.5 -35.5z" />
    <glyph glyph-name="a.alt" horiz-adv-x="556" 
d="M15 136q0 83 55.5 118t153.5 42q87 6 125.5 23t38.5 51q0 58 -89 58q-79 0 -101 -67h-131q21 77 83.5 122t156.5 45q114 0 163 -54.5t33 -148.5l-38 -216q-11 -59 0 -109h-118q-9 28 -6 72q-22 -36 -63.5 -60t-95.5 -24q-73 0 -120 38.5t-47 109.5zM220 85q54 0 93 30.5
t47 77.5l10 55q-48 -28 -137 -36q-93 -9 -93 -69q0 -58 80 -58z" />
    <glyph glyph-name="aacute.alt" horiz-adv-x="556" 
d="M15 136q0 83 55.5 118t153.5 42q87 6 125.5 23t38.5 51q0 58 -89 58q-79 0 -101 -67h-131q21 77 83.5 122t156.5 45q114 0 163 -54.5t33 -148.5l-38 -216q-11 -59 0 -109h-118q-9 28 -6 72q-22 -36 -63.5 -60t-95.5 -24q-73 0 -120 38.5t-47 109.5zM220 85q54 0 93 30.5
t47 77.5l10 55q-48 -28 -137 -36q-93 -9 -93 -69q0 -58 80 -58zM370 593h-93l68 147h152z" />
    <glyph glyph-name="abreve.alt" horiz-adv-x="556" 
d="M15 136q0 83 55.5 118t153.5 42q87 6 125.5 23t38.5 51q0 58 -89 58q-79 0 -101 -67h-131q21 77 83.5 122t156.5 45q114 0 163 -54.5t33 -148.5l-38 -216q-11 -59 0 -109h-118q-9 28 -6 72q-22 -36 -63.5 -60t-95.5 -24q-73 0 -120 38.5t-47 109.5zM220 85q54 0 93 30.5
t47 77.5l10 55q-48 -28 -137 -36q-93 -9 -93 -69q0 -58 80 -58zM336 591q-61 0 -97 42t-35 101h69q9 -57 68 -57q60 0 77 57h70q-8 -60 -49 -101.5t-103 -41.5z" />
    <glyph glyph-name="acircumflex.alt" horiz-adv-x="556" 
d="M15 136q0 83 55.5 118t153.5 42q87 6 125.5 23t38.5 51q0 58 -89 58q-79 0 -101 -67h-131q21 77 83.5 122t156.5 45q114 0 163 -54.5t33 -148.5l-38 -216q-11 -59 0 -109h-118q-9 28 -6 72q-22 -36 -63.5 -60t-95.5 -24q-73 0 -120 38.5t-47 109.5zM220 85q54 0 93 30.5
t47 77.5l10 55q-48 -28 -137 -36q-93 -9 -93 -69q0 -58 80 -58zM160 593l149 154h77l100 -154h-101l-49 71l-69 -71h-107z" />
    <glyph glyph-name="adieresis.alt" horiz-adv-x="556" 
d="M15 136q0 83 55.5 118t153.5 42q87 6 125.5 23t38.5 51q0 58 -89 58q-79 0 -101 -67h-131q21 77 83.5 122t156.5 45q114 0 163 -54.5t33 -148.5l-38 -216q-11 -59 0 -109h-118q-9 28 -6 72q-22 -36 -63.5 -60t-95.5 -24q-73 0 -120 38.5t-47 109.5zM220 85q54 0 93 30.5
t47 77.5l10 55q-48 -28 -137 -36q-93 -9 -93 -69q0 -58 80 -58zM174 593l20 114h117l-20 -114h-117zM356 593l19 114h117l-20 -114h-116z" />
    <glyph glyph-name="agrave.alt" horiz-adv-x="556" 
d="M15 136q0 83 55.5 118t153.5 42q87 6 125.5 23t38.5 51q0 58 -89 58q-79 0 -101 -67h-131q21 77 83.5 122t156.5 45q114 0 163 -54.5t33 -148.5l-38 -216q-11 -59 0 -109h-118q-9 28 -6 72q-22 -36 -63.5 -60t-95.5 -24q-73 0 -120 38.5t-47 109.5zM220 85q54 0 93 30.5
t47 77.5l10 55q-48 -28 -137 -36q-93 -9 -93 -69q0 -58 80 -58zM274 593l-82 147h146l25 -147h-89z" />
    <glyph glyph-name="amacron.alt" horiz-adv-x="556" 
d="M15 136q0 83 55.5 118t153.5 42q87 6 125.5 23t38.5 51q0 58 -89 58q-79 0 -101 -67h-131q21 77 83.5 122t156.5 45q114 0 163 -54.5t33 -148.5l-38 -216q-11 -59 0 -109h-118q-9 28 -6 72q-22 -36 -63.5 -60t-95.5 -24q-73 0 -120 38.5t-47 109.5zM220 85q54 0 93 30.5
t47 77.5l10 55q-48 -28 -137 -36q-93 -9 -93 -69q0 -58 80 -58zM198 606l15 84h252l-14 -84h-253z" />
    <glyph glyph-name="aogonek.alt" horiz-adv-x="556" 
d="M375 -236q-48 0 -80.5 25.5t-32.5 71.5q0 43 35 80t87 59h-37q-9 28 -6 72q-22 -36 -63.5 -60t-95.5 -24q-73 0 -120 38.5t-47 109.5q0 83 55.5 118t153.5 42q87 6 125.5 23t38.5 51q0 58 -89 58q-79 0 -101 -67h-131q21 77 83.5 122t156.5 45q114 0 163 -54.5t33 -148.5
l-38 -216q-11 -59 0 -109h-7q-109 -75 -109 -137q0 -36 32 -36q29 0 39 22h76q-11 -39 -43 -62t-78 -23zM220 85q54 0 93 30.5t47 77.5l10 55q-48 -28 -137 -36q-93 -9 -93 -69q0 -58 80 -58z" />
    <glyph glyph-name="apple" horiz-adv-x="919" 
d="M531 0v695l12 -1q64 -5 123.5 -31t108 -68.5t78 -107t29.5 -140.5t-29.5 -140.5t-78 -106.5t-108 -68t-123.5 -31zM411 0q-152 0 -247.5 101.5t-95.5 245.5t95.5 245.5t247.5 101.5h91v-125h-91q-95 0 -153.5 -64.5t-58.5 -157.5t58.5 -157.5t153.5 -64.5h91v-125h-91z
M796 156q59 77 62 180h-133q-1 -67 -21 -134q44 -15 92 -46zM725 359h133q-3 102 -62 180q-46 -30 -92 -47q20 -65 21 -133zM681 209q20 62 21 127h-148v-106q70 -3 127 -21zM554 359h148q-1 64 -21 126q-59 -17 -127 -20v-106zM554 488q71 5 120 20q-42 112 -120 156v-176z
M554 31q77 42 120 156q-52 16 -120 19v-175zM696 515q42 15 85 42q-74 85 -186 107q63 -50 101 -149zM595 31q112 22 186 107q-43 27 -85 42q-38 -99 -101 -149z" />
    <glyph glyph-name="aring.alt" horiz-adv-x="556" 
d="M15 136q0 83 55.5 118t153.5 42q87 6 125.5 23t38.5 51q0 58 -89 58q-79 0 -101 -67h-131q21 77 83.5 122t156.5 45q114 0 163 -54.5t33 -148.5l-38 -216q-11 -59 0 -109h-118q-9 28 -6 72q-22 -36 -63.5 -60t-95.5 -24q-73 0 -120 38.5t-47 109.5zM220 85q54 0 93 30.5
t47 77.5l10 55q-48 -28 -137 -36q-93 -9 -93 -69q0 -58 80 -58zM330 585q-45 0 -76.5 31t-31.5 75t31.5 75.5t76.5 31.5q44 0 76 -31.5t32 -75.5q0 -43 -32 -74.5t-76 -31.5zM330 640q19 0 33 15t14 36t-14 36t-33 15q-20 0 -34 -15t-14 -36t14 -36t34 -15z" />
    <glyph glyph-name="atilde.alt" horiz-adv-x="561" 
d="M20 136q0 83 55.5 118t153.5 42q87 6 125.5 23t38.5 51q0 58 -89 58q-79 0 -101 -67h-131q21 77 83.5 122t156.5 45q114 0 163 -54.5t33 -148.5l-38 -216q-11 -59 0 -109h-118q-9 28 -6 72q-22 -36 -63.5 -60t-95.5 -24q-73 0 -120 38.5t-47 109.5zM225 85q54 0 93 30.5
t47 77.5l10 55q-48 -28 -137 -36q-93 -9 -93 -69q0 -58 80 -58zM173 590q10 57 40 94t76 37q27 0 63 -22t49 -22q31 0 42 44h60q-10 -58 -39 -94.5t-73 -36.5q-27 0 -64.5 21.5t-50.5 21.5q-31 0 -43 -43h-60z" />
    <glyph glyph-name="backslash.cap" horiz-adv-x="354" 
d="M287 -60h-117l-83 800h117z" />
    <glyph glyph-name="braceleft.cap" horiz-adv-x="339" 
d="M253 -71q-86 -5 -129 45.5t-26 144.5l10 55q10 59 -9.5 86.5t-68.5 29.5l16 93q50 -1 78 23t38 82l11 64q17 100 71.5 138t145.5 28l-17 -97q-72 6 -87 -80l-13 -76q-10 -59 -36.5 -90t-78.5 -47q48 -20 62.5 -56t2.5 -98l-11 -60q-17 -91 58 -88z" />
    <glyph glyph-name="braceright.cap" horiz-adv-x="339" 
d="M111 721q86 5 128.5 -45t25.5 -145l-10 -55q-10 -59 9.5 -86.5t69.5 -29.5l-16 -93q-51 1 -79 -23t-38 -82l-11 -64q-17 -100 -71.5 -138t-145.5 -28l17 97q72 -6 87 80l13 76q10 59 36.5 90t78.5 47q-47 20 -61.5 56t-2.5 98l11 60q17 91 -59 88z" />
    <glyph glyph-name="bracketleft.cap" horiz-adv-x="326" 
d="M11 -70l138 790h230l-18 -104h-116l-102 -582h116l-17 -104h-231z" />
    <glyph glyph-name="bracketright.cap" horiz-adv-x="326" 
d="M340 720l-138 -790h-231l18 104h118l102 582h-118l18 104h231z" />
    <glyph glyph-name="eight.denominator" horiz-adv-x="372" 
d="M13 120q0 33 20 61.5t61 42.5q-39 27 -39 75q0 52 42 86.5t99 34.5q55 0 94.5 -33.5t39.5 -81.5q0 -64 -66 -91q57 -31 57 -89q0 -59 -44.5 -95.5t-112.5 -36.5q-69 0 -110 36t-41 91zM165 71q29 0 48 14.5t19 40.5q0 25 -19.5 38t-42.5 13q-22 0 -43 -13t-21 -41
q0 -21 17 -36.5t42 -15.5zM188 252q21 0 37.5 12.5t16.5 33.5q0 19 -15 31.5t-33 12.5q-19 0 -35 -12t-16 -33q0 -20 12 -32.5t33 -12.5z" />
    <glyph glyph-name="eight.inferior" horiz-adv-x="301" 
d="M-18 10q0 29 16.5 53t48.5 34q-31 18 -31 63q0 41 35 70.5t84 29.5q48 0 79.5 -29t31.5 -69q0 -49 -55 -72q43 -21 43 -73q0 -46 -34.5 -77t-92.5 -31q-56 0 -90.5 28t-34.5 73zM107 -23q19 0 32.5 11t13.5 33q0 16 -13 26.5t-31 10.5t-32.5 -11t-14.5 -31
q0 -18 12.5 -28.5t32.5 -10.5zM128 120q16 0 28 10t12 28q0 13 -10 23t-25 10q-16 0 -28.5 -9.5t-12.5 -26.5q0 -15 10 -25t26 -10z" />
    <glyph glyph-name="eight.numerator" horiz-adv-x="372" 
d="M60 392q0 33 20 61.5t62 42.5q-39 27 -39 75q0 52 41.5 86.5t99.5 34.5q55 0 94 -33.5t39 -81.5q0 -64 -65 -91q56 -31 56 -89q0 -59 -44 -95.5t-112 -36.5q-69 0 -110.5 36t-41.5 91zM213 343q29 0 47.5 14.5t18.5 40.5q0 25 -19 38t-42 13t-44 -13t-21 -41
q0 -21 17 -36.5t43 -15.5zM236 524q21 0 37 12.5t16 33.5q0 19 -14.5 31.5t-32.5 12.5q-19 0 -35.5 -12t-16.5 -33q0 -20 12.5 -32.5t33.5 -12.5z" />
    <glyph glyph-name="eight.superior" horiz-adv-x="301" 
d="M56 433q0 29 16.5 53t48.5 34q-31 18 -31 63q0 41 35 70.5t84 29.5q48 0 79.5 -29t31.5 -69q0 -49 -55 -72q43 -21 43 -73q0 -46 -34.5 -77t-92.5 -31q-56 0 -90.5 28t-34.5 73zM181 400q19 0 33 11t14 33q0 16 -13.5 26.5t-31.5 10.5t-32 -11t-14 -31q0 -18 12 -28.5
t32 -10.5zM202 543q16 0 28.5 10t12.5 28q0 13 -10.5 23t-25.5 10q-16 0 -28.5 -9.5t-12.5 -26.5q0 -15 10 -25t26 -10z" />
    <glyph glyph-name="elevensixteenths" horiz-adv-x="1438" 
d="M1315 308q-3 16 -15.5 25.5t-29.5 9.5q-32 0 -59 -31t-33 -87q31 39 87 39q45 0 80.5 -33.5t35.5 -86.5q0 -65 -42.5 -108.5t-109.5 -43.5q-61 0 -107 41.5t-46 130.5q0 111 57 185t142 73q57 -1 91.5 -33t36.5 -81h-88zM413 0l477 680h97l-477 -680h-97zM415 272l45 260
h-81l12 67q98 2 118 81h73l-71 -408h-96zM137 272l45 260h-81l12 67q98 2 118 81h73l-71 -408h-96zM859 0l46 260h-81l12 67q99 2 117 81h74l-72 -408h-96zM1226 70q25 0 43 19t18 46q0 24 -15.5 39.5t-39.5 15.5q-27 0 -45 -16.5t-18 -42.5t15.5 -43.5t41.5 -17.5z" />
    <glyph glyph-name="emdash.cap" horiz-adv-x="841" 
d="M44 266l21 123h758l-22 -123h-757z" />
    <glyph glyph-name="endash.cap" horiz-adv-x="539" 
d="M44 266l21 123h456l-22 -123h-455z" />
    <glyph glyph-name="fifteensixteenths" horiz-adv-x="1489" 
d="M1366 308q-3 16 -15.5 25.5t-28.5 9.5q-33 0 -59.5 -31t-32.5 -87q29 39 87 39q44 0 80 -33.5t36 -86.5q0 -65 -43 -108.5t-110 -43.5q-60 0 -106 41.5t-46 130.5q0 111 57 185t142 73q57 -1 91 -33t36 -81h-88zM341 386h94q3 -20 19.5 -29.5t36.5 -9.5q28 0 45.5 18.5
t17.5 46.5q0 24 -15 39t-38 15q-34 0 -60 -32l-73 38l63 208h232l-15 -82h-160l-28 -88q33 33 80 33q42 0 75.5 -34t33.5 -94q0 -62 -42 -105.5t-115 -43.5q-63 0 -106 34t-45 86zM464 0l478 680h97l-478 -680h-97zM911 0l45 260h-81l12 67q98 2 118 81h73l-71 -408h-96z
M137 272l45 260h-81l12 67q98 2 118 81h73l-71 -408h-96zM1277 70q26 0 44 19t18 46q0 24 -15.5 39.5t-40.5 15.5q-27 0 -44.5 -16.5t-17.5 -42.5t15.5 -43.5t40.5 -17.5z" />
    <glyph glyph-name="five.denominator" horiz-adv-x="367" 
d="M7 114h94q3 -20 19.5 -29.5t36.5 -9.5q28 0 46 18.5t18 46.5q0 24 -15.5 39t-38.5 15q-34 0 -60 -32l-72 38l62 208h233l-15 -82h-161l-27 -88q33 33 79 33q42 0 76 -34t34 -94q0 -62 -42.5 -105.5t-115.5 -43.5q-63 0 -106 34t-45 86z" />
    <glyph glyph-name="five.inferior" horiz-adv-x="311" 
d="M-12 15h78q4 -29 46 -29q20 0 34 13t14 36q0 41 -42 41q-30 0 -48 -21l-63 32l54 170h201l-11 -69h-140l-26 -71q26 24 63 24q40 0 67.5 -26.5t27.5 -75.5q0 -56 -38 -90.5t-94 -34.5q-53 0 -88 28t-35 73z" />
    <glyph glyph-name="five.numerator" horiz-adv-x="367" 
d="M54 386h95q3 -20 19.5 -29.5t36.5 -9.5q28 0 45.5 18.5t17.5 46.5q0 24 -15 39t-38 15q-35 0 -61 -32l-72 38l63 208h232l-15 -82h-160l-28 -88q33 33 79 33q43 0 76.5 -34t33.5 -94q0 -62 -42 -105.5t-115 -43.5q-63 0 -106.5 34t-45.5 86z" />
    <glyph glyph-name="five.superior" horiz-adv-x="311" 
d="M62 438h79q4 -29 45 -29q20 0 34.5 13t14.5 36q0 20 -12 30.5t-31 10.5q-29 0 -47 -21l-64 32l55 170h201l-12 -69h-140l-26 -71q26 24 63 24q40 0 67.5 -26.5t27.5 -75.5q0 -56 -38 -90.5t-94 -34.5q-53 0 -88 28t-35 73z" />
    <glyph glyph-name="fivesixteenths" horiz-adv-x="1211" 
d="M1088 308q-3 16 -15.5 25.5t-28.5 9.5q-33 0 -60 -31t-33 -87q31 39 88 39q44 0 79.5 -33.5t35.5 -86.5q0 -65 -42.5 -108.5t-109.5 -43.5q-60 0 -106.5 41.5t-46.5 130.5q0 111 57.5 185t141.5 73q57 -1 91.5 -33t36.5 -81h-88zM62 386h94q3 -20 20 -29.5t37 -9.5
q28 0 45.5 18.5t17.5 46.5q0 24 -15.5 39t-37.5 15q-35 0 -61 -32l-72 38l63 208h232l-15 -82h-160l-28 -88q33 33 79 33q43 0 76.5 -34t33.5 -94q0 -62 -42 -105.5t-115 -43.5q-63 0 -106.5 34t-45.5 86zM186 0l477 680h97l-477 -680h-97zM633 0l45 260h-81l12 67
q98 2 118 81h73l-71 -408h-96zM999 70q26 0 43.5 19t17.5 46q0 24 -15 39.5t-40 15.5q-27 0 -44.5 -16.5t-17.5 -42.5t15.5 -43.5t40.5 -17.5z" />
    <glyph glyph-name="four.denominator" horiz-adv-x="402" 
d="M180 0l14 78h-188l14 78l216 252h102l-45 -256h61l-12 -74h-62l-14 -78h-86zM106 152h101l27 156z" />
    <glyph glyph-name="four.inferior" horiz-adv-x="337" 
d="M129 -80l11 62h-157l13 72l193 203h75l-35 -209h43l-11 -66h-44l-11 -62h-77zM66 48h86l18 108z" />
    <glyph glyph-name="four.numerator" horiz-adv-x="402" 
d="M228 272l14 78h-188l13 78l216 252h102l-44 -256h61l-13 -74h-61l-14 -78h-86zM153 424h101l27 156z" />
    <glyph glyph-name="four.superior" horiz-adv-x="337" 
d="M203 343l11 62h-157l13 72l193 203h76l-36 -209h44l-11 -66h-45l-11 -62h-77zM141 471h85l19 108z" />
    <glyph glyph-name="hyphen.cap" horiz-adv-x="334" 
d="M44 266l21 123h251l-22 -123h-250z" />
    <glyph glyph-name="idotaccent" horiz-adv-x="253" 
d="M21 0l90 515h121l-90 -515h-121zM121 589l22 125h126l-21 -125h-127z" />
    <glyph glyph-name="nbspace" horiz-adv-x="308" 
 />
    <glyph glyph-name="nine.denominator" horiz-adv-x="390" 
d="M8 108h89q9 -37 54 -37q33 0 56.5 29.5t29.5 84.5q-30 -35 -84 -35q-46 0 -81.5 33.5t-35.5 87.5q0 64 43.5 106.5t108.5 42.5q27 0 52 -8t49 -26t38 -52t14 -81q0 -112 -49.5 -186.5t-141.5 -74.5q-65 0 -101 32.5t-41 83.5zM184 224q26 0 43.5 18t17.5 44
q0 23 -14 39.5t-40 16.5q-25 0 -43 -17t-18 -44q0 -25 14 -41t40 -16z" />
    <glyph glyph-name="nine.inferior" horiz-adv-x="321" 
d="M263 120q0 -48 -16.5 -93.5t-55 -79t-92.5 -33.5q-49 0 -77.5 26.5t-34.5 69.5h80q4 -26 33 -26q64 0 73 86q-24 -27 -66 -27q-43 0 -71 28.5t-28 72.5q0 54 35.5 89t89.5 35q60 0 95 -38.5t35 -109.5zM138 197q-21 0 -35 -13.5t-14 -33.5q0 -42 44 -42q22 0 35 14t13 33
q0 17 -11.5 29.5t-31.5 12.5z" />
    <glyph glyph-name="nine.numerator" horiz-adv-x="390" 
d="M55 380h90q9 -37 53 -37q34 0 57 29.5t29 84.5q-30 -35 -83 -35q-46 0 -82 33.5t-36 87.5q0 64 44 106.5t109 42.5q60 0 106 -39t46 -128q0 -112 -49.5 -186.5t-141.5 -74.5q-64 0 -100.5 32.5t-41.5 83.5zM232 496q25 0 42.5 18t17.5 44q0 23 -14 39.5t-39 16.5
q-26 0 -44 -17t-18 -44q0 -25 14 -41t41 -16z" />
    <glyph glyph-name="nine.superior" horiz-adv-x="321" 
d="M338 543q0 -77 -43 -141.5t-122 -64.5q-49 0 -77.5 26.5t-34.5 69.5h81q4 -26 32 -26q31 0 50.5 22t23.5 64q-24 -27 -67 -27t-71 28.5t-28 72.5q0 54 36 89t89 35q60 0 95.5 -38.5t35.5 -109.5zM212 620q-21 0 -35 -13.5t-14 -33.5q0 -42 44 -42q22 0 35 14t13 33
q0 17 -11.5 29.5t-31.5 12.5z" />
    <glyph glyph-name="ninesixteenths" horiz-adv-x="1224" 
d="M63 380h90q7 -37 53 -37q34 0 57 29.5t29 84.5q-30 -35 -83 -35q-46 0 -82 33.5t-36 87.5q0 64 44 106.5t109 42.5q60 0 106 -39t46 -128q0 -112 -49.5 -186.5t-141.5 -74.5q-64 0 -100.5 32.5t-41.5 83.5zM1101 308q-3 16 -15.5 25.5t-29.5 9.5q-32 0 -59 -31t-33 -87
q31 39 87 39q45 0 80.5 -33.5t35.5 -86.5q0 -65 -42.5 -108.5t-109.5 -43.5q-61 0 -107 41.5t-46 130.5q0 111 57 185t142 73q57 -1 91.5 -33t36.5 -81h-88zM199 0l477 680h97l-477 -680h-97zM646 0l45 260h-81l12 67q98 2 118 81h73l-71 -408h-96zM1012 70q25 0 43 19
t18 46q0 24 -15.5 39.5t-39.5 15.5q-27 0 -45 -16.5t-18 -42.5t15.5 -43.5t41.5 -17.5zM240 496q25 0 42.5 18t17.5 44q0 23 -14 39.5t-39 16.5q-26 0 -44 -17t-18 -44q0 -25 14 -41t41 -16z" />
    <glyph glyph-name="one.denominator" horiz-adv-x="286" 
d="M81 0l46 260h-81l11 67q98 2 118 81h74l-72 -408h-96z" />
    <glyph glyph-name="one.inferior" horiz-adv-x="261" 
d="M45 -80l35 206h-62l11 59q75 4 95 72h62l-58 -337h-83z" />
    <glyph glyph-name="one.numerator" horiz-adv-x="286" 
d="M129 272l45 260h-81l12 67q98 2 118 81h73l-71 -408h-96z" />
    <glyph glyph-name="one.superior" horiz-adv-x="261" 
d="M119 343l35 206h-62l11 59q75 4 95 72h62l-58 -337h-83z" />
    <glyph glyph-name="onesixteenth" horiz-adv-x="1159" 
d="M1037 308q-3 16 -15.5 25.5t-29.5 9.5q-33 0 -59.5 -31t-32.5 -87q31 39 87 39q45 0 80.5 -33.5t35.5 -86.5q0 -65 -42.5 -108.5t-110.5 -43.5q-60 0 -106 41.5t-46 130.5q0 111 57 185t142 73q57 -1 91.5 -33t36.5 -81h-88zM135 0l477 680h97l-477 -680h-97zM137 272
l45 260h-81l12 67q98 2 118 81h73l-71 -408h-96zM581 0l46 260h-81l11 67q98 2 118 81h73l-71 -408h-96zM947 70q26 0 44 19t18 46q0 24 -15.5 39.5t-40.5 15.5q-26 0 -44 -16.5t-18 -42.5q0 -25 15.5 -43t40.5 -18z" />
    <glyph glyph-name="parenleft.cap" horiz-adv-x="317" 
d="M154 -80q-103 155 -103 345q0 144 62 264t161 201h112q-211 -206 -211 -477q0 -187 79 -333h-100z" />
    <glyph glyph-name="parenright.cap" horiz-adv-x="317" 
d="M187 730q104 -154 104 -345q0 -144 -62 -264t-162 -201h-112q211 206 211 477q0 190 -79 333h100z" />
    <glyph glyph-name="seven.denominator" horiz-adv-x="363" 
d="M50 0q14 103 67.5 188.5t114.5 130.5h-184l15 89h285l-15 -84q-66 -55 -118.5 -137.5t-67.5 -186.5h-97z" />
    <glyph glyph-name="seven.inferior" horiz-adv-x="296" 
d="M14 -80q21 149 148 260h-147l13 77h235l-11 -71q-133 -128 -154 -266h-84z" />
    <glyph glyph-name="seven.numerator" horiz-adv-x="363" 
d="M97 272q15 103 68.5 188.5t113.5 130.5h-184l16 89h284l-15 -84q-66 -55 -118 -138t-68 -186h-97z" />
    <glyph glyph-name="seven.superior" horiz-adv-x="296" 
d="M88 343q22 150 149 260h-148l13 77h236l-12 -71q-133 -128 -154 -266h-84z" />
    <glyph glyph-name="sevensixteenths" horiz-adv-x="1177" 
d="M1054 308q-3 16 -15 25.5t-29 9.5q-33 0 -59.5 -31t-32.5 -87q31 39 87 39q44 0 80 -33.5t36 -86.5q0 -65 -43 -108.5t-110 -43.5q-60 0 -106 41.5t-46 130.5q0 111 57 185t142 73q57 -1 91.5 -33t36.5 -81h-89zM153 0l477 680h97l-477 -680h-97zM105 272
q15 103 68.5 188.5t113.5 130.5h-184l16 89h284l-15 -84q-66 -55 -118 -138t-68 -186h-97zM599 0l46 260h-82l12 67q98 2 118 81h73l-71 -408h-96zM965 70q26 0 44 19t18 46q0 24 -15.5 39.5t-40.5 15.5q-26 0 -44 -16.5t-18 -42.5q0 -25 15.5 -43t40.5 -18z" />
    <glyph glyph-name="six.denominator" horiz-adv-x="373" 
d="M258 308q-3 16 -15 25.5t-29 9.5q-33 0 -59.5 -31t-32.5 -87q31 39 87 39q44 0 80 -33.5t36 -86.5q0 -65 -43 -108.5t-110 -43.5q-60 0 -106 41.5t-46 130.5q0 111 57 185t142 73q57 -1 91.5 -33t36.5 -81h-89zM169 70q26 0 44 19t18 46q0 24 -15.5 39.5t-40.5 15.5
q-26 0 -44 -16.5t-18 -42.5q0 -25 15.5 -43t40.5 -18z" />
    <glyph glyph-name="six.inferior" horiz-adv-x="322" 
d="M-1 57q0 81 40.5 146t115.5 65q49 0 77.5 -26.5t34.5 -69.5h-80q-4 26 -33 26q-25 0 -43 -22.5t-22 -63.5q24 27 66 27q44 0 71.5 -28t27.5 -72q0 -54 -35.5 -89.5t-88.5 -35.5q-60 0 -95.5 38t-35.5 105zM125 -15q21 0 34.5 13.5t13.5 33.5q0 42 -43 42q-22 0 -35.5 -14
t-13.5 -33q0 -17 11.5 -29.5t32.5 -12.5z" />
    <glyph glyph-name="six.numerator" horiz-adv-x="373" 
d="M306 580q-3 16 -15.5 25.5t-29.5 9.5q-32 0 -59 -31t-33 -87q31 39 87 39q45 0 80.5 -33.5t35.5 -86.5q0 -65 -42.5 -108.5t-109.5 -43.5q-60 0 -106.5 41.5t-46.5 130.5q0 111 57 185t142 73q57 -1 91.5 -33t36.5 -81h-88zM217 342q26 0 43.5 19t17.5 46
q0 24 -15.5 39.5t-39.5 15.5q-27 0 -45 -16.5t-18 -42.5t15.5 -43.5t41.5 -17.5z" />
    <glyph glyph-name="six.superior" horiz-adv-x="322" 
d="M73 480q0 37 9.5 73t28 67.5t49.5 51t70 19.5q49 0 77.5 -26.5t34.5 -69.5h-81q-4 26 -32 26q-25 0 -43.5 -22.5t-22.5 -63.5q24 27 67 27t71 -28t28 -72q0 -54 -36 -89.5t-89 -35.5q-60 0 -95.5 38t-35.5 105zM199 408q21 0 35 13.5t14 33.5q0 42 -44 42
q-22 0 -35.5 -14t-13.5 -33q0 -17 11.5 -29.5t32.5 -12.5z" />
    <glyph glyph-name="slash.cap" horiz-adv-x="354" 
d="M-46 -60l357 800h126l-358 -800h-125z" />
    <glyph glyph-name="thirteensixteenths" horiz-adv-x="1513" 
d="M1390 308q-3 16 -15.5 25.5t-29.5 9.5q-32 0 -59 -31t-33 -87q31 39 88 39q44 0 79.5 -33.5t35.5 -86.5q0 -65 -42.5 -108.5t-109.5 -43.5q-60 0 -106.5 41.5t-46.5 130.5q0 111 57.5 185t141.5 73q57 -1 91.5 -33t36.5 -81h-88zM347 409h93q0 -62 61 -62q28 0 44.5 17
t16.5 37t-13 32t-27 12h-34l13 76h20q21 0 35 14t14 35q0 19 -11.5 31.5t-32.5 12.5q-22 0 -38 -15.5t-18 -36.5h-93q9 59 49.5 95.5t107.5 36.5q62 0 96.5 -34t34.5 -80q0 -32 -17.5 -57.5t-49.5 -37.5q59 -20 59 -92q0 -49 -42 -89t-114 -40q-78 0 -118 44t-36 101zM488 0
l477 680h97l-477 -680h-97zM935 0l45 260h-81l12 67q98 2 118 81h73l-71 -408h-96zM137 272l45 260h-81l12 67q98 2 118 81h73l-71 -408h-96zM1301 70q26 0 43.5 19t17.5 46q0 24 -15 39.5t-40 15.5q-27 0 -45 -16.5t-18 -42.5t15.5 -43.5t41.5 -17.5z" />
    <glyph glyph-name="three.denominator" horiz-adv-x="381" 
d="M13 137h93q0 -62 61 -62q28 0 45 17t17 37q0 19 -13.5 31.5t-27.5 12.5h-34l13 76h20q21 0 35.5 14t14.5 35q0 19 -11.5 31.5t-33.5 12.5t-37.5 -15.5t-17.5 -36.5h-93q8 59 48.5 95.5t107.5 36.5q63 0 97.5 -34.5t34.5 -79.5q0 -32 -18 -57.5t-50 -37.5q29 -10 44.5 -35
t15.5 -57q0 -48 -42.5 -88.5t-114.5 -40.5q-78 0 -118 44t-36 101z" />
    <glyph glyph-name="three.inferior" horiz-adv-x="333" 
d="M2 43h77q-2 -27 11 -42.5t41 -15.5q25 0 37.5 11.5t12.5 30.5q0 14 -10 23t-24 9h-30l10 68h23q15 0 26.5 10t11.5 28q0 13 -9.5 23.5t-26.5 10.5q-20 0 -33.5 -15t-15.5 -30h-76q6 48 40 81t89 33q53 0 82 -28t29 -65q0 -67 -57 -81q25 -8 37.5 -28t12.5 -43
q0 -49 -36 -79t-92 -30q-66 0 -101.5 35.5t-28.5 93.5z" />
    <glyph glyph-name="three.numerator" horiz-adv-x="381" 
d="M60 409h93q0 -62 62 -62q27 0 44 17t17 37q0 19 -13 31.5t-27 12.5h-34l13 76h20q20 0 34.5 14t14.5 35q0 19 -11.5 31.5t-32.5 12.5q-22 0 -38 -15.5t-18 -36.5h-93q9 59 49.5 95.5t107.5 36.5q62 0 96.5 -34t34.5 -80q0 -32 -18 -57.5t-49 -37.5q59 -20 59 -92
q0 -49 -42 -89t-114 -40q-79 0 -119 44t-36 101z" />
    <glyph glyph-name="three.superior" horiz-adv-x="333" 
d="M76 466h77q-3 -58 52 -58q50 0 50 42q0 14 -10 23t-24 9h-30l10 68h23q16 0 27 10t11 28q0 13 -9.5 23.5t-26.5 10.5q-20 0 -33.5 -15t-15.5 -30h-76q6 48 40 81t90 33q53 0 82 -28t29 -65q0 -67 -58 -81q25 -8 38 -28t13 -43q0 -49 -36.5 -79t-92.5 -30
q-66 0 -101.5 35.5t-28.5 93.5z" />
    <glyph glyph-name="threesixteenths" horiz-adv-x="1236" 
d="M1113 308q-3 16 -15.5 25.5t-29.5 9.5q-32 0 -59 -31t-33 -87q31 39 87 39q45 0 80.5 -33.5t35.5 -86.5q0 -65 -42.5 -108.5t-109.5 -43.5q-61 0 -107 41.5t-46 130.5q0 111 57 185t142 73q57 -1 91.5 -33t36.5 -81h-88zM69 409h93q0 -62 62 -62q27 0 44 17t17 37
q0 19 -13 31.5t-27 12.5h-34l13 76h20q20 0 34.5 14t14.5 35q0 19 -11.5 31.5t-32.5 12.5q-22 0 -38 -15.5t-18 -36.5h-93q9 59 49 95.5t107 36.5q63 0 97.5 -34t34.5 -80q0 -32 -18 -57.5t-49 -37.5q28 -10 43.5 -35t15.5 -57q0 -49 -42 -89t-114 -40q-79 0 -119 44
t-36 101zM211 0l477 680h97l-477 -680h-97zM657 0l46 260h-81l12 67q99 2 117 81h74l-72 -408h-96zM1024 70q25 0 43 19t18 46q0 24 -15.5 39.5t-39.5 15.5q-27 0 -45 -16.5t-18 -42.5t15.5 -43.5t41.5 -17.5z" />
    <glyph glyph-name="two.denominator" horiz-adv-x="356" 
d="M-6 0l8 45q19 106 150 169q45 21 63 40.5t18 44.5q0 18 -12 30.5t-32 12.5q-21 0 -36 -16.5t-18 -39.5h-91q5 57 45.5 96t105.5 39q58 0 93.5 -34.5t35.5 -86.5q0 -31 -10 -55t-31.5 -42.5t-41.5 -30.5t-53 -28q-67 -32 -75 -67h174l-14 -77h-279z" />
    <glyph glyph-name="two.inferior" horiz-adv-x="320" 
d="M-15 -80l8 44q8 47 39.5 76.5t84.5 56.5q62 31 62 67q0 33 -31 33q-18 0 -30.5 -12t-14.5 -31h-80q7 51 41 82.5t89 31.5q50 0 79 -28.5t29 -73.5q0 -46 -26 -73t-79 -52q-60 -29 -69 -51h139l-12 -70h-229z" />
    <glyph glyph-name="two.numerator" horiz-adv-x="356" 
d="M42 272l8 45q18 106 149 169q45 22 63 41t18 44q0 18 -12 30.5t-31 12.5q-22 0 -37 -16.5t-18 -39.5h-91q5 57 46 96t106 39q58 0 93 -34.5t35 -86.5q0 -58 -34 -91t-101 -65q-68 -33 -76 -67h175l-14 -77h-279z" />
    <glyph glyph-name="two.superior" horiz-adv-x="320" 
d="M59 343l8 44q8 45 40 76t84 57q62 32 62 67q0 33 -31 33q-18 0 -30.5 -12t-14.5 -31h-80q7 50 41.5 82t88.5 32q51 0 80 -28.5t29 -73.5q0 -46 -26 -72.5t-79 -52.5q-62 -30 -70 -51h139l-12 -70h-229z" />
    <glyph glyph-name="zero.denominator" horiz-adv-x="394" 
d="M208 422q70 0 109.5 -48.5t39.5 -126.5q0 -106 -49.5 -180.5t-140.5 -74.5q-69 0 -107.5 48.5t-38.5 129.5q0 109 52 180.5t135 71.5zM172 71q39 0 63 52t24 128q0 92 -54 92q-39 0 -63.5 -50t-24.5 -130q0 -46 15 -69t40 -23z" />
    <glyph glyph-name="zero.inferior" horiz-adv-x="338" 
d="M127 -92q-62 0 -94.5 43t-32.5 110q0 86 44 143t110 57q60 0 92.5 -43t32.5 -108q0 -88 -43.5 -145t-108.5 -57zM127 -21q30 0 49 39.5t19 100.5q0 71 -42 71q-32 0 -51 -39.5t-19 -100.5q0 -71 44 -71z" />
    <glyph glyph-name="zero.numerator" horiz-adv-x="394" 
d="M255 694q70 0 110 -48.5t40 -126.5q0 -106 -49.5 -180.5t-140.5 -74.5q-69 0 -108 49t-39 129q0 108 52.5 180t134.5 72zM220 343q38 0 62.5 52t24.5 128q0 92 -55 92q-38 0 -63 -50t-25 -130q0 -92 56 -92z" />
    <glyph glyph-name="zero.superior" horiz-adv-x="338" 
d="M201 331q-62 0 -94.5 43t-32.5 110q0 86 44.5 143t110.5 57q59 0 91.5 -43t32.5 -108q0 -88 -43.5 -145t-108.5 -57zM201 402q31 0 49.5 39t18.5 101q0 71 -42 71q-32 0 -51 -39.5t-19 -100.5q0 -71 44 -71z" />
    </font>
</defs>
</svg>
