<?xml version="1.0" standalone="no"?>
<!DOCTYPE svg PUBLIC "-//W3C//DTD SVG 1.1//EN" "http://www.w3.org/Graphics/SVG/1.1/DTD/svg11.dtd" >
<svg>
<metadata>
Created by FontForge 20090622 at Wed Mar  4 21:20:52 2020
 By deploy user
Copyright (c) House Industries/Brand Design Co. Inc,, 2003. All rights reserved.
</metadata>
<defs>
<font id="ChaletBook" horiz-adv-x="546" >
  <font-face 
    font-family="ChaletBook"
    font-weight="400"
    font-stretch="normal"
    units-per-em="1000"
    panose-1="2 0 5 0 4 0 0 2 0 4"
    ascent="800"
    descent="-200"
    x-height="515"
    cap-height="680"
    bbox="-80 -285 1479 940"
    underline-thickness="8"
    underline-position="-47"
    unicode-range="U+0020-U+FB04"
  />
<missing-glyph horiz-adv-x="295" 
 />
    <glyph glyph-name="ff" unicode="ff" horiz-adv-x="613" 
d="M100 0v439h-75v76h75v22q0 96 50 145.5t131 49.5l31 -3v-73q-16 2 -28 2q-53 0 -77.5 -29t-24.5 -92v-22h203v35q0 96 49.5 145.5t133.5 49.5l34 -3v-73q-19 2 -31 2q-54 0 -79 -29t-25 -92v-35h128v-76h-128v-439h-82v439h-203v-439h-82z" />
    <glyph glyph-name="fi" unicode="fi" 
d="M100 0v439h-75v76h75v35q0 96 49 145.5t128 49.5l30 -3v-73q-15 2 -27 2q-50 0 -74 -29t-24 -92v-35h285v-515h-82v439h-203v-439h-82zM381 613v101h90v-101h-90z" />
    <glyph glyph-name="fl" unicode="fl" horiz-adv-x="547" 
d="M100 0v439h-75v76h75v35q0 96 48 145.5t127 49.5l28 -3v-73q-13 2 -25 2q-50 0 -73 -29t-23 -92v-35h121v-76h-121v-439h-82zM385 0v744h82v-744h-82z" />
    <glyph glyph-name="ffi" unicode="ffi" horiz-adv-x="831" 
d="M100 0v439h-75v76h75v22q0 96 50 145.5t131 49.5l31 -3v-73q-16 2 -28 2q-53 0 -77.5 -29t-24.5 -92v-22h203v35q0 96 49 145.5t128 49.5l30 -3v-73q-15 2 -27 2q-50 0 -74 -29t-24 -92v-35h285v-515h-82v439h-203v-439h-82v439h-203v-439h-82zM666 613v101h90v-101h-90z
" />
    <glyph glyph-name="ffl" unicode="ffl" horiz-adv-x="832" 
d="M100 0v439h-75v76h75v22q0 96 50 145.5t131 49.5l31 -3v-73q-16 2 -28 2q-53 0 -77.5 -29t-24.5 -92v-22h203v35q0 96 48 145.5t127 49.5l28 -3v-73q-13 2 -25 2q-50 0 -73 -29t-23 -92v-35h121v-76h-121v-439h-82v439h-203v-439h-82zM670 0v744h82v-744h-82z" />
    <glyph glyph-name=".notdef" horiz-adv-x="295" 
 />
    <glyph glyph-name=".null" horiz-adv-x="0" 
 />
    <glyph glyph-name="nonmarkingreturn" horiz-adv-x="333" 
 />
    <glyph glyph-name="space" unicode=" " horiz-adv-x="295" 
 />
    <glyph glyph-name="space" unicode="&#xa0;" horiz-adv-x="295" 
 />
    <glyph glyph-name="exclam" unicode="!" horiz-adv-x="271" 
d="M100 203l-12 477h95l-12 -477h-71zM90 0v107h91v-107h-91z" />
    <glyph glyph-name="quotedbl" unicode="&#x22;" horiz-adv-x="367" 
d="M233 441l-13 239h95l-13 -239h-69zM65 441l-13 239h95l-13 -239h-69z" />
    <glyph glyph-name="numbersign" unicode="#" horiz-adv-x="558" 
d="M185 130h-75l18 129h-100l10 76h101l19 137h-99l10 76h100l19 132h75l-19 -132h109l19 132h75l-19 -132h102l-10 -76h-103l-19 -137h101l-10 -76h-102l-18 -129h-75l18 129h-109zM233 472l-19 -137h109l19 137h-109z" />
    <glyph glyph-name="dollar" unicode="$" horiz-adv-x="528" 
d="M243 -82v108q-90 7 -148.5 62t-60.5 139h84q1 -52 35.5 -86.5t89.5 -41.5v216q-97 23 -143 63t-46 118q0 74 51.5 118t137.5 47v56h54v-59q80 -11 125 -59.5t50 -120.5h-84q-3 39 -26 67t-65 37v-192q99 -24 144.5 -64.5t45.5 -123.5q0 -78 -51.5 -123.5t-138.5 -52.5
v-108h-54zM403 201q0 37 -22 60t-84 41v-203q51 6 78.5 33t27.5 69zM139 497q0 -36 21.5 -56.5t82.5 -37.5v183q-51 -3 -77.5 -26t-26.5 -63z" />
    <glyph glyph-name="percent" unicode="%" horiz-adv-x="786" 
d="M191 361q-66 0 -113.5 48t-47.5 116q0 69 47.5 117t113.5 48t113 -48t47 -117q0 -68 -47 -116t-113 -48zM596 -9q-66 0 -113.5 48t-47.5 116q0 69 47.5 117t113.5 48t113 -48t47 -117q0 -68 -47 -116t-113 -48zM163 0l382 680h78l-383 -680h-77zM278 525q0 39 -25.5 67.5
t-61.5 28.5q-37 0 -62.5 -28.5t-25.5 -67.5t25.5 -67t62.5 -28t62 28t25 67zM683 155q0 39 -25.5 67.5t-61.5 28.5q-37 0 -62.5 -28.5t-25.5 -67.5t25.5 -67t62.5 -28t62 28t25 67z" />
    <glyph glyph-name="ampersand" unicode="&#x26;" horiz-adv-x="628" 
d="M283 -12q-97 0 -166.5 56t-69.5 149q0 122 148 207l-13 16q-53 65 -53 130q0 63 45.5 105t111.5 42t109.5 -39.5t43.5 -103.5q0 -53 -30 -93t-97 -75l152 -190q13 41 13 84v76h79v-76q0 -84 -38 -151l101 -125h-101l-49 60q-74 -72 -186 -72zM283 64q85 0 138 55
l-182 226q-61 -36 -81 -71.5t-20 -80.5q0 -59 39.5 -94t105.5 -35zM213 546q0 -40 30 -77l26 -33q86 44 86 112q0 32 -19 52t-51 20q-31 0 -51.5 -21t-20.5 -53z" />
    <glyph glyph-name="quotesingle" unicode="'" horiz-adv-x="199" 
d="M65 441l-13 239h95l-13 -239h-69z" />
    <glyph glyph-name="parenleft" unicode="(" horiz-adv-x="319" 
d="M227 -122q-74 79 -119 201.5t-45 251.5q0 128 45 251t119 202h73q-145 -198 -145 -453q0 -257 145 -453h-73z" />
    <glyph glyph-name="parenright" unicode=")" horiz-adv-x="319" 
d="M19 -122q145 196 145 453q0 255 -145 453h73q74 -79 119 -202t45 -251q0 -129 -45 -251.5t-119 -201.5h-73z" />
    <glyph glyph-name="asterisk" unicode="*" horiz-adv-x="351" 
d="M128 416l-48 29l50 86l-98 -2v58l98 -2l-50 87l48 28l47 -88l47 88l50 -28l-52 -87l98 2v-57l-98 1l52 -86l-50 -29l-46 89z" />
    <glyph glyph-name="plus" unicode="+" horiz-adv-x="498" 
d="M211 97v168h-165v72h165v168h76v-168h165v-72h-165v-168h-76z" />
    <glyph glyph-name="comma" unicode="," horiz-adv-x="221" 
d="M54 -141v52q55 5 55 57v32h-50v109h103v-141q0 -53 -32 -79t-76 -30z" />
    <glyph glyph-name="hyphen" unicode="-" horiz-adv-x="342" 
d="M50 235v82h243v-82h-243z" />
    <glyph glyph-name="hyphen" unicode="&#xad;" horiz-adv-x="342" 
d="M50 235v82h243v-82h-243z" />
    <glyph glyph-name="period" unicode="." horiz-adv-x="221" 
d="M59 0v109h103v-109h-103z" />
    <glyph glyph-name="slash" unicode="/" horiz-adv-x="351" 
d="M-2 -122l269 906h82l-269 -906h-82z" />
    <glyph glyph-name="zero" unicode="0" horiz-adv-x="629" 
d="M315 -12q-115 0 -190.5 92.5t-75.5 262.5t75 260t191 90t190.5 -90t74.5 -260q0 -171 -75 -263t-190 -92zM315 65q85 0 129.5 71.5t44.5 206.5q0 133 -44.5 203t-129.5 70q-84 0 -129.5 -70t-45.5 -203q0 -134 45.5 -206t129.5 -72z" />
    <glyph glyph-name="one" unicode="1" horiz-adv-x="335" 
d="M146 0v543h-112v65q57 0 85.5 16.5t33.5 55.5h81v-680h-88z" />
    <glyph glyph-name="two" unicode="2" horiz-adv-x="555" 
d="M44 0v40q0 54 16 97.5t49.5 77.5t64.5 55.5t80 49.5q95 53 125 90t30 91q0 49 -29 82t-98 33t-104.5 -41.5t-37.5 -109.5h-83q1 99 60.5 163.5t164.5 64.5q100 0 159 -54t59 -138q0 -45 -13 -80t-45 -65.5t-63 -51t-88 -53.5q-81 -46 -118.5 -83.5t-41.5 -88.5h363v-79
h-450z" />
    <glyph glyph-name="three" unicode="3" horiz-adv-x="558" 
d="M279 -12q-111 0 -173.5 59.5t-68.5 147.5h84q19 -130 158 -130q65 0 103 36t38 92q0 61 -33.5 96.5t-124.5 35.5h-29v77h10q87 0 120 28t33 81q0 50 -30.5 77.5t-89.5 27.5q-69 0 -102.5 -35.5t-35.5 -91.5h-82q0 91 61 147.5t158 56.5t153.5 -50.5t56.5 -129.5
q0 -104 -100 -143q126 -45 126 -178q0 -86 -64.5 -145t-167.5 -59z" />
    <glyph glyph-name="four" unicode="4" horiz-adv-x="568" 
d="M367 0v160h-334v69l329 451h91v-444h74v-76h-74v-160h-86zM127 236h240v325z" />
    <glyph glyph-name="five" unicode="5" horiz-adv-x="544" 
d="M270 -12q-99 0 -159.5 55.5t-67.5 132.5h84q7 -46 44.5 -78.5t98.5 -32.5q64 0 100 43.5t36 112.5q0 68 -38 111.5t-98 43.5q-84 0 -132 -79l-71 28l44 355h349v-79h-280l-26 -204q52 56 134 56q87 0 148 -66t61 -166q0 -105 -66.5 -169t-160.5 -64z" />
    <glyph glyph-name="six" unicode="6" horiz-adv-x="574" 
d="M296 -12q-112 0 -179.5 85t-67.5 235q0 181 71 283t187 102q79 0 135.5 -44.5t68.5 -126.5h-85q-22 94 -119 94q-74 0 -118.5 -67t-56.5 -196q23 44 69.5 71.5t98.5 27.5q103 0 166 -66.5t63 -166.5q0 -96 -68 -163.5t-165 -67.5zM299 65q64 0 103.5 43.5t39.5 110.5
t-39 112t-109 45q-66 0 -106.5 -44.5t-40.5 -111.5q0 -69 42 -112t110 -43z" />
    <glyph glyph-name="seven" unicode="7" horiz-adv-x="503" 
d="M135 0q8 173 67 334t162 267h-336v79h439v-73q-114 -99 -174.5 -258t-67.5 -349h-90z" />
    <glyph glyph-name="eight" unicode="8" horiz-adv-x="577" 
d="M288 -12q-110 0 -176 60t-66 148q0 124 130 177q-94 46 -94 145q0 75 58 127t148 52q92 0 149 -51.5t57 -127.5q0 -99 -92 -145q129 -52 129 -177q0 -88 -66.5 -148t-176.5 -60zM288 65q67 0 109.5 35t42.5 99q0 60 -40 97t-112 37q-71 0 -111 -37t-40 -97
q0 -64 42.5 -99t108.5 -35zM288 408q51 0 84 28t33 78q0 48 -30.5 77t-86.5 29t-86.5 -29t-30.5 -77q0 -50 33.5 -78t83.5 -28z" />
    <glyph glyph-name="nine" unicode="9" horiz-adv-x="574" 
d="M267 -12q-80 0 -136 41t-68 119h85q21 -83 119 -83q161 0 175 263q-23 -44 -69.5 -71.5t-98.5 -27.5q-103 0 -166 67t-63 167q0 95 68.5 162.5t165.5 67.5q112 0 179 -85t67 -235q0 -193 -68 -289t-190 -96zM280 305q66 0 106 44t40 111q0 69 -41 112.5t-109 43.5
q-65 0 -104.5 -43t-39.5 -110q0 -69 39 -113.5t109 -44.5z" />
    <glyph glyph-name="colon" unicode=":" horiz-adv-x="231" 
d="M64 312v109h103v-109h-103zM64 0v109h103v-109h-103z" />
    <glyph glyph-name="semicolon" unicode=";" horiz-adv-x="231" 
d="M59 -141v52q55 5 55 57v32h-50v109h103v-141q0 -53 -32 -79t-76 -30zM64 312v109h103v-109h-103z" />
    <glyph glyph-name="semicolon" unicode="&#x37e;" horiz-adv-x="231" 
d="M59 -141v52q55 5 55 57v32h-50v109h103v-141q0 -53 -32 -79t-76 -30zM64 312v109h103v-109h-103z" />
    <glyph glyph-name="less" unicode="&#x3c;" horiz-adv-x="445" 
d="M404 54l-368 171v91l368 170v-84l-294 -132v-1l294 -131v-84z" />
    <glyph glyph-name="equal" unicode="=" horiz-adv-x="481" 
d="M46 346v72h389v-72h-389zM46 162v72h389v-72h-389z" />
    <glyph glyph-name="greater" unicode="&#x3e;" horiz-adv-x="445" 
d="M41 486l368 -171v-91l-368 -170v84l294 132v1l-294 131v84z" />
    <glyph glyph-name="question" unicode="?" horiz-adv-x="510" 
d="M195 203v17q0 16 2 30l3.5 25t7 22.5t8 18.5t12 17.5t12.5 14.5t15.5 14.5l15.5 13t18.5 14t18.5 13.5q36 27 52 53.5t16 62.5q0 99 -119 99q-62 0 -97.5 -34t-37.5 -88h-82q1 82 60 139.5t157 57.5q93 0 149.5 -46.5t56.5 -124.5q0 -44 -18 -80.5t-37 -55t-52 -43.5
l-19 -14.5l-19 -14.5t-15 -13t-14 -16t-9 -17t-7 -22t-2 -26v-17h-76zM187 0v107h91v-107h-91z" />
    <glyph glyph-name="at" unicode="@" horiz-adv-x="747" 
d="M387 -12q-150 0 -246.5 99.5t-96.5 257.5q0 155 102 260.5t242 105.5t228 -87t88 -225q0 -103 -58.5 -164.5t-126.5 -61.5q-35 0 -60.5 17.5t-34.5 44.5q-49 -61 -112 -61q-59 0 -90 56t-8 137q20 72 72.5 119t107.5 47t76 -50l11 37h70l-69 -227q-7 -26 4 -39.5
t33 -13.5q45 0 79 44t34 118q0 100 -65.5 169t-178.5 69t-192 -88t-79 -207q0 -126 75 -206.5t195 -80.5q124 0 206 78h89q-98 -148 -295 -148zM326 243q38 0 63.5 33.5t38.5 83.5q12 37 3.5 71t-40.5 34q-35 0 -65 -34.5t-42 -82.5q-11 -48 0.5 -76.5t41.5 -28.5z" />
    <glyph glyph-name="A" unicode="A" horiz-adv-x="617" 
d="M17 0l249 680h90l244 -680h-90l-64 181h-277l-64 -181h-88zM285 505l-88 -246h222l-86 246l-24 82q-12 -49 -24 -82z" />
    <glyph glyph-name="B" unicode="B" horiz-adv-x="634" 
d="M86 0v680h285q88 0 142 -49.5t54 -132.5q0 -41 -22.5 -77t-67.5 -57q57 -19 87 -64.5t30 -100.5q0 -85 -60 -142t-154 -57h-294zM173 79h211q54 0 86.5 32.5t32.5 87.5q0 120 -122 120h-208v-240zM173 397h200q43 0 73.5 24.5t30.5 77.5q0 103 -106 103h-198v-205z" />
    <glyph glyph-name="C" unicode="C" horiz-adv-x="696" 
d="M373 -12q-136 0 -232 99.5t-96 253.5q0 153 95 252.5t231 99.5q116 0 190 -59t102 -164h-86q-50 146 -206 146q-102 0 -168.5 -75.5t-66.5 -199.5t67 -200t170 -76q75 0 130 41t75 110h89q-30 -108 -105.5 -168t-188.5 -60z" />
    <glyph glyph-name="D" unicode="D" horiz-adv-x="679" 
d="M86 0v680h225q148 0 235.5 -91t87.5 -248q0 -158 -87.5 -249.5t-235.5 -91.5h-225zM174 78h137q107 0 169.5 65.5t62.5 197.5q0 133 -62.5 197t-169.5 64h-137v-524z" />
    <glyph glyph-name="E" unicode="E" horiz-adv-x="587" 
d="M86 0v680h448v-79h-360v-204h306v-79h-306v-239h365v-79h-453z" />
    <glyph glyph-name="F" unicode="F" horiz-adv-x="564" 
d="M86 0v680h441v-79h-353v-204h308v-79h-308v-318h-88z" />
    <glyph glyph-name="G" unicode="G" horiz-adv-x="734" 
d="M370 -12q-137 0 -231 99.5t-94 253.5t94 253t231 99q104 0 184.5 -55.5t106.5 -160.5h-88q-21 70 -75.5 104.5t-127.5 34.5q-104 0 -169 -75t-65 -200t65.5 -200.5t168.5 -75.5q97 0 159 59t67 145h-189v80h272v-349h-82v113q-74 -125 -227 -125z" />
    <glyph glyph-name="H" unicode="H" horiz-adv-x="696" 
d="M86 0v680h88v-283h348v283h88v-680h-88v317h-348v-317h-88z" />
    <glyph glyph-name="I" unicode="I" horiz-adv-x="266" 
d="M89 0v680h88v-680h-88z" />
    <glyph glyph-name="J" unicode="J" 
d="M249 -12q-97 0 -156.5 63t-59.5 165h87q0 -66 31.5 -108.5t97.5 -42.5q68 0 98.5 41.5t30.5 121.5v452h88v-452q0 -112 -55.5 -176t-161.5 -64z" />
    <glyph glyph-name="K" unicode="K" horiz-adv-x="628" 
d="M512 0l-231 348l-114 -119v-229h-81v680h81v-350l335 350h98l-263 -274l271 -406h-96z" />
    <glyph glyph-name="L" unicode="L" horiz-adv-x="532" 
d="M86 0v680h88v-601h328v-79h-416z" />
    <glyph glyph-name="M" unicode="M" horiz-adv-x="810" 
d="M86 0v680h126l173 -502q4 -13 9 -31.5t8 -32.5t4 -16q18 70 21 80l172 502h125v-680h-84v478q0 79 4 99q-1 -2 -5 -16.5t-10.5 -34.5l-10.5 -33l-171 -493h-86l-171 493q-20 60 -26 84q0 -1 1 -19t2 -41.5t1 -38.5v-478h-82z" />
    <glyph glyph-name="N" unicode="N" horiz-adv-x="686" 
d="M86 0v680h97l337 -543v543h80v-680h-89l-345 555v-555h-80z" />
    <glyph glyph-name="O" unicode="O" horiz-adv-x="748" 
d="M374 -12q-138 0 -233.5 99.5t-95.5 253.5t95.5 253t233.5 99q141 0 235 -98t94 -254q0 -154 -95.5 -253.5t-233.5 -99.5zM374 65q104 0 171 76t67 200q0 126 -66 200.5t-172 74.5q-104 0 -171 -75.5t-67 -199.5q0 -125 67 -200.5t171 -75.5z" />
    <glyph glyph-name="P" unicode="P" horiz-adv-x="611" 
d="M86 0v680h276q100 0 158.5 -57t58.5 -149q0 -91 -58.5 -148t-158.5 -57h-188v-269h-88zM174 348h188q60 0 94 31t34 95t-34 95.5t-94 31.5h-188v-253z" />
    <glyph glyph-name="Q" unicode="Q" horiz-adv-x="748" 
d="M601 0l-43 45q-80 -57 -184 -57q-138 0 -233.5 99.5t-95.5 253.5t95.5 253t233.5 99q141 0 235 -98t94 -254q0 -143 -86 -242l93 -99h-109zM374 65q74 0 130 39l-123 132h109l70 -76q52 76 52 181q0 126 -66 200.5t-172 74.5q-104 0 -171 -75.5t-67 -199.5
q0 -125 67 -200.5t171 -75.5z" />
    <glyph glyph-name="R" unicode="R" horiz-adv-x="650" 
d="M86 0v680h284q100 0 157.5 -55.5t57.5 -144.5q0 -109 -104 -155q42 -15 62 -46.5t26 -89.5l9 -83q6 -61 24 -106h-83q-17 36 -22 97l-7 81q-5 55 -29.5 79t-80.5 24h-209v-281h-85zM171 361h207q59 0 90.5 31.5t31.5 87.5q0 121 -130 121h-199v-240z" />
    <glyph glyph-name="S" unicode="S" horiz-adv-x="593" 
d="M305 -12q-115 0 -189 63.5t-78 157.5h88q3 -65 51.5 -104.5t127.5 -39.5t120 31.5t41 85.5q0 51 -35.5 80t-138.5 51q-121 26 -175 70t-54 129t61.5 133t162.5 48q110 0 174 -52.5t73 -142.5h-86q-6 53 -46 85.5t-114 32.5q-69 0 -104.5 -26.5t-35.5 -75.5q0 -45 33 -71
t131 -48q127 -29 182.5 -73t55.5 -140q0 -92 -67.5 -143t-177.5 -51z" />
    <glyph glyph-name="T" unicode="T" horiz-adv-x="548" 
d="M230 0v601h-205v79h498v-79h-205v-601h-88z" />
    <glyph glyph-name="U" unicode="U" horiz-adv-x="667" 
d="M334 -12q-116 0 -188.5 70.5t-72.5 194.5v427h88v-427q0 -91 45 -139.5t128 -48.5t127.5 48.5t44.5 139.5v427h88v-427q0 -124 -72.5 -194.5t-187.5 -70.5z" />
    <glyph glyph-name="V" unicode="V" horiz-adv-x="602" 
d="M256 0l-241 680h92l172 -499l24 -88q14 61 23 88l171 499h90l-241 -680h-90z" />
    <glyph glyph-name="W" unicode="W" horiz-adv-x="875" 
d="M198 0l-183 680h88l127 -473q6 -24 15 -78q0 1 2 10l4.5 19.5l6 25t6.5 24.5l134 472h84l135 -472l7.5 -31l7.5 -32.5t4 -15.5q0 23 15 79l126 472h83l-184 -680h-84l-133 475q-16 59 -20 94q-10 -58 -20 -94l-135 -475h-86z" />
    <glyph glyph-name="X" unicode="X" horiz-adv-x="571" 
d="M12 0l217 352l-206 328h95l169 -272l169 272h92l-207 -328l218 -352h-95l-181 296l-179 -296h-92z" />
    <glyph glyph-name="Y" unicode="Y" horiz-adv-x="561" 
d="M236 0v282l-225 398h92l178 -317l179 317h90l-226 -398v-282h-88z" />
    <glyph glyph-name="Z" unicode="Z" horiz-adv-x="549" 
d="M32 0v69l380 532h-367v79h470v-76l-375 -525h377v-79h-485z" />
    <glyph glyph-name="bracketleft" unicode="[" horiz-adv-x="323" 
d="M82 -122v906h209v-73h-123v-760h123v-73h-209z" />
    <glyph glyph-name="backslash" unicode="\" horiz-adv-x="351" 
d="M271 -122l-269 906h82l269 -906h-82z" />
    <glyph glyph-name="bracketright" unicode="]" horiz-adv-x="323" 
d="M32 -122v73h123v760h-123v73h209v-906h-209z" />
    <glyph glyph-name="asciicircum" unicode="^" horiz-adv-x="512" 
d="M39 244l174 436h87l173 -436h-89l-128 341l-129 -341h-88z" />
    <glyph glyph-name="underscore" unicode="_" horiz-adv-x="521" 
d="M-2 -151v82h525v-82h-525z" />
    <glyph glyph-name="grave" unicode="`" horiz-adv-x="500" 
d="M211 593l-97 147h109l64 -147h-76z" />
    <glyph glyph-name="a" unicode="a" 
d="M214 -12q-77 0 -124.5 36t-47.5 108q0 70 49 106.5t138 50.5t124 29t35 52q0 44 -28 63.5t-85 19.5q-50 0 -83.5 -22t-38.5 -64h-86q5 72 61.5 116.5t147.5 44.5q98 0 146 -41.5t48 -116.5v-266q0 -54 20 -104h-81q-15 33 -19 70q-24 -36 -71 -59t-105 -23zM215 60
q77 0 125 34t48 94v86q-33 -30 -156 -53q-59 -11 -84 -30.5t-25 -55.5t25 -55.5t67 -19.5z" />
    <glyph glyph-name="b" unicode="b" horiz-adv-x="611" 
d="M335 -12q-59 0 -106 30t-72 79v-97h-79v744h82v-321q25 46 71 75.5t104 29.5q101 0 167.5 -78.5t66.5 -190.5q0 -114 -66.5 -192.5t-167.5 -78.5zM322 63q70 0 116.5 51.5t46.5 141.5q0 91 -46.5 144t-116.5 53q-69 0 -115.5 -53t-46.5 -144q0 -90 46.5 -141.5
t115.5 -51.5z" />
    <glyph glyph-name="c" unicode="c" horiz-adv-x="545" 
d="M290 -12q-104 0 -176 76.5t-72 191.5q0 116 72 194t176 78q84 0 142.5 -45.5t78.5 -124.5h-87q-35 95 -134 95q-71 0 -117 -52.5t-46 -144.5q0 -90 46 -141.5t117 -51.5q49 0 84 25.5t50 69.5h87q-18 -77 -77.5 -123.5t-143.5 -46.5z" />
    <glyph glyph-name="d" unicode="d" horiz-adv-x="611" 
d="M276 -12q-101 0 -167.5 78.5t-66.5 192.5q0 112 66.5 190.5t167.5 78.5q58 0 104 -29.5t71 -75.5v321h82v-744h-79v97q-25 -49 -72 -79t-106 -30zM289 63q69 0 115.5 51.5t46.5 141.5q0 91 -46.5 144t-115.5 53q-70 0 -116.5 -53t-46.5 -144q0 -90 46.5 -141.5
t116.5 -51.5z" />
    <glyph glyph-name="e" unicode="e" horiz-adv-x="570" 
d="M295 -12q-108 0 -180.5 75.5t-72.5 193.5q0 117 72.5 194t177.5 77q103 0 173.5 -78.5t66.5 -217.5h-405q6 -81 54 -125.5t114 -44.5q105 0 138 82h87q-18 -69 -79 -112.5t-146 -43.5zM130 303h310q-8 75 -48.5 113t-99.5 38q-57 0 -102.5 -38t-59.5 -113z" />
    <glyph glyph-name="f" unicode="f" horiz-adv-x="328" 
d="M100 0v439h-75v76h75v35q0 96 49.5 145.5t133.5 49.5l34 -3v-73q-19 2 -31 2q-54 0 -79 -29t-25 -92v-35h128v-76h-128v-439h-82z" />
    <glyph glyph-name="g" unicode="g" horiz-adv-x="609" 
d="M293 -219q-90 0 -155 43.5t-83 120.5h90q34 -88 148 -88q89 0 123.5 48t34.5 132v68q-24 -47 -70.5 -76t-104.5 -29q-101 0 -167.5 77t-66.5 188q0 110 66.5 186.5t167.5 76.5q58 0 105.5 -30.5t72.5 -78.5v96h79v-478q0 -126 -62 -191t-178 -65zM289 75q69 0 115.5 50
t46.5 137q0 89 -46.5 140t-115.5 51q-70 0 -116.5 -51t-46.5 -140q0 -88 46.5 -137.5t116.5 -49.5z" />
    <glyph glyph-name="h" unicode="h" horiz-adv-x="571" 
d="M78 0v744h82v-300q55 84 153 84q84 0 133 -58t49 -154v-316h-82v319q0 61 -30.5 96.5t-88.5 35.5t-96 -36.5t-38 -93.5v-321h-82z" />
    <glyph glyph-name="i" unicode="i" horiz-adv-x="240" 
d="M79 0v515h82v-515h-82zM75 613v101h90v-101h-90z" />
    <glyph glyph-name="j" unicode="j" horiz-adv-x="240" 
d="M-14 -209v74h16q77 0 77 80v570h82v-571q0 -73 -42.5 -113t-116.5 -40h-16zM75 613v101h90v-101h-90z" />
    <glyph glyph-name="k" unicode="k" horiz-adv-x="527" 
d="M413 0l-168 251l-85 -90v-161h-82v744h82v-479l234 250h101l-191 -202l209 -313h-100z" />
    <glyph glyph-name="l" unicode="l" horiz-adv-x="242" 
d="M80 0v744h82v-744h-82z" />
    <glyph glyph-name="m" unicode="m" horiz-adv-x="861" 
d="M78 0v515h79v-69q51 82 140 82q49 0 87.5 -24t59.5 -70q54 94 157 94q80 0 126 -50.5t46 -143.5v-334h-82v333q0 118 -110 118q-50 0 -82 -33t-32 -88v-330h-82v333q0 59 -29 88.5t-80 29.5q-50 0 -83 -33t-33 -88v-330h-82z" />
    <glyph glyph-name="n" unicode="n" horiz-adv-x="571" 
d="M78 0v515h79v-74q60 87 156 87q84 0 133 -58t49 -154v-316h-82v319q0 61 -30.5 96.5t-88.5 35.5t-96 -36.5t-38 -93.5v-321h-82z" />
    <glyph glyph-name="o" unicode="o" horiz-adv-x="578" 
d="M289 -12q-104 0 -175.5 76.5t-71.5 191.5q0 116 71.5 194t175.5 78q105 0 176 -77.5t71 -194.5q0 -115 -71 -191.5t-176 -76.5zM289 63q69 0 116 52t47 141q0 91 -47.5 144t-115.5 53t-115 -53t-47 -144q0 -89 47 -141t115 -52z" />
    <glyph glyph-name="p" unicode="p" horiz-adv-x="611" 
d="M78 -209v724h79v-96q25 48 72.5 78.5t105.5 30.5q101 0 167.5 -78.5t66.5 -190.5q0 -114 -66.5 -192.5t-167.5 -78.5q-58 0 -104.5 29t-70.5 76v-302h-82zM322 63q70 0 116.5 51.5t46.5 141.5q0 91 -46.5 144t-116.5 53q-69 0 -115.5 -53t-46.5 -144q0 -90 46.5 -141.5
t115.5 -51.5z" />
    <glyph glyph-name="q" unicode="q" horiz-adv-x="611" 
d="M451 -209v302q-24 -47 -70.5 -76t-104.5 -29q-101 0 -167.5 78.5t-66.5 192.5q0 112 66.5 190.5t167.5 78.5q58 0 105.5 -30.5t72.5 -78.5v96h79v-724h-82zM289 63q69 0 115.5 51.5t46.5 141.5q0 91 -46.5 144t-115.5 53q-70 0 -116.5 -53t-46.5 -144q0 -90 46.5 -141.5
t116.5 -51.5z" />
    <glyph glyph-name="r" unicode="r" horiz-adv-x="361" 
d="M78 0v515h79v-87q28 52 75.5 75t94.5 17v-83q-72 6 -119.5 -29.5t-47.5 -109.5v-298h-82z" />
    <glyph glyph-name="s" unicode="s" horiz-adv-x="505" 
d="M261 -13q-91 0 -151.5 45t-71.5 119h83q10 -39 46.5 -64t93.5 -25t91 22.5t34 56.5q0 36 -25.5 54t-110.5 30q-98 14 -146 47.5t-48 105.5q0 61 48.5 105.5t144.5 44.5q85 0 139 -40.5t64 -110.5h-83q-10 36 -42 56t-78 20q-53 0 -82 -20.5t-29 -51.5q0 -32 26.5 -48
t99.5 -28q53 -9 82 -16.5t60.5 -24.5t45.5 -46.5t14 -73.5q0 -74 -56.5 -115.5t-148.5 -41.5z" />
    <glyph glyph-name="t" unicode="t" horiz-adv-x="338" 
d="M273 -9q-83 0 -129 48t-46 141v259h-75v76h75v147h82v-147h117v-76h-117v-259q0 -113 101 -113l24 2v-75q-13 -3 -32 -3z" />
    <glyph glyph-name="u" unicode="u" horiz-adv-x="571" 
d="M258 -12q-84 0 -133 57.5t-49 153.5v316h82v-319q0 -61 30 -96t89 -35q58 0 96 36t38 93v321h82v-515h-79v74q-59 -86 -156 -86z" />
    <glyph glyph-name="v" unicode="v" horiz-adv-x="494" 
d="M203 0l-188 515h88l124 -350l21 -82q9 48 21 82l124 350h86l-188 -515h-88z" />
    <glyph glyph-name="w" unicode="w" horiz-adv-x="734" 
d="M168 0l-151 515h86l94 -334q4 -15 10 -40.5t6 -27.5q11 56 15 68l96 334h86l97 -334l7 -28t6.5 -28t2.5 -13q0 1 2.5 13t6.5 28l7 28l92 334h86l-152 -515h-85l-94 323q-14 46 -20 85q-12 -58 -19 -85l-93 -323h-86z" />
    <glyph glyph-name="x" unicode="x" horiz-adv-x="482" 
d="M12 0l178 266l-167 249h98l120 -188l122 188h95l-168 -249l180 -266h-98l-131 206l-134 -206h-95z" />
    <glyph glyph-name="y" unicode="y" horiz-adv-x="494" 
d="M57 -209v74h10q48 0 75 17.5t41 57.5l23 63l-191 512h89l126 -354q5 -15 10.5 -35.5t7.5 -33.5l3 -13q10 49 21 82l121 354h86l-218 -597q-47 -127 -193 -127h-11z" />
    <glyph glyph-name="z" unicode="z" horiz-adv-x="463" 
d="M33 0v67l285 372h-271v76h374v-72l-281 -367h290v-76h-397z" />
    <glyph glyph-name="braceleft" unicode="{" horiz-adv-x="353" 
d="M321 -122q-80 -6 -134 32t-54 126v174q0 48 -25 66t-74 18v70q49 0 74 18t25 66v176q0 88 54 126t134 32v-73q-102 4 -102 -85v-173q0 -96 -82 -121q82 -26 82 -123v-171q0 -46 24.5 -66.5t77.5 -18.5v-73z" />
    <glyph glyph-name="bar" unicode="|" horiz-adv-x="229" 
d="M74 -160v904h81v-904h-81z" />
    <glyph glyph-name="braceright" unicode="}" horiz-adv-x="345" 
d="M24 -122v73q102 -4 102 85v173q0 96 82 121q-82 26 -82 123v171q0 46 -24.5 66.5t-77.5 18.5v73q80 6 134 -32t54 -126v-174q0 -48 25 -66t74 -18v-70q-49 0 -74 -18t-25 -66v-176q0 -88 -54 -126t-134 -32z" />
    <glyph glyph-name="asciitilde" unicode="~" horiz-adv-x="382" 
d="M29 220q4 44 29.5 74.5t69.5 30.5q30 0 75 -19.5t62 -19.5t28 12.5t13 31.5h46q-3 -44 -28.5 -74.5t-70.5 -30.5q-28 0 -73.5 19t-62.5 19t-28 -12t-13 -31h-47z" />
    <glyph glyph-name="exclamdown" unicode="&#xa1;" horiz-adv-x="271" 
d="M88 -105l12 477h71l12 -477h-95zM90 468v107h91v-107h-91z" />
    <glyph glyph-name="cent" unicode="&#xa2;" horiz-adv-x="545" 
d="M133 -110l43 137q-61 32 -97.5 93t-36.5 136q0 108 71 184t174 76q23 0 42 -3l36 112h61l-40 -127q96 -39 125 -143h-87q-20 50 -61 70l-110 -347q17 -3 34 -3q50 0 86 24t51 66h87q-18 -74 -78.5 -119.5t-145.5 -45.5q-29 0 -56 6l-37 -116h-61zM127 256q0 -109 72 -156
l107 340q-3 0 -9.5 0.5t-9.5 0.5q-70 0 -115 -50t-45 -135z" />
    <glyph glyph-name="sterling" unicode="&#xa3;" horiz-adv-x="537" 
d="M36 299v68h60q-34 68 -34 131q0 84 60.5 139.5t150.5 55.5q92 0 148.5 -54t59.5 -139h-82q-4 53 -36 84.5t-90 31.5t-90.5 -32t-32.5 -86q0 -45 38 -131h171v-68h-147q9 -31 9 -67q0 -95 -75 -160q39 22 83 22q34 0 82.5 -14t75.5 -14q37 0 70 26l42 -63
q-49 -41 -109 -41q-47 0 -102.5 20t-85.5 20q-54 0 -108 -40l-45 70q94 67 94 175q0 29 -14 66h-93z" />
    <glyph glyph-name="yen" unicode="&#xa5;" horiz-adv-x="535" 
d="M39 280v56h157l-185 344h93l166 -325l166 325h88l-186 -344h157v-56h-184v-88h184v-56h-184v-136h-88v136h-184v56h184v88h-184z" />
    <glyph glyph-name="brokenbar" unicode="&#xa6;" horiz-adv-x="229" 
d="M74 -160v421h81v-421h-81zM74 341v403h81v-403h-81z" />
    <glyph glyph-name="section" unicode="&#xa7;" horiz-adv-x="532" 
d="M277 -83q-78 0 -130.5 43.5t-52.5 109.5h81q13 -78 102 -78q87 0 87 76q0 35 -25 56t-97 41q-103 28 -149.5 63t-46.5 108t71 113q-28 36 -28 91q0 68 49 110.5t129 42.5q79 0 129.5 -43t50.5 -115h-80q-4 36 -28.5 59t-71.5 23q-43 0 -69 -19.5t-26 -57.5
q0 -35 25.5 -55.5t96.5 -37.5q104 -25 150 -61t46 -110q0 -36 -20 -66t-53 -48q30 -38 30 -94q0 -68 -45.5 -109.5t-124.5 -41.5zM275 368q-65 16 -103 36q-45 -25 -45 -64q0 -34 26.5 -54.5t107.5 -41.5q61 -16 101 -37q47 25 47 65q0 34 -26.5 54.5t-107.5 41.5z" />
    <glyph glyph-name="dieresis" unicode="&#xa8;" horiz-adv-x="500" 
d="M296 593v95h93v-95h-93zM111 593v95h92v-95h-92z" />
    <glyph glyph-name="copyright" unicode="&#xa9;" horiz-adv-x="774" 
d="M387 -12q-142 0 -243 104t-101 251q0 146 101 250t243 104t243 -104t101 -250q0 -147 -101 -251t-243 -104zM387 37q121 0 204.5 89t83.5 217q0 127 -83.5 216t-204.5 89t-204.5 -89t-83.5 -216q0 -128 83.5 -217t204.5 -89zM387 131q-81 0 -138.5 62t-57.5 150
q0 87 57.5 149t138.5 62q65 0 116.5 -40t69.5 -104h-76q-14 33 -43.5 52t-66.5 19q-51 0 -85 -40.5t-34 -97.5q0 -58 34 -98.5t85 -40.5q36 0 65.5 19.5t44.5 52.5h75q-19 -64 -70 -104.5t-115 -40.5z" />
    <glyph glyph-name="ordfeminine" unicode="&#xaa;" horiz-adv-x="434" 
d="M176 261q-60 0 -101 29.5t-41 85.5q0 61 45 89t141 45q48 8 67.5 19.5t19.5 37.5q0 61 -86 61q-37 0 -60.5 -17.5t-27.5 -47.5h-79q3 58 49 94t119 36q79 0 120.5 -33.5t41.5 -92.5v-213q0 -40 16 -83h-76q-13 32 -15 54q-43 -64 -133 -64zM177 324q55 0 93 27t38 74v60
q-24 -20 -72 -30q-75 -16 -101 -30.5t-26 -45.5q0 -55 68 -55z" />
    <glyph glyph-name="guillemotleft" unicode="&#xab;" horiz-adv-x="473" 
d="M216 54l-186 165v81l186 165v-108l-116 -97l116 -99v-107zM438 54l-185 165v78l185 168v-108l-118 -97l118 -99v-107z" />
    <glyph glyph-name="logicalnot" unicode="&#xac;" horiz-adv-x="231" 
d="M64 282v109h103v-109h-103z" />
    <glyph glyph-name="registered" unicode="&#xae;" horiz-adv-x="542" 
d="M271 200q-101 0 -171 71t-70 177t70 177t171 71t171 -71t70 -177t-70 -177t-171 -71zM271 244q83 0 136.5 59t53.5 145t-53.5 145t-136.5 59q-84 0 -137.5 -59t-53.5 -145t53.5 -145t137.5 -59zM326 321v61q0 36 -36 36h-63v-96h-55v259h117q40 0 66.5 -21.5t26.5 -57.5
q0 -42 -40 -57q39 -12 39 -63v-61h-55zM227 466h59q17 0 27.5 9.5t10.5 25.5q0 34 -38 34h-59v-69z" />
    <glyph glyph-name="macron" unicode="&#xaf;" horiz-adv-x="500" 
d="M119 622v70h262v-70h-262z" />
    <glyph glyph-name="macron" unicode="&#x2c9;" horiz-adv-x="500" 
d="M119 622v70h262v-70h-262z" />
    <glyph glyph-name="degree" unicode="&#xb0;" horiz-adv-x="373" 
d="M186 379q-60 0 -104.5 44.5t-44.5 106.5q0 61 44.5 105.5t104.5 44.5q61 0 105.5 -44.5t44.5 -105.5q0 -62 -44.5 -106.5t-105.5 -44.5zM186 438q37 0 61 26.5t24 65.5t-24 65.5t-61 26.5q-36 0 -60.5 -26.5t-24.5 -65.5t24 -65.5t61 -26.5z" />
    <glyph glyph-name="plusminus" unicode="&#xb1;" horiz-adv-x="231" 
d="M64 282v109h103v-109h-103z" />
    <glyph glyph-name="twosuperior" unicode="&#xb2;" horiz-adv-x="345" 
d="M29 272v31q0 62 32.5 99t91.5 69q54 30 70.5 49t16.5 45q0 25 -15.5 41.5t-49.5 16.5t-53 -22t-20 -58h-67q1 60 37.5 100.5t102.5 40.5q63 0 98.5 -35t35.5 -84q0 -52 -29 -81.5t-95 -65.5q-81 -45 -83 -83h204v-63h-277z" />
    <glyph glyph-name="threesuperior" unicode="&#xb3;" horiz-adv-x="344" 
d="M170 265q-69 0 -106.5 37.5t-39.5 94.5h67q5 -70 79 -70q35 0 56 18.5t21 46.5q0 63 -78 63h-23v59h12q76 0 76 54q0 26 -16 40.5t-46 14.5q-34 0 -51.5 -19.5t-18.5 -47.5h-66q0 55 37 91.5t98 36.5t95.5 -32t34.5 -78q0 -60 -55 -84q69 -23 69 -99q0 -52 -39 -89
t-106 -37z" />
    <glyph glyph-name="acute" unicode="&#xb4;" horiz-adv-x="500" 
d="M213 593l64 147h109l-97 -147h-76z" />
    <glyph glyph-name="mu" unicode="&#xb5;" horiz-adv-x="231" 
d="M64 282v109h103v-109h-103z" />
    <glyph glyph-name="mu" unicode="&#x3bc;" horiz-adv-x="231" 
d="M64 282v109h103v-109h-103z" />
    <glyph glyph-name="paragraph" unicode="&#xb6;" horiz-adv-x="537" 
d="M226 -140v409q-91 5 -143 61.5t-52 143.5q0 93 56.5 149.5t156.5 56.5h226v-820h-76v747h-92v-747h-76z" />
    <glyph glyph-name="periodcentered" unicode="&#xb7;" horiz-adv-x="231" 
d="M64 282v109h103v-109h-103z" />
    <glyph glyph-name="periodcentered" unicode="&#x2219;" horiz-adv-x="231" 
d="M64 282v109h103v-109h-103z" />
    <glyph glyph-name="cedilla" unicode="&#xb8;" horiz-adv-x="500" 
d="M297 0l-36 -55q4 1 14 1q38 0 65 -24.5t27 -64.5q0 -44 -31.5 -68.5t-77.5 -24.5q-44 0 -76.5 22t-38.5 57h63q12 -28 48 -28q20 0 33 11.5t13 29.5q0 19 -13 31t-32 12q-20 0 -38 -16l-35 28l51 89h64z" />
    <glyph glyph-name="onesuperior" unicode="&#xb9;" horiz-adv-x="242" 
d="M95 272v301h-65v46q72 2 76 61h57v-408h-68z" />
    <glyph glyph-name="ordmasculine" unicode="&#xba;" horiz-adv-x="464" 
d="M232 261q-83 0 -141.5 61.5t-58.5 152.5q0 93 58.5 155.5t141.5 62.5q84 0 142 -62.5t58 -155.5q0 -92 -57.5 -153t-142.5 -61zM232 327q54 0 88 39.5t34 108.5q0 71 -34 111.5t-88 40.5q-53 0 -87.5 -40.5t-34.5 -111.5q0 -69 34.5 -108.5t87.5 -39.5z" />
    <glyph glyph-name="guillemotright" unicode="&#xbb;" horiz-adv-x="473" 
d="M257 54v108l116 97l-116 99v107l186 -165v-81zM35 54v108l118 97l-118 99v107l185 -165v-78z" />
    <glyph glyph-name="onequarter" unicode="&#xbc;" horiz-adv-x="780" 
d="M638 0v88h-187v58l175 262h77v-260h43v-60h-43v-88h-65zM133 0l382 680h78l-383 -680h-77zM101 272v301h-65v46q72 2 76 61h57v-408h-68zM520 148h118v175z" />
    <glyph glyph-name="onehalf" unicode="&#xbd;" horiz-adv-x="814" 
d="M492 0v31q0 62 32.5 99t91.5 69q54 30 70.5 49t16.5 45q0 25 -15.5 41.5t-49.5 16.5t-53 -22t-20 -58h-67q1 60 37.5 100.5t102.5 40.5q63 0 98.5 -35t35.5 -84q0 -52 -29 -81.5t-95 -65.5q-81 -45 -83 -83h204v-63h-277zM133 0l382 680h78l-383 -680h-77zM101 272v301
h-65v46q72 2 76 61h57v-408h-68z" />
    <glyph glyph-name="threequarters" unicode="&#xbe;" horiz-adv-x="882" 
d="M740 0v88h-187v58l175 262h77v-260h43v-60h-43v-88h-65zM176 265q-69 0 -106.5 37.5t-39.5 94.5h67q5 -70 79 -70q35 0 56 18.5t21 46.5q0 63 -78 63h-23v59h12q76 0 76 54q0 26 -16 40.5t-46 14.5q-34 0 -51.5 -19.5t-18.5 -47.5h-66q0 55 37 91.5t98 36.5t95.5 -32
t34.5 -78q0 -60 -55 -84q69 -23 69 -99q0 -52 -39 -89t-106 -37zM235 0l382 680h78l-383 -680h-77zM622 148h118v175z" />
    <glyph glyph-name="questiondown" unicode="&#xbf;" horiz-adv-x="510" 
d="M253 -118q-93 0 -149.5 46.5t-56.5 124.5q0 44 18 80.5t37 55t52 43.5l19 14.5l19 14.5t15 13t14 16t9 17t7 22t2 26v17h76v-17q0 -16 -2 -30l-3.5 -25t-7 -22.5t-8 -18.5t-12 -17.5t-12.5 -14.5t-15.5 -14.5l-15.5 -13t-18.5 -14t-18.5 -13.5q-36 -27 -52 -53.5
t-16 -62.5q0 -99 119 -99q62 0 97.5 34t37.5 88h82q-1 -82 -60 -139.5t-157 -57.5zM232 468v107h91v-107h-91z" />
    <glyph glyph-name="Agrave" unicode="&#xc0;" horiz-adv-x="617" 
d="M17 0l249 680h90l244 -680h-90l-64 181h-277l-64 -181h-88zM285 505l-88 -246h222l-86 246l-24 82q-12 -49 -24 -82zM265 730l-97 147h109l64 -147h-76z" />
    <glyph glyph-name="Aacute" unicode="&#xc1;" horiz-adv-x="617" 
d="M17 0l249 680h90l244 -680h-90l-64 181h-277l-64 -181h-88zM285 505l-88 -246h222l-86 246l-24 82q-12 -49 -24 -82zM277 730l64 147h109l-97 -147h-76z" />
    <glyph glyph-name="Acircumflex" unicode="&#xc2;" horiz-adv-x="617" 
d="M17 0l249 680h90l244 -680h-90l-64 181h-277l-64 -181h-88zM285 505l-88 -246h222l-86 246l-24 82q-12 -49 -24 -82zM164 730l113 154h64l114 -154h-74l-72 79l-72 -79h-73z" />
    <glyph glyph-name="Atilde" unicode="&#xc3;" horiz-adv-x="617" 
d="M17 0l249 680h90l244 -680h-90l-64 181h-277l-64 -181h-88zM285 505l-88 -246h222l-86 246l-24 82q-12 -49 -24 -82zM146 727q5 52 33.5 86t70.5 34q31 0 71 -23.5t55 -23.5q35 0 40 47h56q-5 -52 -33.5 -86t-70.5 -34q-31 0 -71 23.5t-55 23.5q-17 0 -27.5 -13
t-12.5 -34h-56z" />
    <glyph glyph-name="Adieresis" unicode="&#xc4;" horiz-adv-x="617" 
d="M17 0l249 680h90l244 -680h-90l-64 181h-277l-64 -181h-88zM285 505l-88 -246h222l-86 246l-24 82q-12 -49 -24 -82zM355 730v95h93v-95h-93zM170 730v95h92v-95h-92z" />
    <glyph glyph-name="Aring" unicode="&#xc5;" horiz-adv-x="617" 
d="M17 0l249 680h90l244 -680h-90l-64 181h-277l-64 -181h-88zM285 505l-88 -246h222l-86 246l-24 82q-12 -49 -24 -82zM308 717q-47 0 -80 32.5t-33 78.5q0 48 32.5 80t80.5 32q47 0 80 -32t33 -80q0 -46 -33 -78.5t-80 -32.5zM308 763q26 0 43.5 18.5t17.5 46.5t-17.5 47
t-43.5 19t-43.5 -19t-17.5 -47t17.5 -46.5t43.5 -18.5z" />
    <glyph glyph-name="AE" unicode="&#xc6;" horiz-adv-x="928" 
d="M11 0l317 680h547v-79h-332v-204h278v-79h-278v-239h337v-79h-425v198h-264l-92 -198h-88zM379 601l-152 -325h228v325h-76z" />
    <glyph glyph-name="Ccedilla" unicode="&#xc7;" horiz-adv-x="696" 
d="M322 -117l-35 28l45 80q-122 15 -204.5 111.5t-82.5 238.5q0 153 95 252.5t231 99.5q116 0 190 -59t102 -164h-86q-50 146 -206 146q-102 0 -168.5 -75.5t-66.5 -199.5t67 -200t170 -76q75 0 130 41t75 110h89q-28 -102 -98 -161.5t-175 -65.5l-28 -44q4 1 14 1
q38 0 65 -24.5t27 -64.5q0 -44 -31.5 -68.5t-77.5 -24.5q-44 0 -76.5 22t-38.5 57h63q12 -28 48 -28q20 0 33 11.5t13 29.5q0 19 -13 31t-32 12q-20 0 -38 -16z" />
    <glyph glyph-name="Egrave" unicode="&#xc8;" horiz-adv-x="587" 
d="M86 0v680h448v-79h-360v-204h306v-79h-306v-239h365v-79h-453zM272 730l-97 147h109l64 -147h-76z" />
    <glyph glyph-name="Eacute" unicode="&#xc9;" horiz-adv-x="587" 
d="M86 0v680h448v-79h-360v-204h306v-79h-306v-239h365v-79h-453zM264 730l64 147h109l-97 -147h-76z" />
    <glyph glyph-name="Ecircumflex" unicode="&#xca;" horiz-adv-x="587" 
d="M86 0v680h448v-79h-360v-204h306v-79h-306v-239h365v-79h-453zM165 730l113 154h64l114 -154h-74l-72 79l-72 -79h-73z" />
    <glyph glyph-name="Edieresis" unicode="&#xcb;" horiz-adv-x="587" 
d="M86 0v680h448v-79h-360v-204h306v-79h-306v-239h365v-79h-453zM362 730v95h93v-95h-93zM177 730v95h92v-95h-92z" />
    <glyph glyph-name="Igrave" unicode="&#xcc;" horiz-adv-x="266" 
d="M89 0v680h88v-680h-88zM89 730l-97 147h109l64 -147h-76z" />
    <glyph glyph-name="Iacute" unicode="&#xcd;" horiz-adv-x="266" 
d="M89 0v680h88v-680h-88zM101 730l64 147h109l-97 -147h-76z" />
    <glyph glyph-name="Icircumflex" unicode="&#xce;" horiz-adv-x="266" 
d="M89 0v680h88v-680h-88zM-12 730l113 154h64l114 -154h-74l-72 79l-72 -79h-73z" />
    <glyph glyph-name="Idieresis" unicode="&#xcf;" horiz-adv-x="266" 
d="M89 0v680h88v-680h-88zM179 730v95h93v-95h-93zM-6 730v95h92v-95h-92z" />
    <glyph glyph-name="Eth" unicode="&#xd0;" horiz-adv-x="679" 
d="M23 317v76h63v287h225q148 0 235.5 -91t87.5 -248q0 -158 -87.5 -249.5t-235.5 -91.5h-225v317h-63zM174 78h137q107 0 169.5 65.5t62.5 197.5q0 133 -62.5 197t-169.5 64h-137v-209h188v-76h-188v-239z" />
    <glyph glyph-name="Ntilde" unicode="&#xd1;" horiz-adv-x="686" 
d="M86 0v680h97l337 -543v543h80v-680h-89l-345 555v-555h-80zM188 727q5 52 33.5 86t70.5 34q31 0 71 -23.5t55 -23.5q35 0 40 47h56q-5 -52 -33.5 -86t-70.5 -34q-31 0 -71 23.5t-55 23.5q-17 0 -27.5 -13t-12.5 -34h-56z" />
    <glyph glyph-name="Ograve" unicode="&#xd2;" horiz-adv-x="748" 
d="M374 -12q-138 0 -233.5 99.5t-95.5 253.5t95.5 253t233.5 99q141 0 235 -98t94 -254q0 -154 -95.5 -253.5t-233.5 -99.5zM374 65q104 0 171 76t67 200q0 126 -66 200.5t-172 74.5q-104 0 -171 -75.5t-67 -199.5q0 -125 67 -200.5t171 -75.5zM329 730l-97 147h109l64 -147
h-76z" />
    <glyph glyph-name="Oacute" unicode="&#xd3;" horiz-adv-x="748" 
d="M374 -12q-138 0 -233.5 99.5t-95.5 253.5t95.5 253t233.5 99q141 0 235 -98t94 -254q0 -154 -95.5 -253.5t-233.5 -99.5zM374 65q104 0 171 76t67 200q0 126 -66 200.5t-172 74.5q-104 0 -171 -75.5t-67 -199.5q0 -125 67 -200.5t171 -75.5zM341 730l64 147h109l-97 -147
h-76z" />
    <glyph glyph-name="Ocircumflex" unicode="&#xd4;" horiz-adv-x="748" 
d="M374 -12q-138 0 -233.5 99.5t-95.5 253.5t95.5 253t233.5 99q141 0 235 -98t94 -254q0 -154 -95.5 -253.5t-233.5 -99.5zM374 65q104 0 171 76t67 200q0 126 -66 200.5t-172 74.5q-104 0 -171 -75.5t-67 -199.5q0 -125 67 -200.5t171 -75.5zM228 730l113 154h64l114 -154
h-74l-72 79l-72 -79h-73z" />
    <glyph glyph-name="Otilde" unicode="&#xd5;" horiz-adv-x="748" 
d="M374 -12q-138 0 -233.5 99.5t-95.5 253.5t95.5 253t233.5 99q141 0 235 -98t94 -254q0 -154 -95.5 -253.5t-233.5 -99.5zM374 65q104 0 171 76t67 200q0 126 -66 200.5t-172 74.5q-104 0 -171 -75.5t-67 -199.5q0 -125 67 -200.5t171 -75.5zM210 727q5 52 33.5 86
t70.5 34q31 0 71 -23.5t55 -23.5q35 0 40 47h56q-5 -52 -33.5 -86t-70.5 -34q-31 0 -71 23.5t-55 23.5q-17 0 -27.5 -13t-12.5 -34h-56z" />
    <glyph glyph-name="Odieresis" unicode="&#xd6;" horiz-adv-x="748" 
d="M374 -12q-138 0 -233.5 99.5t-95.5 253.5t95.5 253t233.5 99q141 0 235 -98t94 -254q0 -154 -95.5 -253.5t-233.5 -99.5zM374 65q104 0 171 76t67 200q0 126 -66 200.5t-172 74.5q-104 0 -171 -75.5t-67 -199.5q0 -125 67 -200.5t171 -75.5zM419 730v95h93v-95h-93z
M234 730v95h92v-95h-92z" />
    <glyph glyph-name="multiply" unicode="&#xd7;" horiz-adv-x="498" 
d="M58 439l49 49l142 -142l142 142l49 -49l-142 -142l142 -142l-49 -49l-142 142l-142 -142l-49 49l142 142z" />
    <glyph glyph-name="Oslash" unicode="&#xd8;" horiz-adv-x="748" 
d="M77 -22l-50 49l87 92q-69 95 -69 222q0 154 95.5 253t233.5 99q122 0 209 -75l80 85l50 -49l-81 -87q71 -95 71 -226q0 -154 -95.5 -253.5t-233.5 -99.5q-123 0 -213 79zM374 65q104 0 171 76t67 200q0 97 -40 163l-356 -378q66 -61 158 -61zM136 341q0 -92 37 -158
l355 376q-63 57 -154 57q-104 0 -171 -75.5t-67 -199.5z" />
    <glyph glyph-name="Ugrave" unicode="&#xd9;" horiz-adv-x="667" 
d="M334 -12q-116 0 -188.5 70.5t-72.5 194.5v427h88v-427q0 -91 45 -139.5t128 -48.5t127.5 48.5t44.5 139.5v427h88v-427q0 -124 -72.5 -194.5t-187.5 -70.5zM303 730l-97 147h109l64 -147h-76z" />
    <glyph glyph-name="Uacute" unicode="&#xda;" horiz-adv-x="667" 
d="M334 -12q-116 0 -188.5 70.5t-72.5 194.5v427h88v-427q0 -91 45 -139.5t128 -48.5t127.5 48.5t44.5 139.5v427h88v-427q0 -124 -72.5 -194.5t-187.5 -70.5zM302 730l64 147h109l-97 -147h-76z" />
    <glyph glyph-name="Ucircumflex" unicode="&#xdb;" horiz-adv-x="667" 
d="M334 -12q-116 0 -188.5 70.5t-72.5 194.5v427h88v-427q0 -91 45 -139.5t128 -48.5t127.5 48.5t44.5 139.5v427h88v-427q0 -124 -72.5 -194.5t-187.5 -70.5zM189 730l113 154h64l114 -154h-74l-72 79l-72 -79h-73z" />
    <glyph glyph-name="Udieresis" unicode="&#xdc;" horiz-adv-x="667" 
d="M334 -12q-116 0 -188.5 70.5t-72.5 194.5v427h88v-427q0 -91 45 -139.5t128 -48.5t127.5 48.5t44.5 139.5v427h88v-427q0 -124 -72.5 -194.5t-187.5 -70.5zM380 730v95h93v-95h-93zM195 730v95h92v-95h-92z" />
    <glyph glyph-name="Yacute" unicode="&#xdd;" horiz-adv-x="561" 
d="M236 0v282l-225 398h92l178 -317l179 317h90l-226 -398v-282h-88zM249 730l64 147h109l-97 -147h-76z" />
    <glyph glyph-name="Thorn" unicode="&#xde;" horiz-adv-x="611" 
d="M86 0v680h88v-109h188q100 0 158.5 -57t58.5 -149q0 -91 -58.5 -148t-158.5 -57h-188v-160h-88zM174 239h188q60 0 94 31t34 95t-34 95.5t-94 31.5h-188v-253z" />
    <glyph glyph-name="germandbls" unicode="&#xdf;" horiz-adv-x="597" 
d="M321 -12q-48 0 -95 14v77q46 -16 95 -16q68 0 109 38t41 105q0 75 -44 114t-113 39h-63v76h36q63 0 98 33t35 86t-34 84t-88 31q-59 0 -100.5 -37t-41.5 -116v-516h-82v516q0 105 62.5 166.5t161.5 61.5q91 0 147.5 -53.5t55.5 -136.5q-1 -101 -88 -145
q69 -23 105.5 -75.5t36.5 -125.5q0 -100 -64.5 -160t-169.5 -60z" />
    <glyph glyph-name="agrave" unicode="&#xe0;" 
d="M214 -12q-77 0 -124.5 36t-47.5 108q0 70 49 106.5t138 50.5t124 29t35 52q0 44 -28 63.5t-85 19.5q-50 0 -83.5 -22t-38.5 -64h-86q5 72 61.5 116.5t147.5 44.5q98 0 146 -41.5t48 -116.5v-266q0 -54 20 -104h-81q-15 33 -19 70q-24 -36 -71 -59t-105 -23zM215 60
q77 0 125 34t48 94v86q-33 -30 -156 -53q-59 -11 -84 -30.5t-25 -55.5t25 -55.5t67 -19.5zM232 593l-97 147h109l64 -147h-76z" />
    <glyph glyph-name="aacute" unicode="&#xe1;" 
d="M214 -12q-77 0 -124.5 36t-47.5 108q0 70 49 106.5t138 50.5t124 29t35 52q0 44 -28 63.5t-85 19.5q-50 0 -83.5 -22t-38.5 -64h-86q5 72 61.5 116.5t147.5 44.5q98 0 146 -41.5t48 -116.5v-266q0 -54 20 -104h-81q-15 33 -19 70q-24 -36 -71 -59t-105 -23zM215 60
q77 0 125 34t48 94v86q-33 -30 -156 -53q-59 -11 -84 -30.5t-25 -55.5t25 -55.5t67 -19.5zM244 593l64 147h109l-97 -147h-76z" />
    <glyph glyph-name="acircumflex" unicode="&#xe2;" 
d="M214 -12q-77 0 -124.5 36t-47.5 108q0 70 49 106.5t138 50.5t124 29t35 52q0 44 -28 63.5t-85 19.5q-50 0 -83.5 -22t-38.5 -64h-86q5 72 61.5 116.5t147.5 44.5q98 0 146 -41.5t48 -116.5v-266q0 -54 20 -104h-81q-15 33 -19 70q-24 -36 -71 -59t-105 -23zM215 60
q77 0 125 34t48 94v86q-33 -30 -156 -53q-59 -11 -84 -30.5t-25 -55.5t25 -55.5t67 -19.5zM131 593l113 154h64l114 -154h-74l-72 79l-72 -79h-73z" />
    <glyph glyph-name="atilde" unicode="&#xe3;" 
d="M214 -12q-77 0 -124.5 36t-47.5 108q0 70 49 106.5t138 50.5t124 29t35 52q0 44 -28 63.5t-85 19.5q-50 0 -83.5 -22t-38.5 -64h-86q5 72 61.5 116.5t147.5 44.5q98 0 146 -41.5t48 -116.5v-266q0 -54 20 -104h-81q-15 33 -19 70q-24 -36 -71 -59t-105 -23zM215 60
q77 0 125 34t48 94v86q-33 -30 -156 -53q-59 -11 -84 -30.5t-25 -55.5t25 -55.5t67 -19.5zM113 590q5 52 33.5 86t70.5 34q31 0 71 -23.5t55 -23.5q35 0 40 47h56q-5 -52 -33.5 -86t-70.5 -34q-31 0 -71 23.5t-55 23.5q-17 0 -27.5 -13t-12.5 -34h-56z" />
    <glyph glyph-name="adieresis" unicode="&#xe4;" 
d="M214 -12q-77 0 -124.5 36t-47.5 108q0 70 49 106.5t138 50.5t124 29t35 52q0 44 -28 63.5t-85 19.5q-50 0 -83.5 -22t-38.5 -64h-86q5 72 61.5 116.5t147.5 44.5q98 0 146 -41.5t48 -116.5v-266q0 -54 20 -104h-81q-15 33 -19 70q-24 -36 -71 -59t-105 -23zM215 60
q77 0 125 34t48 94v86q-33 -30 -156 -53q-59 -11 -84 -30.5t-25 -55.5t25 -55.5t67 -19.5zM322 593v95h93v-95h-93zM137 593v95h92v-95h-92z" />
    <glyph glyph-name="aring" unicode="&#xe5;" 
d="M214 -12q-77 0 -124.5 36t-47.5 108q0 70 49 106.5t138 50.5t124 29t35 52q0 44 -28 63.5t-85 19.5q-50 0 -83.5 -22t-38.5 -64h-86q5 72 61.5 116.5t147.5 44.5q98 0 146 -41.5t48 -116.5v-266q0 -54 20 -104h-81q-15 33 -19 70q-24 -36 -71 -59t-105 -23zM215 60
q77 0 125 34t48 94v86q-33 -30 -156 -53q-59 -11 -84 -30.5t-25 -55.5t25 -55.5t67 -19.5zM275 570q-47 0 -80 32.5t-33 78.5q0 48 32.5 80t80.5 32q47 0 80 -32t33 -80q0 -46 -33 -78.5t-80 -32.5zM275 616q26 0 43.5 18.5t17.5 46.5t-17.5 47t-43.5 19t-43.5 -19
t-17.5 -47t17.5 -46.5t43.5 -18.5z" />
    <glyph glyph-name="ae" unicode="&#xe6;" horiz-adv-x="915" 
d="M214 -12q-77 0 -124.5 36t-47.5 108q0 70 49 106.5t138 50.5t123.5 29t34.5 52q0 44 -27.5 63.5t-84.5 19.5q-50 0 -83.5 -22t-38.5 -64h-86q5 72 61.5 116.5t147.5 44.5q140 0 178 -93q69 93 183 93q103 0 173.5 -78.5t66.5 -217.5h-405q6 -81 54 -125.5t114 -44.5
q105 0 138 82h87q-18 -69 -79 -112.5t-146 -43.5q-69 0 -124.5 31.5t-87.5 88.5q-34 -64 -91.5 -92t-122.5 -28zM215 60q77 0 125.5 34t48.5 94v86q-33 -30 -157 -53q-59 -11 -84 -30.5t-25 -55.5t25 -55.5t67 -19.5zM475 303h310q-8 75 -48.5 113t-99.5 38
q-57 0 -102.5 -38t-59.5 -113z" />
    <glyph glyph-name="ccedilla" unicode="&#xe7;" horiz-adv-x="545" 
d="M511 158q-17 -71 -69.5 -116.5t-128.5 -52.5l-28 -44q4 1 14 1q38 0 65 -24.5t27 -64.5q0 -44 -31.5 -68.5t-77.5 -24.5q-44 0 -76.5 22t-38.5 57h63q12 -28 48 -28q20 0 33 11.5t13 29.5q0 19 -13 31t-32 12q-20 0 -38 -16l-35 28l46 80q-91 14 -150.5 87.5t-59.5 177.5
q0 116 72 194t176 78q84 0 142.5 -45.5t78.5 -124.5h-87q-35 95 -134 95q-71 0 -117 -52.5t-46 -144.5q0 -90 46 -141.5t117 -51.5q49 0 84 25.5t50 69.5h87z" />
    <glyph glyph-name="egrave" unicode="&#xe8;" horiz-adv-x="570" 
d="M295 -12q-108 0 -180.5 75.5t-72.5 193.5q0 117 72.5 194t177.5 77q103 0 173.5 -78.5t66.5 -217.5h-405q6 -81 54 -125.5t114 -44.5q105 0 138 82h87q-18 -69 -79 -112.5t-146 -43.5zM130 303h310q-8 75 -48.5 113t-99.5 38q-57 0 -102.5 -38t-59.5 -113zM252 593
l-97 147h109l64 -147h-76z" />
    <glyph glyph-name="eacute" unicode="&#xe9;" horiz-adv-x="570" 
d="M295 -12q-108 0 -180.5 75.5t-72.5 193.5q0 117 72.5 194t177.5 77q103 0 173.5 -78.5t66.5 -217.5h-405q6 -81 54 -125.5t114 -44.5q105 0 138 82h87q-18 -69 -79 -112.5t-146 -43.5zM130 303h310q-8 75 -48.5 113t-99.5 38q-57 0 -102.5 -38t-59.5 -113zM264 593
l64 147h109l-97 -147h-76z" />
    <glyph glyph-name="ecircumflex" unicode="&#xea;" horiz-adv-x="570" 
d="M295 -12q-108 0 -180.5 75.5t-72.5 193.5q0 117 72.5 194t177.5 77q103 0 173.5 -78.5t66.5 -217.5h-405q6 -81 54 -125.5t114 -44.5q105 0 138 82h87q-18 -69 -79 -112.5t-146 -43.5zM130 303h310q-8 75 -48.5 113t-99.5 38q-57 0 -102.5 -38t-59.5 -113zM151 593
l113 154h64l114 -154h-74l-72 79l-72 -79h-73z" />
    <glyph glyph-name="edieresis" unicode="&#xeb;" horiz-adv-x="570" 
d="M295 -12q-108 0 -180.5 75.5t-72.5 193.5q0 117 72.5 194t177.5 77q103 0 173.5 -78.5t66.5 -217.5h-405q6 -81 54 -125.5t114 -44.5q105 0 138 82h87q-18 -69 -79 -112.5t-146 -43.5zM130 303h310q-8 75 -48.5 113t-99.5 38q-57 0 -102.5 -38t-59.5 -113zM342 593v95h93
v-95h-93zM157 593v95h92v-95h-92z" />
    <glyph glyph-name="igrave" unicode="&#xec;" horiz-adv-x="240" 
d="M79 0v515h82v-515h-82zM76 633l-97 147h109l64 -147h-76z" />
    <glyph glyph-name="iacute" unicode="&#xed;" horiz-adv-x="240" 
d="M79 0v515h82v-515h-82zM88 633l64 147h109l-97 -147h-76z" />
    <glyph glyph-name="icircumflex" unicode="&#xee;" horiz-adv-x="240" 
d="M79 0v515h82v-515h-82zM-25 633l113 154h64l114 -154h-74l-72 79l-72 -79h-73z" />
    <glyph glyph-name="idieresis" unicode="&#xef;" horiz-adv-x="240" 
d="M79 0v515h82v-515h-82zM166 633v95h93v-95h-93zM-19 633v95h92v-95h-92z" />
    <glyph glyph-name="eth" unicode="&#xf0;" horiz-adv-x="578" 
d="M228 553l-36 44l59 45q-32 26 -64 46l42 60q49 -30 85 -58l68 51l37 -43l-61 -46q178 -167 178 -385q0 -127 -68 -203t-179 -76q-104 0 -175.5 74t-71.5 184q0 111 69 186.5t163 75.5q80 0 136 -53q-39 76 -115 149zM289 63q70 0 116.5 49t46.5 136t-47 136.5t-118 49.5
q-68 0 -114 -50t-46 -138q0 -86 46.5 -134.5t115.5 -48.5z" />
    <glyph glyph-name="ntilde" unicode="&#xf1;" horiz-adv-x="571" 
d="M78 0v515h79v-74q60 87 156 87q84 0 133 -58t49 -154v-316h-82v319q0 61 -30.5 96.5t-88.5 35.5t-96 -36.5t-38 -93.5v-321h-82zM120 590q5 52 33.5 86t70.5 34q31 0 71 -23.5t55 -23.5q35 0 40 47h56q-5 -52 -33.5 -86t-70.5 -34q-31 0 -71 23.5t-55 23.5
q-17 0 -27.5 -13t-12.5 -34h-56z" />
    <glyph glyph-name="ograve" unicode="&#xf2;" horiz-adv-x="578" 
d="M289 -12q-104 0 -175.5 76.5t-71.5 191.5q0 116 71.5 194t175.5 78q105 0 176 -77.5t71 -194.5q0 -115 -71 -191.5t-176 -76.5zM289 63q69 0 116 52t47 141q0 91 -47.5 144t-115.5 53t-115 -53t-47 -144q0 -89 47 -141t115 -52zM246 593l-97 147h109l64 -147h-76z" />
    <glyph glyph-name="oacute" unicode="&#xf3;" horiz-adv-x="578" 
d="M289 -12q-104 0 -175.5 76.5t-71.5 191.5q0 116 71.5 194t175.5 78q105 0 176 -77.5t71 -194.5q0 -115 -71 -191.5t-176 -76.5zM289 63q69 0 116 52t47 141q0 91 -47.5 144t-115.5 53t-115 -53t-47 -144q0 -89 47 -141t115 -52zM258 593l64 147h109l-97 -147h-76z" />
    <glyph glyph-name="ocircumflex" unicode="&#xf4;" horiz-adv-x="578" 
d="M289 -12q-104 0 -175.5 76.5t-71.5 191.5q0 116 71.5 194t175.5 78q105 0 176 -77.5t71 -194.5q0 -115 -71 -191.5t-176 -76.5zM289 63q69 0 116 52t47 141q0 91 -47.5 144t-115.5 53t-115 -53t-47 -144q0 -89 47 -141t115 -52zM145 593l113 154h64l114 -154h-74l-72 79
l-72 -79h-73z" />
    <glyph glyph-name="otilde" unicode="&#xf5;" horiz-adv-x="578" 
d="M289 -12q-104 0 -175.5 76.5t-71.5 191.5q0 116 71.5 194t175.5 78q105 0 176 -77.5t71 -194.5q0 -115 -71 -191.5t-176 -76.5zM289 63q69 0 116 52t47 141q0 91 -47.5 144t-115.5 53t-115 -53t-47 -144q0 -89 47 -141t115 -52zM127 590q5 52 33.5 86t70.5 34
q31 0 71 -23.5t55 -23.5q35 0 40 47h56q-5 -52 -33.5 -86t-70.5 -34q-31 0 -71 23.5t-55 23.5q-17 0 -27.5 -13t-12.5 -34h-56z" />
    <glyph glyph-name="odieresis" unicode="&#xf6;" horiz-adv-x="578" 
d="M289 -12q-104 0 -175.5 76.5t-71.5 191.5q0 116 71.5 194t175.5 78q105 0 176 -77.5t71 -194.5q0 -115 -71 -191.5t-176 -76.5zM289 63q69 0 116 52t47 141q0 91 -47.5 144t-115.5 53t-115 -53t-47 -144q0 -89 47 -141t115 -52zM336 593v95h93v-95h-93zM151 593v95h92
v-95h-92z" />
    <glyph glyph-name="divide" unicode="&#xf7;" horiz-adv-x="498" 
d="M46 265v72h406v-72h-406zM200 92v96h98v-96h-98zM200 414v96h98v-96h-98z" />
    <glyph glyph-name="oslash" unicode="&#xf8;" horiz-adv-x="578" 
d="M69 -30l-46 40l71 79q-52 71 -52 167q0 116 71.5 194t175.5 78q85 0 152 -56l67 74l47 -39l-73 -80q54 -73 54 -171q0 -115 -71 -191.5t-176 -76.5q-88 0 -153 56zM289 63q69 0 116 52t47 141q0 63 -24 111l-242 -267q41 -37 103 -37zM127 256q0 -61 22 -107l241 267
q-43 37 -101 37q-68 0 -115 -53t-47 -144z" />
    <glyph glyph-name="ugrave" unicode="&#xf9;" horiz-adv-x="571" 
d="M258 -12q-84 0 -133 57.5t-49 153.5v316h82v-319q0 -61 30 -96t89 -35q58 0 96 36t38 93v321h82v-515h-79v74q-59 -86 -156 -86zM250 593l-97 147h109l64 -147h-76z" />
    <glyph glyph-name="uacute" unicode="&#xfa;" horiz-adv-x="571" 
d="M258 -12q-84 0 -133 57.5t-49 153.5v316h82v-319q0 -61 30 -96t89 -35q58 0 96 36t38 93v321h82v-515h-79v74q-59 -86 -156 -86zM252 593l64 147h109l-97 -147h-76z" />
    <glyph glyph-name="ucircumflex" unicode="&#xfb;" horiz-adv-x="571" 
d="M258 -12q-84 0 -133 57.5t-49 153.5v316h82v-319q0 -61 30 -96t89 -35q58 0 96 36t38 93v321h82v-515h-79v74q-59 -86 -156 -86zM139 593l113 154h64l114 -154h-74l-72 79l-72 -79h-73z" />
    <glyph glyph-name="udieresis" unicode="&#xfc;" horiz-adv-x="571" 
d="M258 -12q-84 0 -133 57.5t-49 153.5v316h82v-319q0 -61 30 -96t89 -35q58 0 96 36t38 93v321h82v-515h-79v74q-59 -86 -156 -86zM330 593v95h93v-95h-93zM145 593v95h92v-95h-92z" />
    <glyph glyph-name="yacute" unicode="&#xfd;" horiz-adv-x="494" 
d="M57 -209v74h10q48 0 75 17.5t41 57.5l23 63l-191 512h89l126 -354q5 -15 10.5 -35.5t7.5 -33.5l3 -13q10 49 21 82l121 354h86l-218 -597q-47 -127 -193 -127h-11zM216 593l64 147h109l-97 -147h-76z" />
    <glyph glyph-name="thorn" unicode="&#xfe;" horiz-adv-x="611" 
d="M78 -209v953h82v-321q25 46 71 75.5t104 29.5q101 0 167.5 -78.5t66.5 -190.5q0 -114 -66.5 -192.5t-167.5 -78.5q-59 0 -105 28t-70 74v-299h-82zM322 63q70 0 116.5 51.5t46.5 141.5q0 91 -46.5 144t-116.5 53q-69 0 -115.5 -53t-46.5 -144q0 -90 46.5 -141.5
t115.5 -51.5z" />
    <glyph glyph-name="ydieresis" unicode="&#xff;" horiz-adv-x="494" 
d="M57 -209v74h10q48 0 75 17.5t41 57.5l23 63l-191 512h89l126 -354q5 -15 10.5 -35.5t7.5 -33.5l3 -13q10 49 21 82l121 354h86l-218 -597q-47 -127 -193 -127h-11zM294 593v95h93v-95h-93zM109 593v95h92v-95h-92z" />
    <glyph glyph-name="Amacron" unicode="&#x100;" horiz-adv-x="617" 
d="M17 0l249 680h90l244 -680h-90l-64 181h-277l-64 -181h-88zM285 505l-88 -246h222l-86 246l-24 82q-12 -49 -24 -82zM178 759v70h262v-70h-262z" />
    <glyph glyph-name="amacron" unicode="&#x101;" 
d="M214 -12q-77 0 -124.5 36t-47.5 108q0 70 49 106.5t138 50.5t124 29t35 52q0 44 -28 63.5t-85 19.5q-50 0 -83.5 -22t-38.5 -64h-86q5 72 61.5 116.5t147.5 44.5q98 0 146 -41.5t48 -116.5v-266q0 -54 20 -104h-81q-15 33 -19 70q-24 -36 -71 -59t-105 -23zM215 60
q77 0 125 34t48 94v86q-33 -30 -156 -53q-59 -11 -84 -30.5t-25 -55.5t25 -55.5t67 -19.5zM145 622v70h262v-70h-262z" />
    <glyph glyph-name="Abreve" unicode="&#x102;" horiz-adv-x="617" 
d="M17 0l249 680h90l244 -680h-90l-64 181h-277l-64 -181h-88zM285 505l-88 -246h222l-86 246l-24 82q-12 -49 -24 -82zM308 730q-62 0 -101.5 39.5t-44.5 101.5h61q17 -69 86 -69q70 0 85 69h61q-5 -62 -44.5 -101.5t-102.5 -39.5z" />
    <glyph glyph-name="abreve" unicode="&#x103;" 
d="M214 -12q-77 0 -124.5 36t-47.5 108q0 70 49 106.5t138 50.5t124 29t35 52q0 44 -28 63.5t-85 19.5q-50 0 -83.5 -22t-38.5 -64h-86q5 72 61.5 116.5t147.5 44.5q98 0 146 -41.5t48 -116.5v-266q0 -54 20 -104h-81q-15 33 -19 70q-24 -36 -71 -59t-105 -23zM215 60
q77 0 125 34t48 94v86q-33 -30 -156 -53q-59 -11 -84 -30.5t-25 -55.5t25 -55.5t67 -19.5zM275 593q-62 0 -101.5 39.5t-44.5 101.5h61q17 -69 86 -69q70 0 85 69h61q-5 -62 -44.5 -101.5t-102.5 -39.5z" />
    <glyph glyph-name="Aogonek" unicode="&#x104;" horiz-adv-x="617" 
d="M530 -236q-46 0 -77 25.5t-31 67.5q0 72 102 143h-14l-64 181h-277l-64 -181h-88l249 680h90l244 -680h-16q-51 -50 -73 -81t-22 -61q0 -19 11 -31t31 -12q34 0 45 28h63q-7 -34 -37 -56.5t-72 -22.5zM285 505l-88 -246h222l-86 246l-24 82q-12 -49 -24 -82z" />
    <glyph glyph-name="aogonek" unicode="&#x105;" 
d="M436 -236q-46 0 -77 25.5t-31 67.5q0 72 102 143h-21q-15 33 -19 70q-24 -36 -71 -59t-105 -23q-77 0 -124.5 36t-47.5 108q0 70 49 106.5t138 50.5t124 29t35 52q0 44 -28 63.5t-85 19.5q-50 0 -83.5 -22t-38.5 -64h-86q5 72 61.5 116.5t147.5 44.5q98 0 146 -41.5
t48 -116.5v-266q0 -54 20 -104q-51 -50 -73 -81t-22 -61q0 -19 11 -31t31 -12q34 0 45 28h63q-7 -34 -37 -56.5t-72 -22.5zM215 60q77 0 125 34t48 94v86q-33 -30 -156 -53q-59 -11 -84 -30.5t-25 -55.5t25 -55.5t67 -19.5z" />
    <glyph glyph-name="Cacute" unicode="&#x106;" horiz-adv-x="696" 
d="M373 -12q-136 0 -232 99.5t-96 253.5q0 153 95 252.5t231 99.5q116 0 190 -59t102 -164h-86q-50 146 -206 146q-102 0 -168.5 -75.5t-66.5 -199.5t67 -200t170 -76q75 0 130 41t75 110h89q-30 -108 -105.5 -168t-188.5 -60zM340 730l64 147h109l-97 -147h-76z" />
    <glyph glyph-name="cacute" unicode="&#x107;" horiz-adv-x="545" 
d="M290 -12q-104 0 -176 76.5t-72 191.5q0 116 72 194t176 78q84 0 142.5 -45.5t78.5 -124.5h-87q-35 95 -134 95q-71 0 -117 -52.5t-46 -144.5q0 -90 46 -141.5t117 -51.5q49 0 84 25.5t50 69.5h87q-18 -77 -77.5 -123.5t-143.5 -46.5zM251 593l64 147h109l-97 -147h-76z
" />
    <glyph glyph-name="Ccircumflex" unicode="&#x108;" horiz-adv-x="696" 
d="M373 -12q-136 0 -232 99.5t-96 253.5q0 153 95 252.5t231 99.5q116 0 190 -59t102 -164h-86q-50 146 -206 146q-102 0 -168.5 -75.5t-66.5 -199.5t67 -200t170 -76q75 0 130 41t75 110h89q-30 -108 -105.5 -168t-188.5 -60zM227 730l113 154h64l114 -154h-74l-72 79
l-72 -79h-73z" />
    <glyph glyph-name="ccircumflex" unicode="&#x109;" horiz-adv-x="545" 
d="M290 -12q-104 0 -176 76.5t-72 191.5q0 116 72 194t176 78q84 0 142.5 -45.5t78.5 -124.5h-87q-35 95 -134 95q-71 0 -117 -52.5t-46 -144.5q0 -90 46 -141.5t117 -51.5q49 0 84 25.5t50 69.5h87q-18 -77 -77.5 -123.5t-143.5 -46.5zM141 593l113 154h64l114 -154h-74
l-72 79l-72 -79h-73z" />
    <glyph glyph-name="Ccaron" unicode="&#x10c;" horiz-adv-x="696" 
d="M373 -12q-136 0 -232 99.5t-96 253.5q0 153 95 252.5t231 99.5q116 0 190 -59t102 -164h-86q-50 146 -206 146q-102 0 -168.5 -75.5t-66.5 -199.5t67 -200t170 -76q75 0 130 41t75 110h89q-30 -108 -105.5 -168t-188.5 -60zM340 727l-114 154h74l72 -79l72 79h73
l-113 -154h-64z" />
    <glyph glyph-name="ccaron" unicode="&#x10d;" horiz-adv-x="545" 
d="M290 -12q-104 0 -176 76.5t-72 191.5q0 116 72 194t176 78q84 0 142.5 -45.5t78.5 -124.5h-87q-35 95 -134 95q-71 0 -117 -52.5t-46 -144.5q0 -90 46 -141.5t117 -51.5q49 0 84 25.5t50 69.5h87q-18 -77 -77.5 -123.5t-143.5 -46.5zM258 590l-114 154h74l72 -79l72 79
h73l-113 -154h-64z" />
    <glyph glyph-name="Dcaron" unicode="&#x10e;" horiz-adv-x="679" 
d="M86 0v680h225q148 0 235.5 -91t87.5 -248q0 -158 -87.5 -249.5t-235.5 -91.5h-225zM174 78h137q107 0 169.5 65.5t62.5 197.5q0 133 -62.5 197t-169.5 64h-137v-524zM270 727l-114 154h74l72 -79l72 79h73l-113 -154h-64z" />
    <glyph glyph-name="dcaron" unicode="&#x10f;" horiz-adv-x="651" 
d="M276 -12q-101 0 -167.5 78.5t-66.5 192.5q0 112 66.5 190.5t167.5 78.5q58 0 104 -29.5t71 -75.5v321h82v-744h-79v97q-25 -49 -72 -79t-106 -30zM289 63q69 0 115.5 51.5t46.5 141.5q0 91 -46.5 144t-115.5 53q-70 0 -116.5 -53t-46.5 -144q0 -90 46.5 -141.5
t116.5 -51.5zM582 517v46q53 5 53 61v15h-52v105h103v-120q0 -51 -29.5 -77.5t-74.5 -29.5z" />
    <glyph glyph-name="Dcroat" unicode="&#x110;" horiz-adv-x="679" 
d="M23 317v76h63v287h225q148 0 235.5 -91t87.5 -248q0 -158 -87.5 -249.5t-235.5 -91.5h-225v317h-63zM174 78h137q107 0 169.5 65.5t62.5 197.5q0 133 -62.5 197t-169.5 64h-137v-209h188v-76h-188v-239z" />
    <glyph glyph-name="dcroat" unicode="&#x111;" horiz-adv-x="611" 
d="M597 666v-67h-64v-599h-79v97q-25 -49 -72 -79t-106 -30q-101 0 -167.5 78.5t-66.5 192.5q0 112 66.5 190.5t167.5 78.5q58 0 104 -29.5t71 -75.5v176h-125v67h125v78h82v-78h64zM289 63q69 0 115.5 51.5t46.5 141.5q0 91 -46.5 144t-115.5 53q-70 0 -116.5 -53
t-46.5 -144q0 -90 46.5 -141.5t116.5 -51.5z" />
    <glyph glyph-name="Emacron" unicode="&#x112;" horiz-adv-x="587" 
d="M86 0v680h448v-79h-360v-204h306v-79h-306v-239h365v-79h-453zM179 759v70h262v-70h-262z" />
    <glyph glyph-name="emacron" unicode="&#x113;" horiz-adv-x="570" 
d="M295 -12q-108 0 -180.5 75.5t-72.5 193.5q0 117 72.5 194t177.5 77q103 0 173.5 -78.5t66.5 -217.5h-405q6 -81 54 -125.5t114 -44.5q105 0 138 82h87q-18 -69 -79 -112.5t-146 -43.5zM130 303h310q-8 75 -48.5 113t-99.5 38q-57 0 -102.5 -38t-59.5 -113zM165 622v70
h262v-70h-262z" />
    <glyph glyph-name="Edotaccent" unicode="&#x116;" horiz-adv-x="587" 
d="M86 0v680h448v-79h-360v-204h306v-79h-306v-239h365v-79h-453zM270 730v95h92v-95h-92z" />
    <glyph glyph-name="edotaccent" unicode="&#x117;" horiz-adv-x="570" 
d="M295 -12q-108 0 -180.5 75.5t-72.5 193.5q0 117 72.5 194t177.5 77q103 0 173.5 -78.5t66.5 -217.5h-405q6 -81 54 -125.5t114 -44.5q105 0 138 82h87q-18 -69 -79 -112.5t-146 -43.5zM130 303h310q-8 75 -48.5 113t-99.5 38q-57 0 -102.5 -38t-59.5 -113zM250 593v95h92
v-95h-92z" />
    <glyph glyph-name="Eogonek" unicode="&#x118;" horiz-adv-x="587" 
d="M86 0v680h448v-79h-360v-204h306v-79h-306v-239h365v-79h-31q-51 -50 -73 -81t-22 -61q0 -19 11 -31t31 -12q34 0 45 28h63q-7 -34 -37 -56.5t-72 -22.5q-46 0 -77 25.5t-31 67.5q0 72 102 143h-362z" />
    <glyph glyph-name="eogonek" unicode="&#x119;" horiz-adv-x="570" 
d="M304 -236q-46 0 -77 25.5t-31 67.5q0 67 85 132q-103 5 -171 79.5t-68 188.5q0 117 72.5 194t177.5 77q103 0 173.5 -78.5t66.5 -217.5h-405q6 -81 54 -125.5t114 -44.5q105 0 138 82h87q-15 -57 -60 -97t-109 -53q-47 -46 -67.5 -76t-20.5 -60q0 -19 11 -31t31 -12
q34 0 45 28h63q-7 -34 -37 -56.5t-72 -22.5zM130 303h310q-8 75 -48.5 113t-99.5 38q-57 0 -102.5 -38t-59.5 -113z" />
    <glyph glyph-name="Ecaron" unicode="&#x11a;" horiz-adv-x="587" 
d="M86 0v680h448v-79h-360v-204h306v-79h-306v-239h365v-79h-453zM278 727l-114 154h74l72 -79l72 79h73l-113 -154h-64z" />
    <glyph glyph-name="ecaron" unicode="&#x11b;" horiz-adv-x="570" 
d="M295 -12q-108 0 -180.5 75.5t-72.5 193.5q0 117 72.5 194t177.5 77q103 0 173.5 -78.5t66.5 -217.5h-405q6 -81 54 -125.5t114 -44.5q105 0 138 82h87q-18 -69 -79 -112.5t-146 -43.5zM130 303h310q-8 75 -48.5 113t-99.5 38q-57 0 -102.5 -38t-59.5 -113zM259 590
l-114 154h74l72 -79l72 79h73l-113 -154h-64z" />
    <glyph glyph-name="Gcircumflex" unicode="&#x11c;" horiz-adv-x="734" 
d="M370 -12q-137 0 -231 99.5t-94 253.5t94 253t231 99q104 0 184.5 -55.5t106.5 -160.5h-88q-21 70 -75.5 104.5t-127.5 34.5q-104 0 -169 -75t-65 -200t65.5 -200.5t168.5 -75.5q97 0 159 59t67 145h-189v80h272v-349h-82v113q-74 -125 -227 -125zM225 730l113 154h64
l114 -154h-74l-72 79l-72 -79h-73z" />
    <glyph glyph-name="gcircumflex" unicode="&#x11d;" horiz-adv-x="609" 
d="M293 -219q-90 0 -155 43.5t-83 120.5h90q34 -88 148 -88q89 0 123.5 48t34.5 132v68q-24 -47 -70.5 -76t-104.5 -29q-101 0 -167.5 77t-66.5 188q0 110 66.5 186.5t167.5 76.5q58 0 105.5 -30.5t72.5 -78.5v96h79v-478q0 -126 -62 -191t-178 -65zM289 75q69 0 115.5 50
t46.5 137q0 89 -46.5 140t-115.5 51q-70 0 -116.5 -51t-46.5 -140q0 -88 46.5 -137.5t116.5 -49.5zM139 593l113 154h64l114 -154h-74l-72 79l-72 -79h-73z" />
    <glyph glyph-name="Gbreve" unicode="&#x11e;" horiz-adv-x="734" 
d="M370 -12q-137 0 -231 99.5t-94 253.5t94 253t231 99q104 0 184.5 -55.5t106.5 -160.5h-88q-21 70 -75.5 104.5t-127.5 34.5q-104 0 -169 -75t-65 -200t65.5 -200.5t168.5 -75.5q97 0 159 59t67 145h-189v80h272v-349h-82v113q-74 -125 -227 -125zM369 730
q-62 0 -101.5 39.5t-44.5 101.5h61q17 -69 86 -69q70 0 85 69h61q-5 -62 -44.5 -101.5t-102.5 -39.5z" />
    <glyph glyph-name="gbreve" unicode="&#x11f;" horiz-adv-x="609" 
d="M293 -219q-90 0 -155 43.5t-83 120.5h90q34 -88 148 -88q89 0 123.5 48t34.5 132v68q-24 -47 -70.5 -76t-104.5 -29q-101 0 -167.5 77t-66.5 188q0 110 66.5 186.5t167.5 76.5q58 0 105.5 -30.5t72.5 -78.5v96h79v-478q0 -126 -62 -191t-178 -65zM289 75q69 0 115.5 50
t46.5 137q0 89 -46.5 140t-115.5 51q-70 0 -116.5 -51t-46.5 -140q0 -88 46.5 -137.5t116.5 -49.5zM283 593q-62 0 -101.5 39.5t-44.5 101.5h61q17 -69 86 -69q70 0 85 69h61q-5 -62 -44.5 -101.5t-102.5 -39.5z" />
    <glyph glyph-name="Gcommaaccent" unicode="&#x122;" horiz-adv-x="734" 
d="M370 -12q-137 0 -231 99.5t-94 253.5t94 253t231 99q104 0 184.5 -55.5t106.5 -160.5h-88q-21 70 -75.5 104.5t-127.5 34.5q-104 0 -169 -75t-65 -200t65.5 -200.5t168.5 -75.5q97 0 159 59t67 145h-189v80h272v-349h-82v113q-74 -125 -227 -125zM316 -285v46q53 5 53 61
v15h-52v105h103v-120q0 -51 -29.5 -77.5t-74.5 -29.5z" />
    <glyph glyph-name="gcommaaccent" unicode="&#x123;" horiz-adv-x="609" 
d="M293 -219q-90 0 -155 43.5t-83 120.5h90q34 -88 148 -88q89 0 123.5 48t34.5 132v68q-24 -47 -70.5 -76t-104.5 -29q-101 0 -167.5 77t-66.5 188q0 110 66.5 186.5t167.5 76.5q58 0 105.5 -30.5t72.5 -78.5v96h79v-478q0 -126 -62 -191t-178 -65zM289 75q69 0 115.5 50
t46.5 137q0 89 -46.5 140t-115.5 51q-70 0 -116.5 -51t-46.5 -140q0 -88 46.5 -137.5t116.5 -49.5zM328 821v-46q-53 -5 -53 -61v-15h52v-105h-103v120q0 51 29.5 77.5t74.5 29.5z" />
    <glyph glyph-name="Hcircumflex" unicode="&#x124;" horiz-adv-x="696" 
d="M86 0v680h88v-283h348v283h88v-680h-88v317h-348v-317h-88zM204 730l113 154h64l114 -154h-74l-72 79l-72 -79h-73z" />
    <glyph glyph-name="hcircumflex" unicode="&#x125;" horiz-adv-x="571" 
d="M78 0v744h82v-300q55 84 153 84q84 0 133 -58t49 -154v-316h-82v319q0 61 -30.5 96.5t-88.5 35.5t-96 -36.5t-38 -93.5v-321h-82zM137 773l113 154h64l114 -154h-74l-72 79l-72 -79h-73z" />
    <glyph glyph-name="Imacron" unicode="&#x12a;" horiz-adv-x="266" 
d="M89 0v680h88v-680h-88zM2 759v70h262v-70h-262z" />
    <glyph glyph-name="imacron" unicode="&#x12b;" horiz-adv-x="240" 
d="M79 0v515h82v-515h-82zM-11 662v70h262v-70h-262z" />
    <glyph glyph-name="Iogonek" unicode="&#x12e;" horiz-adv-x="266" 
d="M89 0v680h88v-680q-51 -50 -73 -81t-22 -61q0 -19 11 -31t31 -12q34 0 45 28h63q-7 -34 -37 -56.5t-72 -22.5q-46 0 -77 25.5t-31 67.5q0 72 102 143h-28z" />
    <glyph glyph-name="iogonek" unicode="&#x12f;" horiz-adv-x="240" 
d="M79 0v515h82v-515q-51 -50 -73 -81t-22 -61q0 -19 11 -31t31 -12q34 0 45 28h63q-7 -34 -37 -56.5t-72 -22.5q-46 0 -77 25.5t-31 67.5q0 72 102 143h-22zM75 613v101h90v-101h-90z" />
    <glyph glyph-name="Idotaccent" unicode="&#x130;" horiz-adv-x="266" 
d="M89 0v680h88v-680h-88zM87 730v95h92v-95h-92z" />
    <glyph glyph-name="dotlessi" unicode="&#x131;" horiz-adv-x="240" 
d="M79 0v515h82v-515h-82z" />
    <glyph glyph-name="Jcircumflex" unicode="&#x134;" horiz-adv-x="534" 
d="M244 -12q-97 0 -156.5 63t-59.5 165h87q0 -66 31.5 -108.5t97.5 -42.5q68 0 98.5 41.5t30.5 121.5v452h88v-452q0 -112 -55.5 -176t-161.5 -64zM272 730l113 154h64l114 -154h-74l-72 79l-72 -79h-73z" />
    <glyph glyph-name="jcircumflex" unicode="&#x135;" horiz-adv-x="240" 
d="M-14 -209v74h16q77 0 77 80v570h82v-571q0 -73 -42.5 -113t-116.5 -40h-16zM-25 633l113 154h64l114 -154h-74l-72 79l-72 -79h-73z" />
    <glyph glyph-name="Kcommaaccent" unicode="&#x136;" horiz-adv-x="628" 
d="M512 0l-231 348l-114 -119v-229h-81v680h81v-350l335 350h98l-263 -274l271 -406h-96zM269 -285v46q53 5 53 61v15h-52v105h103v-120q0 -51 -29.5 -77.5t-74.5 -29.5z" />
    <glyph glyph-name="kcommaaccent" unicode="&#x137;" horiz-adv-x="527" 
d="M413 0l-168 251l-85 -90v-161h-82v744h82v-479l234 250h101l-191 -202l209 -313h-100zM232 -285v46q53 5 53 61v15h-52v105h103v-120q0 -51 -29.5 -77.5t-74.5 -29.5z" />
    <glyph glyph-name="Lacute" unicode="&#x139;" horiz-adv-x="532" 
d="M86 0v680h88v-601h328v-79h-416zM96 730l64 147h109l-97 -147h-76z" />
    <glyph glyph-name="lacute" unicode="&#x13a;" horiz-adv-x="242" 
d="M80 0v744h82v-744h-82zM82 773l64 147h109l-97 -147h-76z" />
    <glyph glyph-name="Lcommaaccent" unicode="&#x13b;" horiz-adv-x="532" 
d="M86 0v680h88v-601h328v-79h-416zM236 -285v46q53 5 53 61v15h-52v105h103v-120q0 -51 -29.5 -77.5t-74.5 -29.5z" />
    <glyph glyph-name="lcommaaccent" unicode="&#x13c;" horiz-adv-x="242" 
d="M80 0v744h82v-744h-82zM67 -285v46q53 5 53 61v15h-52v105h103v-120q0 -51 -29.5 -77.5t-74.5 -29.5z" />
    <glyph glyph-name="Lcaron" unicode="&#x13d;" horiz-adv-x="532" 
d="M86 0v680h88v-601h328v-79h-416zM378 453v46q53 5 53 61v15h-52v105h103v-120q0 -51 -29.5 -77.5t-74.5 -29.5z" />
    <glyph glyph-name="lcaron" unicode="&#x13e;" horiz-adv-x="280" 
d="M80 0v744h82v-744h-82zM211 517v46q53 5 53 61v15h-52v105h103v-120q0 -51 -29.5 -77.5t-74.5 -29.5z" />
    <glyph glyph-name="Lslash" unicode="&#x141;" horiz-adv-x="532" 
d="M3 200v76l83 42v362h88v-318l172 87v-76l-172 -87v-207h328v-79h-416v242z" />
    <glyph glyph-name="lslash" unicode="&#x142;" horiz-adv-x="283" 
d="M17 255v77l83 48v364h82v-316l95 56v-77l-95 -56v-351h-82v303z" />
    <glyph glyph-name="Nacute" unicode="&#x143;" horiz-adv-x="686" 
d="M86 0v680h97l337 -543v543h80v-680h-89l-345 555v-555h-80zM320 730l64 147h109l-97 -147h-76z" />
    <glyph glyph-name="nacute" unicode="&#x144;" horiz-adv-x="571" 
d="M78 0v515h79v-74q60 87 156 87q84 0 133 -58t49 -154v-316h-82v319q0 61 -30.5 96.5t-88.5 35.5t-96 -36.5t-38 -93.5v-321h-82zM264 593l64 147h109l-97 -147h-76z" />
    <glyph glyph-name="Ncommaaccent" unicode="&#x145;" horiz-adv-x="686" 
d="M86 0v680h97l337 -543v543h80v-680h-89l-345 555v-555h-80zM294 -285v46q53 5 53 61v15h-52v105h103v-120q0 -51 -29.5 -77.5t-74.5 -29.5z" />
    <glyph glyph-name="ncommaaccent" unicode="&#x146;" horiz-adv-x="571" 
d="M78 0v515h79v-74q60 87 156 87q84 0 133 -58t49 -154v-316h-82v319q0 61 -30.5 96.5t-88.5 35.5t-96 -36.5t-38 -93.5v-321h-82zM236 -285v46q53 5 53 61v15h-52v105h103v-120q0 -51 -29.5 -77.5t-74.5 -29.5z" />
    <glyph glyph-name="Ncaron" unicode="&#x147;" horiz-adv-x="686" 
d="M86 0v680h97l337 -543v543h80v-680h-89l-345 555v-555h-80zM333 727l-114 154h74l72 -79l72 79h73l-113 -154h-64z" />
    <glyph glyph-name="ncaron" unicode="&#x148;" horiz-adv-x="571" 
d="M78 0v515h79v-74q60 87 156 87q84 0 133 -58t49 -154v-316h-82v319q0 61 -30.5 96.5t-88.5 35.5t-96 -36.5t-38 -93.5v-321h-82zM260 590l-114 154h74l72 -79l72 79h73l-113 -154h-64z" />
    <glyph glyph-name="Omacron" unicode="&#x14c;" horiz-adv-x="748" 
d="M374 -12q-138 0 -233.5 99.5t-95.5 253.5t95.5 253t233.5 99q141 0 235 -98t94 -254q0 -154 -95.5 -253.5t-233.5 -99.5zM374 65q104 0 171 76t67 200q0 126 -66 200.5t-172 74.5q-104 0 -171 -75.5t-67 -199.5q0 -125 67 -200.5t171 -75.5zM242 759v70h262v-70h-262z
" />
    <glyph glyph-name="omacron" unicode="&#x14d;" horiz-adv-x="578" 
d="M289 -12q-104 0 -175.5 76.5t-71.5 191.5q0 116 71.5 194t175.5 78q105 0 176 -77.5t71 -194.5q0 -115 -71 -191.5t-176 -76.5zM289 63q69 0 116 52t47 141q0 91 -47.5 144t-115.5 53t-115 -53t-47 -144q0 -89 47 -141t115 -52zM159 622v70h262v-70h-262z" />
    <glyph glyph-name="Ohungarumlaut" unicode="&#x150;" horiz-adv-x="748" 
d="M374 -12q-138 0 -233.5 99.5t-95.5 253.5t95.5 253t233.5 99q141 0 235 -98t94 -254q0 -154 -95.5 -253.5t-233.5 -99.5zM374 65q104 0 171 76t67 200q0 126 -66 200.5t-172 74.5q-104 0 -171 -75.5t-67 -199.5q0 -125 67 -200.5t171 -75.5zM402 730l55 147h99l-78 -147
h-76zM239 730l55 147h99l-78 -147h-76z" />
    <glyph glyph-name="ohungarumlaut" unicode="&#x151;" horiz-adv-x="578" 
d="M289 -12q-104 0 -175.5 76.5t-71.5 191.5q0 116 71.5 194t175.5 78q105 0 176 -77.5t71 -194.5q0 -115 -71 -191.5t-176 -76.5zM289 63q69 0 116 52t47 141q0 91 -47.5 144t-115.5 53t-115 -53t-47 -144q0 -89 47 -141t115 -52zM319 593l55 147h99l-78 -147h-76zM156 593
l55 147h99l-78 -147h-76z" />
    <glyph glyph-name="OE" unicode="&#x152;" horiz-adv-x="1113" 
d="M374 -12q-138 0 -233.5 99.5t-95.5 253.5t95.5 253t233.5 99q155 0 238 -119v106h448v-79h-360v-204h306v-79h-306v-239h365v-79h-453v111q-86 -123 -238 -123zM374 65q104 0 171 76t67 200q0 126 -66 200.5t-172 74.5q-104 0 -171 -75.5t-67 -199.5q0 -125 67 -200.5
t171 -75.5z" />
    <glyph glyph-name="oe" unicode="&#x153;" horiz-adv-x="980" 
d="M289 -12q-104 0 -175.5 76.5t-71.5 191.5q0 116 71.5 194t175.5 78q67 0 121 -36t84 -98q31 62 86 98t122 36q103 0 173.5 -78.5t66.5 -217.5h-405q6 -81 54 -125.5t114 -44.5q105 0 138 82h87q-18 -69 -79 -112.5t-146 -43.5q-70 0 -125 34.5t-86 95.5
q-31 -60 -84.5 -95t-120.5 -35zM289 63q69 0 116 52t47 141q0 91 -47.5 144t-115.5 53t-115 -53t-47 -144q0 -89 47 -141t115 -52zM540 302h310q-8 75 -48.5 113t-99.5 38q-57 0 -102.5 -38t-59.5 -113z" />
    <glyph glyph-name="Racute" unicode="&#x154;" horiz-adv-x="650" 
d="M86 0v680h284q100 0 157.5 -55.5t57.5 -144.5q0 -109 -104 -155q42 -15 62 -46.5t26 -89.5l9 -83q6 -61 24 -106h-83q-17 36 -22 97l-7 81q-5 55 -29.5 79t-80.5 24h-209v-281h-85zM171 361h207q59 0 90.5 31.5t31.5 87.5q0 121 -130 121h-199v-240zM282 730l64 147h109
l-97 -147h-76z" />
    <glyph glyph-name="racute" unicode="&#x155;" horiz-adv-x="361" 
d="M78 0v515h79v-87q28 52 75.5 75t94.5 17v-83q-72 6 -119.5 -29.5t-47.5 -109.5v-298h-82zM175 593l64 147h109l-97 -147h-76z" />
    <glyph glyph-name="Rcommaaccent" unicode="&#x156;" horiz-adv-x="650" 
d="M86 0v680h284q100 0 157.5 -55.5t57.5 -144.5q0 -109 -104 -155q42 -15 62 -46.5t26 -89.5l9 -83q6 -61 24 -106h-83q-17 36 -22 97l-7 81q-5 55 -29.5 79t-80.5 24h-209v-281h-85zM171 361h207q59 0 90.5 31.5t31.5 87.5q0 121 -130 121h-199v-240zM290 -285v46
q53 5 53 61v15h-52v105h103v-120q0 -51 -29.5 -77.5t-74.5 -29.5z" />
    <glyph glyph-name="rcommaaccent" unicode="&#x157;" horiz-adv-x="361" 
d="M78 0v515h79v-87q28 52 75.5 75t94.5 17v-83q-72 6 -119.5 -29.5t-47.5 -109.5v-298h-82zM69 -285v46q53 5 53 61v15h-52v105h103v-120q0 -51 -29.5 -77.5t-74.5 -29.5z" />
    <glyph glyph-name="Rcaron" unicode="&#x158;" horiz-adv-x="650" 
d="M86 0v680h284q100 0 157.5 -55.5t57.5 -144.5q0 -109 -104 -155q42 -15 62 -46.5t26 -89.5l9 -83q6 -61 24 -106h-83q-17 36 -22 97l-7 81q-5 55 -29.5 79t-80.5 24h-209v-281h-85zM171 361h207q59 0 90.5 31.5t31.5 87.5q0 121 -130 121h-199v-240zM282 727l-114 154h74
l72 -79l72 79h73l-113 -154h-64z" />
    <glyph glyph-name="rcaron" unicode="&#x159;" horiz-adv-x="361" 
d="M78 0v515h79v-87q28 52 75.5 75t94.5 17v-83q-72 6 -119.5 -29.5t-47.5 -109.5v-298h-82zM175 590l-114 154h74l72 -79l72 79h73l-113 -154h-64z" />
    <glyph glyph-name="Sacute" unicode="&#x15a;" horiz-adv-x="593" 
d="M305 -12q-115 0 -189 63.5t-78 157.5h88q3 -65 51.5 -104.5t127.5 -39.5t120 31.5t41 85.5q0 51 -35.5 80t-138.5 51q-121 26 -175 70t-54 129t61.5 133t162.5 48q110 0 174 -52.5t73 -142.5h-86q-6 53 -46 85.5t-114 32.5q-69 0 -104.5 -26.5t-35.5 -75.5q0 -45 33 -71
t131 -48q127 -29 182.5 -73t55.5 -140q0 -92 -67.5 -143t-177.5 -51zM254 730l64 147h109l-97 -147h-76z" />
    <glyph glyph-name="sacute" unicode="&#x15b;" horiz-adv-x="505" 
d="M261 -13q-91 0 -151.5 45t-71.5 119h83q10 -39 46.5 -64t93.5 -25t91 22.5t34 56.5q0 36 -25.5 54t-110.5 30q-98 14 -146 47.5t-48 105.5q0 61 48.5 105.5t144.5 44.5q85 0 139 -40.5t64 -110.5h-83q-10 36 -42 56t-78 20q-53 0 -82 -20.5t-29 -51.5q0 -32 26.5 -48
t99.5 -28q53 -9 82 -16.5t60.5 -24.5t45.5 -46.5t14 -73.5q0 -74 -56.5 -115.5t-148.5 -41.5zM213 593l64 147h109l-97 -147h-76z" />
    <glyph glyph-name="Scircumflex" unicode="&#x15c;" horiz-adv-x="593" 
d="M305 -12q-115 0 -189 63.5t-78 157.5h88q3 -65 51.5 -104.5t127.5 -39.5t120 31.5t41 85.5q0 51 -35.5 80t-138.5 51q-121 26 -175 70t-54 129t61.5 133t162.5 48q110 0 174 -52.5t73 -142.5h-86q-6 53 -46 85.5t-114 32.5q-69 0 -104.5 -26.5t-35.5 -75.5q0 -45 33 -71
t131 -48q127 -29 182.5 -73t55.5 -140q0 -92 -67.5 -143t-177.5 -51zM141 730l113 154h64l114 -154h-74l-72 79l-72 -79h-73z" />
    <glyph glyph-name="scircumflex" unicode="&#x15d;" horiz-adv-x="505" 
d="M261 -13q-91 0 -151.5 45t-71.5 119h83q10 -39 46.5 -64t93.5 -25t91 22.5t34 56.5q0 36 -25.5 54t-110.5 30q-98 14 -146 47.5t-48 105.5q0 61 48.5 105.5t144.5 44.5q85 0 139 -40.5t64 -110.5h-83q-10 36 -42 56t-78 20q-53 0 -82 -20.5t-29 -51.5q0 -32 26.5 -48
t99.5 -28q53 -9 82 -16.5t60.5 -24.5t45.5 -46.5t14 -73.5q0 -74 -56.5 -115.5t-148.5 -41.5zM106 593l113 154h64l114 -154h-74l-72 79l-72 -79h-73z" />
    <glyph glyph-name="Scedilla" unicode="&#x15e;" horiz-adv-x="593" 
d="M550 182q0 -85 -57.5 -135t-153.5 -58l-29 -44q4 1 14 1q38 0 65 -24.5t27 -64.5q0 -44 -31.5 -68.5t-77.5 -24.5q-44 0 -76.5 22t-38.5 57h63q12 -28 48 -28q20 0 33 11.5t13 29.5q0 19 -13 31t-32 12q-20 0 -38 -16l-35 28l44 78q-103 8 -168.5 70t-68.5 150h88
q3 -65 51.5 -104.5t127.5 -39.5t120 31.5t41 85.5q0 51 -35.5 80t-138.5 51q-121 26 -175 70t-54 129t61.5 133t162.5 48q110 0 174 -52.5t73 -142.5h-86q-6 53 -46 85.5t-114 32.5q-69 0 -104.5 -26.5t-35.5 -75.5q0 -45 33 -71t131 -48q127 -29 182.5 -73t55.5 -140z" />
    <glyph glyph-name="Scedilla" unicode="&#xf6c1;" horiz-adv-x="593" 
d="M550 182q0 -85 -57.5 -135t-153.5 -58l-29 -44q4 1 14 1q38 0 65 -24.5t27 -64.5q0 -44 -31.5 -68.5t-77.5 -24.5q-44 0 -76.5 22t-38.5 57h63q12 -28 48 -28q20 0 33 11.5t13 29.5q0 19 -13 31t-32 12q-20 0 -38 -16l-35 28l44 78q-103 8 -168.5 70t-68.5 150h88
q3 -65 51.5 -104.5t127.5 -39.5t120 31.5t41 85.5q0 51 -35.5 80t-138.5 51q-121 26 -175 70t-54 129t61.5 133t162.5 48q110 0 174 -52.5t73 -142.5h-86q-6 53 -46 85.5t-114 32.5q-69 0 -104.5 -26.5t-35.5 -75.5q0 -45 33 -71t131 -48q127 -29 182.5 -73t55.5 -140z" />
    <glyph glyph-name="scedilla" unicode="&#x15f;" horiz-adv-x="505" 
d="M466 144q0 -69 -49 -109.5t-130 -46.5l-28 -43q4 1 14 1q38 0 65 -24.5t27 -64.5q0 -44 -31.5 -68.5t-77.5 -24.5q-44 0 -76.5 22t-38.5 57h63q12 -28 48 -28q20 0 33 11.5t13 29.5q0 19 -13 31t-32 12q-20 0 -38 -16l-35 28l45 78q-77 8 -127.5 51.5t-59.5 110.5h83
q10 -39 46.5 -64t93.5 -25t91 22.5t34 56.5q0 36 -25.5 54t-110.5 30q-98 14 -146 47.5t-48 105.5q0 61 48.5 105.5t144.5 44.5q85 0 139 -40.5t64 -110.5h-83q-10 36 -42 56t-78 20q-53 0 -82 -20.5t-29 -51.5q0 -32 26.5 -48t99.5 -28q53 -9 82 -16.5t60.5 -24.5
t45.5 -46.5t14 -73.5z" />
    <glyph glyph-name="scedilla" unicode="&#xf6c2;" horiz-adv-x="505" 
d="M466 144q0 -69 -49 -109.5t-130 -46.5l-28 -43q4 1 14 1q38 0 65 -24.5t27 -64.5q0 -44 -31.5 -68.5t-77.5 -24.5q-44 0 -76.5 22t-38.5 57h63q12 -28 48 -28q20 0 33 11.5t13 29.5q0 19 -13 31t-32 12q-20 0 -38 -16l-35 28l45 78q-77 8 -127.5 51.5t-59.5 110.5h83
q10 -39 46.5 -64t93.5 -25t91 22.5t34 56.5q0 36 -25.5 54t-110.5 30q-98 14 -146 47.5t-48 105.5q0 61 48.5 105.5t144.5 44.5q85 0 139 -40.5t64 -110.5h-83q-10 36 -42 56t-78 20q-53 0 -82 -20.5t-29 -51.5q0 -32 26.5 -48t99.5 -28q53 -9 82 -16.5t60.5 -24.5
t45.5 -46.5t14 -73.5z" />
    <glyph glyph-name="Scaron" unicode="&#x160;" horiz-adv-x="593" 
d="M305 -12q-115 0 -189 63.5t-78 157.5h88q3 -65 51.5 -104.5t127.5 -39.5t120 31.5t41 85.5q0 51 -35.5 80t-138.5 51q-121 26 -175 70t-54 129t61.5 133t162.5 48q110 0 174 -52.5t73 -142.5h-86q-6 53 -46 85.5t-114 32.5q-69 0 -104.5 -26.5t-35.5 -75.5q0 -45 33 -71
t131 -48q127 -29 182.5 -73t55.5 -140q0 -92 -67.5 -143t-177.5 -51zM254 727l-114 154h74l72 -79l72 79h73l-113 -154h-64z" />
    <glyph glyph-name="scaron" unicode="&#x161;" horiz-adv-x="505" 
d="M261 -13q-91 0 -151.5 45t-71.5 119h83q10 -39 46.5 -64t93.5 -25t91 22.5t34 56.5q0 36 -25.5 54t-110.5 30q-98 14 -146 47.5t-48 105.5q0 61 48.5 105.5t144.5 44.5q85 0 139 -40.5t64 -110.5h-83q-10 36 -42 56t-78 20q-53 0 -82 -20.5t-29 -51.5q0 -32 26.5 -48
t99.5 -28q53 -9 82 -16.5t60.5 -24.5t45.5 -46.5t14 -73.5q0 -74 -56.5 -115.5t-148.5 -41.5zM219 590l-114 154h74l72 -79l72 79h73l-113 -154h-64z" />
    <glyph glyph-name="Tcommaaccent" unicode="&#x162;" horiz-adv-x="548" 
d="M230 0v601h-205v79h498v-79h-205v-601h-88zM220 -285v46q53 5 53 61v15h-52v105h103v-120q0 -51 -29.5 -77.5t-74.5 -29.5z" />
    <glyph glyph-name="Tcommaaccent" unicode="&#x21a;" horiz-adv-x="548" 
d="M230 0v601h-205v79h498v-79h-205v-601h-88zM220 -285v46q53 5 53 61v15h-52v105h103v-120q0 -51 -29.5 -77.5t-74.5 -29.5z" />
    <glyph glyph-name="tcommaaccent" unicode="&#x163;" horiz-adv-x="338" 
d="M273 -9q-83 0 -129 48t-46 141v259h-75v76h75v147h82v-147h117v-76h-117v-259q0 -113 101 -113l24 2v-75q-13 -3 -32 -3zM142 -285v46q53 5 53 61v15h-52v105h103v-120q0 -51 -29.5 -77.5t-74.5 -29.5z" />
    <glyph glyph-name="tcommaaccent" unicode="&#x21b;" horiz-adv-x="338" 
d="M273 -9q-83 0 -129 48t-46 141v259h-75v76h75v147h82v-147h117v-76h-117v-259q0 -113 101 -113l24 2v-75q-13 -3 -32 -3zM142 -285v46q53 5 53 61v15h-52v105h103v-120q0 -51 -29.5 -77.5t-74.5 -29.5z" />
    <glyph glyph-name="Tcaron" unicode="&#x164;" horiz-adv-x="548" 
d="M230 0v601h-205v79h498v-79h-205v-601h-88zM242 727l-114 154h74l72 -79l72 79h73l-113 -154h-64z" />
    <glyph glyph-name="tcaron" unicode="&#x165;" horiz-adv-x="409" 
d="M273 -9q-83 0 -129 48t-46 141v259h-75v76h75v147h82v-147h117v-76h-117v-259q0 -113 101 -113l24 2v-75q-13 -3 -32 -3zM340 517v46q53 5 53 61v15h-52v105h103v-120q0 -51 -29.5 -77.5t-74.5 -29.5z" />
    <glyph glyph-name="Umacron" unicode="&#x16a;" horiz-adv-x="667" 
d="M334 -12q-116 0 -188.5 70.5t-72.5 194.5v427h88v-427q0 -91 45 -139.5t128 -48.5t127.5 48.5t44.5 139.5v427h88v-427q0 -124 -72.5 -194.5t-187.5 -70.5zM203 759v70h262v-70h-262z" />
    <glyph glyph-name="umacron" unicode="&#x16b;" horiz-adv-x="571" 
d="M258 -12q-84 0 -133 57.5t-49 153.5v316h82v-319q0 -61 30 -96t89 -35q58 0 96 36t38 93v321h82v-515h-79v74q-59 -86 -156 -86zM153 622v70h262v-70h-262z" />
    <glyph glyph-name="Ubreve" unicode="&#x16c;" horiz-adv-x="667" 
d="M334 -12q-116 0 -188.5 70.5t-72.5 194.5v427h88v-427q0 -91 45 -139.5t128 -48.5t127.5 48.5t44.5 139.5v427h88v-427q0 -124 -72.5 -194.5t-187.5 -70.5zM333 730q-62 0 -101.5 39.5t-44.5 101.5h61q17 -69 86 -69q70 0 85 69h61q-5 -62 -44.5 -101.5t-102.5 -39.5z
" />
    <glyph glyph-name="ubreve" unicode="&#x16d;" horiz-adv-x="571" 
d="M258 -12q-84 0 -133 57.5t-49 153.5v316h82v-319q0 -61 30 -96t89 -35q58 0 96 36t38 93v321h82v-515h-79v74q-59 -86 -156 -86zM283 593q-62 0 -101.5 39.5t-44.5 101.5h61q17 -69 86 -69q70 0 85 69h61q-5 -62 -44.5 -101.5t-102.5 -39.5z" />
    <glyph glyph-name="Uring" unicode="&#x16e;" horiz-adv-x="667" 
d="M334 -12q-116 0 -188.5 70.5t-72.5 194.5v427h88v-427q0 -91 45 -139.5t128 -48.5t127.5 48.5t44.5 139.5v427h88v-427q0 -124 -72.5 -194.5t-187.5 -70.5zM333 707q-47 0 -80 32.5t-33 78.5q0 48 32.5 80t80.5 32q47 0 80 -32t33 -80q0 -46 -33 -78.5t-80 -32.5z
M333 753q26 0 43.5 18.5t17.5 46.5t-17.5 47t-43.5 19t-43.5 -19t-17.5 -47t17.5 -46.5t43.5 -18.5z" />
    <glyph glyph-name="uring" unicode="&#x16f;" horiz-adv-x="571" 
d="M258 -12q-84 0 -133 57.5t-49 153.5v316h82v-319q0 -61 30 -96t89 -35q58 0 96 36t38 93v321h82v-515h-79v74q-59 -86 -156 -86zM283 570q-47 0 -80 32.5t-33 78.5q0 48 32.5 80t80.5 32q47 0 80 -32t33 -80q0 -46 -33 -78.5t-80 -32.5zM283 616q26 0 43.5 18.5
t17.5 46.5t-17.5 47t-43.5 19t-43.5 -19t-17.5 -47t17.5 -46.5t43.5 -18.5z" />
    <glyph glyph-name="Uhungarumlaut" unicode="&#x170;" horiz-adv-x="667" 
d="M334 -12q-116 0 -188.5 70.5t-72.5 194.5v427h88v-427q0 -91 45 -139.5t128 -48.5t127.5 48.5t44.5 139.5v427h88v-427q0 -124 -72.5 -194.5t-187.5 -70.5zM370 730l55 147h99l-78 -147h-76zM207 730l55 147h99l-78 -147h-76z" />
    <glyph glyph-name="uhungarumlaut" unicode="&#x171;" horiz-adv-x="571" 
d="M258 -12q-84 0 -133 57.5t-49 153.5v316h82v-319q0 -61 30 -96t89 -35q58 0 96 36t38 93v321h82v-515h-79v74q-59 -86 -156 -86zM323 593l55 147h99l-78 -147h-76zM160 593l55 147h99l-78 -147h-76z" />
    <glyph glyph-name="Uogonek" unicode="&#x172;" horiz-adv-x="667" 
d="M333 -236q-46 0 -77 25.5t-31 67.5q0 66 86 132q-107 7 -172.5 76.5t-65.5 187.5v427h88v-427q0 -91 45 -139.5t128 -48.5t127.5 48.5t44.5 139.5v427h88v-427q0 -111 -59 -180t-157 -82q-46 -45 -66 -74.5t-20 -58.5q0 -19 11 -31t31 -12q34 0 45 28h63
q-7 -34 -37 -56.5t-72 -22.5z" />
    <glyph glyph-name="uogonek" unicode="&#x173;" horiz-adv-x="571" 
d="M439 -236q-46 0 -77 25.5t-31 67.5q0 72 102 143h-19v74q-59 -86 -156 -86q-84 0 -133 57.5t-49 153.5v316h82v-319q0 -61 30 -96t89 -35q58 0 96 36t38 93v321h82v-515q-51 -50 -73 -81t-22 -61q0 -19 11 -31t31 -12q34 0 45 28h63q-7 -34 -37 -56.5t-72 -22.5z" />
    <glyph glyph-name="Ydieresis" unicode="&#x178;" horiz-adv-x="561" 
d="M236 0v282l-225 398h92l178 -317l179 317h90l-226 -398v-282h-88zM327 730v95h93v-95h-93zM142 730v95h92v-95h-92z" />
    <glyph glyph-name="Zacute" unicode="&#x179;" horiz-adv-x="549" 
d="M32 0v69l380 532h-367v79h470v-76l-375 -525h377v-79h-485zM244 730l64 147h109l-97 -147h-76z" />
    <glyph glyph-name="zacute" unicode="&#x17a;" horiz-adv-x="463" 
d="M33 0v67l285 372h-271v76h374v-72l-281 -367h290v-76h-397zM194 593l64 147h109l-97 -147h-76z" />
    <glyph glyph-name="Zdotaccent" unicode="&#x17b;" horiz-adv-x="549" 
d="M32 0v69l380 532h-367v79h470v-76l-375 -525h377v-79h-485zM230 730v95h92v-95h-92z" />
    <glyph glyph-name="zdotaccent" unicode="&#x17c;" horiz-adv-x="463" 
d="M33 0v67l285 372h-271v76h374v-72l-281 -367h290v-76h-397zM186 593v95h92v-95h-92z" />
    <glyph glyph-name="Zcaron" unicode="&#x17d;" horiz-adv-x="549" 
d="M32 0v69l380 532h-367v79h470v-76l-375 -525h377v-79h-485zM244 727l-114 154h74l72 -79l72 79h73l-113 -154h-64z" />
    <glyph glyph-name="zcaron" unicode="&#x17e;" horiz-adv-x="463" 
d="M33 0v67l285 372h-271v76h374v-72l-281 -367h290v-76h-397zM200 590l-114 154h74l72 -79l72 79h73l-113 -154h-64z" />
    <glyph glyph-name="florin" unicode="&#x192;" horiz-adv-x="384" 
d="M41 319v74h86l23 125q15 84 63.5 129.5t123.5 45.5q22 0 50 -5l-14 -77q-23 6 -42 6q-40 0 -62.5 -24.5t-32.5 -78.5l-22 -121h111v-74h-124l-57 -324q-13 -76 -54 -115.5t-104 -39.5q-20 0 -48 5l13 76q15 -3 29 -3q64 0 78 81l56 320h-73z" />
    <glyph glyph-name="Scommaaccent" unicode="&#x218;" horiz-adv-x="593" 
d="M305 -12q-115 0 -189 63.5t-78 157.5h88q3 -65 51.5 -104.5t127.5 -39.5t120 31.5t41 85.5q0 51 -35.5 80t-138.5 51q-121 26 -175 70t-54 129t61.5 133t162.5 48q110 0 174 -52.5t73 -142.5h-86q-6 53 -46 85.5t-114 32.5q-69 0 -104.5 -26.5t-35.5 -75.5q0 -45 33 -71
t131 -48q127 -29 182.5 -73t55.5 -140q0 -92 -67.5 -143t-177.5 -51zM253 -285v46q53 5 53 61v15h-52v105h103v-120q0 -51 -29.5 -77.5t-74.5 -29.5z" />
    <glyph glyph-name="scommaaccent" unicode="&#x219;" horiz-adv-x="505" 
d="M261 -13q-91 0 -151.5 45t-71.5 119h83q10 -39 46.5 -64t93.5 -25t91 22.5t34 56.5q0 36 -25.5 54t-110.5 30q-98 14 -146 47.5t-48 105.5q0 61 48.5 105.5t144.5 44.5q85 0 139 -40.5t64 -110.5h-83q-10 36 -42 56t-78 20q-53 0 -82 -20.5t-29 -51.5q0 -32 26.5 -48
t99.5 -28q53 -9 82 -16.5t60.5 -24.5t45.5 -46.5t14 -73.5q0 -74 -56.5 -115.5t-148.5 -41.5zM210 -285v46q53 5 53 61v15h-52v105h103v-120q0 -51 -29.5 -77.5t-74.5 -29.5z" />
    <glyph glyph-name="circumflex" unicode="&#x2c6;" horiz-adv-x="500" 
d="M105 593l113 154h64l114 -154h-74l-72 79l-72 -79h-73z" />
    <glyph glyph-name="caron" unicode="&#x2c7;" horiz-adv-x="500" 
d="M218 590l-114 154h74l72 -79l72 79h73l-113 -154h-64z" />
    <glyph glyph-name="breve" unicode="&#x2d8;" horiz-adv-x="500" 
d="M249 593q-62 0 -101.5 39.5t-44.5 101.5h61q17 -69 86 -69q70 0 85 69h61q-5 -62 -44.5 -101.5t-102.5 -39.5z" />
    <glyph glyph-name="dotaccent" unicode="&#x2d9;" horiz-adv-x="500" 
d="M204 593v95h92v-95h-92z" />
    <glyph glyph-name="ring" unicode="&#x2da;" horiz-adv-x="500" 
d="M249 570q-47 0 -80 32.5t-33 78.5q0 48 32.5 80t80.5 32q47 0 80 -32t33 -80q0 -46 -33 -78.5t-80 -32.5zM249 616q26 0 43.5 18.5t17.5 46.5t-17.5 47t-43.5 19t-43.5 -19t-17.5 -47t17.5 -46.5t43.5 -18.5z" />
    <glyph glyph-name="ogonek" unicode="&#x2db;" horiz-adv-x="500" 
d="M242 -236q-46 0 -77 25.5t-31 67.5q0 72 102 143h60q-51 -50 -73 -81t-22 -61q0 -19 11 -31t31 -12q34 0 45 28h63q-7 -34 -37 -56.5t-72 -22.5z" />
    <glyph glyph-name="tilde" unicode="&#x2dc;" horiz-adv-x="500" 
d="M87 590q5 52 33.5 86t70.5 34q31 0 71 -23.5t55 -23.5q35 0 40 47h56q-5 -52 -33.5 -86t-70.5 -34q-31 0 -71 23.5t-55 23.5q-17 0 -27.5 -13t-12.5 -34h-56z" />
    <glyph glyph-name="hungarumlaut" unicode="&#x2dd;" horiz-adv-x="500" 
d="M279 593l55 147h99l-78 -147h-76zM116 593l55 147h99l-78 -147h-76z" />
    <glyph glyph-name="Delta" unicode="&#x394;" horiz-adv-x="231" 
d="M64 282v109h103v-109h-103z" />
    <glyph glyph-name="Delta" unicode="&#x2206;" horiz-adv-x="231" 
d="M64 282v109h103v-109h-103z" />
    <glyph glyph-name="Omega" unicode="&#x3a9;" horiz-adv-x="231" 
d="M64 282v109h103v-109h-103z" />
    <glyph glyph-name="Omega" unicode="&#x2126;" horiz-adv-x="231" 
d="M64 282v109h103v-109h-103z" />
    <glyph glyph-name="pi" unicode="&#x3c0;" horiz-adv-x="231" 
d="M64 282v109h103v-109h-103z" />
    <glyph glyph-name="endash" unicode="&#x2013;" horiz-adv-x="536" 
d="M50 235v82h436v-82h-436z" />
    <glyph glyph-name="emdash" unicode="&#x2014;" horiz-adv-x="861" 
d="M50 235v82h762v-82h-762z" />
    <glyph glyph-name="quoteleft" unicode="&#x2018;" horiz-adv-x="221" 
d="M59 447v133q0 51 31.5 79t76.5 31v-49q-26 -2 -41.5 -17.5t-15.5 -43.5v-28h52v-105h-103z" />
    <glyph glyph-name="quoteright" unicode="&#x2019;" horiz-adv-x="221" 
d="M54 437v49q26 2 41.5 17.5t15.5 43.5v28h-52v105h103v-133q0 -51 -31.5 -79t-76.5 -31z" />
    <glyph glyph-name="quotesinglbase" unicode="&#x201a;" horiz-adv-x="221" 
d="M54 -138v49q26 2 41.5 17.5t15.5 43.5v28h-52v105h103v-133q0 -51 -31.5 -79t-76.5 -31z" />
    <glyph glyph-name="quotedblleft" unicode="&#x201c;" horiz-adv-x="397" 
d="M235 447v133q0 51 31.5 79t76.5 31v-49q-26 -2 -41.5 -17.5t-15.5 -43.5v-28h52v-105h-103zM59 447v133q0 51 31.5 79t76.5 31v-49q-26 -2 -41.5 -17.5t-15.5 -43.5v-28h52v-105h-103z" />
    <glyph glyph-name="quotedblright" unicode="&#x201d;" horiz-adv-x="397" 
d="M230 437v49q26 2 41.5 17.5t15.5 43.5v28h-52v105h103v-133q0 -51 -31.5 -79t-76.5 -31zM54 437v49q26 2 41.5 17.5t15.5 43.5v28h-52v105h103v-133q0 -51 -31.5 -79t-76.5 -31z" />
    <glyph glyph-name="quotedblbase" unicode="&#x201e;" horiz-adv-x="397" 
d="M230 -138v49q26 2 41.5 17.5t15.5 43.5v28h-52v105h103v-133q0 -51 -31.5 -79t-76.5 -31zM54 -138v49q26 2 41.5 17.5t15.5 43.5v28h-52v105h103v-133q0 -51 -31.5 -79t-76.5 -31z" />
    <glyph glyph-name="dagger" unicode="&#x2020;" horiz-adv-x="370" 
d="M149 195v291h-102v68h102v126h72v-126h101v-68h-101v-291h-72z" />
    <glyph glyph-name="daggerdbl" unicode="&#x2021;" horiz-adv-x="370" 
d="M149 197v126h-102v68h102v95h-102v68h102v126h72v-126h101v-68h-101v-95h101v-68h-101v-126h-72z" />
    <glyph glyph-name="bullet" unicode="&#x2022;" horiz-adv-x="318" 
d="M159 244q-43 0 -73 31t-30 76q0 44 30 75t73 31t73 -31t30 -75q0 -45 -30 -76t-73 -31z" />
    <glyph glyph-name="ellipsis" unicode="&#x2026;" horiz-adv-x="701" 
d="M539 0v109h103v-109h-103zM59 0v109h103v-109h-103zM299 0v109h103v-109h-103z" />
    <glyph glyph-name="perthousand" unicode="&#x2030;" horiz-adv-x="1161" 
d="M191 361q-66 0 -113.5 48t-47.5 116q0 69 47.5 117t113.5 48t113 -48t47 -117q0 -68 -47 -116t-113 -48zM596 -9q-66 0 -113.5 48t-47.5 116q0 69 47.5 117t113.5 48t113 -48t47 -117q0 -68 -47 -116t-113 -48zM971 -9q-66 0 -113.5 48t-47.5 116q0 69 47.5 117t113.5 48
t113 -48t47 -117q0 -68 -47 -116t-113 -48zM163 0l382 680h78l-383 -680h-77zM1058 155q0 39 -25.5 67.5t-61.5 28.5q-37 0 -62.5 -28.5t-25.5 -67.5t25.5 -67t62.5 -28t62 28t25 67zM278 525q0 39 -25.5 67.5t-61.5 28.5q-37 0 -62.5 -28.5t-25.5 -67.5t25.5 -67t62.5 -28
t62 28t25 67zM683 155q0 39 -25.5 67.5t-61.5 28.5q-37 0 -62.5 -28.5t-25.5 -67.5t25.5 -67t62.5 -28t62 28t25 67z" />
    <glyph glyph-name="guilsinglleft" unicode="&#x2039;" horiz-adv-x="251" 
d="M216 54l-186 165v81l186 165v-108l-116 -97l116 -99v-107z" />
    <glyph glyph-name="guilsinglright" unicode="&#x203a;" horiz-adv-x="251" 
d="M35 54v108l116 97l-116 99v107l186 -165v-81z" />
    <glyph glyph-name="fraction" unicode="&#x2044;" horiz-adv-x="300" 
d="M-80 0l382 680h78l-383 -680h-77z" />
    <glyph glyph-name="fraction" unicode="&#x2215;" horiz-adv-x="300" 
d="M-80 0l382 680h78l-383 -680h-77z" />
    <glyph glyph-name="Euro" unicode="&#x20ac;" horiz-adv-x="624" 
d="M24 369v56h83q19 129 92.5 198.5t168.5 69.5q79 0 141.5 -45t84.5 -131h-88q-29 99 -138 99q-66 0 -111 -49.5t-59 -141.5h302l-21 -56h-287v-26q0 -36 2 -52h257l-21 -56h-228q18 -83 61 -126.5t106 -43.5q102 0 136 97h90q-22 -85 -82.5 -129.5t-143.5 -44.5
q-91 0 -162.5 64t-95.5 183h-87v56h79q-2 16 -2 52v26h-77z" />
    <glyph glyph-name="trademark" unicode="&#x2122;" horiz-adv-x="768" 
d="M356 338v342h74l97 -260l97 260h77v-342h-59v238l-88 -238h-53l-88 238v-238h-57zM136 338v291h-95v51h251v-51h-95v-291h-61z" />
    <glyph glyph-name="onethird" unicode="&#x2153;" horiz-adv-x="818" 
d="M638 -7q-69 0 -106.5 37.5t-39.5 94.5h67q5 -70 79 -70q35 0 56 18.5t21 46.5q0 63 -78 63h-23v59h12q76 0 76 54q0 26 -16 40.5t-46 14.5q-34 0 -51.5 -19.5t-18.5 -47.5h-66q0 55 37 91.5t98 36.5t95.5 -32t34.5 -78q0 -60 -55 -84q69 -23 69 -99q0 -52 -39 -89
t-106 -37zM133 0l382 680h78l-383 -680h-77zM101 272v301h-65v46q72 2 76 61h57v-408h-68z" />
    <glyph glyph-name="twothirds" unicode="&#x2154;" horiz-adv-x="921" 
d="M35 272v31q0 62 32.5 99t91.5 69q54 30 70.5 49t16.5 45q0 25 -15.5 41.5t-49.5 16.5t-53 -22t-20 -58h-67q1 60 37.5 100.5t102.5 40.5q63 0 98.5 -35t35.5 -84q0 -52 -29 -81.5t-95 -65.5q-81 -45 -83 -83h204v-63h-277zM741 -7q-69 0 -106.5 37.5t-39.5 94.5h67
q5 -70 79 -70q35 0 56 18.5t21 46.5q0 63 -78 63h-23v59h12q76 0 76 54q0 26 -16 40.5t-46 14.5q-34 0 -51.5 -19.5t-18.5 -47.5h-66q0 55 37 91.5t98 36.5t95.5 -32t34.5 -78q0 -60 -55 -84q69 -23 69 -99q0 -52 -39 -89t-106 -37zM236 0l382 680h78l-383 -680h-77z" />
    <glyph glyph-name="oneeighth" unicode="&#x215b;" horiz-adv-x="823" 
d="M642 -7q-63 0 -104 35.5t-41 89.5q0 68 66 104q-48 30 -48 85q0 46 36 77t91 31t90.5 -31t35.5 -77q0 -56 -47 -85q67 -34 67 -104q0 -54 -41 -89.5t-105 -35.5zM133 0l382 680h78l-383 -680h-77zM101 272v301h-65v46q72 2 76 61h57v-408h-68zM642 52q33 0 56 17.5
t23 50.5q0 32 -22 50.5t-57 18.5q-34 0 -56 -18.5t-22 -50.5q0 -33 23 -50.5t55 -17.5zM642 248q25 0 43 14.5t18 40.5q0 25 -17 39t-44 14t-44 -14t-17 -39q0 -26 18 -40.5t43 -14.5z" />
    <glyph glyph-name="threeeighths" unicode="&#x215c;" horiz-adv-x="925" 
d="M744 -7q-63 0 -104 35.5t-41 89.5q0 68 66 104q-48 30 -48 85q0 46 36 77t91 31t90.5 -31t35.5 -77q0 -56 -47 -85q67 -34 67 -104q0 -54 -41 -89.5t-105 -35.5zM176 265q-69 0 -106.5 37.5t-39.5 94.5h67q5 -70 79 -70q35 0 56 18.5t21 46.5q0 63 -78 63h-23v59h12
q76 0 76 54q0 26 -16 40.5t-46 14.5q-34 0 -51.5 -19.5t-18.5 -47.5h-66q0 55 37 91.5t98 36.5t95.5 -32t34.5 -78q0 -60 -55 -84q69 -23 69 -99q0 -52 -39 -89t-106 -37zM235 0l382 680h78l-383 -680h-77zM744 52q33 0 56 17.5t23 50.5q0 32 -22 50.5t-57 18.5
q-34 0 -56 -18.5t-22 -50.5q0 -33 23 -50.5t55 -17.5zM744 248q25 0 43 14.5t18 40.5q0 25 -17 39t-44 14t-44 -14t-17 -39q0 -26 18 -40.5t43 -14.5z" />
    <glyph glyph-name="fiveeighths" unicode="&#x215d;" horiz-adv-x="919" 
d="M738 -7q-63 0 -104 35.5t-41 89.5q0 68 66 104q-48 30 -48 85q0 46 36 77t91 31t90.5 -31t35.5 -77q0 -56 -47 -85q67 -34 67 -104q0 -54 -41 -89.5t-105 -35.5zM174 265q-61 0 -99.5 33.5t-41.5 83.5h67q4 -24 23.5 -39t50.5 -15t52 20.5t21 56.5q0 35 -20.5 57
t-51.5 22q-45 0 -70 -41l-59 19l25 218h220v-62h-167l-13 -101q33 26 71 26q57 0 95 -39.5t38 -99.5q0 -61 -41 -100t-100 -39zM229 0l382 680h78l-383 -680h-77zM738 52q33 0 56 17.5t23 50.5q0 32 -22 50.5t-57 18.5q-34 0 -56 -18.5t-22 -50.5q0 -33 23 -50.5t55 -17.5z
M738 248q25 0 43 14.5t18 40.5q0 25 -17 39t-44 14t-44 -14t-17 -39q0 -26 18 -40.5t43 -14.5z" />
    <glyph glyph-name="seveneighths" unicode="&#x215e;" horiz-adv-x="848" 
d="M667 -7q-63 0 -104 35.5t-41 89.5q0 68 66 104q-48 30 -48 85q0 46 36 77t91 31t90.5 -31t35.5 -77q0 -56 -47 -85q67 -34 67 -104q0 -54 -41 -89.5t-105 -35.5zM158 0l382 680h78l-383 -680h-77zM89 272q2 105 35 196.5t94 149.5h-192v62h275v-58q-69 -58 -105.5 -148.5
t-38.5 -201.5h-68zM667 52q33 0 56 17.5t23 50.5q0 32 -22 50.5t-57 18.5q-34 0 -56 -18.5t-22 -50.5q0 -33 23 -50.5t55 -17.5zM667 248q25 0 43 14.5t18 40.5q0 25 -17 39t-44 14t-44 -14t-17 -39q0 -26 18 -40.5t43 -14.5z" />
    <glyph glyph-name="partialdiff" unicode="&#x2202;" horiz-adv-x="231" 
d="M64 282v109h103v-109h-103z" />
    <glyph glyph-name="product" unicode="&#x220f;" horiz-adv-x="231" 
d="M64 282v109h103v-109h-103z" />
    <glyph glyph-name="summation" unicode="&#x2211;" horiz-adv-x="231" 
d="M64 282v109h103v-109h-103z" />
    <glyph glyph-name="minus" unicode="&#x2212;" horiz-adv-x="468" 
d="M46 265v72h376v-72h-376z" />
    <glyph glyph-name="radical" unicode="&#x221a;" horiz-adv-x="231" 
d="M64 282v109h103v-109h-103z" />
    <glyph glyph-name="infinity" unicode="&#x221e;" horiz-adv-x="231" 
d="M64 282v109h103v-109h-103z" />
    <glyph glyph-name="integral" unicode="&#x222b;" horiz-adv-x="231" 
d="M64 282v109h103v-109h-103z" />
    <glyph glyph-name="approxequal" unicode="&#x2248;" horiz-adv-x="231" 
d="M64 282v109h103v-109h-103z" />
    <glyph glyph-name="notequal" unicode="&#x2260;" horiz-adv-x="231" 
d="M64 282v109h103v-109h-103z" />
    <glyph glyph-name="lessequal" unicode="&#x2264;" horiz-adv-x="231" 
d="M64 282v109h103v-109h-103z" />
    <glyph glyph-name="greaterequal" unicode="&#x2265;" horiz-adv-x="231" 
d="M64 282v109h103v-109h-103z" />
    <glyph glyph-name="lozenge" unicode="&#x25ca;" horiz-adv-x="208" 
d="M71 282v109h103v-109h-103z" />
    <glyph glyph-name="commaaccent" unicode="&#xf004;" horiz-adv-x="500" 
d="M198 -285v46q53 5 53 61v15h-52v105h103v-120q0 -51 -29.5 -77.5t-74.5 -29.5z" />
    <glyph glyph-name="commaaccent" unicode="&#xf6c3;" horiz-adv-x="500" 
d="M198 -285v46q53 5 53 61v15h-52v105h103v-120q0 -51 -29.5 -77.5t-74.5 -29.5z" />
    <glyph glyph-name="dotlessj" unicode="&#xf6be;" horiz-adv-x="240" 
d="M-14 -209v74h16q77 0 77 80v570h82v-571q0 -73 -42.5 -113t-116.5 -40h-16z" />
    <glyph glyph-name="dotlessj" unicode="&#xfb0f;" horiz-adv-x="240" 
d="M-14 -209v74h16q77 0 77 80v570h82v-571q0 -73 -42.5 -113t-116.5 -40h-16z" />
    <glyph glyph-name="slash.cap" horiz-adv-x="351" 
d="M13 -60l242 800h82l-242 -800h-82z" />
    <glyph glyph-name="backslash.cap" horiz-adv-x="351" 
d="M256 -60l-242 800h82l242 -800h-82z" />
    <glyph glyph-name="parenleft.cap" horiz-adv-x="319" 
d="M214 -80q-71 79 -111 186.5t-40 224.5q0 229 151 399h73q-66 -100 -99 -193.5t-33 -205.5q0 -213 132 -411h-73z" />
    <glyph glyph-name="parenright.cap" horiz-adv-x="319" 
d="M32 -80q66 100 99 193.5t33 205.5q0 213 -132 411h73q71 -79 111 -186.5t40 -224.5q0 -229 -151 -399h-73z" />
    <glyph glyph-name="bracketleft.cap" horiz-adv-x="323" 
d="M82 -70v790h209v-73h-123v-644h123v-73h-209z" />
    <glyph glyph-name="bracketright.cap" horiz-adv-x="323" 
d="M32 -70v73h123v644h-123v73h209v-790h-209z" />
    <glyph glyph-name="braceleft.cap" horiz-adv-x="345" 
d="M321 -70q-80 -6 -134 32t-54 126v122q0 48 -25 66t-74 18v70q49 0 74 18t25 66v113q0 88 54 126t134 32v-73q-102 4 -102 -85v-110q0 -96 -82 -121q82 -26 82 -123v-119q0 -46 24.5 -66.5t77.5 -18.5v-73z" />
    <glyph glyph-name="braceright.cap" horiz-adv-x="345" 
d="M24 -70v73q102 -4 102 85v119q0 96 82 121q-82 26 -82 123v110q0 46 -24.5 66.5t-77.5 18.5v73q80 6 134 -32t54 -126v-113q0 -48 25 -66t74 -18v-70q-49 0 -74 -18t-25 -66v-122q0 -88 -54 -126t-134 -32z" />
    <glyph glyph-name="hyphen.cap" horiz-adv-x="342" 
d="M50 285v82h243v-82h-243z" />
    <glyph glyph-name="endash.cap" horiz-adv-x="536" 
d="M50 285v82h436v-82h-436z" />
    <glyph glyph-name="emdash.cap" horiz-adv-x="861" 
d="M50 285v82h762v-82h-762z" />
    <glyph glyph-name="nbspace" horiz-adv-x="295" 
 />
    <glyph glyph-name="apple" horiz-adv-x="873" 
d="M490 0v681l11 -1q131 -12 228.5 -103t97.5 -237q0 -74 -28 -137t-75 -104.5t-104 -66.5t-119 -31zM374 0q-145 0 -236.5 99.5t-91.5 240.5t91.5 240.5t236.5 99.5h89v-122h-89q-91 0 -147 -63t-56 -155t56 -155t147 -63h89v-122h-89zM745 153q57 77 60 176h-129
q-1 -60 -19 -131q40 -14 88 -45zM676 352h129q-3 98 -60 176q-47 -30 -88 -46q18 -69 19 -130zM634 205q20 60 21 124h-142v-104q69 -3 121 -20zM513 352h142q-1 63 -21 123q-60 -16 -121 -19v-104zM513 478q67 5 114 20q-41 110 -114 153v-173zM513 30q73 41 114 153
q-49 16 -114 19v-172zM552 30q107 22 178 105q-39 27 -81 41q-36 -95 -97 -146zM649 505q42 14 81 41q-71 83 -178 105q61 -51 97 -146z" />
    <glyph glyph-name="A.sc" horiz-adv-x="566" 
d="M29 0l209 578h92l205 -578h-86l-50 144h-235l-50 -144h-85zM263 423l-72 -204h182l-70 204q-15 47 -20 76q-9 -45 -20 -76z" />
    <glyph glyph-name="B.sc" horiz-adv-x="574" 
d="M85 0v578h248q77 0 122.5 -42.5t45.5 -113.5q0 -77 -71 -112q46 -18 70 -55.5t24 -85.5q0 -73 -50 -121t-131 -48h-258zM168 76h174q43 0 70.5 25t27.5 69q0 47 -27 71t-74 24h-171v-189zM168 341h166q35 0 59 20t24 61q0 81 -84 81h-165v-162z" />
    <glyph glyph-name="C.sc" horiz-adv-x="624" 
d="M331 -10q-116 0 -197.5 85.5t-81.5 214.5q0 130 81 215t197 85q98 0 162.5 -50.5t89.5 -139.5h-84q-42 115 -168 115q-83 0 -137.5 -63t-54.5 -162q0 -100 55 -163t138 -63q60 0 105 33t63 87h86q-27 -91 -92.5 -142.5t-161.5 -51.5z" />
    <glyph glyph-name="D.sc" horiz-adv-x="605" 
d="M85 0v578h197q125 0 198 -77.5t73 -211.5q0 -133 -73.5 -211t-197.5 -78h-197zM169 75h113q89 0 137 56.5t48 157.5q0 105 -48 159.5t-137 54.5h-113v-428z" />
    <glyph glyph-name="E.sc" 
d="M85 0v578h403v-76h-319v-160h273v-76h-273v-190h324v-76h-408z" />
    <glyph glyph-name="F.sc" horiz-adv-x="515" 
d="M85 0v578h385v-76h-301v-164h262v-76h-262v-262h-84z" />
    <glyph glyph-name="G.sc" horiz-adv-x="658" 
d="M330 -10q-117 0 -197.5 85t-80.5 215t81 215t197 85q90 0 159 -48.5t91 -138.5h-87q-17 55 -61 83.5t-102 28.5q-84 0 -138 -62.5t-54 -162.5t54.5 -163t138.5 -63q77 0 128 47t57 115h-159v76h238v-302h-78v88q-64 -98 -187 -98z" />
    <glyph glyph-name="H.sc" horiz-adv-x="621" 
d="M85 0v578h84v-239h283v239h84v-578h-84v263h-283v-263h-84z" />
    <glyph glyph-name="I.sc" horiz-adv-x="259" 
d="M87 0v578h84v-578h-84z" />
    <glyph glyph-name="J.sc" horiz-adv-x="484" 
d="M223 -10q-84 0 -134 53t-50 139v11h83v-12q0 -50 25 -83t76 -33q101 0 101 124v389h85v-388q0 -92 -48.5 -146t-137.5 -54z" />
    <glyph glyph-name="K.sc" horiz-adv-x="569" 
d="M443 0l-192 285l-87 -90v-195h-79v578h79v-282l268 282h100l-225 -234l233 -344h-97z" />
    <glyph glyph-name="L.sc" horiz-adv-x="490" 
d="M85 0v578h84v-502h280v-76h-364z" />
    <glyph glyph-name="M.sc" horiz-adv-x="722" 
d="M85 0v578h124l153 -466l153 466h123v-578h-82v460l-153 -460h-84l-152 460v-460h-82z" />
    <glyph glyph-name="N.sc" horiz-adv-x="617" 
d="M85 0v578h96l271 -448v448h80v-578h-92l-275 455v-455h-80z" />
    <glyph glyph-name="O.sc" horiz-adv-x="665" 
d="M333 -10q-118 0 -199.5 85t-81.5 215t81.5 215t199.5 85q119 0 199.5 -84.5t80.5 -215.5q0 -129 -81 -214.5t-199 -85.5zM333 65q83 0 138.5 63t55.5 162q0 101 -55 162.5t-139 61.5t-139 -62.5t-55 -161.5q0 -100 55 -162.5t139 -62.5z" />
    <glyph glyph-name="P.sc" horiz-adv-x="550" 
d="M85 0v578h236q86 0 136 -49t50 -129q0 -79 -50 -128t-135 -49h-153v-223h-84zM169 298h152q102 0 102 102t-102 102h-152v-204z" />
    <glyph glyph-name="Q.sc" horiz-adv-x="665" 
d="M517 0l-33 35q-68 -45 -151 -45q-118 0 -199.5 85t-81.5 215t81.5 215t199.5 85q119 0 199.5 -84.5t80.5 -215.5q0 -122 -74 -207l79 -83h-101zM333 65q55 0 97 27l-102 110h101l55 -59q43 61 43 147q0 101 -55 162.5t-139 61.5t-139 -62.5t-55 -161.5q0 -100 55 -162.5
t139 -62.5z" />
    <glyph glyph-name="R.sc" horiz-adv-x="587" 
d="M85 0v578h247q86 0 136.5 -47t50.5 -125q0 -92 -87 -131q35 -13 52 -41t21 -77l5 -72q4 -48 19 -85h-82q-13 30 -17 77l-4 74q-3 44 -23.5 64t-65.5 20h-170v-235h-82zM167 310h171q43 0 71 24.5t28 70.5q0 97 -105 97h-165v-192z" />
    <glyph glyph-name="S.sc" horiz-adv-x="547" 
d="M278 -10q-97 0 -162 53.5t-67 137.5h83q2 -54 42.5 -85.5t103.5 -31.5t99 25t36 69q0 40 -30 63t-115 40q-102 22 -150.5 59t-48.5 112q0 73 54 115.5t143 42.5q97 0 152.5 -47.5t60.5 -124.5h-82q-3 43 -36 70t-93 27q-56 0 -87 -21.5t-31 -60.5q0 -36 28.5 -56
t108.5 -38q109 -23 158 -60.5t49 -119.5q0 -80 -59 -124.5t-157 -44.5z" />
    <glyph glyph-name="T.sc" horiz-adv-x="495" 
d="M205 0v502h-169v76h422v-76h-169v-502h-84z" />
    <glyph glyph-name="U.sc" horiz-adv-x="594" 
d="M297 -10q-100 0 -161 61t-61 168v359h84v-360q0 -75 36 -114t102 -39q68 0 103 39t35 114v360h84v-359q0 -107 -61 -168t-161 -61z" />
    <glyph glyph-name="V.sc" horiz-adv-x="544" 
d="M228 0l-202 578h89l131 -393l26 -101q13 62 26 101l131 393h86l-200 -578h-87z" />
    <glyph glyph-name="W.sc" horiz-adv-x="776" 
d="M183 0l-157 578h87l93 -358l23 -88l23 86l95 360h87l96 -360l23 -86l23 88l92 358h81l-156 -578h-84l-100 384q-15 57 -20 93q-5 -27 -20 -93l-101 -384h-85z" />
    <glyph glyph-name="X.sc" horiz-adv-x="525" 
d="M25 0l184 297l-175 281h93l136 -220l136 220h92l-177 -281l186 -297h-94l-145 239l-144 -239h-92z" />
    <glyph glyph-name="Y.sc" horiz-adv-x="516" 
d="M216 0v234l-193 344h91l144 -263l145 263h89l-193 -344v-234h-83z" />
    <glyph glyph-name="Z.sc" horiz-adv-x="508" 
d="M42 0v69l320 433h-309v76h409v-73l-317 -428h319v-77h-422z" />
    <glyph glyph-name="AE.sc" horiz-adv-x="865" 
d="M22 0l288 578h497v-76h-305v-160h259v-76h-259v-190h310v-76h-394v153h-232l-76 -153h-88zM360 502l-137 -274h195v274h-58z" />
    <glyph glyph-name="Oslash.sc" horiz-adv-x="665" 
d="M81 -18l-48 47l74 77q-55 79 -55 184q0 130 81.5 215t199.5 85q102 0 178 -65l67 70l48 -47l-70 -72q57 -79 57 -186q0 -129 -81 -214.5t-199 -85.5q-105 0 -180 66zM333 65q83 0 138.5 63t55.5 162q0 70 -29 125l-292 -303q52 -47 127 -47zM139 290q0 -73 26 -123
l291 302q-51 45 -123 45q-84 0 -139 -62.5t-55 -161.5z" />
    <glyph glyph-name="OE.sc" horiz-adv-x="988" 
d="M333 -10q-118 0 -199.5 85t-81.5 215t81.5 215t199.5 85q123 0 194 -97v85h403v-76h-319v-160h273v-76h-273v-190h324v-76h-408v88q-72 -98 -194 -98zM333 65q83 0 138.5 63t55.5 162q0 101 -55 162.5t-139 61.5t-139 -62.5t-55 -161.5q0 -100 55 -162.5t139 -62.5z" />
    <glyph glyph-name="Eth.sc" horiz-adv-x="605" 
d="M28 265v75h57v238h197q125 0 198 -77.5t73 -211.5q0 -133 -73.5 -211t-197.5 -78h-197v265h-57zM169 75h113q89 0 137 56.5t48 157.5q0 105 -48 159.5t-137 54.5h-113v-163h144v-75h-144v-190z" />
    <glyph glyph-name="Lslash.sc" horiz-adv-x="490" 
d="M16 163v72l69 34v309h84v-266l157 79v-72l-157 -79v-164h280v-76h-364v197z" />
    <glyph glyph-name="Thorn.sc" horiz-adv-x="550" 
d="M85 0v578h84v-101h152q86 0 136 -49t50 -129q0 -79 -50 -128t-135 -49h-153v-122h-84zM169 197h152q102 0 102 102t-102 102h-152v-204z" />
    <glyph glyph-name="zero.sc" horiz-adv-x="559" 
d="M280 -10q-97 0 -161 76.5t-64 223.5q0 146 64.5 223t160.5 77q97 0 160.5 -76.5t63.5 -223.5t-63 -223.5t-161 -76.5zM280 62q71 0 105 62.5t34 165.5q0 102 -34 164.5t-105 62.5q-70 0 -105 -63t-35 -164q0 -103 35 -165.5t105 -62.5z" />
    <glyph glyph-name="one.sc" horiz-adv-x="343" 
d="M144 0v442h-96v64q99 2 106 72h74v-578h-84z" />
    <glyph glyph-name="two.sc" horiz-adv-x="502" 
d="M51 0v39q0 46 13.5 83t42 66t54.5 47t67 42q79 45 102.5 73.5t23.5 69.5q0 40 -22.5 68t-76.5 28t-83 -36.5t-31 -93.5h-80q1 86 52.5 145t141.5 59q86 0 135.5 -49.5t49.5 -120.5q0 -73 -40 -113.5t-136 -94.5q-60 -34 -92.5 -66t-36.5 -69h301v-77h-385z" />
    <glyph glyph-name="three.sc" horiz-adv-x="508" 
d="M254 -10q-96 0 -148.5 50.5t-56.5 129.5h83q8 -105 122 -105q54 0 85 29.5t31 75.5q0 47 -27 73t-95 26h-29v73h7q127 0 127 86q0 40 -24.5 63t-73.5 23q-53 0 -78 -29t-25 -74h-82q0 78 51 128t134 50q85 0 133.5 -45t48.5 -113q0 -86 -83 -119q102 -30 102 -142
q0 -76 -55 -128t-147 -52z" />
    <glyph glyph-name="four.sc" horiz-adv-x="498" 
d="M314 0v131h-275v69l266 378h93v-372h69v-75h-69v-131h-84zM126 206h188v262z" />
    <glyph glyph-name="five.sc" horiz-adv-x="497" 
d="M242 -10q-84 0 -135.5 47.5t-57.5 115.5h83q5 -37 33.5 -62t76.5 -25q54 0 84.5 32.5t30.5 89.5q0 55 -30 88.5t-80 33.5q-67 0 -108 -62l-70 25l36 305h306v-76h-242l-21 -170q35 52 115 52q76 0 127.5 -56t51.5 -141q0 -88 -57 -142.5t-143 -54.5z" />
    <glyph glyph-name="six.sc" horiz-adv-x="526" 
d="M271 -11q-96 0 -156 71.5t-60 200.5q0 155 60.5 242t164.5 87q72 0 120.5 -39t60.5 -109h-83q-24 72 -98 72q-60 0 -96.5 -58.5t-44.5 -159.5q18 37 56.5 61t82.5 24q84 0 139.5 -54.5t55.5 -142.5q0 -86 -57 -140.5t-145 -54.5zM273 63q52 0 84.5 33t32.5 88t-31.5 89
t-85.5 34q-52 0 -87.5 -33.5t-35.5 -86.5q0 -55 34.5 -89.5t88.5 -34.5z" />
    <glyph glyph-name="seven.sc" horiz-adv-x="472" 
d="M133 0q5 147 58.5 279.5t146.5 221.5h-301v77h393v-72q-97 -79 -152 -212.5t-60 -293.5h-85z" />
    <glyph glyph-name="eight.sc" horiz-adv-x="525" 
d="M263 -10q-94 0 -154 51.5t-60 125.5q0 102 102 148q-75 40 -75 121q0 66 52 110t135 44t135 -44t52 -110q0 -81 -75 -121q101 -45 101 -148q0 -74 -60.5 -125.5t-152.5 -51.5zM263 65q56 0 94 27t38 78q0 49 -35.5 77.5t-96.5 28.5t-97 -28.5t-36 -77.5q0 -51 38 -78
t95 -27zM263 349q46 0 76 22t30 62q0 38 -28.5 60t-77.5 22t-77.5 -22t-28.5 -60q0 -40 30 -62t76 -22z" />
    <glyph glyph-name="nine.sc" horiz-adv-x="526" 
d="M246 -11q-72 0 -121 36.5t-61 102.5h85q23 -63 97 -63q66 0 103 54.5t38 163.5q-18 -37 -56.5 -61t-82.5 -24q-84 0 -139.5 54.5t-55.5 142.5q0 86 57 140.5t145 54.5q96 0 156 -71.5t60 -200.5q0 -329 -225 -329zM253 272q52 0 87.5 33.5t35.5 86.5q0 55 -34.5 89.5
t-88.5 34.5q-52 0 -84.5 -33t-32.5 -88t31.5 -89t85.5 -34z" />
    <glyph glyph-name="exclam.sc" horiz-adv-x="268" 
d="M101 183l-12 395h90l-12 -395h-66zM85 0v105h97v-105h-97z" />
    <glyph glyph-name="numbersign.sc" horiz-adv-x="508" 
d="M50 384l10 71h94l18 123h69l-18 -123h95l18 123h69l-18 -123h98l-10 -71h-98l-15 -108h96l-10 -71h-96l-17 -120h-69l17 120h-95l-17 -120h-69l17 120h-96l10 71h96l15 108h-94zM213 384l-15 -108h95l15 108h-95z" />
    <glyph glyph-name="dollar.sc" horiz-adv-x="484" 
d="M223 -70v73q-82 7 -135 56.5t-55 124.5h80q2 -45 32 -75t78 -36v185q-87 21 -129 57t-42 106q0 67 46.5 106.5t124.5 42.5v69h47v-71q74 -9 114.5 -53.5t45.5 -109.5h-79q-7 74 -81 90v-165q89 -21 131.5 -57t42.5 -111q0 -71 -47 -112.5t-127 -46.5v-73h-47zM365 161
q0 31 -20.5 50t-74.5 35v-173q95 11 95 88zM132 422q0 -31 19 -48.5t72 -31.5v157q-91 -5 -91 -77z" />
    <glyph glyph-name="percent.sc" horiz-adv-x="710" 
d="M180 304q-57 0 -98 41.5t-41 99.5t41 100t98 42t98 -42t41 -100t-41 -99.5t-98 -41.5zM530 -8q-57 0 -98 41.5t-41 99.5t41 100t98 42t98 -42t41 -100t-41 -99.5t-98 -41.5zM158 0l323 578h71l-323 -578h-71zM180 368q30 0 51 22t21 55t-21 56t-51 23t-51 -23t-21 -56
t21 -55t51 -22zM530 56q30 0 51 22t21 55t-21 56t-51 23t-51 -23t-21 -56t21 -55t51 -22z" />
    <glyph glyph-name="ampersand.sc" horiz-adv-x="561" 
d="M253 -10q-85 0 -144.5 49t-59.5 127q0 102 125 172l-9 11q-45 54 -45 112q0 55 40 92t98 37t95.5 -34.5t37.5 -90.5q0 -87 -108 -143l124 -153q12 33 12 77v54h74v-54q0 -78 -35 -139l87 -107h-96l-39 47q-63 -57 -157 -57zM254 62q68 0 111 40l-151 186q-47 -27 -63 -56
t-16 -65q0 -48 32.5 -76.5t86.5 -28.5zM198 462q0 -31 26 -66l20 -25q70 36 70 93q0 26 -15.5 42t-41.5 16t-42.5 -16.5t-16.5 -43.5z" />
    <glyph glyph-name="plus.sc" horiz-adv-x="498" 
d="M211 77v168h-165v72h165v168h76v-168h165v-72h-165v-168h-76z" />
    <glyph glyph-name="less.sc" horiz-adv-x="445" 
d="M404 34l-368 171v91l368 170v-84l-294 -132v-1l294 -131v-84z" />
    <glyph glyph-name="equal.sc" horiz-adv-x="481" 
d="M46 326v72h389v-72h-389zM46 142v72h389v-72h-389z" />
    <glyph glyph-name="greater.sc" horiz-adv-x="445" 
d="M41 466l368 -171v-91l-368 -170v84l294 132v1l-294 131v84z" />
    <glyph glyph-name="minus.sc" horiz-adv-x="468" 
d="M46 245v72h376v-72h-376z" />
    <glyph glyph-name="multiply.sc" horiz-adv-x="498" 
d="M58 419l49 49l142 -142l142 142l49 -49l-142 -142l142 -142l-49 -49l-142 142l-142 -142l-49 49l142 142z" />
    <glyph glyph-name="question.sc" horiz-adv-x="469" 
d="M179 183v5q0 31 5.5 54t21.5 42t26.5 28t36.5 29q34 26 48 46.5t14 50.5q0 38 -25.5 59t-72.5 21q-50 0 -78 -28t-29 -72h-79q1 73 51 122.5t135 49.5q82 0 131.5 -41t49.5 -109q0 -53 -24 -86t-69 -65l-38 -29t-21 -27.5t-11 -44.5v-5h-72zM165 0v105h97v-105h-97z" />
    <glyph glyph-name="slash.sc" horiz-adv-x="333" 
d="M26 -51l203 680h79l-202 -680h-80z" />
    <glyph glyph-name="backslash.sc" horiz-adv-x="333" 
d="M228 -51l-203 680h80l202 -680h-79z" />
    <glyph glyph-name="parenleft.sc" horiz-adv-x="304" 
d="M198 -68q-61 66 -97 156.5t-36 191.5q0 195 133 341h69q-116 -168 -116 -341q0 -181 116 -348h-69z" />
    <glyph glyph-name="parenright.sc" horiz-adv-x="304" 
d="M38 -68q115 168 115 340q0 181 -115 349h68q62 -67 98 -157.5t36 -191.5q0 -196 -134 -340h-68z" />
    <glyph glyph-name="bracketleft.sc" horiz-adv-x="309" 
d="M83 -60v672h184v-69h-104v-533h104v-70h-184z" />
    <glyph glyph-name="bracketright.sc" horiz-adv-x="309" 
d="M42 -60v70h105v533h-105v69h185v-672h-185z" />
    <glyph glyph-name="braceleft.sc" horiz-adv-x="326" 
d="M289 -60q-71 -5 -116.5 28.5t-45.5 109.5v92q0 43 -21 59.5t-64 16.5v65q43 0 64 17t21 61v85q0 76 45.5 109.5t116.5 27.5v-68q-82 4 -82 -70v-86q0 -84 -72 -107q72 -24 72 -110v-91q0 -74 82 -70v-69z" />
    <glyph glyph-name="braceright.sc" horiz-adv-x="326" 
d="M37 -60v69q81 -4 81 70v91q0 85 73 108q-73 25 -73 109v86q0 74 -81 70v68q71 6 116 -27.5t45 -109.5v-85q0 -43 21.5 -60.5t63.5 -17.5v-65q-42 0 -63.5 -16.5t-21.5 -59.5v-92q0 -76 -45 -109.5t-116 -28.5z" />
    <glyph glyph-name="degree.sc" horiz-adv-x="373" 
d="M186 289q-60 0 -104.5 44.5t-44.5 106.5q0 61 44.5 105.5t104.5 44.5q61 0 105.5 -44.5t44.5 -105.5q0 -62 -44.5 -106.5t-105.5 -44.5zM186 348q37 0 61 26.5t24 65.5t-24 65.5t-61 26.5q-36 0 -60.5 -26.5t-24.5 -65.5t24 -65.5t61 -26.5z" />
    <glyph glyph-name="cent.sc" horiz-adv-x="463" 
d="M113 -94l37 117q-52 27 -83 79t-31 116q0 92 60.5 156.5t147.5 64.5q20 0 36 -3l30 95h52l-34 -107q81 -33 106 -122h-80q-15 37 -48 53l-89 -282q13 -3 29 -3q39 0 67.5 19t40.5 51h80q-15 -63 -66.5 -101.5t-123.5 -38.5q-26 0 -48 6l-31 -100h-52zM117 218
q0 -86 55 -125l87 275q-4 1 -13 1q-56 0 -92.5 -41.5t-36.5 -109.5z" />
    <glyph glyph-name="sterling.sc" horiz-adv-x="462" 
d="M38 251v62h50q-28 54 -28 108q0 73 51.5 121t130.5 48t129 -47.5t52 -120.5h-78q-2 43 -28.5 69t-74.5 26q-47 0 -73 -26t-26 -70q0 -32 33 -108h140v-62h-118q6 -32 6 -51q0 -74 -63 -129q34 17 67 17q28 0 68 -12t61 -12q32 0 62 24l39 -60q-42 -38 -97 -38
q-37 0 -85 17.5t-74 17.5q-46 0 -93 -35l-42 64q82 59 82 145q0 23 -11 52h-80z" />
    <glyph glyph-name="section.sc" horiz-adv-x="467" 
d="M242 -71q-69 0 -114.5 37.5t-47.5 94.5h80q10 -60 82 -60q69 0 69 58q0 28 -19.5 44.5t-76.5 30.5q-89 23 -131 53t-42 93q0 62 64 96q-28 31 -28 82q0 59 42.5 95.5t113.5 36.5q70 0 114 -36.5t45 -97.5h-79q-3 27 -23 44.5t-57 17.5q-35 0 -55.5 -15t-20.5 -44
q0 -27 20 -43t77 -29q88 -21 130.5 -51.5t42.5 -93.5q0 -64 -66 -99q29 -34 29 -83q0 -58 -40 -94.5t-109 -36.5zM237 312q-47 11 -77 25q-40 -19 -40 -51q0 -28 23 -44.5t90 -32.5q48 -12 76 -26q40 18 40 52q0 28 -22.5 44t-89.5 33z" />
    <glyph glyph-name="germandbls.sc" horiz-adv-x="1094" 
d="M825 -10q-97 0 -162 53.5t-67 137.5h83q2 -54 42.5 -85.5t103.5 -31.5t99 25t36 69q0 40 -30 63t-115 40q-102 22 -150.5 59t-48.5 112q0 73 54 115.5t143 42.5q97 0 152.5 -47.5t60.5 -124.5h-82q-3 43 -36 70t-93 27q-56 0 -87 -21.5t-31 -60.5q0 -36 28.5 -56
t108.5 -38q109 -23 158 -60.5t49 -119.5q0 -80 -59 -124.5t-157 -44.5zM278 -10q-97 0 -162 53.5t-67 137.5h83q2 -54 42.5 -85.5t103.5 -31.5t99 25t36 69q0 40 -30 63t-115 40q-102 22 -150.5 59t-48.5 112q0 73 54 115.5t143 42.5q97 0 152.5 -47.5t60.5 -124.5h-82
q-3 43 -36 70t-93 27q-56 0 -87 -21.5t-31 -60.5q0 -36 28.5 -56t108.5 -38q109 -23 158 -60.5t49 -119.5q0 -80 -59 -124.5t-157 -44.5z" />
    <glyph glyph-name="yen.sc" horiz-adv-x="500" 
d="M53 235v54h128l-157 289h91l136 -260l137 260h88l-158 -289h128v-54h-155v-69h155v-53h-155v-113h-83v113h-155v53h155v69h-155z" />
    <glyph glyph-name="ordfeminine.sc" horiz-adv-x="434" 
d="M176 261q-60 0 -101 29.5t-41 85.5q0 61 45 89t141 45q48 8 67.5 19.5t19.5 37.5q0 61 -86 61q-37 0 -60.5 -17.5t-27.5 -47.5h-79q3 58 49 94t119 36q79 0 120.5 -33.5t41.5 -92.5v-213q0 -40 16 -83h-76q-13 32 -15 54q-43 -64 -133 -64zM177 324q55 0 93 27t38 74v60
q-24 -20 -72 -30q-75 -16 -101 -30.5t-26 -45.5q0 -55 68 -55z" />
    <glyph glyph-name="ordmasculine.sc" horiz-adv-x="464" 
d="M232 261q-83 0 -141.5 61.5t-58.5 152.5q0 93 58.5 155.5t141.5 62.5q84 0 142 -62.5t58 -155.5q0 -92 -57.5 -153t-142.5 -61zM232 327q54 0 88 39.5t34 108.5q0 71 -34 111.5t-88 40.5q-53 0 -87.5 -40.5t-34.5 -111.5q0 -69 34.5 -108.5t87.5 -39.5z" />
    <glyph glyph-name="questiondown.sc" horiz-adv-x="469" 
d="M236 -12q-82 0 -131.5 41t-49.5 109q0 53 24 86t69 65l38 29t21 27.5t11 44.5v5h72v-5q0 -31 -5.5 -54t-21.5 -42t-26.5 -28t-36.5 -29q-34 -26 -48 -46.5t-14 -50.5q0 -38 25.5 -59t72.5 -21q50 0 78 28t29 72h79q-1 -73 -51 -122.5t-135 -49.5zM207 473v105h97v-105
h-97z" />
    <glyph glyph-name="exclamdown.sc" horiz-adv-x="268" 
d="M89 0l12 395h66l12 -395h-90zM86 473v105h97v-105h-97z" />
    <glyph glyph-name="florin.sc" horiz-adv-x="378" 
d="M55 269v66h76l20 108q13 72 55 109.5t108 37.5q19 0 51 -6l-14 -71q-16 5 -38 5q-34 0 -52 -19.5t-26 -65.5l-18 -98h94v-66h-107l-51 -275q-13 -65 -50 -98t-94 -33q-19 0 -47 5l12 70q17 -3 29 -3q28 0 43.5 16.5t22.5 52.5l49 265h-63z" />
    <glyph glyph-name="Euro.sc" horiz-adv-x="564" 
d="M37 313v53h67q17 107 79.5 165.5t145.5 58.5q69 0 121.5 -40t71.5 -115h-83q-24 82 -110 82q-54 0 -90 -39.5t-48 -111.5h245l-19 -53h-232v-21q0 -29 1 -42h209l-19 -53h-181q14 -65 49 -99.5t85 -34.5q85 0 110 80h86q-19 -75 -71 -114t-125 -39q-79 0 -139.5 53.5
t-81.5 153.5h-71v53h64q-2 26 -2 42v21h-62z" />
    <glyph glyph-name="fi.sc" horiz-adv-x="774" 
d="M85 0v578h385v-76h-301v-164h262v-76h-262v-262h-84zM602 0v578h84v-578h-84z" />
    <glyph glyph-name="fl.sc" horiz-adv-x="1005" 
d="M85 0v578h385v-76h-301v-164h262v-76h-262v-262h-84zM600 0v578h84v-502h280v-76h-364z" />
    <glyph glyph-name="ff.sc" horiz-adv-x="1030" 
d="M600 0v578h385v-76h-301v-164h262v-76h-262v-262h-84zM85 0v578h385v-76h-301v-164h262v-76h-262v-262h-84z" />
    <glyph glyph-name="ffi.sc" horiz-adv-x="1289" 
d="M600 0v578h385v-76h-301v-164h262v-76h-262v-262h-84zM85 0v578h385v-76h-301v-164h262v-76h-262v-262h-84zM1117 0v578h84v-578h-84z" />
    <glyph glyph-name="ffl.sc" horiz-adv-x="1520" 
d="M600 0v578h385v-76h-301v-164h262v-76h-262v-262h-84zM85 0v578h385v-76h-301v-164h262v-76h-262v-262h-84zM1115 0v578h84v-502h280v-76h-364z" />
    <glyph glyph-name="perthousand.sc" horiz-adv-x="1042" 
d="M180 304q-57 0 -98 41.5t-41 99.5t41 100t98 42t98 -42t41 -100t-41 -99.5t-98 -41.5zM530 -8q-57 0 -98 41.5t-41 99.5t41 100t98 42t98 -42t41 -100t-41 -99.5t-98 -41.5zM862 -8q-57 0 -98 41.5t-41 99.5t41 100t98 42t98 -42t41 -100t-41 -99.5t-98 -41.5zM158 0
l323 578h71l-323 -578h-71zM862 56q30 0 51 22t21 55t-21 56t-51 23t-51 -23t-21 -56t21 -55t51 -22zM180 368q30 0 51 22t21 55t-21 56t-51 23t-51 -23t-21 -56t21 -55t51 -22zM530 56q30 0 51 22t21 55t-21 56t-51 23t-51 -23t-21 -56t21 -55t51 -22z" />
    <glyph glyph-name="zero.numerator" horiz-adv-x="371" 
d="M186 264q-65 0 -110.5 53t-45.5 157q0 105 45 157.5t111 52.5q65 0 109.5 -52.5t44.5 -157.5q0 -104 -44.5 -157t-109.5 -53zM186 326q46 0 66 44t20 104q0 38 -7 69.5t-27.5 55.5t-51.5 24q-46 0 -66.5 -44t-20.5 -105q0 -60 20.5 -104t66.5 -44z" />
    <glyph glyph-name="one.numerator" horiz-adv-x="242" 
d="M95 272v301h-65v46q72 2 76 61h57v-408h-68z" />
    <glyph glyph-name="two.numerator" horiz-adv-x="345" 
d="M29 272v31q0 62 32.5 99t91.5 69q54 30 70.5 49t16.5 45q0 25 -15.5 41.5t-49.5 16.5t-53 -22t-20 -58h-67q1 60 37.5 100.5t102.5 40.5q63 0 98.5 -35t35.5 -84q0 -52 -29 -81.5t-95 -65.5q-81 -45 -83 -83h204v-63h-277z" />
    <glyph glyph-name="three.numerator" horiz-adv-x="344" 
d="M170 265q-69 0 -106.5 37.5t-39.5 94.5h67q5 -70 79 -70q35 0 56 18.5t21 46.5q0 63 -78 63h-23v59h12q76 0 76 54q0 26 -16 40.5t-46 14.5q-34 0 -51.5 -19.5t-18.5 -47.5h-66q0 55 37 91.5t98 36.5t95.5 -32t34.5 -78q0 -60 -55 -84q69 -23 69 -99q0 -52 -39 -89
t-106 -37z" />
    <glyph glyph-name="four.numerator" horiz-adv-x="346" 
d="M210 272v88h-187v58l175 262h77v-260h43v-60h-43v-88h-65zM92 420h118v175z" />
    <glyph glyph-name="five.numerator" horiz-adv-x="338" 
d="M168 265q-61 0 -99.5 33.5t-41.5 83.5h67q4 -24 23.5 -39t50.5 -15t52 20.5t21 56.5q0 35 -20.5 57t-51.5 22q-45 0 -70 -41l-59 19l25 218h220v-62h-167l-13 -101q33 26 71 26q57 0 95 -39.5t38 -99.5q0 -61 -41 -100t-100 -39z" />
    <glyph glyph-name="six.numerator" horiz-adv-x="350" 
d="M181 265q-64 0 -107.5 48.5t-43.5 142.5q0 108 42.5 169t113.5 61q51 0 86 -29.5t43 -80.5h-67q-12 49 -62 49q-38 0 -60.5 -33t-27.5 -91q32 39 86 39q61 0 100 -38.5t39 -98.5q0 -59 -40.5 -98.5t-101.5 -39.5zM182 325q33 0 53.5 22t20.5 55q0 34 -20.5 56.5
t-55.5 22.5q-33 0 -53.5 -22.5t-20.5 -55.5q0 -34 21 -56t55 -22z" />
    <glyph glyph-name="seven.numerator" horiz-adv-x="317" 
d="M83 272q2 105 35 196.5t94 149.5h-192v62h275v-58q-69 -58 -105.5 -148.5t-38.5 -201.5h-68z" />
    <glyph glyph-name="eight.numerator" horiz-adv-x="349" 
d="M174 265q-63 0 -104 35.5t-41 89.5q0 68 66 104q-48 30 -48 85q0 46 36 77t91 31t90.5 -31t35.5 -77q0 -56 -47 -85q67 -34 67 -104q0 -54 -41 -89.5t-105 -35.5zM174 324q33 0 56 17.5t23 50.5q0 32 -22 50.5t-57 18.5q-34 0 -56 -18.5t-22 -50.5q0 -33 23 -50.5
t55 -17.5zM174 520q25 0 43 14.5t18 40.5q0 25 -17 39t-44 14t-44 -14t-17 -39q0 -26 18 -40.5t43 -14.5z" />
    <glyph glyph-name="nine.numerator" horiz-adv-x="351" 
d="M175 265q-49 0 -83.5 26t-44.5 72h71q11 -37 58 -37q80 0 87 126q-13 -20 -37.5 -32t-51.5 -12q-59 0 -98 39.5t-39 100.5q0 59 40.5 98.5t101.5 39.5q65 0 107 -48t42 -143q2 -230 -153 -230zM179 467q33 0 54 23t21 57t-21 57t-54 23q-34 0 -54.5 -22.5t-20.5 -56.5
q0 -35 20.5 -58t54.5 -23z" />
    <glyph glyph-name="zero.denominator" horiz-adv-x="371" 
d="M186 -8q-65 0 -110.5 53t-45.5 157q0 105 45 157.5t111 52.5q65 0 109.5 -52.5t44.5 -157.5q0 -104 -44.5 -157t-109.5 -53zM186 54q46 0 66 44t20 104q0 38 -7 69.5t-27.5 55.5t-51.5 24q-46 0 -66.5 -44t-20.5 -105q0 -60 20.5 -104t66.5 -44z" />
    <glyph glyph-name="one.denominator" horiz-adv-x="242" 
d="M95 0v301h-65v46q72 2 76 61h57v-408h-68z" />
    <glyph glyph-name="two.denominator" horiz-adv-x="345" 
d="M29 0v31q0 62 32.5 99t91.5 69q54 30 70.5 49t16.5 45q0 25 -15.5 41.5t-49.5 16.5t-53 -22t-20 -58h-67q1 60 37.5 100.5t102.5 40.5q63 0 98.5 -35t35.5 -84q0 -52 -29 -81.5t-95 -65.5q-81 -45 -83 -83h204v-63h-277z" />
    <glyph glyph-name="three.denominator" horiz-adv-x="344" 
d="M170 -7q-69 0 -106.5 37.5t-39.5 94.5h67q5 -70 79 -70q35 0 56 18.5t21 46.5q0 63 -78 63h-23v59h12q76 0 76 54q0 26 -16 40.5t-46 14.5q-34 0 -51.5 -19.5t-18.5 -47.5h-66q0 55 37 91.5t98 36.5t95.5 -32t34.5 -78q0 -60 -55 -84q69 -23 69 -99q0 -52 -39 -89
t-106 -37z" />
    <glyph glyph-name="four.denominator" horiz-adv-x="346" 
d="M210 0v88h-187v58l175 262h77v-260h43v-60h-43v-88h-65zM92 148h118v175z" />
    <glyph glyph-name="five.denominator" horiz-adv-x="338" 
d="M168 -7q-61 0 -99.5 33.5t-41.5 83.5h67q4 -24 23.5 -39t50.5 -15t52 20.5t21 56.5q0 35 -20.5 57t-51.5 22q-45 0 -70 -41l-59 19l25 218h220v-62h-167l-13 -101q33 26 71 26q57 0 95 -39.5t38 -99.5q0 -61 -41 -100t-100 -39z" />
    <glyph glyph-name="six.denominator" horiz-adv-x="350" 
d="M181 -7q-64 0 -107.5 48.5t-43.5 142.5q0 108 42.5 169t113.5 61q51 0 86 -29.5t43 -80.5h-67q-12 49 -62 49q-38 0 -60.5 -33t-27.5 -91q32 39 86 39q61 0 100 -38.5t39 -98.5q0 -59 -40.5 -98.5t-101.5 -39.5zM182 53q33 0 53.5 22t20.5 55q0 34 -20.5 56.5t-55.5 22.5
q-33 0 -53.5 -22.5t-20.5 -55.5q0 -34 21 -56t55 -22z" />
    <glyph glyph-name="seven.denominator" horiz-adv-x="317" 
d="M83 0q2 105 35 196.5t94 149.5h-192v62h275v-58q-69 -58 -105.5 -148.5t-38.5 -201.5h-68z" />
    <glyph glyph-name="eight.denominator" horiz-adv-x="349" 
d="M174 -7q-63 0 -104 35.5t-41 89.5q0 68 66 104q-48 30 -48 85q0 46 36 77t91 31t90.5 -31t35.5 -77q0 -56 -47 -85q67 -34 67 -104q0 -54 -41 -89.5t-105 -35.5zM174 52q33 0 56 17.5t23 50.5q0 32 -22 50.5t-57 18.5q-34 0 -56 -18.5t-22 -50.5q0 -33 23 -50.5t55 -17.5
zM174 248q25 0 43 14.5t18 40.5q0 25 -17 39t-44 14t-44 -14t-17 -39q0 -26 18 -40.5t43 -14.5z" />
    <glyph glyph-name="nine.denominator" horiz-adv-x="351" 
d="M166 -7q-49 0 -83.5 26t-44.5 72h71q11 -37 58 -37q80 0 87 126q-13 -20 -37.5 -32t-51.5 -12q-59 0 -98 39.5t-39 100.5q0 59 40.5 98.5t101.5 39.5q65 0 107 -48t42 -143q2 -230 -153 -230zM170 195q33 0 54 23t21 57t-21 57t-54 23q-34 0 -54.5 -22.5t-20.5 -56.5
q0 -35 20.5 -58t54.5 -23z" />
    <glyph glyph-name="zero.superior" horiz-adv-x="332" 
d="M166 348q-54 0 -91 43t-37 124q0 82 37 124.5t91 42.5q53 0 90.5 -42.5t37.5 -124.5q0 -81 -37.5 -124t-90.5 -43zM166 399q37 0 53.5 34t16.5 82q0 49 -16.5 82.5t-53.5 33.5t-53.5 -33.5t-16.5 -82.5q0 -48 16.5 -82t53.5 -34z" />
    <glyph glyph-name="one.superior" horiz-adv-x="230" 
d="M91 354v231h-61v43q68 2 71 52h48v-326h-58z" />
    <glyph glyph-name="two.superior" horiz-adv-x="306" 
d="M37 354v26q0 35 16 62t34.5 41t50.5 31q43 23 55 38t12 35q0 19 -12 31.5t-38 12.5q-27 0 -41.5 -15.5t-15.5 -39.5h-56q2 44 31 75.5t82 31.5q51 0 79.5 -28.5t28.5 -67.5q0 -42 -22.5 -65t-75.5 -51q-65 -34 -65 -65h161v-52h-224z" />
    <glyph glyph-name="three.superior" horiz-adv-x="304" 
d="M148 348q-55 0 -85.5 30t-32.5 76h57q2 -53 61 -53q29 0 45.5 14t16.5 36q0 48 -59 48h-19v48h11q57 0 57 42q0 19 -13.5 30t-36.5 11q-25 0 -39.5 -13.5t-15.5 -31.5h-55q1 41 31.5 69.5t78.5 28.5q50 0 78 -26.5t28 -62.5q0 -46 -43 -67q54 -20 54 -77q0 -42 -31.5 -72
t-87.5 -30z" />
    <glyph glyph-name="four.superior" horiz-adv-x="305" 
d="M180 354v69h-157v48l145 209h66v-208h34v-49h-34v-69h-54zM81 472h99v141z" />
    <glyph glyph-name="five.superior" horiz-adv-x="300" 
d="M148 348q-50 0 -82 26.5t-34 66.5h56q11 -40 60 -40q25 0 41.5 15.5t16.5 43.5q0 27 -16 44t-41 17q-36 0 -56 -31l-50 15l19 175h181v-51h-136l-10 -81q24 22 59 22q45 0 76 -31.5t31 -79.5t-32.5 -79.5t-82.5 -31.5z" />
    <glyph glyph-name="six.superior" horiz-adv-x="308" 
d="M159 348q-51 0 -86 38.5t-35 114.5q0 87 33.5 135.5t92.5 48.5q42 0 69 -22.5t34 -62.5h-56q-7 33 -47 33q-30 0 -47.5 -26t-20.5 -72q23 33 66 33q49 0 80 -30.5t31 -78.5q0 -47 -32.5 -79t-81.5 -32zM160 398q25 0 40.5 17.5t15.5 42.5q0 26 -15.5 43.5t-41.5 17.5
t-41.5 -17.5t-15.5 -43.5q0 -25 16 -42.5t42 -17.5z" />
    <glyph glyph-name="seven.superior" horiz-adv-x="284" 
d="M80 354q2 180 102 274h-152v52h222v-49q-112 -94 -114 -277h-58z" />
    <glyph glyph-name="eight.superior" horiz-adv-x="306" 
d="M152 348q-50 0 -84.5 29t-34.5 71q0 53 52 83q-37 24 -37 67q0 37 30 62t74 25q45 0 75 -25t30 -62q0 -44 -37 -67q51 -29 51 -83q0 -43 -33.5 -71.5t-85.5 -28.5zM152 398q28 0 45 13.5t17 39.5q0 25 -16.5 39t-45.5 14q-27 0 -44.5 -14t-17.5 -39q0 -26 18 -39.5
t44 -13.5zM152 552q22 0 35.5 11.5t13.5 31.5q0 42 -49 42q-21 0 -35 -11t-14 -31q0 -19 14.5 -31t34.5 -12z" />
    <glyph glyph-name="nine.superior" horiz-adv-x="307" 
d="M147 348q-41 0 -68.5 20.5t-35.5 57.5h60q9 -26 44 -26q62 0 66 95q-21 -32 -68 -32t-78.5 31.5t-31.5 79.5t32.5 79.5t81.5 31.5q52 0 86 -39t34 -119q0 -86 -30.5 -132.5t-91.5 -46.5zM149 511q25 0 41 18.5t16 43.5q0 27 -16 45t-41 18q-26 0 -41.5 -18t-15.5 -44
t15.5 -44.5t41.5 -18.5z" />
    <glyph glyph-name="zero.inferior" horiz-adv-x="332" 
d="M166 -86q-54 0 -91 43t-37 124q0 82 37 124.5t91 42.5q53 0 90.5 -42.5t37.5 -124.5q0 -81 -37.5 -124t-90.5 -43zM166 -35q37 0 53.5 34t16.5 82q0 49 -16.5 82.5t-53.5 33.5t-53.5 -33.5t-16.5 -82.5q0 -48 16.5 -82t53.5 -34z" />
    <glyph glyph-name="one.inferior" horiz-adv-x="230" 
d="M91 -80v231h-61v43q68 2 71 52h48v-326h-58z" />
    <glyph glyph-name="two.inferior" horiz-adv-x="306" 
d="M37 -80v26q0 35 16 62t34.5 41t50.5 31q43 23 55 38t12 35q0 19 -12 31.5t-38 12.5q-27 0 -41.5 -15.5t-15.5 -39.5h-56q2 44 31 75.5t82 31.5q51 0 79.5 -28.5t28.5 -67.5q0 -42 -22.5 -65t-75.5 -51q-65 -34 -65 -65h161v-52h-224z" />
    <glyph glyph-name="three.inferior" horiz-adv-x="304" 
d="M148 -86q-55 0 -85.5 30t-32.5 76h57q2 -53 61 -53q29 0 45.5 14t16.5 36q0 48 -59 48h-19v48h11q57 0 57 42q0 19 -13.5 30t-36.5 11q-25 0 -39.5 -13.5t-15.5 -31.5h-55q1 41 31.5 69.5t78.5 28.5q50 0 78 -26.5t28 -62.5q0 -46 -43 -67q54 -20 54 -77q0 -42 -31.5 -72
t-87.5 -30z" />
    <glyph glyph-name="four.inferior" horiz-adv-x="305" 
d="M180 -80v69h-157v48l145 209h66v-208h34v-49h-34v-69h-54zM81 38h99v141z" />
    <glyph glyph-name="five.inferior" horiz-adv-x="300" 
d="M148 -86q-50 0 -82 26.5t-34 66.5h56q11 -40 60 -40q25 0 41.5 15.5t16.5 43.5q0 27 -16 44t-41 17q-36 0 -56 -31l-50 15l19 175h181v-51h-136l-10 -81q24 22 59 22q45 0 76 -31.5t31 -79.5t-32.5 -79.5t-82.5 -31.5z" />
    <glyph glyph-name="six.inferior" horiz-adv-x="308" 
d="M159 -86q-51 0 -86 38.5t-35 114.5q0 87 33.5 135.5t92.5 48.5q42 0 69 -22.5t34 -62.5h-56q-7 33 -47 33q-30 0 -47.5 -26t-20.5 -72q23 33 66 33q49 0 80 -30.5t31 -78.5q0 -47 -32.5 -79t-81.5 -32zM160 -36q25 0 40.5 17.5t15.5 42.5q0 26 -15.5 43.5t-41.5 17.5
t-41.5 -17.5t-15.5 -43.5q0 -25 16 -42.5t42 -17.5z" />
    <glyph glyph-name="seven.inferior" horiz-adv-x="284" 
d="M80 -80q2 180 102 274h-152v52h222v-49q-112 -94 -114 -277h-58z" />
    <glyph glyph-name="eight.inferior" horiz-adv-x="306" 
d="M152 -86q-50 0 -84.5 29t-34.5 71q0 53 52 83q-37 24 -37 67q0 37 30 62t74 25q45 0 75 -25t30 -62q0 -44 -37 -67q51 -29 51 -83q0 -43 -33.5 -71.5t-85.5 -28.5zM152 -36q28 0 45 13.5t17 39.5q0 25 -16.5 39t-45.5 14q-27 0 -44.5 -14t-17.5 -39q0 -26 18 -39.5
t44 -13.5zM152 118q22 0 35.5 11.5t13.5 31.5q0 42 -49 42q-21 0 -35 -11t-14 -31q0 -19 14.5 -31t34.5 -12z" />
    <glyph glyph-name="nine.inferior" horiz-adv-x="307" 
d="M147 -86q-41 0 -68.5 20.5t-35.5 57.5h60q9 -26 44 -26q62 0 66 95q-21 -32 -68 -32t-78.5 31.5t-31.5 79.5t32.5 79.5t81.5 31.5q52 0 86 -39t34 -119q0 -86 -30.5 -132.5t-91.5 -46.5zM149 77q25 0 41 18.5t16 43.5q0 27 -16 45t-41 18q-26 0 -41.5 -18t-15.5 -44
t15.5 -44.5t41.5 -18.5z" />
    <glyph glyph-name="onesixteenth" horiz-adv-x="1076" 
d="M901 -7q-64 0 -107.5 48.5t-43.5 142.5q0 108 42.5 169t113.5 61q51 0 86 -29.5t43 -80.5h-67q-12 49 -62 49q-38 0 -60.5 -33t-27.5 -91q32 39 86 39q61 0 100 -38.5t39 -98.5q0 -59 -40.5 -98.5t-101.5 -39.5zM133 0l382 680h78l-383 -680h-77zM101 272v301h-65v46
q72 2 76 61h57v-408h-68zM573 0v301h-65v46q72 2 76 61h57v-408h-68zM902 53q33 0 53.5 22t20.5 55q0 34 -20.5 56.5t-55.5 22.5q-33 0 -53.5 -22.5t-20.5 -55.5q0 -34 21 -56t55 -22z" />
    <glyph glyph-name="threesixteenths" horiz-adv-x="1178" 
d="M1003 -7q-64 0 -107.5 48.5t-43.5 142.5q0 108 42.5 169t113.5 61q51 0 86 -29.5t43 -80.5h-67q-12 49 -62 49q-38 0 -60.5 -33t-27.5 -91q32 39 86 39q61 0 100 -38.5t39 -98.5q0 -59 -40.5 -98.5t-101.5 -39.5zM176 265q-69 0 -106.5 37.5t-39.5 94.5h67q5 -70 79 -70
q35 0 56 18.5t21 46.5q0 63 -78 63h-23v59h12q76 0 76 54q0 26 -16 40.5t-46 14.5q-34 0 -51.5 -19.5t-18.5 -47.5h-66q0 55 37 91.5t98 36.5t95.5 -32t34.5 -78q0 -60 -55 -84q69 -23 69 -99q0 -52 -39 -89t-106 -37zM235 0l382 680h78l-383 -680h-77zM675 0v301h-65v46
q72 2 76 61h57v-408h-68zM1004 53q33 0 53.5 22t20.5 55q0 34 -20.5 56.5t-55.5 22.5q-33 0 -53.5 -22.5t-20.5 -55.5q0 -34 21 -56t55 -22z" />
    <glyph glyph-name="fivesixteenths" horiz-adv-x="1172" 
d="M997 -7q-64 0 -107.5 48.5t-43.5 142.5q0 108 42.5 169t113.5 61q51 0 86 -29.5t43 -80.5h-67q-12 49 -62 49q-38 0 -60.5 -33t-27.5 -91q32 39 86 39q61 0 100 -38.5t39 -98.5q0 -59 -40.5 -98.5t-101.5 -39.5zM174 265q-61 0 -99.5 33.5t-41.5 83.5h67q4 -24 23.5 -39
t50.5 -15t52 20.5t21 56.5q0 35 -20.5 57t-51.5 22q-45 0 -70 -41l-59 19l25 218h220v-62h-167l-13 -101q33 26 71 26q57 0 95 -39.5t38 -99.5q0 -61 -41 -100t-100 -39zM229 0l382 680h78l-383 -680h-77zM669 0v301h-65v46q72 2 76 61h57v-408h-68zM998 53q33 0 53.5 22
t20.5 55q0 34 -20.5 56.5t-55.5 22.5q-33 0 -53.5 -22.5t-20.5 -55.5q0 -34 21 -56t55 -22z" />
    <glyph glyph-name="sevensixteenths" horiz-adv-x="1101" 
d="M926 -7q-64 0 -107.5 48.5t-43.5 142.5q0 108 42.5 169t113.5 61q51 0 86 -29.5t43 -80.5h-67q-12 49 -62 49q-38 0 -60.5 -33t-27.5 -91q33 39 86 39q61 0 100 -38.5t39 -98.5q0 -59 -40.5 -98.5t-101.5 -39.5zM158 0l382 680h78l-383 -680h-77zM89 272q2 105 35 196.5
t94 149.5h-192v62h275v-58q-69 -58 -105.5 -148.5t-38.5 -201.5h-68zM598 0v301h-65v46q72 2 76 61h57v-408h-68zM927 53q33 0 53.5 22t20.5 55q0 34 -20.5 56.5t-55.5 22.5q-33 0 -53.5 -22.5t-20.5 -55.5q0 -34 21 -56t55 -22z" />
    <glyph glyph-name="ninesixteenths" horiz-adv-x="1185" 
d="M1010 -7q-64 0 -107.5 48.5t-43.5 142.5q0 108 42.5 169t113.5 61q51 0 86 -29.5t43 -80.5h-67q-12 49 -62 49q-38 0 -60.5 -33t-27.5 -91q33 39 86 39q61 0 100 -38.5t39 -98.5q0 -59 -40.5 -98.5t-101.5 -39.5zM181 265q-49 0 -83.5 26t-44.5 72h71q11 -37 58 -37
q80 0 87 126q-13 -20 -37.5 -32t-51.5 -12q-59 0 -98 39.5t-39 100.5q0 59 40.5 98.5t101.5 39.5q65 0 107 -48t42 -143q2 -230 -153 -230zM242 0l382 680h78l-383 -680h-77zM682 0v301h-65v46q72 2 76 61h57v-408h-68zM185 467q33 0 54 23t21 57t-21 57t-54 23
q-34 0 -54.5 -22.5t-20.5 -56.5q0 -35 20.5 -58t54.5 -23zM1011 53q33 0 53.5 22t20.5 55q0 34 -20.5 56.5t-55.5 22.5q-33 0 -53.5 -22.5t-20.5 -55.5q0 -34 21 -56t55 -22z" />
    <glyph glyph-name="elevensixteenths" horiz-adv-x="1318" 
d="M1143 -7q-64 0 -107.5 48.5t-43.5 142.5q0 108 42.5 169t113.5 61q51 0 86 -29.5t43 -80.5h-67q-12 49 -62 49q-38 0 -60.5 -33t-27.5 -91q32 39 86 39q61 0 100 -38.5t39 -98.5q0 -59 -40.5 -98.5t-101.5 -39.5zM375 0l382 680h78l-383 -680h-77zM343 272v301h-65v46
q72 2 76 61h57v-408h-68zM815 0v301h-65v46q72 2 76 61h57v-408h-68zM101 272v301h-65v46q72 2 76 61h57v-408h-68zM1144 53q33 0 53.5 22t20.5 55q0 34 -20.5 56.5t-55.5 22.5q-33 0 -53.5 -22.5t-20.5 -55.5q0 -34 21 -56t55 -22z" />
    <glyph glyph-name="thirteensixteenths" horiz-adv-x="1420" 
d="M1245 -7q-64 0 -107.5 48.5t-43.5 142.5q0 108 42.5 169t113.5 61q51 0 86 -29.5t43 -80.5h-67q-12 49 -62 49q-38 0 -60.5 -33t-27.5 -91q32 39 86 39q61 0 100 -38.5t39 -98.5q0 -59 -40.5 -98.5t-101.5 -39.5zM418 265q-69 0 -106.5 37.5t-39.5 94.5h67q5 -70 79 -70
q35 0 56 18.5t21 46.5q0 63 -78 63h-23v59h12q76 0 76 54q0 26 -16 40.5t-46 14.5q-34 0 -51.5 -19.5t-18.5 -47.5h-66q0 55 37 91.5t98 36.5t95.5 -32t34.5 -78q0 -60 -55 -84q69 -23 69 -99q0 -52 -39 -89t-106 -37zM477 0l382 680h78l-383 -680h-77zM917 0v301h-65v46
q72 2 76 61h57v-408h-68zM101 272v301h-65v46q72 2 76 61h57v-408h-68zM1246 53q33 0 53.5 22t20.5 55q0 34 -20.5 56.5t-55.5 22.5q-33 0 -53.5 -22.5t-20.5 -55.5q0 -34 21 -56t55 -22z" />
    <glyph glyph-name="fifteensixteenths" horiz-adv-x="1414" 
d="M1239 -7q-64 0 -107.5 48.5t-43.5 142.5q0 108 42.5 169t113.5 61q51 0 86 -29.5t43 -80.5h-67q-12 49 -62 49q-38 0 -60.5 -33t-27.5 -91q32 39 86 39q61 0 100 -38.5t39 -98.5q0 -59 -40.5 -98.5t-101.5 -39.5zM416 265q-61 0 -99.5 33.5t-41.5 83.5h67q4 -24 23.5 -39
t50.5 -15t52 20.5t21 56.5q0 35 -20.5 57t-51.5 22q-45 0 -70 -41l-59 19l25 218h220v-62h-167l-13 -101q33 26 71 26q57 0 95 -39.5t38 -99.5q0 -61 -41 -100t-100 -39zM471 0l382 680h78l-383 -680h-77zM911 0v301h-65v46q72 2 76 61h57v-408h-68zM101 272v301h-65v46
q72 2 76 61h57v-408h-68zM1240 53q33 0 53.5 22t20.5 55q0 34 -20.5 56.5t-55.5 22.5q-33 0 -53.5 -22.5t-20.5 -55.5q0 -34 21 -56t55 -22z" />
    <glyph glyph-name="Aacute.sc" horiz-adv-x="566" 
d="M29 0l209 578h92l205 -578h-86l-50 144h-235l-50 -144h-85zM263 423l-72 -204h182l-70 204q-15 47 -20 76q-9 -45 -20 -76zM251 621l64 147h109l-97 -147h-76z" />
    <glyph glyph-name="Abreve.sc" horiz-adv-x="566" 
d="M29 0l209 578h92l205 -578h-86l-50 144h-235l-50 -144h-85zM263 423l-72 -204h182l-70 204q-15 47 -20 76q-9 -45 -20 -76zM282 621q-62 0 -101.5 39.5t-44.5 101.5h61q17 -69 86 -69q70 0 85 69h61q-5 -62 -44.5 -101.5t-102.5 -39.5z" />
    <glyph glyph-name="Acircumflex.sc" horiz-adv-x="566" 
d="M29 0l209 578h92l205 -578h-86l-50 144h-235l-50 -144h-85zM263 423l-72 -204h182l-70 204q-15 47 -20 76q-9 -45 -20 -76zM138 621l113 154h64l114 -154h-74l-72 79l-72 -79h-73z" />
    <glyph glyph-name="Adieresis.sc" horiz-adv-x="566" 
d="M29 0l209 578h92l205 -578h-86l-50 144h-235l-50 -144h-85zM263 423l-72 -204h182l-70 204q-15 47 -20 76q-9 -45 -20 -76zM329 621v95h93v-95h-93zM144 621v95h92v-95h-92z" />
    <glyph glyph-name="Agrave.sc" horiz-adv-x="566" 
d="M29 0l209 578h92l205 -578h-86l-50 144h-235l-50 -144h-85zM263 423l-72 -204h182l-70 204q-15 47 -20 76q-9 -45 -20 -76zM239 621l-97 147h109l64 -147h-76z" />
    <glyph glyph-name="Amacron.sc" horiz-adv-x="566" 
d="M29 0l209 578h92l205 -578h-86l-50 144h-235l-50 -144h-85zM263 423l-72 -204h182l-70 204q-15 47 -20 76q-9 -45 -20 -76zM152 650v70h262v-70h-262z" />
    <glyph glyph-name="Aogonek.sc" horiz-adv-x="566" 
d="M467 -236q-46 0 -77 25.5t-31 67.5q0 72 102 143h-12l-50 144h-235l-50 -144h-85l209 578h92l205 -578h-14q-51 -50 -73 -81t-22 -61q0 -19 11 -31t31 -12q34 0 45 28h63q-7 -34 -37 -56.5t-72 -22.5zM263 423l-72 -204h182l-70 204q-9 27 -20 75q-15 -62 -20 -75z" />
    <glyph glyph-name="Aring.sc" horiz-adv-x="566" 
d="M29 0l209 578h92l205 -578h-86l-50 144h-235l-50 -144h-85zM263 423l-72 -204h182l-70 204q-15 47 -20 76q-9 -45 -20 -76zM282 598q-47 0 -80 32.5t-33 78.5q0 48 32.5 80t80.5 32q47 0 80 -32t33 -80q0 -46 -33 -78.5t-80 -32.5zM282 644q26 0 43.5 18.5t17.5 46.5
t-17.5 47t-43.5 19t-43.5 -19t-17.5 -47t17.5 -46.5t43.5 -18.5z" />
    <glyph glyph-name="Atilde.sc" horiz-adv-x="566" 
d="M29 0l209 578h92l205 -578h-86l-50 144h-235l-50 -144h-85zM263 423l-72 -204h182l-70 204q-15 47 -20 76q-9 -45 -20 -76zM120 618q5 52 33.5 86t70.5 34q31 0 71 -23.5t55 -23.5q35 0 40 47h56q-5 -52 -33.5 -86t-70.5 -34q-31 0 -71 23.5t-55 23.5q-17 0 -27.5 -13
t-12.5 -34h-56z" />
    <glyph glyph-name="Cacute.sc" horiz-adv-x="624" 
d="M331 -10q-116 0 -197.5 85.5t-81.5 214.5q0 130 81 215t197 85q98 0 162.5 -50.5t89.5 -139.5h-84q-42 115 -168 115q-83 0 -137.5 -63t-54.5 -162q0 -100 55 -163t138 -63q60 0 105 33t63 87h86q-27 -91 -92.5 -142.5t-161.5 -51.5zM288 621l64 147h109l-97 -147h-76z
" />
    <glyph glyph-name="Ccaron.sc" horiz-adv-x="624" 
d="M331 -10q-116 0 -197.5 85.5t-81.5 214.5q0 130 81 215t197 85q98 0 162.5 -50.5t89.5 -139.5h-84q-42 115 -168 115q-83 0 -137.5 -63t-54.5 -162q0 -100 55 -163t138 -63q60 0 105 33t63 87h86q-27 -91 -92.5 -142.5t-161.5 -51.5zM294 618l-114 154h74l72 -79l72 79
h73l-113 -154h-64z" />
    <glyph glyph-name="Ccedilla.sc" horiz-adv-x="624" 
d="M585 184q-25 -85 -84 -135.5t-145 -57.5l-30 -46q4 1 14 1q38 0 65 -24.5t27 -64.5q0 -44 -31.5 -68.5t-77.5 -24.5q-44 0 -76.5 22t-38.5 57h63q12 -28 48 -28q20 0 33 11.5t13 29.5q0 19 -13 31t-32 12q-20 0 -38 -16l-35 28l46 82q-103 14 -172 96.5t-69 200.5
q0 130 81 215t197 85q98 0 162.5 -50.5t89.5 -139.5h-84q-42 115 -168 115q-83 0 -137.5 -63t-54.5 -162q0 -100 55 -163t138 -63q60 0 105 33t63 87h86z" />
    <glyph glyph-name="Ccircumflex.sc" horiz-adv-x="624" 
d="M331 -10q-116 0 -197.5 85.5t-81.5 214.5q0 130 81 215t197 85q98 0 162.5 -50.5t89.5 -139.5h-84q-42 115 -168 115q-83 0 -137.5 -63t-54.5 -162q0 -100 55 -163t138 -63q60 0 105 33t63 87h86q-27 -91 -92.5 -142.5t-161.5 -51.5zM185 621l113 154h64l114 -154h-74
l-72 79l-72 -79h-73z" />
    <glyph glyph-name="Dcaron.sc" horiz-adv-x="605" 
d="M85 0v578h197q125 0 198 -77.5t73 -211.5q0 -133 -73.5 -211t-197.5 -78h-197zM169 75h113q89 0 137 56.5t48 157.5q0 105 -48 159.5t-137 54.5h-113v-428zM247 618l-114 154h74l72 -79l72 79h73l-113 -154h-64z" />
    <glyph glyph-name="Eacute.sc" 
d="M85 0v578h403v-76h-319v-160h273v-76h-273v-190h324v-76h-408zM242 621l64 147h109l-97 -147h-76z" />
    <glyph glyph-name="Ecaron.sc" 
d="M85 0v578h403v-76h-319v-160h273v-76h-273v-190h324v-76h-408zM257 618l-114 154h74l72 -79l72 79h73l-113 -154h-64z" />
    <glyph glyph-name="Ecircumflex.sc" 
d="M85 0v578h403v-76h-319v-160h273v-76h-273v-190h324v-76h-408zM140 621l113 154h64l114 -154h-74l-72 79l-72 -79h-73z" />
    <glyph glyph-name="Edieresis.sc" 
d="M85 0v578h403v-76h-319v-160h273v-76h-273v-190h324v-76h-408zM336 621v95h93v-95h-93zM151 621v95h92v-95h-92z" />
    <glyph glyph-name="Edotaccent.sc" 
d="M85 0v578h403v-76h-319v-160h273v-76h-273v-190h324v-76h-408zM246 621v95h92v-95h-92z" />
    <glyph glyph-name="Egrave.sc" 
d="M85 0v578h403v-76h-319v-160h273v-76h-273v-190h324v-76h-408zM254 621l-97 147h109l64 -147h-76z" />
    <glyph glyph-name="Emacron.sc" 
d="M85 0v578h403v-76h-319v-160h273v-76h-273v-190h324v-76h-408zM155 650v70h262v-70h-262z" />
    <glyph glyph-name="Eogonek.sc" 
d="M85 0v578h403v-76h-319v-160h273v-76h-273v-190h324v-76h-23q-51 -50 -73 -81t-22 -61q0 -19 11 -31t31 -12q34 0 45 28h63q-7 -34 -37 -56.5t-72 -22.5q-46 0 -77 25.5t-31 67.5q0 72 102 143h-325z" />
    <glyph glyph-name="Gbreve.sc" horiz-adv-x="658" 
d="M330 -10q-117 0 -197.5 85t-80.5 215t81 215t197 85q90 0 159 -48.5t91 -138.5h-87q-17 55 -61 83.5t-102 28.5q-84 0 -138 -62.5t-54 -162.5t54.5 -163t138.5 -63q77 0 128 47t57 115h-159v76h238v-302h-78v88q-64 -98 -187 -98zM325 621q-62 0 -101.5 39.5t-44.5 101.5
h61q17 -69 86 -69q70 0 85 69h61q-5 -62 -44.5 -101.5t-102.5 -39.5z" />
    <glyph glyph-name="Gcircumflex.sc" horiz-adv-x="658" 
d="M330 -10q-117 0 -197.5 85t-80.5 215t81 215t197 85q90 0 159 -48.5t91 -138.5h-87q-17 55 -61 83.5t-102 28.5q-84 0 -138 -62.5t-54 -162.5t54.5 -163t138.5 -63q77 0 128 47t57 115h-159v76h238v-302h-78v88q-64 -98 -187 -98zM190 621l113 154h64l114 -154h-74
l-72 79l-72 -79h-73z" />
    <glyph glyph-name="Gcommaaccent.sc" horiz-adv-x="658" 
d="M330 -10q-117 0 -197.5 85t-80.5 215t81 215t197 85q90 0 159 -48.5t91 -138.5h-87q-17 55 -61 83.5t-102 28.5q-84 0 -138 -62.5t-54 -162.5t54.5 -163t138.5 -63q77 0 128 47t57 115h-159v76h238v-302h-78v88q-64 -98 -187 -98zM275 -285v46q53 5 53 61v15h-52v105h103
v-120q0 -51 -29.5 -77.5t-74.5 -29.5z" />
    <glyph glyph-name="Hcircumflex.sc" horiz-adv-x="621" 
d="M85 0v578h84v-239h283v239h84v-578h-84v263h-283v-263h-84zM167 621l113 154h64l114 -154h-74l-72 79l-72 -79h-73z" />
    <glyph glyph-name="Iacute.sc" horiz-adv-x="259" 
d="M87 0v578h84v-578h-84zM98 621l64 147h109l-97 -147h-76z" />
    <glyph glyph-name="Icircumflex.sc" horiz-adv-x="259" 
d="M87 0v578h84v-578h-84zM-15 621l113 154h64l114 -154h-74l-72 79l-72 -79h-73z" />
    <glyph glyph-name="Idieresis.sc" horiz-adv-x="259" 
d="M87 0v578h84v-578h-84zM176 621v95h93v-95h-93zM-9 621v95h92v-95h-92z" />
    <glyph glyph-name="Idotaccent.sc" horiz-adv-x="259" 
d="M87 0v578h84v-578h-84zM84 621v95h92v-95h-92z" />
    <glyph glyph-name="Igrave.sc" horiz-adv-x="259" 
d="M87 0v578h84v-578h-84zM86 621l-97 147h109l64 -147h-76z" />
    <glyph glyph-name="Imacron.sc" horiz-adv-x="259" 
d="M87 0v578h84v-578h-84zM-1 650v70h262v-70h-262z" />
    <glyph glyph-name="Iogonek.sc" horiz-adv-x="259" 
d="M87 0v578h84v-578q-51 -50 -73 -81t-22 -61q0 -19 11 -31t31 -12q34 0 45 28h63q-7 -34 -37 -56.5t-72 -22.5q-46 0 -77 25.5t-31 67.5q0 72 102 143h-24z" />
    <glyph glyph-name="Jcircumflex.sc" horiz-adv-x="484" 
d="M223 -10q-84 0 -134 53t-50 139v11h83v-12q0 -50 25 -83t76 -33q101 0 101 124v389h85v-388q0 -92 -48.5 -146t-137.5 -54zM221 621l113 154h64l114 -154h-74l-72 79l-72 -79h-73z" />
    <glyph glyph-name="Kcommaaccent.sc" horiz-adv-x="569" 
d="M443 0l-192 285l-87 -90v-195h-79v578h79v-282l268 282h100l-225 -234l233 -344h-97zM236 -285v46q53 5 53 61v15h-52v105h103v-120q0 -51 -29.5 -77.5t-74.5 -29.5z" />
    <glyph glyph-name="Lacute.sc" horiz-adv-x="490" 
d="M85 0v578h84v-502h280v-76h-364zM90 621l64 147h109l-97 -147h-76z" />
    <glyph glyph-name="Lcommaaccent.sc" horiz-adv-x="490" 
d="M85 0v578h84v-502h280v-76h-364zM212 -285v46q53 5 53 61v15h-52v105h103v-120q0 -51 -29.5 -77.5t-74.5 -29.5z" />
    <glyph glyph-name="Nacute.sc" horiz-adv-x="617" 
d="M85 0v578h96l271 -448v448h80v-578h-92l-275 455v-455h-80zM279 621l64 147h109l-97 -147h-76z" />
    <glyph glyph-name="Ncaron.sc" horiz-adv-x="617" 
d="M85 0v578h96l271 -448v448h80v-578h-92l-275 455v-455h-80zM281 618l-114 154h74l72 -79l72 79h73l-113 -154h-64z" />
    <glyph glyph-name="Ncommaaccent.sc" horiz-adv-x="617" 
d="M85 0v578h96l271 -448v448h80v-578h-92l-275 455v-455h-80zM252 -285v46q53 5 53 61v15h-52v105h103v-120q0 -51 -29.5 -77.5t-74.5 -29.5z" />
    <glyph glyph-name="Ntilde.sc" horiz-adv-x="617" 
d="M85 0v578h96l271 -448v448h80v-578h-92l-275 455v-455h-80zM153 618q5 52 33.5 86t70.5 34q31 0 71 -23.5t55 -23.5q35 0 40 47h56q-5 -52 -33.5 -86t-70.5 -34q-31 0 -71 23.5t-55 23.5q-17 0 -27.5 -13t-12.5 -34h-56z" />
    <glyph glyph-name="Oacute.sc" horiz-adv-x="665" 
d="M333 -10q-118 0 -199.5 85t-81.5 215t81.5 215t199.5 85q119 0 199.5 -84.5t80.5 -215.5q0 -129 -81 -214.5t-199 -85.5zM333 65q83 0 138.5 63t55.5 162q0 101 -55 162.5t-139 61.5t-139 -62.5t-55 -161.5q0 -100 55 -162.5t139 -62.5zM302 621l64 147h109l-97 -147h-76
z" />
    <glyph glyph-name="Ocircumflex.sc" horiz-adv-x="665" 
d="M333 -10q-118 0 -199.5 85t-81.5 215t81.5 215t199.5 85q119 0 199.5 -84.5t80.5 -215.5q0 -129 -81 -214.5t-199 -85.5zM333 65q83 0 138.5 63t55.5 162q0 101 -55 162.5t-139 61.5t-139 -62.5t-55 -161.5q0 -100 55 -162.5t139 -62.5zM189 621l113 154h64l114 -154h-74
l-72 79l-72 -79h-73z" />
    <glyph glyph-name="Odieresis.sc" horiz-adv-x="665" 
d="M333 -10q-118 0 -199.5 85t-81.5 215t81.5 215t199.5 85q119 0 199.5 -84.5t80.5 -215.5q0 -129 -81 -214.5t-199 -85.5zM333 65q83 0 138.5 63t55.5 162q0 101 -55 162.5t-139 61.5t-139 -62.5t-55 -161.5q0 -100 55 -162.5t139 -62.5zM380 621v95h93v-95h-93zM195 621
v95h92v-95h-92z" />
    <glyph glyph-name="Ograve.sc" horiz-adv-x="665" 
d="M333 -10q-118 0 -199.5 85t-81.5 215t81.5 215t199.5 85q119 0 199.5 -84.5t80.5 -215.5q0 -129 -81 -214.5t-199 -85.5zM333 65q83 0 138.5 63t55.5 162q0 101 -55 162.5t-139 61.5t-139 -62.5t-55 -161.5q0 -100 55 -162.5t139 -62.5zM290 621l-97 147h109l64 -147h-76
z" />
    <glyph glyph-name="Ohungarumlaut.sc" horiz-adv-x="665" 
d="M333 -10q-118 0 -199.5 85t-81.5 215t81.5 215t199.5 85q119 0 199.5 -84.5t80.5 -215.5q0 -129 -81 -214.5t-199 -85.5zM333 65q83 0 138.5 63t55.5 162q0 101 -55 162.5t-139 61.5t-139 -62.5t-55 -161.5q0 -100 55 -162.5t139 -62.5zM373 621l55 147h99l-78 -147h-76z
M210 621l55 147h99l-78 -147h-76z" />
    <glyph glyph-name="Omacron.sc" horiz-adv-x="665" 
d="M333 -10q-118 0 -199.5 85t-81.5 215t81.5 215t199.5 85q119 0 199.5 -84.5t80.5 -215.5q0 -129 -81 -214.5t-199 -85.5zM333 65q83 0 138.5 63t55.5 162q0 101 -55 162.5t-139 61.5t-139 -62.5t-55 -161.5q0 -100 55 -162.5t139 -62.5zM203 650v70h262v-70h-262z" />
    <glyph glyph-name="Otilde.sc" horiz-adv-x="665" 
d="M333 -10q-118 0 -199.5 85t-81.5 215t81.5 215t199.5 85q119 0 199.5 -84.5t80.5 -215.5q0 -129 -81 -214.5t-199 -85.5zM333 65q83 0 138.5 63t55.5 162q0 101 -55 162.5t-139 61.5t-139 -62.5t-55 -161.5q0 -100 55 -162.5t139 -62.5zM171 618q5 52 33.5 86t70.5 34
q31 0 71 -23.5t55 -23.5q35 0 40 47h56q-5 -52 -33.5 -86t-70.5 -34q-31 0 -71 23.5t-55 23.5q-17 0 -27.5 -13t-12.5 -34h-56z" />
    <glyph glyph-name="Racute.sc" horiz-adv-x="587" 
d="M85 0v578h247q86 0 136.5 -47t50.5 -125q0 -92 -87 -131q35 -13 52 -41t21 -77l5 -72q4 -48 19 -85h-82q-13 30 -17 77l-4 74q-3 44 -23.5 64t-65.5 20h-170v-235h-82zM167 310h171q43 0 71 24.5t28 70.5q0 97 -105 97h-165v-192zM246 621l64 147h109l-97 -147h-76z" />
    <glyph glyph-name="Rcaron.sc" horiz-adv-x="587" 
d="M85 0v578h247q86 0 136.5 -47t50.5 -125q0 -92 -87 -131q35 -13 52 -41t21 -77l5 -72q4 -48 19 -85h-82q-13 30 -17 77l-4 74q-3 44 -23.5 64t-65.5 20h-170v-235h-82zM167 310h171q43 0 71 24.5t28 70.5q0 97 -105 97h-165v-192zM254 618l-114 154h74l72 -79l72 79h73
l-113 -154h-64z" />
    <glyph glyph-name="Rcommaaccent.sc" horiz-adv-x="587" 
d="M85 0v578h247q86 0 136.5 -47t50.5 -125q0 -92 -87 -131q35 -13 52 -41t21 -77l5 -72q4 -48 19 -85h-82q-13 30 -17 77l-4 74q-3 44 -23.5 64t-65.5 20h-170v-235h-82zM167 310h171q43 0 71 24.5t28 70.5q0 97 -105 97h-165v-192zM255 -285v46q53 5 53 61v15h-52v105h103
v-120q0 -51 -29.5 -77.5t-74.5 -29.5z" />
    <glyph glyph-name="Sacute.sc" horiz-adv-x="547" 
d="M278 -10q-97 0 -162 53.5t-67 137.5h83q2 -54 42.5 -85.5t103.5 -31.5t99 25t36 69q0 40 -30 63t-115 40q-102 22 -150.5 59t-48.5 112q0 73 54 115.5t143 42.5q97 0 152.5 -47.5t60.5 -124.5h-82q-3 43 -36 70t-93 27q-56 0 -87 -21.5t-31 -60.5q0 -36 28.5 -56
t108.5 -38q109 -23 158 -60.5t49 -119.5q0 -80 -59 -124.5t-157 -44.5zM232 621l64 147h109l-97 -147h-76z" />
    <glyph glyph-name="Scaron.sc" horiz-adv-x="547" 
d="M278 -10q-97 0 -162 53.5t-67 137.5h83q2 -54 42.5 -85.5t103.5 -31.5t99 25t36 69q0 40 -30 63t-115 40q-102 22 -150.5 59t-48.5 112q0 73 54 115.5t143 42.5q97 0 152.5 -47.5t60.5 -124.5h-82q-3 43 -36 70t-93 27q-56 0 -87 -21.5t-31 -60.5q0 -36 28.5 -56
t108.5 -38q109 -23 158 -60.5t49 -119.5q0 -80 -59 -124.5t-157 -44.5zM236 618l-114 154h74l72 -79l72 79h73l-113 -154h-64z" />
    <glyph glyph-name="Scedilla.sc" horiz-adv-x="547" 
d="M494 159q0 -73 -49 -116t-132 -51l-30 -47q4 1 14 1q38 0 65 -24.5t27 -64.5q0 -44 -31.5 -68.5t-77.5 -24.5q-44 0 -76.5 22t-38.5 57h63q12 -28 48 -28q20 0 33 11.5t13 29.5q0 19 -13 31t-32 12q-20 0 -38 -16l-35 28l46 81q-87 8 -143 59.5t-58 129.5h83
q2 -54 42.5 -85.5t103.5 -31.5t99 25t36 69q0 40 -30 63t-115 40q-102 22 -150.5 59t-48.5 112q0 73 54 115.5t143 42.5q97 0 152.5 -47.5t60.5 -124.5h-82q-3 43 -36 70t-93 27q-56 0 -87 -21.5t-31 -60.5q0 -36 28.5 -56t108.5 -38q109 -23 158 -60.5t49 -119.5z" />
    <glyph glyph-name="Scircumflex.sc" horiz-adv-x="547" 
d="M278 -10q-97 0 -162 53.5t-67 137.5h83q2 -54 42.5 -85.5t103.5 -31.5t99 25t36 69q0 40 -30 63t-115 40q-102 22 -150.5 59t-48.5 112q0 73 54 115.5t143 42.5q97 0 152.5 -47.5t60.5 -124.5h-82q-3 43 -36 70t-93 27q-56 0 -87 -21.5t-31 -60.5q0 -36 28.5 -56
t108.5 -38q109 -23 158 -60.5t49 -119.5q0 -80 -59 -124.5t-157 -44.5zM123 621l113 154h64l114 -154h-74l-72 79l-72 -79h-73z" />
    <glyph glyph-name="Scommaaccent.sc" horiz-adv-x="547" 
d="M278 -10q-97 0 -162 53.5t-67 137.5h83q2 -54 42.5 -85.5t103.5 -31.5t99 25t36 69q0 40 -30 63t-115 40q-102 22 -150.5 59t-48.5 112q0 73 54 115.5t143 42.5q97 0 152.5 -47.5t60.5 -124.5h-82q-3 43 -36 70t-93 27q-56 0 -87 -21.5t-31 -60.5q0 -36 28.5 -56
t108.5 -38q109 -23 158 -60.5t49 -119.5q0 -80 -59 -124.5t-157 -44.5zM226 -285v46q53 5 53 61v15h-52v105h103v-120q0 -51 -29.5 -77.5t-74.5 -29.5z" />
    <glyph glyph-name="Tcaron.sc" horiz-adv-x="495" 
d="M205 0v502h-169v76h422v-76h-169v-502h-84zM214 618l-114 154h74l72 -79l72 79h73l-113 -154h-64z" />
    <glyph glyph-name="Tcommaaccent.sc" horiz-adv-x="495" 
d="M205 0v502h-169v76h422v-76h-169v-502h-84zM193 -285v46q53 5 53 61v15h-52v105h103v-120q0 -51 -29.5 -77.5t-74.5 -29.5z" />
    <glyph glyph-name="Uacute.sc" horiz-adv-x="594" 
d="M297 -10q-100 0 -161 61t-61 168v359h84v-360q0 -75 36 -114t102 -39q68 0 103 39t35 114v360h84v-359q0 -107 -61 -168t-161 -61zM262 621l64 147h109l-97 -147h-76z" />
    <glyph glyph-name="Ubreve.sc" horiz-adv-x="594" 
d="M297 -10q-100 0 -161 61t-61 168v359h84v-360q0 -75 36 -114t102 -39q68 0 103 39t35 114v360h84v-359q0 -107 -61 -168t-161 -61zM297 621q-62 0 -101.5 39.5t-44.5 101.5h61q17 -69 86 -69q70 0 85 69h61q-5 -62 -44.5 -101.5t-102.5 -39.5z" />
    <glyph glyph-name="Ucircumflex.sc" horiz-adv-x="594" 
d="M297 -10q-100 0 -161 61t-61 168v359h84v-360q0 -75 36 -114t102 -39q68 0 103 39t35 114v360h84v-359q0 -107 -61 -168t-161 -61zM153 621l113 154h64l114 -154h-74l-72 79l-72 -79h-73z" />
    <glyph glyph-name="Udieresis.sc" horiz-adv-x="594" 
d="M297 -10q-100 0 -161 61t-61 168v359h84v-360q0 -75 36 -114t102 -39q68 0 103 39t35 114v360h84v-359q0 -107 -61 -168t-161 -61zM344 621v95h93v-95h-93zM159 621v95h92v-95h-92z" />
    <glyph glyph-name="Ugrave.sc" horiz-adv-x="594" 
d="M297 -10q-100 0 -161 61t-61 168v359h84v-360q0 -75 36 -114t102 -39q68 0 103 39t35 114v360h84v-359q0 -107 -61 -168t-161 -61zM264 621l-97 147h109l64 -147h-76z" />
    <glyph glyph-name="Uhungarumlaut.sc" horiz-adv-x="594" 
d="M297 -10q-100 0 -161 61t-61 168v359h84v-360q0 -75 36 -114t102 -39q68 0 103 39t35 114v360h84v-359q0 -107 -61 -168t-161 -61zM339 621l55 147h99l-78 -147h-76zM176 621l55 147h99l-78 -147h-76z" />
    <glyph glyph-name="Umacron.sc" horiz-adv-x="594" 
d="M297 -10q-100 0 -161 61t-61 168v359h84v-360q0 -75 36 -114t102 -39q68 0 103 39t35 114v360h84v-359q0 -107 -61 -168t-161 -61zM167 650v70h262v-70h-262z" />
    <glyph glyph-name="Uogonek.sc" horiz-adv-x="594" 
d="M286 -236q-46 0 -77 25.5t-31 67.5q0 68 90 135q-88 8 -140.5 68.5t-52.5 158.5v359h84v-360q0 -75 36 -114t102 -39q68 0 103 39t35 114v360h84v-359q0 -97 -50.5 -156.5t-136.5 -70.5q-46 -45 -66.5 -75t-20.5 -59q0 -19 11 -31t31 -12q34 0 45 28h63q-7 -34 -37 -56.5
t-72 -22.5z" />
    <glyph glyph-name="Uring.sc" horiz-adv-x="594" 
d="M297 -10q-100 0 -161 61t-61 168v359h84v-360q0 -75 36 -114t102 -39q68 0 103 39t35 114v360h84v-359q0 -107 -61 -168t-161 -61zM297 598q-47 0 -80 32.5t-33 78.5q0 48 32.5 80t80.5 32q47 0 80 -32t33 -80q0 -46 -33 -78.5t-80 -32.5zM297 644q26 0 43.5 18.5
t17.5 46.5t-17.5 47t-43.5 19t-43.5 -19t-17.5 -47t17.5 -46.5t43.5 -18.5z" />
    <glyph glyph-name="Yacute.sc" horiz-adv-x="516" 
d="M216 0v234l-193 344h91l144 -263l145 263h89l-193 -344v-234h-83zM226 621l64 147h109l-97 -147h-76z" />
    <glyph glyph-name="Ydieresis.sc" horiz-adv-x="516" 
d="M216 0v234l-193 344h91l144 -263l145 263h89l-193 -344v-234h-83zM304 621v95h93v-95h-93zM119 621v95h92v-95h-92z" />
    <glyph glyph-name="Zacute.sc" horiz-adv-x="508" 
d="M42 0v69l320 433h-309v76h409v-73l-317 -428h319v-77h-422zM219 621l64 147h109l-97 -147h-76z" />
    <glyph glyph-name="Zcaron.sc" horiz-adv-x="508" 
d="M42 0v69l320 433h-309v76h409v-73l-317 -428h319v-77h-422zM219 618l-114 154h74l72 -79l72 79h73l-113 -154h-64z" />
    <glyph glyph-name="Zdotaccent.sc" horiz-adv-x="508" 
d="M42 0v69l320 433h-309v76h409v-73l-317 -428h319v-77h-422zM205 621v95h92v-95h-92z" />
    <glyph glyph-name="Lcaron.sc" horiz-adv-x="490" 
d="M85 0v578h84v-502h280v-76h-364zM340 351v46q53 5 53 61v15h-52v105h103v-120q0 -51 -29.5 -77.5t-74.5 -29.5z" />
    <glyph glyph-name="Dcroat.sc" horiz-adv-x="605" 
d="M28 265v75h57v238h197q125 0 198 -77.5t73 -211.5q0 -133 -73.5 -211t-197.5 -78h-197v265h-57zM169 75h113q89 0 137 56.5t48 157.5q0 105 -48 159.5t-137 54.5h-113v-163h144v-75h-144v-190z" />
    <glyph glyph-name="idotaccent" horiz-adv-x="240" 
d="M79 0v515h82v-515h-82zM75 613v101h90v-101h-90z" />
    </font>
</defs>
</svg>
