<?xml version="1.0" standalone="no"?>
<!DOCTYPE svg PUBLIC "-//W3C//DTD SVG 1.1//EN" "http://www.w3.org/Graphics/SVG/1.1/DTD/svg11.dtd" >
<svg>
<metadata>
Created by FontForge 20090622 at Wed Mar  4 21:19:03 2020
 By deploy user
Copyright (c) House Industries/Brand Design Co. Inc, 2003. All rights reserved.
</metadata>
<defs>
<font id="ChaletBook-Bold" horiz-adv-x="238" >
  <font-face 
    font-family="ChaletBook"
    font-weight="700"
    font-stretch="normal"
    units-per-em="1000"
    panose-1="2 0 8 0 2 0 0 2 0 4"
    ascent="800"
    descent="-200"
    x-height="515"
    cap-height="680"
    bbox="-78 -371 1540 935"
    underline-thickness="8"
    underline-position="-47"
    unicode-range="U+0020-U+FB04"
  />
<missing-glyph horiz-adv-x="300" 
 />
    <glyph glyph-name="ff" unicode="ff" horiz-adv-x="620" 
d="M77 0v409h-62v106h62v11q0 98 53 152.5t138 54.5q26 0 55 -6v-106q-14 3 -31 3q-89 0 -89 -97v-12h166v22q0 98 53 152.5t138 54.5q25 0 58 -7v-106q-22 4 -34 4q-89 0 -89 -97v-23h110v-106h-110v-409h-126v409h-166v-409h-126z" />
    <glyph glyph-name="fi" unicode="fi" horiz-adv-x="559" 
d="M77 0v409h-62v106h62v22q0 98 53 152.5t138 54.5q27 0 45 -5v-106q-10 2 -21 2q-89 0 -89 -97v-23h292v-515h-126v409h-166v-409h-126zM366 589v125h132v-125h-132z" />
    <glyph glyph-name="fl" unicode="fl" horiz-adv-x="559" 
d="M77 0v409h-62v106h62v22q0 98 53 152.5t138 54.5q27 0 45 -5v-106q-10 2 -21 2q-89 0 -89 -97v-23h110v-106h-110v-409h-126zM369 0v744h126v-744h-126z" />
    <glyph glyph-name="ffi" unicode="ffi" horiz-adv-x="851" 
d="M77 0v409h-62v106h62v11q0 98 53 152.5t138 54.5q26 0 55 -6v-106q-14 3 -31 3q-89 0 -89 -97v-12h166v22q0 98 53 152.5t138 54.5q27 0 45 -5v-106q-10 2 -21 2q-89 0 -89 -97v-23h292v-515h-126v409h-166v-409h-126v409h-166v-409h-126zM658 589v125h132v-125h-132z
" />
    <glyph glyph-name="ffl" unicode="ffl" horiz-adv-x="851" 
d="M77 0v409h-62v106h62v11q0 98 53 152.5t138 54.5q26 0 55 -6v-106q-14 3 -31 3q-89 0 -89 -97v-12h166v22q0 98 53 152.5t138 54.5q27 0 45 -5v-106q-10 2 -21 2q-89 0 -89 -97v-23h110v-106h-110v-409h-126v409h-166v-409h-126zM661 0v744h126v-744h-126z" />
    <glyph glyph-name=".notdef" horiz-adv-x="300" 
 />
    <glyph glyph-name=".null" horiz-adv-x="0" 
 />
    <glyph glyph-name=".null" horiz-adv-x="0" 
 />
    <glyph glyph-name="nonmarkingreturn" horiz-adv-x="333" 
 />
    <glyph glyph-name="space" unicode=" " horiz-adv-x="300" 
 />
    <glyph glyph-name="exclam" unicode="!" horiz-adv-x="293" 
d="M97 203l-19 477h137l-20 -477h-98zM76 0v138h141v-138h-141z" />
    <glyph glyph-name="quotedbl" unicode="&#x22;" horiz-adv-x="385" 
d="M239 429l-24 251h136l-24 -251h-88zM58 429l-24 251h136l-24 -251h-88z" />
    <glyph glyph-name="numbersign" unicode="#" horiz-adv-x="552" 
d="M93 123l17 122h-86l16 105h85l15 105h-87l16 105h85l17 120h100l-17 -120h88l17 120h100l-17 -120h86l-16 -105h-85l-15 -105h87l-16 -105h-85l-17 -122h-100l17 122h-88l-17 -122h-100zM224 350h89l16 105h-90z" />
    <glyph glyph-name="dollar" unicode="$" horiz-adv-x="582" 
d="M260 -82v108q-94 12 -154.5 66t-67.5 142h121q10 -84 101 -100v161q-42 9 -73 20t-62.5 31.5t-48.5 55t-17 81.5q0 75 54 124t147 54v56h69v-58q91 -13 139 -66.5t53 -122.5h-120q-10 62 -72 79v-150q37 -8 61.5 -14.5t55 -21t48.5 -33.5t31 -50t13 -71
q0 -83 -54.5 -131.5t-154.5 -53.5v-106h-69zM417 206q0 31 -20.5 46.5t-67.5 27.5v-148q88 10 88 74zM177 488q0 -28 19 -45t64 -29v140q-83 -8 -83 -66z" />
    <glyph glyph-name="percent" unicode="%" horiz-adv-x="828" 
d="M198 348q-73 0 -123.5 50t-50.5 121t50.5 121t123.5 50t123.5 -50t50.5 -121t-50.5 -121t-123.5 -50zM630 -10q-73 0 -123.5 50t-50.5 121t50.5 121t123.5 50t123.5 -50t50.5 -121t-50.5 -121t-123.5 -50zM177 0l373 680h101l-373 -680h-101zM630 77q32 0 54.5 23
t22.5 61t-22.5 61t-54.5 23t-54.5 -23t-22.5 -61t22.5 -61t54.5 -23zM198 435q32 0 54.5 23t22.5 61t-22.5 61t-54.5 23t-54.5 -23t-22.5 -61t22.5 -61t54.5 -23z" />
    <glyph glyph-name="ampersand" unicode="&#x26;" horiz-adv-x="656" 
d="M282 -12q-107 0 -178.5 61.5t-71.5 150.5q0 63 34 106.5t107 82.5l-2 3q-53 62 -53 142q0 69 52 116t127 47q73 0 121.5 -45t48.5 -114q0 -100 -130 -164l130 -155q16 45 16 109v29h110v-30q0 -113 -50 -199l108 -128h-150l-36 43q-77 -55 -183 -55zM287 100q64 0 107 26
l-166 198q-66 -42 -66 -117q0 -47 33 -77t92 -30zM233 538q0 -40 34 -80l15 -18q42 22 57.5 44.5t15.5 53.5q0 26 -17 42.5t-43 16.5q-27 0 -44.5 -17t-17.5 -42z" />
    <glyph glyph-name="quotesingle" unicode="'" horiz-adv-x="204" 
d="M58 429l-24 251h136l-24 -251h-88z" />
    <glyph glyph-name="parenleft" unicode="(" horiz-adv-x="322" 
d="M214 -122q-78 79 -125.5 198t-47.5 254t47.5 255t125.5 199h103q-70 -90 -107.5 -208t-37.5 -246q0 -263 145 -452h-103z" />
    <glyph glyph-name="parenright" unicode=")" horiz-adv-x="322" 
d="M5 -122q145 189 145 452q0 128 -37.5 246t-107.5 208h103q78 -79 125.5 -199t47.5 -255t-47.5 -254t-125.5 -198h-103z" />
    <glyph glyph-name="asterisk" unicode="*" horiz-adv-x="395" 
d="M149 367l-72 43l70 95l-118 -13v85l118 -14l-71 97l73 42l48 -110l48 110l73 -42l-71 -97l119 14v-85l-119 13l71 -95l-73 -43l-48 109z" />
    <glyph glyph-name="plus" unicode="+" horiz-adv-x="511" 
d="M198 84v161h-160v111h160v160h115v-160h160v-111h-160v-161h-115z" />
    <glyph glyph-name="comma" unicode="," 
d="M48 -157v67q31 0 48.5 20t17.5 52v18h-66v141h142v-158q0 -66 -39 -103t-103 -37z" />
    <glyph glyph-name="hyphen" unicode="-" horiz-adv-x="339" 
d="M39 216v123h261v-123h-261z" />
    <glyph glyph-name="period" unicode="." 
d="M48 0v141h142v-141h-142z" />
    <glyph glyph-name="slash" unicode="/" horiz-adv-x="350" 
d="M-11 -122l258 906h118l-258 -906h-118z" />
    <glyph glyph-name="zero" unicode="0" horiz-adv-x="629" 
d="M314 -12q-120 0 -192.5 95t-72.5 259t72.5 259.5t192.5 95.5q119 0 192.5 -96t73.5 -259t-73.5 -258.5t-192.5 -95.5zM314 102q64 0 99 65t35 175q0 111 -35 176t-99 65q-65 0 -99 -65t-34 -176t34 -175.5t99 -64.5z" />
    <glyph glyph-name="one" unicode="1" horiz-adv-x="428" 
d="M182 0v478h-116v92q57 1 97.5 29t44.5 81h106v-680h-132z" />
    <glyph glyph-name="two" unicode="2" horiz-adv-x="563" 
d="M44 0v56q0 100 55 165t150 119q47 26 75.5 48t41 41t16 33t3.5 35q0 36 -24 61.5t-68 25.5q-49 0 -75 -33.5t-28 -81.5h-133q3 95 65 161.5t170 66.5q111 0 168 -61.5t57 -146.5q0 -38 -11.5 -70t-25.5 -53t-48 -46.5t-54 -38t-69 -40.5q-64 -37 -93 -65.5t-32 -61.5h327
v-114h-467z" />
    <glyph glyph-name="three" unicode="3" horiz-adv-x="586" 
d="M293 -12q-120 0 -187.5 66.5t-69.5 167.5h128q2 -55 35.5 -87t92.5 -32q54 0 85 29.5t31 70.5q0 46 -28.5 72t-84.5 26h-44v109h27q54 0 81 24t27 62t-25 62t-71 24q-51 0 -77.5 -31.5t-28.5 -74.5h-126q2 94 64.5 157.5t170.5 63.5q107 0 164.5 -56t57.5 -133
q0 -46 -25.5 -84t-73.5 -58q59 -17 91.5 -63t32.5 -102q0 -85 -65.5 -149t-181.5 -64z" />
    <glyph glyph-name="four" unicode="4" horiz-adv-x="619" 
d="M371 0v141h-333v110l312 429h144v-429h81v-110h-81v-141h-123zM167 251h204v275z" />
    <glyph glyph-name="five" unicode="5" horiz-adv-x="578" 
d="M290 -12q-105 0 -173.5 55.5t-75.5 141.5h131q7 -38 38 -60t75 -22q51 0 83 33.5t32 88.5q0 54 -32.5 86.5t-82.5 32.5q-70 0 -113 -62l-108 41l45 357h385v-114h-285l-22 -161q45 50 131 50q87 0 150.5 -61.5t63.5 -169.5q0 -100 -68.5 -168t-173.5 -68z" />
    <glyph glyph-name="six" unicode="6" horiz-adv-x="590" 
d="M307 -12q-50 0 -94 17.5t-82 55t-60 103.5t-22 154q0 179 70.5 279t195.5 100q91 0 147.5 -47.5t71.5 -134.5h-129q-21 69 -90 69q-58 0 -94.5 -55t-39.5 -145q50 62 139 62q99 0 162.5 -62t63.5 -163q0 -102 -67 -167.5t-172 -65.5zM305 100q49 0 80.5 34t31.5 84
t-31.5 84.5t-80.5 34.5t-80.5 -34.5t-31.5 -84.5t31.5 -84t80.5 -34z" />
    <glyph glyph-name="seven" unicode="7" horiz-adv-x="536" 
d="M137 0q0 170 59.5 314.5t158.5 242.5h-324v123h470v-116q-230 -232 -230 -564h-134z" />
    <glyph glyph-name="eight" unicode="8" horiz-adv-x="592" 
d="M296 -12q-114 0 -183 58.5t-69 149.5q0 118 117 173q-88 51 -88 144q0 79 64.5 131.5t158.5 52.5t158.5 -52.5t64.5 -131.5q0 -92 -88 -143q117 -55 117 -172q0 -92 -69 -151t-183 -59zM296 99q53 0 88 27.5t35 77.5t-35 77.5t-88 27.5t-88 -27.5t-35 -77.5t35 -77.5
t88 -27.5zM296 419q42 0 69.5 22t27.5 62t-27.5 62t-69.5 22t-69.5 -22t-27.5 -62t27.5 -62t69.5 -22z" />
    <glyph glyph-name="nine" unicode="9" horiz-adv-x="588" 
d="M275 -12q-91 0 -151.5 47t-74.5 128h129q9 -27 33.5 -44.5t63.5 -17.5q127 0 134 200q-50 -62 -139 -62q-99 0 -162.5 62t-63.5 163q0 102 67 167.5t172 65.5q50 0 94 -17.5t81.5 -55t59 -103.5t21.5 -154q0 -379 -264 -379zM285 348q49 0 80.5 34.5t31.5 84.5t-31.5 84
t-80.5 34t-80.5 -34t-31.5 -84t31.5 -84.5t80.5 -34.5z" />
    <glyph glyph-name="colon" unicode=":" horiz-adv-x="246" 
d="M52 290v141h142v-141h-142zM52 0v141h142v-141h-142z" />
    <glyph glyph-name="semicolon" unicode=";" horiz-adv-x="246" 
d="M53 -157v67q31 0 48.5 20t17.5 52v18h-66v141h142v-158q0 -66 -39 -103t-103 -37zM52 290v141h142v-141h-142z" />
    <glyph glyph-name="less" unicode="&#x3c;" horiz-adv-x="444" 
d="M407 34l-370 175v123l370 176v-132l-252 -106l252 -106v-130z" />
    <glyph glyph-name="equal" unicode="=" horiz-adv-x="479" 
d="M38 330v114h403v-114h-403zM38 116v114h403v-114h-403z" />
    <glyph glyph-name="greater" unicode="&#x3e;" horiz-adv-x="444" 
d="M37 33v132l252 106l-252 106v130l370 -175v-123z" />
    <glyph glyph-name="question" unicode="?" horiz-adv-x="520" 
d="M178 203v22q0 105 88 168q52 38 68.5 58.5t16.5 52.5q0 33 -25 56t-69 23q-51 0 -79 -29.5t-30 -74.5h-123q0 95 62.5 156.5t169.5 61.5q104 0 163.5 -54t59.5 -139q0 -60 -27.5 -98t-90.5 -78q-70 -45 -70 -103v-22h-114zM163 0v138h141v-138h-141z" />
    <glyph glyph-name="at" unicode="@" horiz-adv-x="749" 
d="M400 -13q-160 0 -263.5 98.5t-103.5 262.5q0 155 103.5 258.5t252.5 103.5q84 0 157 -33t121.5 -103t48.5 -163q0 -98 -55.5 -168.5t-132.5 -70.5q-79 0 -103 63q-44 -65 -111 -65q-65 0 -94.5 56t-5.5 140q21 70 69 114.5t100 44.5t74 -48l10 32h95l-60 -194
q-8 -28 -0.5 -42.5t26.5 -14.5q38 0 66 45.5t28 106.5q0 106 -70 162.5t-164 56.5q-111 0 -185.5 -78.5t-74.5 -201.5q0 -132 75 -205.5t196 -73.5q115 0 192 62h114q-45 -65 -122.5 -105t-182.5 -40zM336 260q23 0 44.5 24t34.5 65q29 91 -24 91q-22 0 -43 -24t-35 -67
q-8 -27 -8 -47t8 -31t23 -11z" />
    <glyph glyph-name="A" unicode="A" horiz-adv-x="650" 
d="M8 0l249 680h136l249 -680h-137l-47 136h-270l-47 -136h-133zM305 477l-79 -230h193l-79 230q-12 34 -18 67q-6 -31 -17 -67z" />
    <glyph glyph-name="B" unicode="B" horiz-adv-x="631" 
d="M65 0v680h300q96 0 151 -48.5t55 -132.5q0 -95 -83 -136q55 -20 85 -63t30 -102q0 -91 -60.5 -144.5t-162.5 -53.5h-315zM193 114h176q45 0 73 22.5t28 68.5q0 92 -103 92h-174v-183zM193 411h168q40 0 62.5 21t22.5 56q0 36 -21.5 57.5t-63.5 21.5h-168v-156z" />
    <glyph glyph-name="C" unicode="C" horiz-adv-x="698" 
d="M370 -12q-144 0 -240 102t-96 253q0 149 96.5 251.5t236.5 102.5q117 0 196 -60.5t105 -165.5h-137q-22 53 -58.5 81.5t-104.5 28.5q-86 0 -142.5 -63.5t-56.5 -174.5q0 -112 57.5 -175.5t144.5 -63.5q120 0 160 112h138q-27 -108 -105 -168t-194 -60z" />
    <glyph glyph-name="D" unicode="D" horiz-adv-x="664" 
d="M65 0v680h244q147 0 234 -91.5t87 -248.5q0 -155 -88 -247.5t-233 -92.5h-244zM194 119h115q45 0 80 15.5t55 38.5t32.5 54.5t16.5 58.5t4 55q0 41 -8.5 77t-28 70t-58.5 54t-93 20h-115v-443z" />
    <glyph glyph-name="E" unicode="E" horiz-adv-x="585" 
d="M65 0v680h477v-118h-348v-148h294v-119h-294v-176h355v-119h-484z" />
    <glyph glyph-name="F" unicode="F" horiz-adv-x="558" 
d="M65 0v680h462v-117h-333v-167h283v-117h-283v-279h-129z" />
    <glyph glyph-name="G" unicode="G" horiz-adv-x="737" 
d="M363 -12q-139 0 -234 102.5t-95 252.5t95.5 252t239.5 102q119 0 197 -59t106 -157h-139q-17 44 -60.5 72t-103.5 28q-86 0 -143.5 -63.5t-57.5 -174.5q0 -112 57 -176.5t143 -64.5q83 0 133 43t64 110h-182v114h303v-369h-120v88q-26 -44 -80 -72t-123 -28z" />
    <glyph glyph-name="H" unicode="H" horiz-adv-x="680" 
d="M65 0v680h130v-274h290v274h130v-680h-130v289h-290v-289h-130z" />
    <glyph glyph-name="I" unicode="I" horiz-adv-x="266" 
d="M68 0v680h130v-680h-130z" />
    <glyph glyph-name="J" unicode="J" horiz-adv-x="521" 
d="M244 -10q-102 0 -163.5 58.5t-61.5 155.5v37h129v-41q0 -40 24 -66t70 -26q44 0 67 26.5t23 67.5v478h131v-474q0 -97 -59 -156.5t-160 -59.5z" />
    <glyph glyph-name="K" unicode="K" horiz-adv-x="637" 
d="M470 0l-203 299l-72 -77v-222h-130v680h130v-296l269 296h157l-261 -281l269 -399h-159z" />
    <glyph glyph-name="L" unicode="L" horiz-adv-x="539" 
d="M65 0v680h130v-563h319v-117h-449z" />
    <glyph glyph-name="M" unicode="M" horiz-adv-x="816" 
d="M65 0v680h193l153 -509l153 509h188v-680h-128v502l-148 -502h-136l-148 502v-502h-127z" />
    <glyph glyph-name="N" unicode="N" horiz-adv-x="682" 
d="M65 0v680h147l285 -484v484h120v-680h-146l-286 484v-484h-120z" />
    <glyph glyph-name="O" unicode="O" horiz-adv-x="734" 
d="M368 -12q-144 0 -239 102t-95 253q0 150 95 252t239 102q143 0 237.5 -102t94.5 -252q0 -151 -94.5 -253t-237.5 -102zM368 104q85 0 141.5 63.5t56.5 175.5q0 111 -56.5 174.5t-141.5 63.5q-86 0 -143 -63.5t-57 -174.5q0 -112 56.5 -175.5t143.5 -63.5z" />
    <glyph glyph-name="P" unicode="P" horiz-adv-x="600" 
d="M65 0v680h264q116 0 180 -59.5t64 -160.5q0 -96 -65 -155.5t-176 -59.5h-137v-245h-130zM195 360h133q116 0 116 100q0 51 -30 77.5t-86 26.5h-133v-204z" />
    <glyph glyph-name="Q" unicode="Q" horiz-adv-x="734" 
d="M563 0l-32 31q-74 -43 -163 -43q-144 0 -239 102t-95 253q0 150 95 252t239 102q143 0 237.5 -102t94.5 -252q0 -141 -85 -242l104 -101h-156zM368 101q41 0 77 14l-133 129h156l60 -59q38 63 38 158q0 111 -56.5 174.5t-141.5 63.5q-86 0 -143 -63.5t-57 -174.5
q0 -112 57 -177t143 -65z" />
    <glyph glyph-name="R" unicode="R" horiz-adv-x="656" 
d="M65 0v680h300q107 0 170 -54t63 -149q0 -111 -107 -153q45 -21 65.5 -52.5t26.5 -94.5l8 -90q3 -42 25 -87h-131q-19 34 -23 79l-8 99q-4 47 -24 67.5t-64 20.5h-172v-266h-129zM194 377h174q100 0 100 93q0 90 -103 90h-171v-183z" />
    <glyph glyph-name="S" unicode="S" horiz-adv-x="641" 
d="M333 -12q-125 0 -208.5 61.5t-92.5 171.5h130q6 -55 47.5 -86t114.5 -31q143 0 143 86q0 43 -39 62t-137 40q-7 1 -11 2q-39 8 -65.5 16t-59 24t-52 36t-33.5 53t-14 75q0 88 67.5 143.5t180.5 55.5q126 0 193 -63.5t73 -149.5h-129q-12 97 -137 97q-55 0 -89 -20
t-34 -57q0 -39 33.5 -56t124.5 -35q45 -9 72.5 -16.5t66.5 -24t61 -38t38.5 -57.5t16.5 -83q0 -97 -69.5 -151.5t-191.5 -54.5z" />
    <glyph glyph-name="T" unicode="T" horiz-adv-x="545" 
d="M208 0v563h-190v117h509v-117h-190v-563h-129z" />
    <glyph glyph-name="U" unicode="U" horiz-adv-x="643" 
d="M321 -12q-127 0 -194.5 72.5t-67.5 201.5v418h130v-422q0 -154 132 -154q133 0 133 154v422h130v-418q0 -129 -68 -201.5t-195 -72.5z" />
    <glyph glyph-name="V" unicode="V" horiz-adv-x="595" 
d="M232 0l-227 680h138l130 -425l27 -108q15 74 26 108l130 425h134l-227 -680h-131z" />
    <glyph glyph-name="W" unicode="W" horiz-adv-x="877" 
d="M177 0l-172 680h136l83 -367l23 -120q13 70 28 121l103 366h126l101 -365q5 -16 28 -121q13 75 23 118l84 368h132l-172 -680h-130l-106 402q-9 36 -25 107q-8 -49 -24 -107l-107 -402h-131z" />
    <glyph glyph-name="X" unicode="X" horiz-adv-x="600" 
d="M6 0l219 348l-209 332h150l138 -229l135 229h146l-210 -332l219 -348h-150l-147 246l-145 -246h-146z" />
    <glyph glyph-name="Y" unicode="Y" horiz-adv-x="593" 
d="M231 0v261l-228 419h145l149 -294l152 294h141l-228 -419v-261h-131z" />
    <glyph glyph-name="Z" unicode="Z" horiz-adv-x="573" 
d="M26 0v112l349 451h-337v117h499v-111l-349 -452h358v-117h-520z" />
    <glyph glyph-name="bracketleft" unicode="[" horiz-adv-x="331" 
d="M66 -121v905h240v-104h-122v-697h122v-104h-240z" />
    <glyph glyph-name="backslash" unicode="\" horiz-adv-x="350" 
d="M243 -122l-258 906h118l258 -906h-118z" />
    <glyph glyph-name="bracketright" unicode="]" horiz-adv-x="331" 
d="M25 -122v104h122v697h-122v104h240v-905h-240z" />
    <glyph glyph-name="asciicircum" unicode="^" horiz-adv-x="558" 
d="M35 244l189 436h110l189 -436h-129l-117 278l-117 -278h-125z" />
    <glyph glyph-name="underscore" unicode="_" horiz-adv-x="540" 
d="M0 -180v110h540v-110h-540z" />
    <glyph glyph-name="grave" unicode="`" horiz-adv-x="500" 
d="M220 593l-123 147h165l53 -147h-95z" />
    <glyph glyph-name="a" unicode="a" horiz-adv-x="576" 
d="M217 -11q-78 0 -132 38.5t-54 115.5q0 41 16.5 70t48.5 45.5t62 25t73 14.5q86 12 120.5 26.5t34.5 45.5q0 54 -92 54q-90 0 -108 -63h-131q12 74 74 120.5t164 46.5q219 0 219 -180v-239q0 -60 18 -109h-124q-12 27 -16 76q-50 -87 -173 -87zM247 93q62 0 100.5 28.5
t38.5 76.5v56q-36 -24 -136 -42q-46 -8 -68 -21.5t-22 -42.5q0 -55 87 -55z" />
    <glyph glyph-name="b" unicode="b" horiz-adv-x="616" 
d="M348 -12q-56 0 -100 26t-64 67v-81h-122v744h126v-303q21 37 62 62t98 25q96 0 166 -78t70 -193q0 -116 -68.5 -192.5t-167.5 -76.5zM321 100q57 0 95 42.5t38 113.5q0 73 -38 116.5t-95 43.5t-95 -43.5t-38 -116.5q0 -71 38 -113.5t95 -42.5z" />
    <glyph glyph-name="c" unicode="c" horiz-adv-x="563" 
d="M294 -12q-108 0 -185 77t-77 192t77 193t185 78q90 0 155 -51t85 -135h-131q-11 35 -40 54.5t-69 19.5q-56 0 -93.5 -43.5t-37.5 -116.5q0 -71 37.5 -113.5t93.5 -42.5q86 0 110 74h132q-20 -85 -84.5 -135.5t-157.5 -50.5z" />
    <glyph glyph-name="d" unicode="d" horiz-adv-x="616" 
d="M268 -12q-99 0 -167.5 76.5t-68.5 192.5q0 115 70 193t166 78q57 0 98 -25t62 -62v303h126v-744h-122v81q-20 -41 -64 -67t-100 -26zM295 100q57 0 95 42.5t38 113.5q0 73 -38 116.5t-95 43.5t-95 -43.5t-38 -116.5q0 -71 38 -113.5t95 -42.5z" />
    <glyph glyph-name="e" unicode="e" horiz-adv-x="584" 
d="M551 217h-388q9 -58 45.5 -87.5t94.5 -29.5q73 0 102 48h135q-22 -77 -85 -118.5t-152 -41.5q-114 0 -192.5 76.5t-78.5 192.5t75.5 193.5t185.5 77.5q122 0 196.5 -89.5t61.5 -221.5zM293 418q-46 0 -80.5 -29.5t-46.5 -81.5h253q-10 53 -43 82t-83 29z" />
    <glyph glyph-name="f" unicode="f" horiz-adv-x="328" 
d="M77 0v409h-62v106h62v22q0 98 53 152.5t138 54.5q25 0 58 -7v-106q-22 4 -34 4q-89 0 -89 -97v-23h110v-106h-110v-409h-126z" />
    <glyph glyph-name="g" unicode="g" horiz-adv-x="616" 
d="M295 -222q-113 0 -179.5 51t-73.5 123h137q8 -28 38 -45.5t78 -17.5q133 0 133 150v43q-21 -37 -63 -61.5t-97 -24.5q-99 0 -167.5 75.5t-68.5 189.5t70 190.5t166 76.5q57 0 99 -26t65 -67v80h122v-474q0 -130 -68 -196.5t-191 -66.5zM295 108q57 0 95 41t38 111
q0 72 -38 114t-95 42t-95 -42t-38 -114q0 -70 38 -111t95 -41z" />
    <glyph glyph-name="h" unicode="h" horiz-adv-x="575" 
d="M62 0v744h126v-303q18 40 57.5 63.5t86.5 23.5q86 0 135 -60t49 -165v-303h-126v303q0 109 -98 109q-50 0 -77 -30t-27 -79v-303h-126z" />
    <glyph glyph-name="i" unicode="i" horiz-adv-x="254" 
d="M64 0v515h126v-515h-126zM61 589v125h132v-125h-132z" />
    <glyph glyph-name="j" unicode="j" horiz-adv-x="254" 
d="M-30 -209v107h17q77 0 77 72v545h126v-546q0 -89 -55 -133.5t-144 -44.5h-21zM61 589v125h132v-125h-132z" />
    <glyph glyph-name="k" unicode="k" horiz-adv-x="541" 
d="M389 0l-139 216l-62 -68v-148h-126v744h126v-441l189 212h146l-191 -209l200 -306h-143z" />
    <glyph glyph-name="l" unicode="l" horiz-adv-x="254" 
d="M64 0v744h126v-744h-126z" />
    <glyph glyph-name="m" unicode="m" horiz-adv-x="887" 
d="M328 528q104 0 148 -94q26 46 72 70t95 24q88 0 136.5 -59.5t48.5 -165.5v-303h-126v303q0 109 -94 109q-48 0 -74 -30t-26 -79v-303h-126v303q0 109 -94 109q-48 0 -74 -30t-26 -79v-303h-126v515h122v-81q18 45 57 69.5t87 24.5z" />
    <glyph glyph-name="n" unicode="n" horiz-adv-x="575" 
d="M62 0v515h122v-81q17 44 58 69t90 25q86 0 135 -60t49 -165v-303h-126v303q0 109 -98 109q-50 0 -77 -30t-27 -79v-303h-126z" />
    <glyph glyph-name="o" unicode="o" horiz-adv-x="590" 
d="M295 -12q-109 0 -186 77t-77 192q0 116 77 193.5t186 77.5t186 -77.5t77 -193.5q0 -115 -77 -192t-186 -77zM295 100q57 0 95 42.5t38 113.5q0 73 -38 116.5t-95 43.5t-95 -43.5t-38 -116.5q0 -71 38 -113.5t95 -42.5z" />
    <glyph glyph-name="p" unicode="p" horiz-adv-x="616" 
d="M62 -209v724h122v-80q23 41 65 67t99 26q96 0 166 -78t70 -193q0 -116 -68.5 -192.5t-167.5 -76.5q-55 0 -97 24.5t-63 61.5v-283h-126zM321 100q57 0 95 42.5t38 113.5q0 73 -38 116.5t-95 43.5t-95 -43.5t-38 -116.5q0 -71 38 -113.5t95 -42.5z" />
    <glyph glyph-name="q" unicode="q" horiz-adv-x="616" 
d="M428 -209v283q-21 -37 -63 -61.5t-97 -24.5q-99 0 -167.5 76.5t-68.5 192.5q0 115 70 193t166 78q57 0 99 -26t65 -67v80h122v-724h-126zM295 100q57 0 95 42.5t38 113.5q0 73 -38 116.5t-95 43.5t-95 -43.5t-38 -116.5q0 -71 38 -113.5t95 -42.5z" />
    <glyph glyph-name="r" unicode="r" horiz-adv-x="390" 
d="M62 0v515h126v-91q25 58 76.5 80t107.5 17v-126q-85 13 -131.5 -22t-46.5 -107v-266h-132z" />
    <glyph glyph-name="s" unicode="s" horiz-adv-x="523" 
d="M267 -12q-110 0 -174.5 48t-68.5 123h126q15 -66 117 -66q45 0 73 14.5t28 39.5q0 26 -23 36t-94 23q-5 1 -7 1q-102 18 -139 39q-67 37 -67 122q0 68 56 114t158 46q93 0 150.5 -41.5t68.5 -112.5h-126q-17 50 -98 50q-42 0 -64.5 -13.5t-22.5 -35.5q0 -24 22.5 -33.5
t86.5 -20.5q6 -1 17 -3q38 -7 58 -11t52.5 -16.5t49.5 -28t30.5 -44t13.5 -65.5q0 -75 -60 -120t-163 -45z" />
    <glyph glyph-name="t" unicode="t" horiz-adv-x="351" 
d="M275 -8q-94 0 -143.5 52.5t-49.5 155.5v209h-67v106h67v145h126v-145h112v-106h-112v-210q0 -96 81 -96q21 0 37 4v-109q-30 -6 -51 -6z" />
    <glyph glyph-name="u" unicode="u" horiz-adv-x="575" 
d="M243 -13q-86 0 -135 60t-49 165v303h126v-303q0 -109 98 -109q50 0 77 30t27 79v303h126v-515h-122v81q-17 -44 -58 -69t-90 -25z" />
    <glyph glyph-name="v" unicode="v" horiz-adv-x="537" 
d="M209 0l-200 515h133l102 -295q6 -17 12 -39t10 -39t4 -18q11 53 26 96l103 295h129l-199 -515h-120z" />
    <glyph glyph-name="w" unicode="w" horiz-adv-x="788" 
d="M165 0l-154 515h135l70 -270q4 -15 16 -89q12 63 21 88l86 271h114l87 -271q14 -44 20 -88q0 29 16 88l73 271h128l-155 -515h-123l-87 277q-13 43 -18 80q-8 -48 -18 -80l-87 -277h-124z" />
    <glyph glyph-name="x" unicode="x" horiz-adv-x="517" 
d="M8 0l180 266l-169 249h146l96 -155l95 155h142l-169 -249l180 -266h-146l-106 173l-107 -173h-142z" />
    <glyph glyph-name="y" unicode="y" horiz-adv-x="536" 
d="M61 -209v108h20q94 0 121 73l7 19l-199 524h134l106 -296q17 -46 24 -96q13 66 24 96l100 296h129l-220 -589q-51 -135 -223 -135h-23z" />
    <glyph glyph-name="z" unicode="z" horiz-adv-x="482" 
d="M23 0v103l268 304h-257v108h416v-107l-265 -300h274v-108h-436z" />
    <glyph glyph-name="braceleft" unicode="{" horiz-adv-x="344" 
d="M319 -122q-93 -8 -144.5 35.5t-51.5 137.5v123q0 58 -25.5 83.5t-76.5 25.5v95q51 0 76.5 26t25.5 84v123q0 94 51.5 137t144.5 34v-100q-39 3 -58 -18t-19 -59v-129q0 -58 -22.5 -93t-72.5 -52q50 -17 72.5 -52.5t22.5 -93.5v-129q0 -39 19 -60t58 -18v-100z" />
    <glyph glyph-name="bar" unicode="|" horiz-adv-x="252" 
d="M70 -160v904h112v-904h-112z" />
    <glyph glyph-name="braceright" unicode="}" horiz-adv-x="344" 
d="M25 -122v100q39 -3 58 18t19 60v129q0 58 22.5 93.5t72.5 52.5q-50 17 -72.5 52t-22.5 93v129q0 38 -19 59t-58 18v100q93 9 144.5 -34t51.5 -137v-123q0 -58 25.5 -84t76.5 -26v-95q-51 0 -76.5 -25.5t-25.5 -83.5v-123q0 -94 -51.5 -137.5t-144.5 -35.5z" />
    <glyph glyph-name="asciitilde" unicode="~" horiz-adv-x="435" 
d="M42 211q4 64 32 101t77 37q32 0 77 -18.5t61 -18.5q32 0 43 42h61q-1 -61 -29.5 -100t-74.5 -39q-32 0 -78 18.5t-63 18.5q-35 0 -45 -41h-61z" />
    <glyph glyph-name="nbspace" unicode="&#xa0;" horiz-adv-x="307" 
 />
    <glyph glyph-name="exclamdown" unicode="&#xa1;" horiz-adv-x="293" 
d="M78 -105l20 477h98l19 -477h-137zM76 437v138h141v-138h-141z" />
    <glyph glyph-name="cent" unicode="&#xa2;" horiz-adv-x="563" 
d="M294 -12q-27 0 -47 4l-31 -102h-73l37 123q-67 32 -107.5 97t-40.5 147q0 115 77 193t185 78q21 0 42 -3l32 106h73l-38 -126q103 -47 131 -163h-131q-11 32 -35 50l-88 -291q4 -1 14 -1q86 0 110 74h132q-20 -85 -84.5 -135.5t-157.5 -50.5zM163 256q0 -84 52 -128
l88 288h-9q-56 0 -93.5 -43.5t-37.5 -116.5z" />
    <glyph glyph-name="sterling" unicode="&#xa3;" horiz-adv-x="551" 
d="M37 285v86h60q-30 58 -30 117q0 92 61 150.5t160 58.5q102 0 166 -59.5t64 -152.5h-121q0 43 -29 71t-80 28q-47 0 -72 -27t-25 -69q0 -12 2 -24t6.5 -25l7.5 -21t10 -24.5t10 -22.5h153v-86h-127q3 -19 3 -42q0 -77 -62 -127q31 14 65 14q30 0 73 -13.5t62 -13.5
q44 0 82 33l60 -94q-55 -52 -133 -52q-37 0 -93 21t-89 21q-60 0 -116 -42l-64 91q106 74 106 155q0 25 -8 49h-102z" />
    <glyph glyph-name="yen" unicode="&#xa5;" horiz-adv-x="593" 
d="M56 265v83h133l-186 332h148l147 -284l148 284h144l-186 -332h133v-83h-175v-59h175v-83h-175v-123h-131v123h-175v83h175v59h-175z" />
    <glyph glyph-name="brokenbar" unicode="&#xa6;" horiz-adv-x="252" 
d="M70 -160v403h112v-403h-112zM70 359v385h112v-385h-112z" />
    <glyph glyph-name="section" unicode="&#xa7;" horiz-adv-x="541" 
d="M273 -83q-88 0 -144.5 44.5t-61.5 112.5h128q5 -21 25.5 -36t56.5 -15q31 0 48.5 14.5t17.5 36.5q0 24 -17 37.5t-71 24.5q-41 9 -66 15.5t-59 20.5t-53.5 30.5t-33.5 43.5t-14 61q0 77 86 120q-44 42 -44 108q0 70 53.5 116t147.5 46q91 0 146 -43t60 -114h-129
q-4 22 -24.5 36.5t-55.5 14.5t-53 -14.5t-18 -36.5q0 -24 17 -37.5t71 -24.5q41 -9 66 -15.5t59 -20.5t53.5 -30.5t33.5 -43.5t14 -61q0 -79 -87 -120q45 -42 45 -108q0 -70 -53.5 -116t-143.5 -46zM260 363q-33 6 -59 15q-47 -22 -47 -53q0 -28 27 -43.5t100 -30.5
q34 -7 59 -16q47 22 47 54q0 28 -27 43.5t-100 30.5z" />
    <glyph glyph-name="dieresis" unicode="&#xa8;" horiz-adv-x="500" 
d="M283 593v114h122v-114h-122zM95 593v114h122v-114h-122z" />
    <glyph glyph-name="copyright" unicode="&#xa9;" horiz-adv-x="774" 
d="M387 -12q-142 0 -243 104t-101 251q0 146 101 250t243 104t243 -104t101 -250q0 -147 -101 -251t-243 -104zM387 37q121 0 204.5 89t83.5 217q0 127 -83.5 216t-204.5 89t-204.5 -89t-83.5 -216q0 -128 83.5 -217t204.5 -89zM391 131q-86 0 -144.5 61.5t-58.5 150.5
q0 88 58.5 149.5t144.5 61.5q72 0 124.5 -43.5t69.5 -115.5h-117q-22 52 -76 52q-38 0 -61 -30t-23 -74t23.5 -74t60.5 -30q58 0 76 52h117q-14 -72 -68 -116t-126 -44z" />
    <glyph glyph-name="ordfeminine" unicode="&#xaa;" horiz-adv-x="477" 
d="M186 260q-62 0 -106 32.5t-44 92.5t45 88t117 38q68 9 94 21t26 37q0 41 -71 41t-86 -51h-106q9 60 60.5 99t130.5 39q91 0 135.5 -40t44.5 -106v-193q0 -47 15 -87h-106q-11 24 -13 60q-42 -71 -136 -71zM211 348q49 0 78 23t29 62v39q-31 -21 -105 -34
q-36 -6 -51.5 -16.5t-15.5 -31.5q0 -42 65 -42z" />
    <glyph glyph-name="guillemotleft" unicode="&#xab;" horiz-adv-x="490" 
d="M450 46l-193 169v89l193 169v-137l-95 -77l95 -79v-134zM225 46l-193 169v89l193 169v-137l-95 -77l95 -79v-134z" />
    <glyph glyph-name="logicalnot" unicode="&#xac;" 
d="M48 267v141h142v-141h-142z" />
    <glyph glyph-name="registered" unicode="&#xae;" horiz-adv-x="546" 
d="M273 200q-100 0 -170.5 72.5t-70.5 175.5t70.5 175.5t170.5 72.5t170.5 -72.5t70.5 -175.5t-70.5 -175.5t-170.5 -72.5zM273 252q80 0 131.5 56.5t51.5 139.5q0 82 -51.5 139t-131.5 57t-131.5 -57t-51.5 -139q0 -83 51.5 -139.5t131.5 -56.5zM168 322v254h121
q46 0 72.5 -21.5t26.5 -59.5q0 -44 -40 -59q39 -14 39 -55v-59h-77v50q0 29 -29 29h-37v-79h-76zM244 459h31q33 0 33 28t-33 28h-31v-56z" />
    <glyph glyph-name="macron" unicode="&#xaf;" horiz-adv-x="500" 
d="M118 605v87h263v-87h-263z" />
    <glyph glyph-name="degree" unicode="&#xb0;" horiz-adv-x="373" 
d="M186 385q-64 0 -108.5 45t-44.5 109q0 63 44.5 108t108.5 45t109 -45t45 -108q0 -64 -45 -109t-109 -45zM186 459q31 0 52 23t21 57q0 33 -21 56t-52 23t-52 -23t-21 -56q0 -34 21 -57t52 -23z" />
    <glyph glyph-name="plusminus" unicode="&#xb1;" 
d="M48 267v141h142v-141h-142z" />
    <glyph glyph-name="twosuperior" unicode="&#xb2;" horiz-adv-x="359" 
d="M36 272v41q0 99 123 169q26 16 42 29.5t21.5 26t6.5 17.5t1 17q0 19 -13 30t-31 11q-22 0 -35.5 -16.5t-13.5 -38.5h-98q0 53 42 94.5t109 41.5t102 -35.5t35 -85.5q0 -56 -30.5 -89t-96.5 -72q-56 -32 -59 -62h182v-78h-287z" />
    <glyph glyph-name="threesuperior" unicode="&#xb3;" horiz-adv-x="385" 
d="M191 265q-76 0 -120 39.5t-44 104.5h95q0 -61 69 -61q28 0 43.5 16t15.5 35q0 22 -15 33.5t-32 11.5h-33v78h22q18 0 31.5 13t13.5 30t-12.5 32t-35.5 15q-24 0 -38.5 -14.5t-14.5 -35.5h-96q3 56 42.5 94t109.5 38t105.5 -35.5t35.5 -81.5q0 -26 -16 -50t-42 -36
q31 -8 52.5 -37t21.5 -56q0 -51 -41 -92t-117 -41z" />
    <glyph glyph-name="acute" unicode="&#xb4;" horiz-adv-x="500" 
d="M167 593l53 147h165l-123 -147h-95z" />
    <glyph glyph-name="mu" unicode="&#xb5;" 
d="M48 267v141h142v-141h-142z" />
    <glyph glyph-name="paragraph" unicode="&#xb6;" horiz-adv-x="603" 
d="M261 -140v383h-13q-100 0 -161 61t-61 157q0 101 59.5 160t165.5 59h287v-820h-102v722h-73v-722h-102z" />
    <glyph glyph-name="periodcentered" unicode="&#xb7;" 
d="M48 267v141h142v-141h-142z" />
    <glyph glyph-name="cedilla" unicode="&#xb8;" horiz-adv-x="500" 
d="M291 0l-39 -58q11 4 26 4q36 0 62.5 -24.5t26.5 -64.5q0 -44 -33.5 -68.5t-81.5 -24.5q-44 0 -76.5 21.5t-42.5 57.5h74q10 -22 42 -22q16 0 28.5 9.5t12.5 25.5q0 17 -12 27t-29 10q-23 0 -39 -16l-38 34l51 89h68z" />
    <glyph glyph-name="onesuperior" unicode="&#xb9;" horiz-adv-x="287" 
d="M137 272v259h-89v68q48 1 79.5 22t33.5 59h75v-408h-99z" />
    <glyph glyph-name="ordmasculine" unicode="&#xba;" horiz-adv-x="473" 
d="M236 261q-87 0 -148.5 62t-61.5 154t61.5 154t148.5 62t149 -62t62 -154q0 -93 -61.5 -154.5t-149.5 -61.5zM236 353q44 0 74 33.5t30 89.5q0 57 -30 91t-74 34t-73.5 -34t-29.5 -91q0 -56 29.5 -89.5t73.5 -33.5z" />
    <glyph glyph-name="guillemotright" unicode="&#xbb;" horiz-adv-x="490" 
d="M265 46v137l95 77l-95 79v134l193 -169v-89zM40 46v137l95 77l-95 79v134l193 -169v-89z" />
    <glyph glyph-name="onequarter" unicode="&#xbc;" horiz-adv-x="897" 
d="M719 0v78h-194v78l177 252h105v-256h64v-74h-64v-78h-88zM187 0l373 680h101l-373 -680h-101zM137 272v259h-89v68q48 1 79.5 22t33.5 59h75v-408h-99zM615 152h104v156z" />
    <glyph glyph-name="onehalf" unicode="&#xbd;" horiz-adv-x="885" 
d="M562 0v41q0 95 123 169q26 16 42 29.5t21.5 26t6.5 17.5t1 17q0 19 -13 30t-31 11q-22 0 -35.5 -16.5t-13.5 -38.5h-98q0 53 42 94.5t109 41.5t102 -35.5t35 -85.5q0 -56 -30.5 -89t-96.5 -72q-56 -32 -59 -62h182v-78h-287zM187 0l373 680h101l-373 -680h-101zM137 272
v259h-89v68q48 1 79.5 22t33.5 59h75v-408h-99z" />
    <glyph glyph-name="threequarters" unicode="&#xbe;" horiz-adv-x="965" 
d="M787 0v78h-194v78l177 252h105v-256h64v-74h-64v-78h-88zM191 265q-76 0 -120 39.5t-44 104.5h95q0 -61 69 -61q28 0 43.5 16t15.5 35q0 22 -15 33.5t-32 11.5h-33v78h22q18 0 31.5 13t13.5 30t-12.5 32t-35.5 15q-24 0 -38.5 -14.5t-14.5 -35.5h-96q3 56 42.5 94
t109.5 38t105.5 -35.5t35.5 -81.5q0 -26 -16 -50t-42 -36q31 -8 52.5 -37t21.5 -56q0 -51 -41 -92t-117 -41zM255 0l373 680h101l-373 -680h-101zM683 152h104v156z" />
    <glyph glyph-name="questiondown" unicode="&#xbf;" horiz-adv-x="520" 
d="M263 -122q-104 0 -163.5 54t-59.5 139q0 60 27.5 98t90.5 78q70 45 70 103v22h114v-22q0 -105 -88 -168q-52 -38 -68.5 -58.5t-16.5 -52.5q0 -33 25 -56t69 -23q51 0 79 29.5t30 74.5h123q0 -95 -62.5 -156.5t-169.5 -61.5zM216 437v138h141v-138h-141z" />
    <glyph glyph-name="Agrave" unicode="&#xc0;" horiz-adv-x="650" 
d="M8 0l249 680h136l249 -680h-137l-47 136h-270l-47 -136h-133zM305 477l-79 -230h193l-79 230q-12 34 -18 67q-6 -31 -17 -67zM292 730l-123 147h165l53 -147h-95z" />
    <glyph glyph-name="Aacute" unicode="&#xc1;" horiz-adv-x="650" 
d="M8 0l249 680h136l249 -680h-137l-47 136h-270l-47 -136h-133zM305 477l-79 -230h193l-79 230q-12 34 -18 67q-6 -31 -17 -67zM269 730l53 147h165l-123 -147h-95z" />
    <glyph glyph-name="Acircumflex" unicode="&#xc2;" horiz-adv-x="650" 
d="M8 0l249 680h136l249 -680h-137l-47 136h-270l-47 -136h-133zM305 477l-79 -230h193l-79 230q-12 34 -18 67q-6 -31 -17 -67zM149 730l130 154h80l130 -154h-108l-62 71l-61 -71h-109z" />
    <glyph glyph-name="Atilde" unicode="&#xc3;" horiz-adv-x="650" 
d="M8 0l249 680h136l249 -680h-137l-47 136h-270l-47 -136h-133zM305 477l-79 -230h193l-79 230q-12 34 -18 67q-6 -31 -17 -67zM156 727q6 57 34 94t76 37q28 0 67.5 -21t52.5 -21q31 0 40 42h62q-6 -57 -33 -94t-72 -37q-28 0 -69 20.5t-54 20.5q-33 0 -42 -41h-62z" />
    <glyph glyph-name="Adieresis" unicode="&#xc4;" horiz-adv-x="650" 
d="M8 0l249 680h136l249 -680h-137l-47 136h-270l-47 -136h-133zM305 477l-79 -230h193l-79 230q-12 34 -18 67q-6 -31 -17 -67zM355 730v114h122v-114h-122zM167 730v114h122v-114h-122z" />
    <glyph glyph-name="Aring" unicode="&#xc5;" horiz-adv-x="650" 
d="M8 0l249 680h136l249 -680h-137l-47 136h-270l-47 -136h-133zM305 477l-79 -230h193l-79 230q-12 34 -18 67q-6 -31 -17 -67zM322 722q-45 0 -77 31t-32 75t32 75.5t77 31.5t77 -31.5t32 -75.5t-32 -75t-77 -31zM322 777q20 0 34 15t14 36t-14 36t-34 15t-34 -15t-14 -36
t14 -36t34 -15z" />
    <glyph glyph-name="AE" unicode="&#xc6;" horiz-adv-x="942" 
d="M8 0l263 680h628v-118h-348v-148h294v-119h-294v-176h355v-119h-484v136h-228l-52 -136h-134zM358 562l-121 -315h185v315h-64z" />
    <glyph glyph-name="Ccedilla" unicode="&#xc7;" horiz-adv-x="698" 
d="M669 216q-26 -105 -99.5 -164.5t-184.5 -63.5l-31 -46q11 4 26 4q36 0 62.5 -24.5t26.5 -64.5q0 -44 -33.5 -68.5t-81.5 -24.5q-44 0 -76.5 21.5t-42.5 57.5h74q10 -22 42 -22q16 0 28.5 9.5t12.5 25.5q0 17 -12 27t-29 10q-23 0 -39 -16l-38 34l46 81
q-125 17 -205.5 115.5t-80.5 235.5q0 149 96.5 251.5t236.5 102.5q117 0 196 -60.5t105 -165.5h-137q-22 53 -58.5 81.5t-104.5 28.5q-86 0 -142.5 -63.5t-56.5 -174.5q0 -112 57.5 -175.5t144.5 -63.5q120 0 160 112h138z" />
    <glyph glyph-name="Egrave" unicode="&#xc8;" horiz-adv-x="585" 
d="M65 0v680h477v-118h-348v-148h294v-119h-294v-176h355v-119h-484zM268 730l-123 147h165l53 -147h-95z" />
    <glyph glyph-name="Eacute" unicode="&#xc9;" horiz-adv-x="585" 
d="M65 0v680h477v-118h-348v-148h294v-119h-294v-176h355v-119h-484zM245 730l53 147h165l-123 -147h-95z" />
    <glyph glyph-name="Ecircumflex" unicode="&#xca;" horiz-adv-x="585" 
d="M65 0v680h477v-118h-348v-148h294v-119h-294v-176h355v-119h-484zM125 730l130 154h80l130 -154h-108l-62 71l-61 -71h-109z" />
    <glyph glyph-name="Edieresis" unicode="&#xcb;" horiz-adv-x="585" 
d="M65 0v680h477v-118h-348v-148h294v-119h-294v-176h355v-119h-484zM331 730v114h122v-114h-122zM143 730v114h122v-114h-122z" />
    <glyph glyph-name="Igrave" unicode="&#xcc;" horiz-adv-x="266" 
d="M68 0v680h130v-680h-130zM103 730l-123 147h165l53 -147h-95z" />
    <glyph glyph-name="Iacute" unicode="&#xcd;" horiz-adv-x="266" 
d="M68 0v680h130v-680h-130zM80 730l53 147h165l-123 -147h-95z" />
    <glyph glyph-name="Icircumflex" unicode="&#xce;" horiz-adv-x="266" 
d="M68 0v680h130v-680h-130zM-40 730l130 154h80l130 -154h-108l-62 71l-61 -71h-109z" />
    <glyph glyph-name="Idieresis" unicode="&#xcf;" horiz-adv-x="266" 
d="M68 0v680h130v-680h-130zM166 730v114h122v-114h-122zM-22 730v114h122v-114h-122z" />
    <glyph glyph-name="Eth" unicode="&#xd0;" horiz-adv-x="674" 
d="M7 285v119h68v276h244q147 0 234 -91.5t87 -248.5q0 -155 -88 -247.5t-233 -92.5h-244v285h-68zM204 119h115q45 0 80 15.5t55 38.5t32.5 54.5t16.5 58.5t4 55q0 41 -8.5 77t-28 70t-58.5 54t-93 20h-115v-158h170v-119h-170v-166z" />
    <glyph glyph-name="Ntilde" unicode="&#xd1;" horiz-adv-x="682" 
d="M65 0v680h147l285 -484v484h120v-680h-146l-286 484v-484h-120zM178 727q6 57 34 94t76 37q28 0 67.5 -21t52.5 -21q31 0 40 42h62q-6 -57 -33 -94t-72 -37q-28 0 -69 20.5t-54 20.5q-33 0 -42 -41h-62z" />
    <glyph glyph-name="Ograve" unicode="&#xd2;" horiz-adv-x="734" 
d="M368 -12q-144 0 -239 102t-95 253q0 150 95 252t239 102q143 0 237.5 -102t94.5 -252q0 -151 -94.5 -253t-237.5 -102zM368 104q85 0 141.5 63.5t56.5 175.5q0 111 -56.5 174.5t-141.5 63.5q-86 0 -143 -63.5t-57 -174.5q0 -112 56.5 -175.5t143.5 -63.5zM338 730
l-123 147h165l53 -147h-95z" />
    <glyph glyph-name="Oacute" unicode="&#xd3;" horiz-adv-x="734" 
d="M368 -12q-144 0 -239 102t-95 253q0 150 95 252t239 102q143 0 237.5 -102t94.5 -252q0 -151 -94.5 -253t-237.5 -102zM368 104q85 0 141.5 63.5t56.5 175.5q0 111 -56.5 174.5t-141.5 63.5q-86 0 -143 -63.5t-57 -174.5q0 -112 56.5 -175.5t143.5 -63.5zM315 730l53 147
h165l-123 -147h-95z" />
    <glyph glyph-name="Ocircumflex" unicode="&#xd4;" horiz-adv-x="734" 
d="M368 -12q-144 0 -239 102t-95 253q0 150 95 252t239 102q143 0 237.5 -102t94.5 -252q0 -151 -94.5 -253t-237.5 -102zM368 104q85 0 141.5 63.5t56.5 175.5q0 111 -56.5 174.5t-141.5 63.5q-86 0 -143 -63.5t-57 -174.5q0 -112 56.5 -175.5t143.5 -63.5zM195 730
l130 154h80l130 -154h-108l-62 71l-61 -71h-109z" />
    <glyph glyph-name="Otilde" unicode="&#xd5;" horiz-adv-x="734" 
d="M368 -12q-144 0 -239 102t-95 253q0 150 95 252t239 102q143 0 237.5 -102t94.5 -252q0 -151 -94.5 -253t-237.5 -102zM368 104q85 0 141.5 63.5t56.5 175.5q0 111 -56.5 174.5t-141.5 63.5q-86 0 -143 -63.5t-57 -174.5q0 -112 56.5 -175.5t143.5 -63.5zM202 727
q6 57 34 94t76 37q28 0 67.5 -21t52.5 -21q31 0 40 42h62q-6 -57 -33 -94t-72 -37q-28 0 -69 20.5t-54 20.5q-33 0 -42 -41h-62z" />
    <glyph glyph-name="Odieresis" unicode="&#xd6;" horiz-adv-x="734" 
d="M368 -12q-144 0 -239 102t-95 253q0 150 95 252t239 102q143 0 237.5 -102t94.5 -252q0 -151 -94.5 -253t-237.5 -102zM368 104q85 0 141.5 63.5t56.5 175.5q0 111 -56.5 174.5t-141.5 63.5q-86 0 -143 -63.5t-57 -174.5q0 -112 56.5 -175.5t143.5 -63.5zM401 730v114
h122v-114h-122zM213 730v114h122v-114h-122z" />
    <glyph glyph-name="multiply" unicode="&#xd7;" horiz-adv-x="490" 
d="M117 92l-73 73l128 130l-128 130l73 73l128 -130l128 130l73 -73l-129 -130l129 -130l-73 -73l-128 129z" />
    <glyph glyph-name="Oslash" unicode="&#xd8;" horiz-adv-x="734" 
d="M74 -32l-57 53l89 95q-72 95 -72 227q0 150 95 252t239 102q121 0 210 -76l82 88l57 -52l-86 -93q69 -94 69 -221q0 -151 -94.5 -253t-237.5 -102q-118 0 -208 72zM168 343q0 -75 27 -131l300 320q-54 49 -127 49q-86 0 -143 -63.5t-57 -174.5zM368 104q85 0 141.5 63.5
t56.5 175.5q0 72 -25 125l-298 -319q51 -45 125 -45z" />
    <glyph glyph-name="Ugrave" unicode="&#xd9;" horiz-adv-x="643" 
d="M321 -12q-127 0 -194.5 72.5t-67.5 201.5v418h130v-422q0 -154 132 -154q133 0 133 154v422h130v-418q0 -129 -68 -201.5t-195 -72.5zM291 730l-123 147h165l53 -147h-95z" />
    <glyph glyph-name="Uacute" unicode="&#xda;" horiz-adv-x="643" 
d="M321 -12q-127 0 -194.5 72.5t-67.5 201.5v418h130v-422q0 -154 132 -154q133 0 133 154v422h130v-418q0 -129 -68 -201.5t-195 -72.5zM268 730l53 147h165l-123 -147h-95z" />
    <glyph glyph-name="Ucircumflex" unicode="&#xdb;" horiz-adv-x="643" 
d="M321 -12q-127 0 -194.5 72.5t-67.5 201.5v418h130v-422q0 -154 132 -154q133 0 133 154v422h130v-418q0 -129 -68 -201.5t-195 -72.5zM148 730l130 154h80l130 -154h-108l-62 71l-61 -71h-109z" />
    <glyph glyph-name="Udieresis" unicode="&#xdc;" horiz-adv-x="643" 
d="M321 -12q-127 0 -194.5 72.5t-67.5 201.5v418h130v-422q0 -154 132 -154q133 0 133 154v422h130v-418q0 -129 -68 -201.5t-195 -72.5zM354 730v114h122v-114h-122zM166 730v114h122v-114h-122z" />
    <glyph glyph-name="Yacute" unicode="&#xdd;" horiz-adv-x="593" 
d="M231 0v261l-228 419h145l149 -294l152 294h141l-228 -419v-261h-131zM245 730l53 147h165l-123 -147h-95z" />
    <glyph glyph-name="Thorn" unicode="&#xde;" horiz-adv-x="600" 
d="M65 0v680h130v-104h134q116 0 180 -59.5t64 -160.5q0 -96 -65 -155.5t-176 -59.5h-137v-141h-130zM195 256h133q116 0 116 100q0 51 -30 77.5t-86 26.5h-133v-204z" />
    <glyph glyph-name="germandbls" unicode="&#xdf;" horiz-adv-x="594" 
d="M333 -10q-54 0 -92 16v110q36 -13 79 -13q51 0 80.5 28.5t29.5 78.5q0 51 -32.5 81t-90.5 30h-54v112h30q103 0 103 101q0 46 -26 72t-67 26q-48 0 -76.5 -33.5t-28.5 -96.5v-502h-126v506q0 108 66.5 173t168.5 65q103 0 162 -56.5t59 -145.5q0 -97 -88 -149
q63 -21 96.5 -71t33.5 -116q0 -101 -62 -158.5t-165 -57.5z" />
    <glyph glyph-name="agrave" unicode="&#xe0;" horiz-adv-x="576" 
d="M217 -11q-78 0 -132 38.5t-54 115.5q0 41 16.5 70t48.5 45.5t62 25t73 14.5q86 12 120.5 26.5t34.5 45.5q0 54 -92 54q-90 0 -108 -63h-131q12 74 74 120.5t164 46.5q219 0 219 -180v-239q0 -60 18 -109h-124q-12 27 -16 76q-50 -87 -173 -87zM247 93q62 0 100.5 28.5
t38.5 76.5v56q-36 -24 -136 -42q-46 -8 -68 -21.5t-22 -42.5q0 -55 87 -55zM264 593l-123 147h165l53 -147h-95z" />
    <glyph glyph-name="aacute" unicode="&#xe1;" horiz-adv-x="576" 
d="M217 -11q-78 0 -132 38.5t-54 115.5q0 41 16.5 70t48.5 45.5t62 25t73 14.5q86 12 120.5 26.5t34.5 45.5q0 54 -92 54q-90 0 -108 -63h-131q12 74 74 120.5t164 46.5q219 0 219 -180v-239q0 -60 18 -109h-124q-12 27 -16 76q-50 -87 -173 -87zM247 93q62 0 100.5 28.5
t38.5 76.5v56q-36 -24 -136 -42q-46 -8 -68 -21.5t-22 -42.5q0 -55 87 -55zM241 593l53 147h165l-123 -147h-95z" />
    <glyph glyph-name="acircumflex" unicode="&#xe2;" horiz-adv-x="576" 
d="M217 -11q-78 0 -132 38.5t-54 115.5q0 41 16.5 70t48.5 45.5t62 25t73 14.5q86 12 120.5 26.5t34.5 45.5q0 54 -92 54q-90 0 -108 -63h-131q12 74 74 120.5t164 46.5q219 0 219 -180v-239q0 -60 18 -109h-124q-12 27 -16 76q-50 -87 -173 -87zM247 93q62 0 100.5 28.5
t38.5 76.5v56q-36 -24 -136 -42q-46 -8 -68 -21.5t-22 -42.5q0 -55 87 -55zM121 593l130 154h80l130 -154h-108l-62 71l-61 -71h-109z" />
    <glyph glyph-name="atilde" unicode="&#xe3;" horiz-adv-x="576" 
d="M217 -11q-78 0 -132 38.5t-54 115.5q0 41 16.5 70t48.5 45.5t62 25t73 14.5q86 12 120.5 26.5t34.5 45.5q0 54 -92 54q-90 0 -108 -63h-131q12 74 74 120.5t164 46.5q219 0 219 -180v-239q0 -60 18 -109h-124q-12 27 -16 76q-50 -87 -173 -87zM247 93q62 0 100.5 28.5
t38.5 76.5v56q-36 -24 -136 -42q-46 -8 -68 -21.5t-22 -42.5q0 -55 87 -55zM128 590q6 57 34 94t76 37q28 0 67.5 -21t52.5 -21q31 0 40 42h62q-6 -57 -33 -94t-72 -37q-28 0 -69 20.5t-54 20.5q-33 0 -42 -41h-62z" />
    <glyph glyph-name="adieresis" unicode="&#xe4;" horiz-adv-x="576" 
d="M217 -11q-78 0 -132 38.5t-54 115.5q0 41 16.5 70t48.5 45.5t62 25t73 14.5q86 12 120.5 26.5t34.5 45.5q0 54 -92 54q-90 0 -108 -63h-131q12 74 74 120.5t164 46.5q219 0 219 -180v-239q0 -60 18 -109h-124q-12 27 -16 76q-50 -87 -173 -87zM247 93q62 0 100.5 28.5
t38.5 76.5v56q-36 -24 -136 -42q-46 -8 -68 -21.5t-22 -42.5q0 -55 87 -55zM327 593v114h122v-114h-122zM139 593v114h122v-114h-122z" />
    <glyph glyph-name="aring" unicode="&#xe5;" horiz-adv-x="576" 
d="M217 -11q-78 0 -132 38.5t-54 115.5q0 41 16.5 70t48.5 45.5t62 25t73 14.5q86 12 120.5 26.5t34.5 45.5q0 54 -92 54q-90 0 -108 -63h-131q12 74 74 120.5t164 46.5q219 0 219 -180v-239q0 -60 18 -109h-124q-12 27 -16 76q-50 -87 -173 -87zM247 93q62 0 100.5 28.5
t38.5 76.5v56q-36 -24 -136 -42q-46 -8 -68 -21.5t-22 -42.5q0 -55 87 -55zM294 585q-45 0 -77 31t-32 75t32 75.5t77 31.5t77 -31.5t32 -75.5t-32 -75t-77 -31zM294 640q20 0 34 15t14 36t-14 36t-34 15t-34 -15t-14 -36t14 -36t34 -15z" />
    <glyph glyph-name="ae" unicode="&#xe6;" horiz-adv-x="936" 
d="M233 -11q-86 0 -144 38.5t-58 115.5q0 41 16.5 70t48.5 45.5t62 25t73 14.5q86 12 120.5 26.5t34.5 45.5q0 54 -92 54q-90 0 -108 -63h-131q12 74 74 120.5t164 46.5q136 0 178 -75q67 75 174 75q123 0 197 -90.5t61 -225.5h-388q10 -55 47 -83.5t93 -28.5q36 0 64 16
t39 44h135q-22 -81 -85.5 -126.5t-152.5 -45.5q-67 0 -123.5 27.5t-93.5 76.5q-33 -53 -89 -78t-116 -25zM247 93q62 0 100.5 28.5t38.5 76.5v56q-36 -24 -136 -42q-46 -8 -68 -21.5t-22 -42.5q0 -55 87 -55zM645 418q-46 0 -80 -29t-47 -81h253q-10 52 -43 81t-83 29z" />
    <glyph glyph-name="ccedilla" unicode="&#xe7;" horiz-adv-x="563" 
d="M536 174q-17 -75 -70 -124t-131 -59l-33 -49q11 4 26 4q36 0 62.5 -24.5t26.5 -64.5q0 -44 -33.5 -68.5t-81.5 -24.5q-44 0 -76.5 21.5t-42.5 57.5h74q10 -22 42 -22q16 0 28.5 9.5t12.5 25.5q0 17 -12 27t-29 10q-23 0 -39 -16l-38 34l45 79q-99 10 -167 84.5t-68 182.5
q0 115 77 193t185 78q90 0 155 -51t85 -135h-131q-11 35 -40 54.5t-69 19.5q-56 0 -93.5 -43.5t-37.5 -116.5q0 -71 37.5 -113.5t93.5 -42.5q86 0 110 74h132z" />
    <glyph glyph-name="egrave" unicode="&#xe8;" horiz-adv-x="584" 
d="M551 217h-388q9 -58 45.5 -87.5t94.5 -29.5q73 0 102 48h135q-22 -77 -85 -118.5t-152 -41.5q-114 0 -192.5 76.5t-78.5 192.5t75.5 193.5t185.5 77.5q122 0 196.5 -89.5t61.5 -221.5zM293 418q-46 0 -80.5 -29.5t-46.5 -81.5h253q-10 53 -43 82t-83 29zM258 593
l-123 147h165l53 -147h-95z" />
    <glyph glyph-name="eacute" unicode="&#xe9;" horiz-adv-x="584" 
d="M551 217h-388q9 -58 45.5 -87.5t94.5 -29.5q73 0 102 48h135q-22 -77 -85 -118.5t-152 -41.5q-114 0 -192.5 76.5t-78.5 192.5t75.5 193.5t185.5 77.5q122 0 196.5 -89.5t61.5 -221.5zM293 418q-46 0 -80.5 -29.5t-46.5 -81.5h253q-10 53 -43 82t-83 29zM235 593l53 147
h165l-123 -147h-95z" />
    <glyph glyph-name="ecircumflex" unicode="&#xea;" horiz-adv-x="584" 
d="M551 217h-388q9 -58 45.5 -87.5t94.5 -29.5q73 0 102 48h135q-22 -77 -85 -118.5t-152 -41.5q-114 0 -192.5 76.5t-78.5 192.5t75.5 193.5t185.5 77.5q122 0 196.5 -89.5t61.5 -221.5zM293 418q-46 0 -80.5 -29.5t-46.5 -81.5h253q-10 53 -43 82t-83 29zM115 593l130 154
h80l130 -154h-108l-62 71l-61 -71h-109z" />
    <glyph glyph-name="edieresis" unicode="&#xeb;" horiz-adv-x="584" 
d="M551 217h-388q9 -58 45.5 -87.5t94.5 -29.5q73 0 102 48h135q-22 -77 -85 -118.5t-152 -41.5q-114 0 -192.5 76.5t-78.5 192.5t75.5 193.5t185.5 77.5q122 0 196.5 -89.5t61.5 -221.5zM293 418q-46 0 -80.5 -29.5t-46.5 -81.5h253q-10 53 -43 82t-83 29zM321 593v114h122
v-114h-122zM133 593v114h122v-114h-122z" />
    <glyph glyph-name="igrave" unicode="&#xec;" horiz-adv-x="254" 
d="M64 0v515h126v-515h-126zM97 593l-123 147h165l53 -147h-95z" />
    <glyph glyph-name="iacute" unicode="&#xed;" horiz-adv-x="254" 
d="M64 0v515h126v-515h-126zM74 593l53 147h165l-123 -147h-95z" />
    <glyph glyph-name="icircumflex" unicode="&#xee;" horiz-adv-x="254" 
d="M64 0v515h126v-515h-126zM-46 593l130 154h80l130 -154h-108l-62 71l-61 -71h-109z" />
    <glyph glyph-name="idieresis" unicode="&#xef;" horiz-adv-x="254" 
d="M64 0v515h126v-515h-126zM160 593v114h122v-114h-122zM-28 593v114h122v-114h-122z" />
    <glyph glyph-name="eth" unicode="&#xf0;" horiz-adv-x="591" 
d="M210 528l-44 54l57 46q-34 20 -76 36l34 87q67 -15 132 -50l69 55l44 -54l-51 -41q183 -139 183 -380q0 -136 -75.5 -214.5t-187.5 -78.5q-109 0 -186 73.5t-77 185.5q0 110 71 183.5t165 73.5q64 0 107 -28q-33 62 -92 111zM295 100q57 0 95 39t38 107q0 69 -38 109.5
t-95 40.5t-95 -40.5t-38 -109.5q0 -68 38 -107t95 -39z" />
    <glyph glyph-name="ntilde" unicode="&#xf1;" horiz-adv-x="575" 
d="M62 0v515h122v-81q17 44 58 69t90 25q86 0 135 -60t49 -165v-303h-126v303q0 109 -98 109q-50 0 -77 -30t-27 -79v-303h-126zM121 590q6 57 34 94t76 37q28 0 67.5 -21t52.5 -21q31 0 40 42h62q-6 -57 -33 -94t-72 -37q-28 0 -69 20.5t-54 20.5q-33 0 -42 -41h-62z" />
    <glyph glyph-name="ograve" unicode="&#xf2;" horiz-adv-x="590" 
d="M295 -12q-109 0 -186 77t-77 192q0 116 77 193.5t186 77.5t186 -77.5t77 -193.5q0 -115 -77 -192t-186 -77zM295 100q57 0 95 42.5t38 113.5q0 73 -38 116.5t-95 43.5t-95 -43.5t-38 -116.5q0 -71 38 -113.5t95 -42.5zM265 593l-123 147h165l53 -147h-95z" />
    <glyph glyph-name="oacute" unicode="&#xf3;" horiz-adv-x="590" 
d="M295 -12q-109 0 -186 77t-77 192q0 116 77 193.5t186 77.5t186 -77.5t77 -193.5q0 -115 -77 -192t-186 -77zM295 100q57 0 95 42.5t38 113.5q0 73 -38 116.5t-95 43.5t-95 -43.5t-38 -116.5q0 -71 38 -113.5t95 -42.5zM242 593l53 147h165l-123 -147h-95z" />
    <glyph glyph-name="ocircumflex" unicode="&#xf4;" horiz-adv-x="590" 
d="M295 -12q-109 0 -186 77t-77 192q0 116 77 193.5t186 77.5t186 -77.5t77 -193.5q0 -115 -77 -192t-186 -77zM295 100q57 0 95 42.5t38 113.5q0 73 -38 116.5t-95 43.5t-95 -43.5t-38 -116.5q0 -71 38 -113.5t95 -42.5zM122 593l130 154h80l130 -154h-108l-62 71l-61 -71
h-109z" />
    <glyph glyph-name="otilde" unicode="&#xf5;" horiz-adv-x="590" 
d="M295 -12q-109 0 -186 77t-77 192q0 116 77 193.5t186 77.5t186 -77.5t77 -193.5q0 -115 -77 -192t-186 -77zM295 100q57 0 95 42.5t38 113.5q0 73 -38 116.5t-95 43.5t-95 -43.5t-38 -116.5q0 -71 38 -113.5t95 -42.5zM129 590q6 57 34 94t76 37q28 0 67.5 -21t52.5 -21
q31 0 40 42h62q-6 -57 -33 -94t-72 -37q-28 0 -69 20.5t-54 20.5q-33 0 -42 -41h-62z" />
    <glyph glyph-name="odieresis" unicode="&#xf6;" horiz-adv-x="590" 
d="M295 -12q-109 0 -186 77t-77 192q0 116 77 193.5t186 77.5t186 -77.5t77 -193.5q0 -115 -77 -192t-186 -77zM295 100q57 0 95 42.5t38 113.5q0 73 -38 116.5t-95 43.5t-95 -43.5t-38 -116.5q0 -71 38 -113.5t95 -42.5zM328 593v114h122v-114h-122zM140 593v114h122v-114
h-122z" />
    <glyph glyph-name="divide" unicode="&#xf7;" horiz-adv-x="511" 
d="M38 245v111h435v-111h-435zM186 54v136h139v-136h-139zM186 412v136h139v-136h-139z" />
    <glyph glyph-name="oslash" unicode="&#xf8;" horiz-adv-x="590" 
d="M73 -33l-52 47l67 75q-56 72 -56 168q0 116 77 193.5t186 77.5q79 0 145 -44l75 84l53 -46l-76 -85q66 -76 66 -180q0 -115 -77 -192t-186 -77q-88 0 -157 52zM295 98q57 0 96 42.5t39 115.5q0 52 -20 89l-196 -219q34 -28 81 -28zM160 256q0 -42 12 -72l191 214
q-31 20 -68 20q-57 0 -96 -43.5t-39 -118.5z" />
    <glyph glyph-name="ugrave" unicode="&#xf9;" horiz-adv-x="575" 
d="M243 -13q-86 0 -135 60t-49 165v303h126v-303q0 -109 98 -109q50 0 77 30t27 79v303h126v-515h-122v81q-17 -44 -58 -69t-90 -25zM252 593l-123 147h165l53 -147h-95z" />
    <glyph glyph-name="uacute" unicode="&#xfa;" horiz-adv-x="575" 
d="M243 -13q-86 0 -135 60t-49 165v303h126v-303q0 -109 98 -109q50 0 77 30t27 79v303h126v-515h-122v81q-17 -44 -58 -69t-90 -25zM229 593l53 147h165l-123 -147h-95z" />
    <glyph glyph-name="ucircumflex" unicode="&#xfb;" horiz-adv-x="575" 
d="M243 -13q-86 0 -135 60t-49 165v303h126v-303q0 -109 98 -109q50 0 77 30t27 79v303h126v-515h-122v81q-17 -44 -58 -69t-90 -25zM109 593l130 154h80l130 -154h-108l-62 71l-61 -71h-109z" />
    <glyph glyph-name="udieresis" unicode="&#xfc;" horiz-adv-x="575" 
d="M243 -13q-86 0 -135 60t-49 165v303h126v-303q0 -109 98 -109q50 0 77 30t27 79v303h126v-515h-122v81q-17 -44 -58 -69t-90 -25zM315 593v114h122v-114h-122zM127 593v114h122v-114h-122z" />
    <glyph glyph-name="yacute" unicode="&#xfd;" horiz-adv-x="536" 
d="M61 -209v108h20q94 0 121 73l7 19l-199 524h134l106 -296q17 -46 24 -96q13 66 24 96l100 296h129l-220 -589q-51 -135 -223 -135h-23zM215 593l53 147h165l-123 -147h-95z" />
    <glyph glyph-name="thorn" unicode="&#xfe;" horiz-adv-x="616" 
d="M62 -209v953h126v-303q21 37 62 62t98 25q96 0 166 -78t70 -193q0 -116 -68.5 -192.5t-167.5 -76.5q-55 0 -97 24.5t-63 61.5v-283h-126zM321 100q57 0 95 42.5t38 113.5q0 73 -38 116.5t-95 43.5t-95 -43.5t-38 -116.5q0 -71 38 -113.5t95 -42.5z" />
    <glyph glyph-name="ydieresis" unicode="&#xff;" horiz-adv-x="536" 
d="M61 -209v108h20q94 0 121 73l7 19l-199 524h134l106 -296q17 -46 24 -96q13 66 24 96l100 296h129l-220 -589q-51 -135 -223 -135h-23zM301 593v114h122v-114h-122zM113 593v114h122v-114h-122z" />
    <glyph glyph-name="Amacron" unicode="&#x100;" horiz-adv-x="650" 
d="M8 0l249 680h136l249 -680h-137l-47 136h-270l-47 -136h-133zM305 477l-79 -230h193l-79 230q-12 34 -18 67q-6 -31 -17 -67zM189 742v87h263v-87h-263z" />
    <glyph glyph-name="amacron" unicode="&#x101;" horiz-adv-x="576" 
d="M217 -11q-78 0 -132 38.5t-54 115.5q0 41 16.5 70t48.5 45.5t62 25t73 14.5q86 12 120.5 26.5t34.5 45.5q0 54 -92 54q-90 0 -108 -63h-131q12 74 74 120.5t164 46.5q219 0 219 -180v-239q0 -60 18 -109h-124q-12 27 -16 76q-50 -87 -173 -87zM247 93q62 0 100.5 28.5
t38.5 76.5v56q-36 -24 -136 -42q-46 -8 -68 -21.5t-22 -42.5q0 -55 87 -55zM161 605v87h263v-87h-263z" />
    <glyph glyph-name="Abreve" unicode="&#x102;" horiz-adv-x="650" 
d="M8 0l249 680h136l249 -680h-137l-47 136h-270l-47 -136h-133zM305 477l-79 -230h193l-79 230q-12 34 -18 67q-6 -31 -17 -67zM322 728q-64 0 -104 41.5t-44 101.5h73q13 -54 75 -54t75 54h73q-4 -60 -44 -101.5t-104 -41.5z" />
    <glyph glyph-name="abreve" unicode="&#x103;" horiz-adv-x="576" 
d="M217 -11q-78 0 -132 38.5t-54 115.5q0 41 16.5 70t48.5 45.5t62 25t73 14.5q86 12 120.5 26.5t34.5 45.5q0 54 -92 54q-90 0 -108 -63h-131q12 74 74 120.5t164 46.5q219 0 219 -180v-239q0 -60 18 -109h-124q-12 27 -16 76q-50 -87 -173 -87zM247 93q62 0 100.5 28.5
t38.5 76.5v56q-36 -24 -136 -42q-46 -8 -68 -21.5t-22 -42.5q0 -55 87 -55zM294 591q-64 0 -104 41.5t-44 101.5h73q13 -54 75 -54t75 54h73q-4 -60 -44 -101.5t-104 -41.5z" />
    <glyph glyph-name="Aogonek" unicode="&#x104;" horiz-adv-x="650" 
d="M555 -236q-48 0 -83.5 26t-35.5 71q0 76 114 139h-45l-47 136h-270l-47 -136h-133l249 680h136l249 -680h-24q-94 -77 -94 -137q0 -36 32 -36q30 0 40 22h76q-23 -85 -117 -85zM305 477l-79 -230h193l-79 230q-8 20 -18 66z" />
    <glyph glyph-name="aogonek" unicode="&#x105;" horiz-adv-x="576" 
d="M447 -236q-48 0 -83.5 26t-35.5 71q0 76 114 139h-36q-12 27 -16 76q-50 -87 -173 -87q-78 0 -132 38.5t-54 115.5q0 41 16.5 70t48.5 45.5t62 25t73 14.5q86 12 120.5 26.5t34.5 45.5q0 54 -92 54q-90 0 -108 -63h-131q12 74 74 120.5t164 46.5q219 0 219 -180v-239
q0 -60 18 -109h-20q-94 -77 -94 -137q0 -36 32 -36q30 0 40 22h76q-23 -85 -117 -85zM247 93q62 0 100.5 28.5t38.5 76.5v56q-36 -24 -136 -42q-46 -8 -68 -21.5t-22 -42.5q0 -55 87 -55z" />
    <glyph glyph-name="Cacute" unicode="&#x106;" horiz-adv-x="698" 
d="M370 -12q-144 0 -240 102t-96 253q0 149 96.5 251.5t236.5 102.5q117 0 196 -60.5t105 -165.5h-137q-22 53 -58.5 81.5t-104.5 28.5q-86 0 -142.5 -63.5t-56.5 -174.5q0 -112 57.5 -175.5t144.5 -63.5q120 0 160 112h138q-27 -108 -105 -168t-194 -60zM316 730l53 147
h165l-123 -147h-95z" />
    <glyph glyph-name="cacute" unicode="&#x107;" horiz-adv-x="563" 
d="M294 -12q-108 0 -185 77t-77 192t77 193t185 78q90 0 155 -51t85 -135h-131q-11 35 -40 54.5t-69 19.5q-56 0 -93.5 -43.5t-37.5 -116.5q0 -71 37.5 -113.5t93.5 -42.5q86 0 110 74h132q-20 -85 -84.5 -135.5t-157.5 -50.5zM235 593l53 147h165l-123 -147h-95z" />
    <glyph glyph-name="Ccircumflex" unicode="&#x108;" horiz-adv-x="698" 
d="M370 -12q-144 0 -240 102t-96 253q0 149 96.5 251.5t236.5 102.5q117 0 196 -60.5t105 -165.5h-137q-22 53 -58.5 81.5t-104.5 28.5q-86 0 -142.5 -63.5t-56.5 -174.5q0 -112 57.5 -175.5t144.5 -63.5q120 0 160 112h138q-27 -108 -105 -168t-194 -60zM196 730l130 154
h80l130 -154h-108l-62 71l-61 -71h-109z" />
    <glyph glyph-name="ccircumflex" unicode="&#x109;" horiz-adv-x="563" 
d="M294 -12q-108 0 -185 77t-77 192t77 193t185 78q90 0 155 -51t85 -135h-131q-11 35 -40 54.5t-69 19.5q-56 0 -93.5 -43.5t-37.5 -116.5q0 -71 37.5 -113.5t93.5 -42.5q86 0 110 74h132q-20 -85 -84.5 -135.5t-157.5 -50.5zM115 593l130 154h80l130 -154h-108l-62 71
l-61 -71h-109z" />
    <glyph glyph-name="Ccaron" unicode="&#x10c;" horiz-adv-x="698" 
d="M370 -12q-144 0 -240 102t-96 253q0 149 96.5 251.5t236.5 102.5q117 0 196 -60.5t105 -165.5h-137q-22 53 -58.5 81.5t-104.5 28.5q-86 0 -142.5 -63.5t-56.5 -174.5q0 -112 57.5 -175.5t144.5 -63.5q120 0 160 112h138q-27 -108 -105 -168t-194 -60zM331 727l-130 154
h108l62 -71l61 71h109l-130 -154h-80z" />
    <glyph glyph-name="ccaron" unicode="&#x10d;" horiz-adv-x="563" 
d="M294 -12q-108 0 -185 77t-77 192t77 193t185 78q90 0 155 -51t85 -135h-131q-11 35 -40 54.5t-69 19.5q-56 0 -93.5 -43.5t-37.5 -116.5q0 -71 37.5 -113.5t93.5 -42.5q86 0 110 74h132q-20 -85 -84.5 -135.5t-157.5 -50.5zM250 590l-130 154h108l62 -71l61 71h109
l-130 -154h-80z" />
    <glyph glyph-name="Dcaron" unicode="&#x10e;" horiz-adv-x="664" 
d="M65 0v680h244q147 0 234 -91.5t87 -248.5q0 -155 -88 -247.5t-233 -92.5h-244zM194 119h115q45 0 80 15.5t55 38.5t32.5 54.5t16.5 58.5t4 55q0 41 -8.5 77t-28 70t-58.5 54t-93 20h-115v-443zM254 727l-130 154h108l62 -71l61 71h109l-130 -154h-80z" />
    <glyph glyph-name="dcaron" unicode="&#x10f;" horiz-adv-x="698" 
d="M268 -12q-99 0 -167.5 76.5t-68.5 192.5q0 115 70 193t166 78q57 0 98 -25t62 -62v303h126v-744h-122v81q-20 -41 -64 -67t-100 -26zM295 100q57 0 95 42.5t38 113.5q0 73 -38 116.5t-95 43.5t-95 -43.5t-38 -116.5q0 -71 38 -113.5t95 -42.5zM603 475v64q63 0 63 62v9
h-63v134h135v-142q0 -61 -36.5 -94t-98.5 -33z" />
    <glyph glyph-name="Dcroat" unicode="&#x110;" horiz-adv-x="674" 
d="M7 285v119h68v276h244q147 0 234 -91.5t87 -248.5q0 -155 -88 -247.5t-233 -92.5h-244v285h-68zM204 119h115q45 0 80 15.5t55 38.5t32.5 54.5t16.5 58.5t4 55q0 41 -8.5 77t-28 70t-58.5 54t-93 20h-115v-158h170v-119h-170v-166z" />
    <glyph glyph-name="dcroat" unicode="&#x111;" horiz-adv-x="616" 
d="M318 573v98h110v73h126v-73h59v-98h-59v-573h-122v81q-20 -41 -64 -67t-100 -26q-99 0 -167.5 76.5t-68.5 192.5q0 115 70 193t166 78q57 0 98 -25t62 -62v132h-110zM295 100q57 0 95 42.5t38 113.5q0 73 -38 116.5t-95 43.5t-95 -43.5t-38 -116.5q0 -71 38 -113.5
t95 -42.5z" />
    <glyph glyph-name="Emacron" unicode="&#x112;" horiz-adv-x="585" 
d="M65 0v680h477v-118h-348v-148h294v-119h-294v-176h355v-119h-484zM165 742v87h263v-87h-263z" />
    <glyph glyph-name="emacron" unicode="&#x113;" horiz-adv-x="584" 
d="M551 217h-388q9 -58 45.5 -87.5t94.5 -29.5q73 0 102 48h135q-22 -77 -85 -118.5t-152 -41.5q-114 0 -192.5 76.5t-78.5 192.5t75.5 193.5t185.5 77.5q122 0 196.5 -89.5t61.5 -221.5zM293 418q-46 0 -80.5 -29.5t-46.5 -81.5h253q-10 53 -43 82t-83 29zM155 605v87h263
v-87h-263z" />
    <glyph glyph-name="Edotaccent" unicode="&#x116;" horiz-adv-x="585" 
d="M65 0v680h477v-118h-348v-148h294v-119h-294v-176h355v-119h-484zM237 730v114h122v-114h-122z" />
    <glyph glyph-name="edotaccent" unicode="&#x117;" horiz-adv-x="584" 
d="M551 217h-388q9 -58 45.5 -87.5t94.5 -29.5q73 0 102 48h135q-22 -77 -85 -118.5t-152 -41.5q-114 0 -192.5 76.5t-78.5 192.5t75.5 193.5t185.5 77.5q122 0 196.5 -89.5t61.5 -221.5zM293 418q-46 0 -80.5 -29.5t-46.5 -81.5h253q-10 53 -43 82t-83 29zM227 593v114h122
v-114h-122z" />
    <glyph glyph-name="Eogonek" unicode="&#x118;" horiz-adv-x="585" 
d="M65 0v680h477v-118h-348v-148h294v-119h-294v-176h355v-119h-19q-94 -77 -94 -137q0 -36 32 -36q30 0 40 22h76q-23 -85 -117 -85q-48 0 -83.5 26t-35.5 71q0 76 114 139h-397z" />
    <glyph glyph-name="eogonek" unicode="&#x119;" horiz-adv-x="584" 
d="M551 217h-388q9 -58 45.5 -87.5t94.5 -29.5q73 0 102 48h135q-19 -67 -70 -107.5t-124 -49.5q-82 -72 -82 -128q0 -36 32 -36q30 0 40 22h76q-23 -85 -125 -85q-47 0 -79 25.5t-32 71.5q0 70 96 129q-103 10 -171.5 84.5t-68.5 182.5q0 116 75.5 193.5t185.5 77.5
q122 0 196.5 -89.5t61.5 -221.5zM293 418q-46 0 -80.5 -29.5t-46.5 -81.5h253q-10 53 -43 82t-83 29z" />
    <glyph glyph-name="Ecaron" unicode="&#x11a;" horiz-adv-x="585" 
d="M65 0v680h477v-118h-348v-148h294v-119h-294v-176h355v-119h-484zM260 727l-130 154h108l62 -71l61 71h109l-130 -154h-80z" />
    <glyph glyph-name="ecaron" unicode="&#x11b;" horiz-adv-x="584" 
d="M551 217h-388q9 -58 45.5 -87.5t94.5 -29.5q73 0 102 48h135q-22 -77 -85 -118.5t-152 -41.5q-114 0 -192.5 76.5t-78.5 192.5t75.5 193.5t185.5 77.5q122 0 196.5 -89.5t61.5 -221.5zM293 418q-46 0 -80.5 -29.5t-46.5 -81.5h253q-10 53 -43 82t-83 29zM250 590
l-130 154h108l62 -71l61 71h109l-130 -154h-80z" />
    <glyph glyph-name="Gcircumflex" unicode="&#x11c;" horiz-adv-x="737" 
d="M363 -12q-139 0 -234 102.5t-95 252.5t95.5 252t239.5 102q119 0 197 -59t106 -157h-139q-17 44 -60.5 72t-103.5 28q-86 0 -143.5 -63.5t-57.5 -174.5q0 -112 57 -176.5t143 -64.5q83 0 133 43t64 110h-182v114h303v-369h-120v88q-26 -44 -80 -72t-123 -28zM197 730
l130 154h80l130 -154h-108l-62 71l-61 -71h-109z" />
    <glyph glyph-name="gcircumflex" unicode="&#x11d;" horiz-adv-x="616" 
d="M295 -222q-113 0 -179.5 51t-73.5 123h137q8 -28 38 -45.5t78 -17.5q133 0 133 150v43q-21 -37 -63 -61.5t-97 -24.5q-99 0 -167.5 75.5t-68.5 189.5t70 190.5t166 76.5q57 0 99 -26t65 -67v80h122v-474q0 -130 -68 -196.5t-191 -66.5zM295 108q57 0 95 41t38 111
q0 72 -38 114t-95 42t-95 -42t-38 -114q0 -70 38 -111t95 -41zM120 594l130 154h80l130 -154h-108l-62 71l-61 -71h-109z" />
    <glyph glyph-name="Gbreve" unicode="&#x11e;" horiz-adv-x="737" 
d="M363 -12q-139 0 -234 102.5t-95 252.5t95.5 252t239.5 102q119 0 197 -59t106 -157h-139q-17 44 -60.5 72t-103.5 28q-86 0 -143.5 -63.5t-57.5 -174.5q0 -112 57 -176.5t143 -64.5q83 0 133 43t64 110h-182v114h303v-369h-120v88q-26 -44 -80 -72t-123 -28zM370 728
q-64 0 -104 41.5t-44 101.5h73q13 -54 75 -54t75 54h73q-4 -60 -44 -101.5t-104 -41.5z" />
    <glyph glyph-name="gbreve" unicode="&#x11f;" horiz-adv-x="616" 
d="M295 -222q-113 0 -179.5 51t-73.5 123h137q8 -28 38 -45.5t78 -17.5q133 0 133 150v43q-21 -37 -63 -61.5t-97 -24.5q-99 0 -167.5 75.5t-68.5 189.5t70 190.5t166 76.5q57 0 99 -26t65 -67v80h122v-474q0 -130 -68 -196.5t-191 -66.5zM295 108q57 0 95 41t38 111
q0 72 -38 114t-95 42t-95 -42t-38 -114q0 -70 38 -111t95 -41zM293 592q-64 0 -104 41.5t-44 101.5h73q13 -54 75 -54q61 0 75 54h73q-4 -60 -44 -101.5t-104 -41.5z" />
    <glyph glyph-name="Gcommaaccent" unicode="&#x122;" horiz-adv-x="737" 
d="M363 -12q-139 0 -234 102.5t-95 252.5t95.5 252t239.5 102q119 0 197 -59t106 -157h-139q-17 44 -60.5 72t-103.5 28q-86 0 -143.5 -63.5t-57.5 -174.5q0 -112 57 -176.5t143 -64.5q83 0 133 43t64 110h-182v114h303v-369h-120v88q-26 -44 -80 -72t-123 -28zM297 -311v64
q63 0 63 62v9h-63v134h135v-142q0 -61 -36.5 -94t-98.5 -33z" />
    <glyph glyph-name="gcommaaccent" unicode="&#x123;" horiz-adv-x="616" 
d="M295 -222q-113 0 -179.5 51t-73.5 123h137q8 -28 38 -45.5t78 -17.5q133 0 133 150v43q-21 -37 -63 -61.5t-97 -24.5q-99 0 -167.5 75.5t-68.5 189.5t70 190.5t166 76.5q57 0 99 -26t65 -67v80h122v-474q0 -130 -68 -196.5t-191 -66.5zM295 108q57 0 95 41t38 111
q0 72 -38 114t-95 42t-95 -42t-38 -114q0 -70 38 -111t95 -41zM353 822v-64q-63 0 -63 -62v-9h63v-134h-135v142q0 61 36.5 94t98.5 33z" />
    <glyph glyph-name="Hcircumflex" unicode="&#x124;" horiz-adv-x="680" 
d="M65 0v680h130v-274h290v274h130v-680h-130v289h-290v-289h-130zM160 730l130 154h80l130 -154h-108l-62 71l-61 -71h-109z" />
    <glyph glyph-name="hcircumflex" unicode="&#x125;" horiz-adv-x="575" 
d="M62 0v744h126v-303q18 40 57.5 63.5t86.5 23.5q86 0 135 -60t49 -165v-303h-126v303q0 109 -98 109q-50 0 -77 -30t-27 -79v-303h-126zM108 773l130 154h80l130 -154h-108l-62 71l-61 -71h-109z" />
    <glyph glyph-name="Imacron" unicode="&#x12a;" horiz-adv-x="266" 
d="M68 0v680h130v-680h-130zM0 742v87h263v-87h-263z" />
    <glyph glyph-name="imacron" unicode="&#x12b;" horiz-adv-x="254" 
d="M64 0v515h126v-515h-126zM-6 605v87h263v-87h-263z" />
    <glyph glyph-name="Iogonek" unicode="&#x12e;" horiz-adv-x="266" 
d="M68 0v680h130v-680h4q-94 -77 -94 -137q0 -36 32 -36q30 0 40 22h76q-23 -85 -117 -85q-48 0 -83.5 26t-35.5 71q0 76 114 139h-66z" />
    <glyph glyph-name="iogonek" unicode="&#x12f;" horiz-adv-x="254" 
d="M64 0v515h126v-515h-2q-94 -77 -94 -137q0 -36 32 -36q30 0 40 22h76q-23 -85 -117 -85q-48 0 -83.5 26t-35.5 71q0 76 114 139h-56zM61 589v125h132v-125h-132z" />
    <glyph glyph-name="Idotaccent" unicode="&#x130;" horiz-adv-x="266" 
d="M68 0v680h130v-680h-130zM72 730v114h122v-114h-122z" />
    <glyph glyph-name="dotlessi" unicode="&#x131;" horiz-adv-x="254" 
d="M64 0v515h126v-515h-126z" />
    <glyph glyph-name="Jcircumflex" unicode="&#x134;" horiz-adv-x="521" 
d="M244 -10q-102 0 -163.5 58.5t-61.5 155.5v37h129v-41q0 -40 24 -66t70 -26q44 0 67 26.5t23 67.5v478h131v-474q0 -97 -59 -156.5t-160 -59.5zM226 730l130 154h80l130 -154h-108l-62 71l-61 -71h-109z" />
    <glyph glyph-name="jcircumflex" unicode="&#x135;" horiz-adv-x="254" 
d="M-30 -209v107h17q77 0 77 72v545h126v-546q0 -89 -55 -133.5t-144 -44.5h-21zM-46 593l130 154h80l130 -154h-108l-62 71l-61 -71h-109z" />
    <glyph glyph-name="Kcommaaccent" unicode="&#x136;" horiz-adv-x="637" 
d="M470 0l-203 299l-72 -77v-222h-130v680h130v-296l269 296h157l-261 -281l269 -399h-159zM246 -311v64q63 0 63 62v9h-63v134h135v-142q0 -61 -36.5 -94t-98.5 -33z" />
    <glyph glyph-name="kcommaaccent" unicode="&#x137;" horiz-adv-x="541" 
d="M389 0l-139 216l-62 -68v-148h-126v744h126v-441l189 212h146l-191 -209l200 -306h-143zM203 -311v64q63 0 63 62v9h-63v134h135v-142q0 -61 -36.5 -94t-98.5 -33z" />
    <glyph glyph-name="Lacute" unicode="&#x139;" horiz-adv-x="539" 
d="M65 0v680h130v-563h319v-117h-449zM76 730l53 147h165l-123 -147h-95z" />
    <glyph glyph-name="lacute" unicode="&#x13a;" horiz-adv-x="254" 
d="M64 0v744h126v-744h-126zM74 773l53 147h165l-123 -147h-95z" />
    <glyph glyph-name="Lcommaaccent" unicode="&#x13b;" horiz-adv-x="539" 
d="M65 0v680h130v-563h319v-117h-449zM204 -311v64q63 0 63 62v9h-63v134h135v-142q0 -61 -36.5 -94t-98.5 -33z" />
    <glyph glyph-name="lcommaaccent" unicode="&#x13c;" horiz-adv-x="254" 
d="M64 0v744h126v-744h-126zM55 -351v64q63 0 63 62v9h-63v134h135v-142q0 -61 -36.5 -94t-98.5 -33z" />
    <glyph glyph-name="Lcaron" unicode="&#x13d;" horiz-adv-x="539" 
d="M65 0v680h130v-563h319v-117h-449zM366 411v64q63 0 63 62v9h-63v134h135v-142q0 -61 -36.5 -94t-98.5 -33z" />
    <glyph glyph-name="lcaron" unicode="&#x13e;" horiz-adv-x="334" 
d="M239 475v64q63 0 63 62v9h-63v134h135v-142q0 -61 -36.5 -94t-98.5 -33zM64 0v744h126v-744h-126z" />
    <glyph glyph-name="Lslash" unicode="&#x141;" horiz-adv-x="559" 
d="M17 184v102l68 32v362h130v-301l159 76v-102l-159 -76v-160h319v-117h-449v216z" />
    <glyph glyph-name="lslash" unicode="&#x142;" horiz-adv-x="294" 
d="M12 231v94l72 39v380h126v-310l82 45v-94l-82 -45v-340h-126v270z" />
    <glyph glyph-name="Nacute" unicode="&#x143;" horiz-adv-x="682" 
d="M65 0v680h147l285 -484v484h120v-680h-146l-286 484v-484h-120zM291 730l53 147h165l-123 -147h-95z" />
    <glyph glyph-name="nacute" unicode="&#x144;" horiz-adv-x="575" 
d="M62 0v515h122v-81q17 44 58 69t90 25q86 0 135 -60t49 -165v-303h-126v303q0 109 -98 109q-50 0 -77 -30t-27 -79v-303h-126zM234 593l53 147h165l-123 -147h-95z" />
    <glyph glyph-name="Ncommaaccent" unicode="&#x145;" horiz-adv-x="682" 
d="M65 0v680h147l285 -484v484h120v-680h-146l-286 484v-484h-120zM251 -311v64q63 0 63 62v9h-63v134h135v-142q0 -61 -36.5 -94t-98.5 -33z" />
    <glyph glyph-name="ncommaaccent" unicode="&#x146;" horiz-adv-x="575" 
d="M62 0v515h122v-81q17 44 58 69t90 25q86 0 135 -60t49 -165v-303h-126v303q0 109 -98 109q-50 0 -77 -30t-27 -79v-303h-126zM216 -311v64q63 0 63 62v9h-63v134h135v-142q0 -61 -36.5 -94t-98.5 -33z" />
    <glyph glyph-name="Ncaron" unicode="&#x147;" horiz-adv-x="682" 
d="M65 0v680h147l285 -484v484h120v-680h-146l-286 484v-484h-120zM306 727l-130 154h108l62 -71l61 71h109l-130 -154h-80z" />
    <glyph glyph-name="ncaron" unicode="&#x148;" horiz-adv-x="575" 
d="M62 0v515h122v-81q17 44 58 69t90 25q86 0 135 -60t49 -165v-303h-126v303q0 109 -98 109q-50 0 -77 -30t-27 -79v-303h-126zM249 590l-130 154h108l62 -71l61 71h109l-130 -154h-80z" />
    <glyph glyph-name="Omacron" unicode="&#x14c;" horiz-adv-x="734" 
d="M368 -12q-144 0 -239 102t-95 253q0 150 95 252t239 102q143 0 237.5 -102t94.5 -252q0 -151 -94.5 -253t-237.5 -102zM368 104q85 0 141.5 63.5t56.5 175.5q0 111 -56.5 174.5t-141.5 63.5q-86 0 -143 -63.5t-57 -174.5q0 -112 56.5 -175.5t143.5 -63.5zM235 742v87h263
v-87h-263z" />
    <glyph glyph-name="omacron" unicode="&#x14d;" horiz-adv-x="590" 
d="M295 -12q-109 0 -186 77t-77 192q0 116 77 193.5t186 77.5t186 -77.5t77 -193.5q0 -115 -77 -192t-186 -77zM295 100q57 0 95 42.5t38 113.5q0 73 -38 116.5t-95 43.5t-95 -43.5t-38 -116.5q0 -71 38 -113.5t95 -42.5zM162 605v87h263v-87h-263z" />
    <glyph glyph-name="Ohungarumlaut" unicode="&#x150;" horiz-adv-x="734" 
d="M368 -12q-144 0 -239 102t-95 253q0 150 95 252t239 102q143 0 237.5 -102t94.5 -252q0 -151 -94.5 -253t-237.5 -102zM368 104q85 0 141.5 63.5t56.5 175.5q0 111 -56.5 174.5t-141.5 63.5q-86 0 -143 -63.5t-57 -174.5q0 -112 56.5 -175.5t143.5 -63.5zM409 730l54 147
h133l-99 -147h-88zM225 730l54 147h133l-99 -147h-88z" />
    <glyph glyph-name="ohungarumlaut" unicode="&#x151;" horiz-adv-x="590" 
d="M295 -12q-109 0 -186 77t-77 192q0 116 77 193.5t186 77.5t186 -77.5t77 -193.5q0 -115 -77 -192t-186 -77zM295 100q57 0 95 42.5t38 113.5q0 73 -38 116.5t-95 43.5t-95 -43.5t-38 -116.5q0 -71 38 -113.5t95 -42.5zM336 593l54 147h133l-99 -147h-88zM152 593l54 147
h133l-99 -147h-88z" />
    <glyph glyph-name="OE" unicode="&#x152;" horiz-adv-x="1084" 
d="M570 0v70q-77 -82 -202 -82q-144 0 -239 102t-95 253q0 150 95 252t239 102q123 0 202 -82v65h471v-118h-348v-148h294v-119h-294v-176h355v-119h-478zM368 104q85 0 141.5 63.5t56.5 175.5q0 111 -56.5 174.5t-141.5 63.5q-86 0 -143 -63.5t-57 -174.5
q0 -112 56.5 -175.5t143.5 -63.5z" />
    <glyph glyph-name="oe" unicode="&#x153;" horiz-adv-x="981" 
d="M295 -12q-109 0 -186 77t-77 192q0 116 77 193.5t186 77.5q126 0 198 -105q71 105 197 105q123 0 197 -90.5t61 -225.5h-387q10 -55 46.5 -83.5t92.5 -28.5q36 0 64 16t39 44h135q-22 -81 -85.5 -126.5t-152.5 -45.5q-134 0 -206 105q-72 -105 -199 -105zM295 100
q57 0 95 42.5t38 113.5q0 73 -38 116.5t-95 43.5t-95 -43.5t-38 -116.5q0 -71 38 -113.5t95 -42.5zM563 308h253q-10 52 -43 81t-83 29q-46 0 -80 -29t-47 -81z" />
    <glyph glyph-name="Racute" unicode="&#x154;" horiz-adv-x="656" 
d="M65 0v680h300q107 0 170 -54t63 -149q0 -111 -107 -153q45 -21 65.5 -52.5t26.5 -94.5l8 -90q3 -42 25 -87h-131q-19 34 -23 79l-8 99q-4 47 -24 67.5t-64 20.5h-172v-266h-129zM194 377h174q100 0 100 93q0 90 -103 90h-171v-183zM255 730l53 147h165l-123 -147h-95z
" />
    <glyph glyph-name="racute" unicode="&#x155;" horiz-adv-x="390" 
d="M62 0v515h126v-91q25 58 76.5 80t107.5 17v-126q-85 13 -131.5 -22t-46.5 -107v-266h-132zM165 593l53 147h165l-123 -147h-95z" />
    <glyph glyph-name="Rcommaaccent" unicode="&#x156;" horiz-adv-x="656" 
d="M65 0v680h300q107 0 170 -54t63 -149q0 -111 -107 -153q45 -21 65.5 -52.5t26.5 -94.5l8 -90q3 -42 25 -87h-131q-19 34 -23 79l-8 99q-4 47 -24 67.5t-64 20.5h-172v-266h-129zM194 377h174q100 0 100 93q0 90 -103 90h-171v-183zM262 -311v64q63 0 63 62v9h-63v134h135
v-142q0 -61 -36.5 -94t-98.5 -33z" />
    <glyph glyph-name="rcommaaccent" unicode="&#x157;" horiz-adv-x="390" 
d="M62 0v515h126v-91q25 58 76.5 80t107.5 17v-126q-85 13 -131.5 -22t-46.5 -107v-266h-132zM52 -311v64q63 0 63 62v9h-63v134h135v-142q0 -61 -36.5 -94t-98.5 -33z" />
    <glyph glyph-name="Rcaron" unicode="&#x158;" horiz-adv-x="656" 
d="M65 0v680h300q107 0 170 -54t63 -149q0 -111 -107 -153q45 -21 65.5 -52.5t26.5 -94.5l8 -90q3 -42 25 -87h-131q-19 34 -23 79l-8 99q-4 47 -24 67.5t-64 20.5h-172v-266h-129zM194 377h174q100 0 100 93q0 90 -103 90h-171v-183zM270 727l-130 154h108l62 -71l61 71
h109l-130 -154h-80z" />
    <glyph glyph-name="rcaron" unicode="&#x159;" horiz-adv-x="390" 
d="M62 0v515h126v-91q25 58 76.5 80t107.5 17v-126q-85 13 -131.5 -22t-46.5 -107v-266h-132zM180 590l-130 154h108l62 -71l61 71h109l-130 -154h-80z" />
    <glyph glyph-name="Sacute" unicode="&#x15a;" horiz-adv-x="641" 
d="M333 -12q-125 0 -208.5 61.5t-92.5 171.5h130q6 -55 47.5 -86t114.5 -31q143 0 143 86q0 43 -39 62t-137 40q-7 1 -11 2q-39 8 -65.5 16t-59 24t-52 36t-33.5 53t-14 75q0 88 67.5 143.5t180.5 55.5q126 0 193 -63.5t73 -149.5h-129q-12 97 -137 97q-55 0 -89 -20
t-34 -57q0 -39 33.5 -56t124.5 -35q45 -9 72.5 -16.5t66.5 -24t61 -38t38.5 -57.5t16.5 -83q0 -97 -69.5 -151.5t-191.5 -54.5zM254 730l53 147h165l-123 -147h-95z" />
    <glyph glyph-name="sacute" unicode="&#x15b;" horiz-adv-x="523" 
d="M267 -12q-110 0 -174.5 48t-68.5 123h126q15 -66 117 -66q45 0 73 14.5t28 39.5q0 26 -23 36t-94 23q-5 1 -7 1q-102 18 -139 39q-67 37 -67 122q0 68 56 114t158 46q93 0 150.5 -41.5t68.5 -112.5h-126q-17 50 -98 50q-42 0 -64.5 -13.5t-22.5 -35.5q0 -24 22.5 -33.5
t86.5 -20.5q6 -1 17 -3q38 -7 58 -11t52.5 -16.5t49.5 -28t30.5 -44t13.5 -65.5q0 -75 -60 -120t-163 -45zM190 593l53 147h165l-123 -147h-95z" />
    <glyph glyph-name="Scircumflex" unicode="&#x15c;" horiz-adv-x="641" 
d="M333 -12q-125 0 -208.5 61.5t-92.5 171.5h130q6 -55 47.5 -86t114.5 -31q143 0 143 86q0 43 -39 62t-137 40q-7 1 -11 2q-39 8 -65.5 16t-59 24t-52 36t-33.5 53t-14 75q0 88 67.5 143.5t180.5 55.5q126 0 193 -63.5t73 -149.5h-129q-12 97 -137 97q-55 0 -89 -20
t-34 -57q0 -39 33.5 -56t124.5 -35q45 -9 72.5 -16.5t66.5 -24t61 -38t38.5 -57.5t16.5 -83q0 -97 -69.5 -151.5t-191.5 -54.5zM134 730l130 154h80l130 -154h-108l-62 71l-61 -71h-109z" />
    <glyph glyph-name="scircumflex" unicode="&#x15d;" horiz-adv-x="523" 
d="M267 -12q-110 0 -174.5 48t-68.5 123h126q15 -66 117 -66q45 0 73 14.5t28 39.5q0 26 -23 36t-94 23q-5 1 -7 1q-102 18 -139 39q-67 37 -67 122q0 68 56 114t158 46q93 0 150.5 -41.5t68.5 -112.5h-126q-17 50 -98 50q-42 0 -64.5 -13.5t-22.5 -35.5q0 -24 22.5 -33.5
t86.5 -20.5q6 -1 17 -3q38 -7 58 -11t52.5 -16.5t49.5 -28t30.5 -44t13.5 -65.5q0 -75 -60 -120t-163 -45zM70 593l130 154h80l130 -154h-108l-62 71l-61 -71h-109z" />
    <glyph glyph-name="Scedilla" unicode="&#x15e;" horiz-adv-x="641" 
d="M594 194q0 -91 -61.5 -144.5t-171.5 -60.5l-31 -47q11 4 26 4q36 0 62.5 -24.5t26.5 -64.5q0 -44 -33.5 -68.5t-81.5 -24.5q-44 0 -76.5 21.5t-42.5 57.5h74q10 -22 42 -22q16 0 28.5 9.5t12.5 25.5q0 17 -12 27t-29 10q-23 0 -39 -16l-38 34l45 79q-110 8 -182.5 69
t-80.5 162h130q6 -55 47.5 -86t114.5 -31q143 0 143 86q0 43 -39 62t-137 40q-7 1 -11 2q-39 8 -65.5 16t-59 24t-52 36t-33.5 53t-14 75q0 88 67.5 143.5t180.5 55.5q126 0 193 -63.5t73 -149.5h-129q-12 97 -137 97q-55 0 -89 -20t-34 -57q0 -39 33.5 -56t124.5 -35
q45 -9 72.5 -16.5t66.5 -24t61 -38t38.5 -57.5t16.5 -83z" />
    <glyph glyph-name="scedilla" unicode="&#x15f;" horiz-adv-x="523" 
d="M490 153q0 -68 -49.5 -112t-136.5 -51l-38 -48q11 4 26 4q36 0 62.5 -24.5t26.5 -64.5q0 -44 -33.5 -68.5t-81.5 -24.5q-44 0 -76.5 21.5t-42.5 57.5h74q10 -22 42 -22q16 0 28.5 9.5t12.5 25.5q0 17 -12 27t-29 10q-23 0 -39 -16l-38 34l50 78q-96 7 -152.5 54
t-59.5 116h126q15 -66 117 -66q45 0 73 14.5t28 39.5q0 26 -23 36t-94 23q-5 1 -7 1q-102 18 -139 39q-67 37 -67 122q0 68 56 114t158 46q93 0 150.5 -41.5t68.5 -112.5h-126q-17 50 -98 50q-42 0 -64.5 -13.5t-22.5 -35.5q0 -24 22.5 -33.5t86.5 -20.5q6 -1 17 -3
q38 -7 58 -11t52.5 -16.5t49.5 -28t30.5 -44t13.5 -65.5z" />
    <glyph glyph-name="Scaron" unicode="&#x160;" horiz-adv-x="641" 
d="M333 -12q-125 0 -208.5 61.5t-92.5 171.5h130q6 -55 47.5 -86t114.5 -31q143 0 143 86q0 43 -39 62t-137 40q-7 1 -11 2q-39 8 -65.5 16t-59 24t-52 36t-33.5 53t-14 75q0 88 67.5 143.5t180.5 55.5q126 0 193 -63.5t73 -149.5h-129q-12 97 -137 97q-55 0 -89 -20
t-34 -57q0 -39 33.5 -56t124.5 -35q45 -9 72.5 -16.5t66.5 -24t61 -38t38.5 -57.5t16.5 -83q0 -97 -69.5 -151.5t-191.5 -54.5zM269 727l-130 154h108l62 -71l61 71h109l-130 -154h-80z" />
    <glyph glyph-name="scaron" unicode="&#x161;" horiz-adv-x="523" 
d="M267 -12q-110 0 -174.5 48t-68.5 123h126q15 -66 117 -66q45 0 73 14.5t28 39.5q0 26 -23 36t-94 23q-5 1 -7 1q-102 18 -139 39q-67 37 -67 122q0 68 56 114t158 46q93 0 150.5 -41.5t68.5 -112.5h-126q-17 50 -98 50q-42 0 -64.5 -13.5t-22.5 -35.5q0 -24 22.5 -33.5
t86.5 -20.5q6 -1 17 -3q38 -7 58 -11t52.5 -16.5t49.5 -28t30.5 -44t13.5 -65.5q0 -75 -60 -120t-163 -45zM205 590l-130 154h108l62 -71l61 71h109l-130 -154h-80z" />
    <glyph glyph-name="Tcommaaccent" unicode="&#x162;" horiz-adv-x="545" 
d="M208 0v563h-190v117h509v-117h-190v-563h-129zM200 -371v64q63 0 63 62v9h-63v134h135v-142q0 -61 -36.5 -94t-98.5 -33z" />
    <glyph glyph-name="tcommaaccent" unicode="&#x163;" horiz-adv-x="351" 
d="M275 -8q-94 0 -143.5 52.5t-49.5 155.5v209h-67v106h67v145h126v-145h112v-106h-112v-210q0 -96 81 -96q21 0 37 4v-109q-30 -6 -51 -6zM138 -311v64q63 0 63 62v9h-63v134h135v-142q0 -61 -36.5 -94t-98.5 -33z" />
    <glyph glyph-name="Tcaron" unicode="&#x164;" horiz-adv-x="545" 
d="M208 0v563h-190v117h509v-117h-190v-563h-129zM234 727l-130 154h108l62 -71l61 71h109l-130 -154h-80z" />
    <glyph glyph-name="tcaron" unicode="&#x165;" horiz-adv-x="451" 
d="M356 475v64q63 0 63 62v9h-63v134h135v-142q0 -61 -36.5 -94t-98.5 -33zM275 -8q-94 0 -143.5 52.5t-49.5 155.5v209h-67v106h67v145h126v-145h112v-106h-112v-210q0 -96 81 -96q21 0 37 4v-109q-30 -6 -51 -6z" />
    <glyph glyph-name="Umacron" unicode="&#x16a;" horiz-adv-x="643" 
d="M321 -12q-127 0 -194.5 72.5t-67.5 201.5v418h130v-422q0 -154 132 -154q133 0 133 154v422h130v-418q0 -129 -68 -201.5t-195 -72.5zM188 742v87h263v-87h-263z" />
    <glyph glyph-name="umacron" unicode="&#x16b;" horiz-adv-x="575" 
d="M243 -13q-86 0 -135 60t-49 165v303h126v-303q0 -109 98 -109q50 0 77 30t27 79v303h126v-515h-122v81q-17 -44 -58 -69t-90 -25zM149 605v87h263v-87h-263z" />
    <glyph glyph-name="Ubreve" unicode="&#x16c;" horiz-adv-x="643" 
d="M321 -12q-127 0 -194.5 72.5t-67.5 201.5v418h130v-422q0 -154 132 -154q133 0 133 154v422h130v-418q0 -129 -68 -201.5t-195 -72.5zM321 728q-64 0 -104 41.5t-44 101.5h73q13 -54 75 -54q61 0 75 54h73q-4 -60 -44 -101.5t-104 -41.5z" />
    <glyph glyph-name="ubreve" unicode="&#x16d;" horiz-adv-x="575" 
d="M243 -13q-86 0 -135 60t-49 165v303h126v-303q0 -109 98 -109q50 0 77 30t27 79v303h126v-515h-122v81q-17 -44 -58 -69t-90 -25zM282 591q-64 0 -104 41.5t-44 101.5h73q13 -54 75 -54t75 54h73q-4 -60 -44 -101.5t-104 -41.5z" />
    <glyph glyph-name="Uring" unicode="&#x16e;" horiz-adv-x="643" 
d="M321 -12q-127 0 -194.5 72.5t-67.5 201.5v418h130v-422q0 -154 132 -154q133 0 133 154v422h130v-418q0 -129 -68 -201.5t-195 -72.5zM321 722q-45 0 -77 31t-32 75t32 75.5t77 31.5t77 -31.5t32 -75.5t-32 -75t-77 -31zM321 777q20 0 34 15t14 36t-14 36t-34 15t-34 -15
t-14 -36t14 -36t34 -15z" />
    <glyph glyph-name="uring" unicode="&#x16f;" horiz-adv-x="575" 
d="M243 -13q-86 0 -135 60t-49 165v303h126v-303q0 -109 98 -109q50 0 77 30t27 79v303h126v-515h-122v81q-17 -44 -58 -69t-90 -25zM282 585q-45 0 -77 31t-32 75t32 75.5t77 31.5t77 -31.5t32 -75.5t-32 -75t-77 -31zM282 640q20 0 34 15t14 36t-14 36t-34 15t-34 -15
t-14 -36t14 -36t34 -15z" />
    <glyph glyph-name="Uhungarumlaut" unicode="&#x170;" horiz-adv-x="643" 
d="M321 -12q-127 0 -194.5 72.5t-67.5 201.5v418h130v-422q0 -154 132 -154q133 0 133 154v422h130v-418q0 -129 -68 -201.5t-195 -72.5zM362 730l54 147h133l-99 -147h-88zM178 730l54 147h133l-99 -147h-88z" />
    <glyph glyph-name="uhungarumlaut" unicode="&#x171;" horiz-adv-x="575" 
d="M243 -13q-86 0 -135 60t-49 165v303h126v-303q0 -109 98 -109q50 0 77 30t27 79v303h126v-515h-122v81q-17 -44 -58 -69t-90 -25zM323 593l54 147h133l-99 -147h-88zM139 593l54 147h133l-99 -147h-88z" />
    <glyph glyph-name="Uogonek" unicode="&#x172;" horiz-adv-x="643" 
d="M323 -236q-48 0 -83.5 26t-35.5 71q0 69 94 128q-116 7 -177.5 78.5t-61.5 194.5v418h130v-422q0 -154 132 -154q133 0 133 154v422h130v-418q0 -114 -53.5 -184.5t-154.5 -85.5q-84 -72 -84 -129q0 -36 32 -36q30 0 40 22h76q-23 -85 -117 -85z" />
    <glyph glyph-name="uogonek" unicode="&#x173;" horiz-adv-x="575" 
d="M437 -236q-48 0 -83.5 26t-35.5 71q0 76 114 139h-41v81q-17 -44 -58 -69t-90 -25q-86 0 -135 60t-49 165v303h126v-303q0 -109 98 -109q50 0 77 30t27 79v303h126v-515h-13q-94 -77 -94 -137q0 -36 32 -36q30 0 40 22h76q-23 -85 -117 -85z" />
    <glyph glyph-name="Ydieresis" unicode="&#x178;" horiz-adv-x="593" 
d="M231 0v261l-228 419h145l149 -294l152 294h141l-228 -419v-261h-131zM331 730v114h122v-114h-122zM143 730v114h122v-114h-122z" />
    <glyph glyph-name="Zacute" unicode="&#x179;" horiz-adv-x="573" 
d="M26 0v112l349 451h-337v117h499v-111l-349 -452h358v-117h-520zM229 730l53 147h165l-123 -147h-95z" />
    <glyph glyph-name="zacute" unicode="&#x17a;" horiz-adv-x="482" 
d="M23 0v103l268 304h-257v108h416v-107l-265 -300h274v-108h-436zM182 593l53 147h165l-123 -147h-95z" />
    <glyph glyph-name="Zdotaccent" unicode="&#x17b;" horiz-adv-x="573" 
d="M26 0v112l349 451h-337v117h499v-111l-349 -452h358v-117h-520zM221 730v114h122v-114h-122z" />
    <glyph glyph-name="zdotaccent" unicode="&#x17c;" horiz-adv-x="482" 
d="M23 0v103l268 304h-257v108h416v-107l-265 -300h274v-108h-436zM174 593v114h122v-114h-122z" />
    <glyph glyph-name="Zcaron" unicode="&#x17d;" horiz-adv-x="573" 
d="M26 0v112l349 451h-337v117h499v-111l-349 -452h358v-117h-520zM244 727l-130 154h108l62 -71l61 71h109l-130 -154h-80z" />
    <glyph glyph-name="zcaron" unicode="&#x17e;" horiz-adv-x="482" 
d="M23 0v103l268 304h-257v108h416v-107l-265 -300h274v-108h-436zM197 590l-130 154h108l62 -71l61 71h109l-130 -154h-80z" />
    <glyph glyph-name="florin" unicode="&#x192;" horiz-adv-x="479" 
d="M71 310v85h93l28 136q17 84 68.5 124.5t126.5 40.5q47 0 85 -13l-20 -100q-30 8 -51 8q-36 0 -56.5 -22t-32.5 -74l-21 -100h114v-85h-131l-67 -325q-15 -73 -63.5 -111.5t-121.5 -38.5q-41 0 -79 11l20 100q25 -6 45 -6q36 0 53 19t26 63l59 288h-75z" />
    <glyph glyph-name="Scommaaccent" unicode="&#x218;" horiz-adv-x="641" 
d="M333 -12q-125 0 -208.5 61.5t-92.5 171.5h130q6 -55 47.5 -86t114.5 -31q143 0 143 86q0 43 -39 62t-137 40q-7 1 -11 2q-39 8 -65.5 16t-59 24t-52 36t-33.5 53t-14 75q0 88 67.5 143.5t180.5 55.5q126 0 193 -63.5t73 -149.5h-129q-12 97 -137 97q-55 0 -89 -20
t-34 -57q0 -39 33.5 -56t124.5 -35q45 -9 72.5 -16.5t66.5 -24t61 -38t38.5 -57.5t16.5 -83q0 -97 -69.5 -151.5t-191.5 -54.5zM251 -311v64q63 0 63 62v9h-63v134h135v-142q0 -61 -36.5 -94t-98.5 -33z" />
    <glyph glyph-name="scommaaccent" unicode="&#x219;" horiz-adv-x="523" 
d="M267 -12q-110 0 -174.5 48t-68.5 123h126q15 -66 117 -66q45 0 73 14.5t28 39.5q0 26 -23 36t-94 23q-5 1 -7 1q-102 18 -139 39q-67 37 -67 122q0 68 56 114t158 46q93 0 150.5 -41.5t68.5 -112.5h-126q-17 50 -98 50q-42 0 -64.5 -13.5t-22.5 -35.5q0 -24 22.5 -33.5
t86.5 -20.5q6 -1 17 -3q38 -7 58 -11t52.5 -16.5t49.5 -28t30.5 -44t13.5 -65.5q0 -75 -60 -120t-163 -45zM193 -311v64q63 0 63 62v9h-63v134h135v-142q0 -61 -36.5 -94t-98.5 -33z" />
    <glyph glyph-name="circumflex" unicode="&#x2c6;" horiz-adv-x="500" 
d="M77 593l130 154h80l130 -154h-108l-62 71l-61 -71h-109z" />
    <glyph glyph-name="caron" unicode="&#x2c7;" horiz-adv-x="500" 
d="M212 590l-130 154h108l62 -71l61 71h109l-130 -154h-80z" />
    <glyph glyph-name="breve" unicode="&#x2d8;" horiz-adv-x="500" 
d="M250 591q-64 0 -104 41.5t-44 101.5h73q13 -54 75 -54t75 54h73q-4 -60 -44 -101.5t-104 -41.5z" />
    <glyph glyph-name="dotaccent" unicode="&#x2d9;" horiz-adv-x="500" 
d="M189 593v114h122v-114h-122z" />
    <glyph glyph-name="ring" unicode="&#x2da;" horiz-adv-x="500" 
d="M250 585q-45 0 -77 31t-32 75t32 75.5t77 31.5t77 -31.5t32 -75.5t-32 -75t-77 -31zM250 640q20 0 34 15t14 36t-14 36t-34 15t-34 -15t-14 -36t14 -36t34 -15z" />
    <glyph glyph-name="ogonek" unicode="&#x2db;" horiz-adv-x="500" 
d="M266 -236q-48 0 -83.5 26t-35.5 71q0 76 114 139h68q-94 -77 -94 -137q0 -36 32 -36q30 0 40 22h76q-23 -85 -117 -85z" />
    <glyph glyph-name="tilde" unicode="&#x2dc;" horiz-adv-x="500" 
d="M84 590q6 57 34 94t76 37q28 0 67.5 -21t52.5 -21q31 0 40 42h62q-6 -57 -33 -94t-72 -37q-28 0 -69 20.5t-54 20.5q-33 0 -42 -41h-62z" />
    <glyph glyph-name="hungarumlaut" unicode="&#x2dd;" horiz-adv-x="500" 
d="M291 593l54 147h133l-99 -147h-88zM107 593l54 147h133l-99 -147h-88z" />
    <glyph glyph-name="pi" unicode="&#x3c0;" 
d="M48 267v141h142v-141h-142z" />
    <glyph glyph-name="endash" unicode="&#x2013;" horiz-adv-x="552" 
d="M39 216v123h474v-123h-474z" />
    <glyph glyph-name="emdash" unicode="&#x2014;" horiz-adv-x="867" 
d="M39 216v123h789v-123h-789z" />
    <glyph glyph-name="quoteleft" unicode="&#x2018;" horiz-adv-x="227" 
d="M46 410v150q0 61 37 95.5t98 34.5v-67q-30 0 -45 -17t-15 -45v-17h60v-134h-135z" />
    <glyph glyph-name="quoteright" unicode="&#x2019;" horiz-adv-x="227" 
d="M46 400v67q30 0 45 17t15 45v17h-60v134h135v-150q0 -61 -37 -95.5t-98 -34.5z" />
    <glyph glyph-name="quotesinglbase" unicode="&#x201a;" horiz-adv-x="227" 
d="M46 -146v67q30 0 45 17t15 45v17h-60v134h135v-150q0 -61 -37 -95.5t-98 -34.5z" />
    <glyph glyph-name="quotedblleft" unicode="&#x201c;" horiz-adv-x="431" 
d="M250 410v150q0 61 37 95.5t98 34.5v-67q-30 0 -45 -17t-15 -45v-17h60v-134h-135zM46 410v150q0 61 37 95.5t98 34.5v-67q-30 0 -45 -17t-15 -45v-17h60v-134h-135z" />
    <glyph glyph-name="quotedblright" unicode="&#x201d;" horiz-adv-x="431" 
d="M250 400v67q30 0 45 17t15 45v17h-60v134h135v-150q0 -61 -37 -95.5t-98 -34.5zM46 400v67q30 0 45 17t15 45v17h-60v134h135v-150q0 -61 -37 -95.5t-98 -34.5z" />
    <glyph glyph-name="quotedblbase" unicode="&#x201e;" horiz-adv-x="431" 
d="M250 -146v67q30 0 45 17t15 45v17h-60v134h135v-150q0 -61 -37 -95.5t-98 -34.5zM46 -146v67q30 0 45 17t15 45v17h-60v134h135v-150q0 -61 -37 -95.5t-98 -34.5z" />
    <glyph glyph-name="dagger" unicode="&#x2020;" horiz-adv-x="394" 
d="M144 195v271h-104v99h104v115h106v-115h104v-99h-104v-271h-106z" />
    <glyph glyph-name="daggerdbl" unicode="&#x2021;" horiz-adv-x="393" 
d="M143 195v103h-103v96h103v89h-103v96h103v101h106v-101h104v-96h-104v-89h104v-96h-104v-103h-106z" />
    <glyph glyph-name="bullet" unicode="&#x2022;" horiz-adv-x="301" 
d="M151 192q-52 0 -87.5 35.5t-35.5 87.5q0 51 36 86.5t87 35.5q50 0 86 -36t36 -86q0 -51 -35.5 -87t-86.5 -36z" />
    <glyph glyph-name="ellipsis" unicode="&#x2026;" horiz-adv-x="868" 
d="M678 0v141h142v-141h-142zM48 0v141h142v-141h-142zM363 0v141h142v-141h-142z" />
    <glyph glyph-name="perthousand" unicode="&#x2030;" horiz-adv-x="1211" 
d="M198 348q-73 0 -123.5 50t-50.5 121t50.5 121t123.5 50t123.5 -50t50.5 -121t-50.5 -121t-123.5 -50zM630 -10q-73 0 -123.5 50t-50.5 121t50.5 121t123.5 50t123.5 -50t50.5 -121t-50.5 -121t-123.5 -50zM1013 -10q-73 0 -123.5 50t-50.5 121t50.5 121t123.5 50
t123.5 -50t50.5 -121t-50.5 -121t-123.5 -50zM177 0l373 680h101l-373 -680h-101zM630 77q32 0 54.5 23t22.5 61t-22.5 61t-54.5 23t-54.5 -23t-22.5 -61t22.5 -61t54.5 -23zM1013 77q32 0 54.5 23t22.5 61t-22.5 61t-54.5 23t-54.5 -23t-22.5 -61t22.5 -61t54.5 -23z
M198 435q32 0 54.5 23t22.5 61t-22.5 61t-54.5 23t-54.5 -23t-22.5 -61t22.5 -61t54.5 -23z" />
    <glyph glyph-name="guilsinglleft" unicode="&#x2039;" horiz-adv-x="265" 
d="M225 46l-193 169v89l193 169v-137l-95 -77l95 -79v-134z" />
    <glyph glyph-name="guilsinglright" unicode="&#x203a;" horiz-adv-x="265" 
d="M40 46v137l95 77l-95 79v134l193 -169v-89z" />
    <glyph glyph-name="fraction" unicode="&#x2044;" horiz-adv-x="318" 
d="M-78 0l373 680h101l-373 -680h-101z" />
    <glyph glyph-name="Euro" unicode="&#x20ac;" horiz-adv-x="629" 
d="M26 363v83h70q23 118 94.5 184.5t173.5 66.5q188 0 234 -197h-127q-11 40 -39 62t-68 22q-49 0 -84 -36.5t-50 -101.5h247l-26 -83h-232v-21q0 -26 1 -38h209l-26 -83h-169q17 -57 50.5 -88.5t79.5 -31.5q95 0 113 82h129q-21 -95 -83 -145t-159 -50q-99 0 -169 61.5
t-95 171.5h-74v83h62q-1 12 -1 38v21h-61z" />
    <glyph glyph-name="trademark" unicode="&#x2122;" horiz-adv-x="781" 
d="M349 338v342h123l71 -215l72 215h119v-342h-83v212l-69 -212h-82l-68 211v-211h-83zM124 338v261h-90v81h267v-81h-90v-261h-87z" />
    <glyph glyph-name="Omega" unicode="&#x2126;" 
d="M48 267v141h142v-141h-142z" />
    <glyph glyph-name="onethird" unicode="&#x2153;" horiz-adv-x="916" 
d="M722 -7q-76 0 -120 39.5t-44 104.5h95q0 -61 69 -61q28 0 43.5 16t15.5 35q0 22 -15 33.5t-32 11.5h-33v78h22q18 0 31.5 13t13.5 30t-12.5 32t-35.5 15q-24 0 -38.5 -14.5t-14.5 -35.5h-96q3 56 42.5 94t109.5 38t105.5 -35.5t35.5 -81.5q0 -26 -16 -50t-42 -36
q31 -8 52.5 -37t21.5 -56q0 -51 -41 -92t-117 -41zM187 0l373 680h101l-373 -680h-101zM137 272v259h-89v68q48 1 79.5 22t33.5 59h75v-408h-99z" />
    <glyph glyph-name="twothirds" unicode="&#x2154;" horiz-adv-x="968" 
d="M774 -7q-76 0 -120 39.5t-44 104.5h95q0 -61 69 -61q28 0 43.5 16t15.5 35q0 22 -15 33.5t-32 11.5h-33v78h22q18 0 31.5 13t13.5 30t-12.5 32t-35.5 15q-24 0 -38.5 -14.5t-14.5 -35.5h-96q3 56 42.5 94t109.5 38t105.5 -35.5t35.5 -81.5q0 -26 -16 -50t-42 -36
q31 -8 52.5 -37t21.5 -56q0 -51 -41 -92t-117 -41zM36 272v41q0 99 123 169q26 16 42 29.5t21.5 26t6.5 17.5t1 17q0 19 -13 30t-31 11q-22 0 -35.5 -16.5t-13.5 -38.5h-98q0 53 42 94.5t109 41.5t102 -35.5t35 -85.5q0 -56 -30.5 -89t-96.5 -72q-56 -32 -59 -62h182v-78
h-287zM239 0l373 680h101l-373 -680h-101z" />
    <glyph glyph-name="oneeighth" unicode="&#x215b;" horiz-adv-x="907" 
d="M719 -7q-71 0 -114.5 35.5t-43.5 90.5q0 71 69 100q-53 29 -53 85q0 48 42 81.5t100 33.5q56 0 99.5 -33.5t43.5 -81.5q0 -55 -55 -83q69 -32 69 -100q0 -56 -44 -92t-113 -36zM187 0l373 680h101l-373 -680h-101zM137 272v259h-89v68q48 1 79.5 22t33.5 59h75v-408h-99z
M719 72q24 0 44 14.5t20 37.5q0 26 -20.5 39t-43.5 13q-24 0 -44 -13t-20 -39q0 -24 19 -38t45 -14zM719 254q20 0 35.5 12.5t15.5 32.5t-16.5 31t-34.5 11q-20 0 -35.5 -11t-15.5 -31t14.5 -32.5t36.5 -12.5z" />
    <glyph glyph-name="threeeighths" unicode="&#x215c;" horiz-adv-x="975" 
d="M787 -7q-71 0 -114.5 35.5t-43.5 90.5q0 71 69 100q-53 29 -53 85q0 48 42 81.5t100 33.5q56 0 99.5 -33.5t43.5 -81.5q0 -55 -55 -83q69 -32 69 -100q0 -56 -44 -92t-113 -36zM191 265q-76 0 -120 39.5t-44 104.5h95q0 -61 69 -61q28 0 43.5 16t15.5 35q0 22 -15 33.5
t-32 11.5h-33v78h22q18 0 31.5 13t13.5 30t-12.5 32t-35.5 15q-24 0 -38.5 -14.5t-14.5 -35.5h-96q3 56 42.5 94t109.5 38t105.5 -35.5t35.5 -81.5q0 -26 -16 -50t-42 -36q31 -8 52.5 -37t21.5 -56q0 -51 -41 -92t-117 -41zM255 0l373 680h101l-373 -680h-101zM787 72
q24 0 44 14.5t20 37.5q0 26 -20.5 39t-43.5 13q-24 0 -44 -13t-20 -39q0 -24 19 -38t45 -14zM787 254q20 0 35.5 12.5t15.5 32.5t-16.5 31t-34.5 11q-20 0 -35.5 -11t-15.5 -31t14.5 -32.5t36.5 -12.5z" />
    <glyph glyph-name="fiveeighths" unicode="&#x215d;" horiz-adv-x="973" 
d="M785 -7q-71 0 -114.5 35.5t-43.5 90.5q0 71 69 100q-53 29 -53 85q0 48 42 81.5t100 33.5q56 0 99.5 -33.5t43.5 -81.5q0 -55 -55 -83q69 -32 69 -100q0 -56 -44 -92t-113 -36zM195 265q-67 0 -111.5 33t-50.5 88h97q10 -40 59 -40q25 0 42 18t17 45t-17 42t-44 15
q-37 0 -61 -31l-79 33l28 212h248v-82h-174l-12 -85q27 33 80 33q52 0 90 -34t38 -105q0 -57 -41.5 -99.5t-108.5 -42.5zM253 0l373 680h101l-373 -680h-101zM785 72q24 0 44 14.5t20 37.5q0 26 -20.5 39t-43.5 13q-24 0 -44 -13t-20 -39q0 -24 19 -38t45 -14zM785 254
q20 0 35.5 12.5t15.5 32.5t-16.5 31t-34.5 11q-20 0 -35.5 -11t-15.5 -31t14.5 -32.5t36.5 -12.5z" />
    <glyph glyph-name="seveneighths" unicode="&#x215e;" horiz-adv-x="926" 
d="M738 -7q-71 0 -114.5 35.5t-43.5 90.5q0 71 69 100q-53 29 -53 85q0 48 42 81.5t100 33.5q56 0 99.5 -33.5t43.5 -81.5q0 -55 -55 -83q69 -32 69 -100q0 -56 -44 -92t-113 -36zM206 0l373 680h101l-373 -680h-101zM93 272q-3 104 35 188.5t91 129.5h-185v90h293v-85
q-58 -55 -97.5 -137.5t-36.5 -185.5h-100zM738 72q24 0 44 14.5t20 37.5q0 26 -20.5 39t-43.5 13q-24 0 -44 -13t-20 -39q0 -24 19 -38t45 -14zM738 254q20 0 35.5 12.5t15.5 32.5t-16.5 31t-34.5 11q-20 0 -35.5 -11t-15.5 -31t14.5 -32.5t36.5 -12.5z" />
    <glyph glyph-name="partialdiff" unicode="&#x2202;" 
d="M48 267v141h142v-141h-142z" />
    <glyph glyph-name="Delta" unicode="&#x2206;" horiz-adv-x="228" 
d="M48 282v131h132v-131h-132z" />
    <glyph glyph-name="product" unicode="&#x220f;" 
d="M48 267v141h142v-141h-142z" />
    <glyph glyph-name="summation" unicode="&#x2211;" 
d="M48 267v141h142v-141h-142z" />
    <glyph glyph-name="minus" unicode="&#x2212;" horiz-adv-x="481" 
d="M38 245v111h405v-111h-405z" />
    <glyph glyph-name="radical" unicode="&#x221a;" 
d="M48 267v141h142v-141h-142z" />
    <glyph glyph-name="infinity" unicode="&#x221e;" 
d="M48 267v141h142v-141h-142z" />
    <glyph glyph-name="integral" unicode="&#x222b;" 
d="M48 267v141h142v-141h-142z" />
    <glyph glyph-name="approxequal" unicode="&#x2248;" 
d="M48 267v141h142v-141h-142z" />
    <glyph glyph-name="notequal" unicode="&#x2260;" 
d="M48 267v141h142v-141h-142z" />
    <glyph glyph-name="lessequal" unicode="&#x2264;" 
d="M48 267v141h142v-141h-142z" />
    <glyph glyph-name="greaterequal" unicode="&#x2265;" 
d="M48 267v141h142v-141h-142z" />
    <glyph glyph-name="lozenge" unicode="&#x25ca;" 
d="M48 267v141h142v-141h-142z" />
    <glyph glyph-name="dotlessj" unicode="&#xf6be;" horiz-adv-x="254" 
d="M-30 -209v107h17q77 0 77 72v545h126v-546q0 -89 -55 -133.5t-144 -44.5h-21z" />
    <glyph glyph-name="commaaccent" unicode="&#xf6c3;" horiz-adv-x="500" 
d="M183 -311v64q63 0 63 62v9h-63v134h135v-142q0 -61 -36.5 -94t-98.5 -33z" />
    <glyph glyph-name="apple" unicode="&#xf8ff;" horiz-adv-x="908" 
d="M510 0v695l12 -1q86 -3 163.5 -44t128.5 -121.5t51 -181.5t-51 -181t-128.5 -121t-163.5 -44zM389 0q-153 0 -249.5 101.5t-96.5 245.5t96.5 245.5t249.5 101.5h92v-125h-92q-96 0 -155 -64.5t-59 -157.5t59 -157.5t155 -64.5h92v-125h-92zM778 156q60 78 63 180h-135
q-1 -67 -21 -134q46 -15 93 -46zM706 359h135q-3 100 -63 180q-45 -30 -93 -47q20 -65 21 -133zM662 209q20 62 21 127h-149v-106q70 -3 128 -21zM534 359h149q-1 64 -21 126q-61 -17 -128 -20v-106zM534 488q70 5 121 20q-43 112 -121 156v-176zM534 31q77 42 121 156
q-53 16 -121 19v-175zM677 515q44 16 86 42q-76 85 -188 107q65 -52 102 -149zM575 31q112 22 188 107q-42 26 -86 42q-37 -97 -102 -149z" />
    <glyph glyph-name="AE.sc" horiz-adv-x="840" 
d="M16 0l238 578h534v-112h-282v-110h232v-112h-232v-132h289v-112h-413v94h-203l-38 -94h-125zM330 464l-110 -269h162v269h-52z" />
    <glyph glyph-name="Aacute.sc" horiz-adv-x="598" 
d="M21 0l214 578h127l216 -578h-131l-35 99h-230l-34 -99h-127zM278 381l-62 -181h161l-63 181q-3 8 -19 72q0 -1 -2.5 -13t-6.5 -29.5t-8 -29.5zM244 631l53 147h165l-123 -147h-95z" />
    <glyph glyph-name="Abreve.sc" horiz-adv-x="598" 
d="M21 0l214 578h127l216 -578h-131l-35 99h-230l-34 -99h-127zM278 381l-62 -181h161l-63 181q-3 8 -19 72q0 -1 -2.5 -13t-6.5 -29.5t-8 -29.5zM297 629q-64 0 -104 41.5t-44 101.5h73q13 -54 75 -54q61 0 75 54h73q-4 -60 -44 -101.5t-104 -41.5z" />
    <glyph glyph-name="Acircumflex.sc" horiz-adv-x="598" 
d="M21 0l214 578h127l216 -578h-131l-35 99h-230l-34 -99h-127zM278 381l-62 -181h161l-63 181q-3 8 -19 72q0 -1 -2.5 -13t-6.5 -29.5t-8 -29.5zM124 631l130 154h80l130 -154h-108l-62 71l-61 -71h-109z" />
    <glyph glyph-name="Adieresis.sc" horiz-adv-x="598" 
d="M21 0l214 578h127l216 -578h-131l-35 99h-230l-34 -99h-127zM278 381l-62 -181h161l-63 181q-3 8 -19 72q0 -1 -2.5 -13t-6.5 -29.5t-8 -29.5zM330 631v114h122v-114h-122zM142 631v114h122v-114h-122z" />
    <glyph glyph-name="Agrave.sc" horiz-adv-x="598" 
d="M21 0l214 578h127l216 -578h-131l-35 99h-230l-34 -99h-127zM278 381l-62 -181h161l-63 181q-3 8 -19 72q0 -1 -2.5 -13t-6.5 -29.5t-8 -29.5zM267 631l-123 147h165l53 -147h-95z" />
    <glyph glyph-name="Amacron.sc" horiz-adv-x="598" 
d="M21 0l214 578h127l216 -578h-131l-35 99h-230l-34 -99h-127zM278 381l-62 -181h161l-63 181q-3 8 -19 72q0 -1 -2.5 -13t-6.5 -29.5t-8 -29.5zM164 643v87h263v-87h-263z" />
    <glyph glyph-name="Aogonek.sc" horiz-adv-x="618" 
d="M481 -236q-48 0 -83.5 26t-35.5 71q0 76 114 139h-29l-35 99h-230l-34 -99h-127l214 578h127l216 -578h-34q-94 -77 -94 -137q0 -36 32 -36q30 0 40 22h76q-23 -85 -117 -85zM278 381l-62 -181h161l-63 181q-3 8 -19 72q0 -1 -2.5 -13t-6.5 -29.5t-8 -29.5z" />
    <glyph glyph-name="Aring.sc" horiz-adv-x="598" 
d="M21 0l214 578h127l216 -578h-131l-35 99h-230l-34 -99h-127zM278 381l-62 -181h161l-63 181q-3 8 -19 72q0 -1 -2.5 -13t-6.5 -29.5t-8 -29.5zM297 623q-45 0 -77 31t-32 75t32 75.5t77 31.5t77 -31.5t32 -75.5t-32 -75t-77 -31zM297 678q20 0 34 15t14 36t-14 36t-34 15
t-34 -15t-14 -36t14 -36t34 -15z" />
    <glyph glyph-name="Atilde.sc" horiz-adv-x="598" 
d="M21 0l214 578h127l216 -578h-131l-35 99h-230l-34 -99h-127zM278 381l-62 -181h161l-63 181q-3 8 -19 72q0 -1 -2.5 -13t-6.5 -29.5t-8 -29.5zM131 628q6 57 34 94t76 37q28 0 67.5 -21t52.5 -21q31 0 40 42h62q-6 -57 -33 -94t-72 -37q-28 0 -69 20.5t-54 20.5
q-33 0 -42 -41h-62z" />
    <glyph glyph-name="B.sc" horiz-adv-x="570" 
d="M66 0v578h259q84 0 131.5 -40.5t47.5 -112.5q0 -83 -70 -117q47 -16 73.5 -52.5t26.5 -88.5q0 -79 -53 -123t-143 -44h-272zM189 109h136q78 0 78 67q0 69 -80 69h-134v-136zM189 353h129q34 0 50 17.5t16 40.5q0 24 -16 41.5t-49 17.5h-130v-117z" />
    <glyph glyph-name="C.sc" horiz-adv-x="631" 
d="M331 -10q-126 0 -207 88t-81 215q0 125 81.5 212.5t202.5 87.5q97 0 167.5 -52.5t92.5 -140.5h-135q-32 81 -124 81q-66 0 -109.5 -48.5t-43.5 -139.5q0 -92 44.5 -141.5t112.5 -49.5q52 0 82 24t41 58h136q-24 -92 -94 -143t-166 -51z" />
    <glyph glyph-name="Cacute.sc" horiz-adv-x="631" 
d="M331 -10q-126 0 -207 88t-81 215q0 125 81.5 212.5t202.5 87.5q97 0 167.5 -52.5t92.5 -140.5h-135q-32 81 -124 81q-66 0 -109.5 -48.5t-43.5 -139.5q0 -92 44.5 -141.5t112.5 -49.5q52 0 82 24t41 58h136q-24 -92 -94 -143t-166 -51zM274 631l53 147h165l-123 -147h-95
z" />
    <glyph glyph-name="Ccaron.sc" horiz-adv-x="631" 
d="M331 -10q-126 0 -207 88t-81 215q0 125 81.5 212.5t202.5 87.5q97 0 167.5 -52.5t92.5 -140.5h-135q-32 81 -124 81q-66 0 -109.5 -48.5t-43.5 -139.5q0 -92 44.5 -141.5t112.5 -49.5q52 0 82 24t41 58h136q-24 -92 -94 -143t-166 -51zM289 628l-130 154h108l62 -71
l61 71h109l-130 -154h-80z" />
    <glyph glyph-name="Ccedilla.sc" horiz-adv-x="631" 
d="M591 184q-23 -86 -85.5 -136t-149.5 -57l-33 -49q11 4 26 4q36 0 62.5 -24.5t26.5 -64.5q0 -44 -33.5 -68.5t-81.5 -24.5q-44 0 -76.5 21.5t-42.5 57.5h74q10 -22 42 -22q16 0 28.5 9.5t12.5 25.5q0 17 -12 27t-29 10q-23 0 -39 -16l-38 34l47 82q-110 15 -178.5 99
t-68.5 201q0 125 81.5 212.5t202.5 87.5q97 0 167.5 -52.5t92.5 -140.5h-135q-32 81 -124 81q-66 0 -109.5 -48.5t-43.5 -139.5q0 -92 44.5 -141.5t112.5 -49.5q52 0 82 24t41 58h136z" />
    <glyph glyph-name="Ccircumflex.sc" horiz-adv-x="631" 
d="M331 -10q-126 0 -207 88t-81 215q0 125 81.5 212.5t202.5 87.5q97 0 167.5 -52.5t92.5 -140.5h-135q-32 81 -124 81q-66 0 -109.5 -48.5t-43.5 -139.5q0 -92 44.5 -141.5t112.5 -49.5q52 0 82 24t41 58h136q-24 -92 -94 -143t-166 -51zM154 631l130 154h80l130 -154h-108
l-62 71l-61 -71h-109z" />
    <glyph glyph-name="D.sc" horiz-adv-x="598" 
d="M66 0v578h204q131 0 208 -76.5t77 -212.5q0 -134 -78 -211.5t-207 -77.5h-204zM190 116h80q154 0 154 175q0 173 -154 173h-80v-348z" />
    <glyph glyph-name="Dcaron.sc" horiz-adv-x="598" 
d="M66 0v578h204q131 0 208 -76.5t77 -212.5q0 -134 -78 -211.5t-207 -77.5h-204zM190 116h80q154 0 154 175q0 173 -154 173h-80v-348zM226 628l-130 154h108l62 -71l61 71h109l-130 -154h-80z" />
    <glyph glyph-name="Dcroat.sc" horiz-adv-x="598" 
d="M7 233v107h59v238h204q131 0 208 -76.5t77 -212.5q0 -134 -78 -211.5t-207 -77.5h-204v233h-59zM190 116h80q154 0 154 175q0 173 -154 173h-80v-124h133v-107h-133v-117z" />
    <glyph glyph-name="E.sc" horiz-adv-x="524" 
d="M66 0v578h406v-112h-282v-110h232v-112h-232v-132h289v-112h-413z" />
    <glyph glyph-name="Eacute.sc" horiz-adv-x="524" 
d="M66 0v578h406v-112h-282v-110h232v-112h-232v-132h289v-112h-413zM214 631l53 147h165l-123 -147h-95z" />
    <glyph glyph-name="Ecaron.sc" horiz-adv-x="524" 
d="M66 0v578h406v-112h-282v-110h232v-112h-232v-132h289v-112h-413zM229 628l-130 154h108l62 -71l61 71h109l-130 -154h-80z" />
    <glyph glyph-name="Ecircumflex.sc" horiz-adv-x="524" 
d="M66 0v578h406v-112h-282v-110h232v-112h-232v-132h289v-112h-413zM94 631l130 154h80l130 -154h-108l-62 71l-61 -71h-109z" />
    <glyph glyph-name="Edieresis.sc" horiz-adv-x="524" 
d="M66 0v578h406v-112h-282v-110h232v-112h-232v-132h289v-112h-413zM300 631v114h122v-114h-122zM112 631v114h122v-114h-122z" />
    <glyph glyph-name="Edotaccent.sc" horiz-adv-x="524" 
d="M66 0v578h406v-112h-282v-110h232v-112h-232v-132h289v-112h-413zM206 631v114h122v-114h-122z" />
    <glyph glyph-name="Egrave.sc" horiz-adv-x="524" 
d="M66 0v578h406v-112h-282v-110h232v-112h-232v-132h289v-112h-413zM237 631l-123 147h165l53 -147h-95z" />
    <glyph glyph-name="Emacron.sc" horiz-adv-x="524" 
d="M66 0v578h406v-112h-282v-110h232v-112h-232v-132h289v-112h-413zM134 643v87h263v-87h-263z" />
    <glyph glyph-name="Eogonek.sc" horiz-adv-x="524" 
d="M66 0v578h406v-112h-282v-110h232v-112h-232v-132h289v-112h-11q-94 -77 -94 -137q0 -36 32 -36q30 0 40 22h76q-23 -85 -117 -85q-48 0 -83.5 26t-35.5 71q0 76 114 139h-334z" />
    <glyph glyph-name="Eth.sc" horiz-adv-x="598" 
d="M7 233v107h59v238h204q131 0 208 -76.5t77 -212.5q0 -134 -78 -211.5t-207 -77.5h-204v233h-59zM190 116h80q154 0 154 175q0 173 -154 173h-80v-124h133v-107h-133v-117z" />
    <glyph glyph-name="Euro.sc" horiz-adv-x="537" 
d="M23 307v80h55q21 97 80 151.5t150 54.5q165 0 205 -169h-125q-17 60 -80 60q-78 0 -102 -97h192l-24 -80h-178v-44h161l-24 -80h-124q24 -82 99 -82q36 0 58.5 17.5t29.5 42.5h125q-17 -80 -71.5 -125.5t-141.5 -45.5q-91 0 -149 50.5t-79 142.5h-57v80h46v44h-46z" />
    <glyph glyph-name="F.sc" horiz-adv-x="506" 
d="M66 0v578h396v-112h-272v-131h228v-112h-228v-223h-124z" />
    <glyph glyph-name="G.sc" horiz-adv-x="663" 
d="M324 -10q-118 0 -199.5 89t-81.5 214q0 126 82 213t208 87q108 0 174 -52t88 -132h-137q-11 30 -44 51.5t-81 21.5q-67 0 -113 -49t-46 -140q0 -93 44.5 -142.5t115.5 -49.5q63 0 102.5 31.5t50.5 82.5h-152v107h268v-322h-114v73q-18 -37 -63.5 -60t-101.5 -23z" />
    <glyph glyph-name="Gbreve.sc" horiz-adv-x="663" 
d="M324 -10q-118 0 -199.5 89t-81.5 214q0 126 82 213t208 87q108 0 174 -52t88 -132h-137q-11 30 -44 51.5t-81 21.5q-67 0 -113 -49t-46 -140q0 -93 44.5 -142.5t115.5 -49.5q63 0 102.5 31.5t50.5 82.5h-152v107h268v-322h-114v73q-18 -37 -63.5 -60t-101.5 -23zM335 629
q-64 0 -104 41.5t-44 101.5h73q13 -54 75 -54q61 0 75 54h73q-4 -60 -44 -101.5t-104 -41.5z" />
    <glyph glyph-name="Gcircumflex.sc" horiz-adv-x="663" 
d="M324 -10q-118 0 -199.5 89t-81.5 214q0 126 82 213t208 87q108 0 174 -52t88 -132h-137q-11 30 -44 51.5t-81 21.5q-67 0 -113 -49t-46 -140q0 -93 44.5 -142.5t115.5 -49.5q63 0 102.5 31.5t50.5 82.5h-152v107h268v-322h-114v73q-18 -37 -63.5 -60t-101.5 -23zM162 631
l130 154h80l130 -154h-108l-62 71l-61 -71h-109z" />
    <glyph glyph-name="Gcommaaccent.sc" horiz-adv-x="663" 
d="M324 -10q-118 0 -199.5 89t-81.5 214q0 126 82 213t208 87q108 0 174 -52t88 -132h-137q-11 30 -44 51.5t-81 21.5q-67 0 -113 -49t-46 -140q0 -93 44.5 -142.5t115.5 -49.5q63 0 102.5 31.5t50.5 82.5h-152v107h268v-322h-114v73q-18 -37 -63.5 -60t-101.5 -23z
M251 -311v64q63 0 63 62v9h-63v134h135v-142q0 -61 -36.5 -94t-98.5 -33z" />
    <glyph glyph-name="H.sc" horiz-adv-x="609" 
d="M66 0v578h126v-229h225v229h126v-578h-126v236h-225v-236h-126z" />
    <glyph glyph-name="Hcircumflex.sc" horiz-adv-x="609" 
d="M66 0v578h126v-229h225v229h126v-578h-126v236h-225v-236h-126zM132 631l130 154h80l130 -154h-108l-62 71l-61 -71h-109z" />
    <glyph glyph-name="I.sc" horiz-adv-x="262" 
d="M68 0v578h126v-578h-126z" />
    <glyph glyph-name="Iacute.sc" horiz-adv-x="262" 
d="M68 0v578h126v-578h-126zM79 631l53 147h165l-123 -147h-95z" />
    <glyph glyph-name="Icircumflex.sc" horiz-adv-x="262" 
d="M68 0v578h126v-578h-126zM-41 631l130 154h80l130 -154h-108l-62 71l-61 -71h-109z" />
    <glyph glyph-name="Idieresis.sc" horiz-adv-x="262" 
d="M68 0v578h126v-578h-126zM165 631v114h122v-114h-122zM-23 631v114h122v-114h-122z" />
    <glyph glyph-name="Idotaccent.sc" horiz-adv-x="262" 
d="M68 0v578h126v-578h-126zM71 631v114h122v-114h-122z" />
    <glyph glyph-name="Igrave.sc" horiz-adv-x="262" 
d="M68 0v578h126v-578h-126zM102 631l-123 147h165l53 -147h-95z" />
    <glyph glyph-name="Imacron.sc" horiz-adv-x="262" 
d="M68 0v578h126v-578h-126zM-1 643v87h263v-87h-263z" />
    <glyph glyph-name="Iogonek.sc" horiz-adv-x="262" 
d="M68 0v578h126v-578h-2q-94 -77 -94 -137q0 -36 32 -36q30 0 40 22h76q-23 -85 -117 -85q-48 0 -83.5 26t-35.5 71q0 76 114 139h-56z" />
    <glyph glyph-name="J.sc" horiz-adv-x="485" 
d="M228 -8q-90 0 -146 50t-56 144v26h126v-26q0 -82 73 -82q34 0 53.5 22t19.5 61v391h126v-388q0 -95 -54.5 -146.5t-141.5 -51.5z" />
    <glyph glyph-name="Jcircumflex.sc" horiz-adv-x="485" 
d="M228 -8q-90 0 -146 50t-56 144v26h126v-26q0 -82 73 -82q34 0 53.5 22t19.5 61v391h126v-388q0 -95 -54.5 -146.5t-141.5 -51.5zM188 631l130 154h80l130 -154h-108l-62 71l-61 -71h-109z" />
    <glyph glyph-name="K.sc" horiz-adv-x="581" 
d="M419 0l-169 248l-55 -60v-188h-129v578h129v-231l209 231h149l-216 -235l230 -343h-148z" />
    <glyph glyph-name="Kcommaaccent.sc" horiz-adv-x="581" 
d="M419 0l-169 248l-55 -60v-188h-129v578h129v-231l209 231h149l-216 -235l230 -343h-148zM223 -311v64q63 0 63 62v9h-63v134h135v-142q0 -61 -36.5 -94t-98.5 -33z" />
    <glyph glyph-name="L.sc" horiz-adv-x="498" 
d="M66 0v578h126v-466h268v-112h-394z" />
    <glyph glyph-name="Lacute.sc" horiz-adv-x="498" 
d="M66 0v578h126v-466h268v-112h-394zM75 631l53 147h165l-123 -147h-95z" />
    <glyph glyph-name="Lcaron.sc" horiz-adv-x="498" 
d="M319 309v64q63 0 63 62v9h-63v134h135v-142q0 -61 -36.5 -94t-98.5 -33zM66 0v578h126v-466h268v-112h-394z" />
    <glyph glyph-name="Lcommaaccent.sc" horiz-adv-x="498" 
d="M66 0v578h126v-466h268v-112h-394zM179 -311v64q63 0 63 62v9h-63v134h135v-142q0 -61 -36.5 -94t-98.5 -33z" />
    <glyph glyph-name="Lslash.sc" horiz-adv-x="503" 
d="M19 155v91l52 23v309h126v-251l131 60v-91l-131 -60v-124h268v-112h-394v178z" />
    <glyph glyph-name="M.sc" horiz-adv-x="735" 
d="M66 0v578h184l120 -426l120 426h179v-578h-119v417l-120 -417h-128l-117 417v-417h-119z" />
    <glyph glyph-name="N.sc" horiz-adv-x="613" 
d="M66 0v578h136l231 -398v398h115v-578h-137l-230 394v-394h-115z" />
    <glyph glyph-name="Nacute.sc" horiz-adv-x="613" 
d="M66 0v578h136l231 -398v398h115v-578h-137l-230 394v-394h-115zM265 631l53 147h165l-123 -147h-95z" />
    <glyph glyph-name="Ncaron.sc" horiz-adv-x="613" 
d="M66 0v578h136l231 -398v398h115v-578h-137l-230 394v-394h-115zM280 628l-130 154h108l62 -71l61 71h109l-130 -154h-80z" />
    <glyph glyph-name="Ncommaaccent.sc" horiz-adv-x="613" 
d="M66 0v578h136l231 -398v398h115v-578h-137l-230 394v-394h-115zM231 -311v64q63 0 63 62v9h-63v134h135v-142q0 -61 -36.5 -94t-98.5 -33z" />
    <glyph glyph-name="Ntilde.sc" horiz-adv-x="613" 
d="M66 0v578h136l231 -398v398h115v-578h-137l-230 394v-394h-115zM152 628q6 57 34 94t76 37q28 0 67.5 -21t52.5 -21q31 0 40 42h62q-6 -57 -33 -94t-72 -37q-28 0 -69 20.5t-54 20.5q-33 0 -42 -41h-62z" />
    <glyph glyph-name="O.sc" horiz-adv-x="668" 
d="M334 -10q-130 0 -210.5 87.5t-80.5 215.5q0 127 80.5 213.5t210.5 86.5q128 0 209.5 -87t81.5 -213q0 -128 -81 -215.5t-210 -87.5zM334 102q69 0 114.5 49.5t45.5 141.5q0 91 -45.5 140t-114.5 49t-114.5 -49t-45.5 -140q0 -92 46 -141.5t114 -49.5z" />
    <glyph glyph-name="OE.sc" horiz-adv-x="952" 
d="M497 0v58q-68 -68 -164 -68q-129 0 -209.5 87.5t-80.5 215.5q0 127 80.5 213.5t209.5 86.5q96 0 164 -71v56h403v-112h-282v-110h232v-112h-232v-132h289v-112h-410zM334 102q69 0 114.5 49.5t45.5 141.5q0 91 -45.5 140t-114.5 49t-114.5 -49t-45.5 -140
q0 -92 46 -141.5t114 -49.5z" />
    <glyph glyph-name="Oacute.sc" horiz-adv-x="668" 
d="M334 -10q-130 0 -210.5 87.5t-80.5 215.5q0 127 80.5 213.5t210.5 86.5q128 0 209.5 -87t81.5 -213q0 -128 -81 -215.5t-210 -87.5zM334 102q69 0 114.5 49.5t45.5 141.5q0 91 -45.5 140t-114.5 49t-114.5 -49t-45.5 -140q0 -92 46 -141.5t114 -49.5zM281 631l53 147h165
l-123 -147h-95z" />
    <glyph glyph-name="Ocircumflex.sc" horiz-adv-x="668" 
d="M334 -10q-130 0 -210.5 87.5t-80.5 215.5q0 127 80.5 213.5t210.5 86.5q128 0 209.5 -87t81.5 -213q0 -128 -81 -215.5t-210 -87.5zM334 102q69 0 114.5 49.5t45.5 141.5q0 91 -45.5 140t-114.5 49t-114.5 -49t-45.5 -140q0 -92 46 -141.5t114 -49.5zM161 631l130 154h80
l130 -154h-108l-62 71l-61 -71h-109z" />
    <glyph glyph-name="Odieresis.sc" horiz-adv-x="668" 
d="M334 -10q-130 0 -210.5 87.5t-80.5 215.5q0 127 80.5 213.5t210.5 86.5q128 0 209.5 -87t81.5 -213q0 -128 -81 -215.5t-210 -87.5zM334 102q69 0 114.5 49.5t45.5 141.5q0 91 -45.5 140t-114.5 49t-114.5 -49t-45.5 -140q0 -92 46 -141.5t114 -49.5zM367 631v114h122
v-114h-122zM179 631v114h122v-114h-122z" />
    <glyph glyph-name="Ograve.sc" horiz-adv-x="668" 
d="M334 -10q-130 0 -210.5 87.5t-80.5 215.5q0 127 80.5 213.5t210.5 86.5q128 0 209.5 -87t81.5 -213q0 -128 -81 -215.5t-210 -87.5zM334 102q69 0 114.5 49.5t45.5 141.5q0 91 -45.5 140t-114.5 49t-114.5 -49t-45.5 -140q0 -92 46 -141.5t114 -49.5zM304 631l-123 147
h165l53 -147h-95z" />
    <glyph glyph-name="Ohungarumlaut.sc" horiz-adv-x="668" 
d="M334 -10q-130 0 -210.5 87.5t-80.5 215.5q0 127 80.5 213.5t210.5 86.5q128 0 209.5 -87t81.5 -213q0 -128 -81 -215.5t-210 -87.5zM334 102q69 0 114.5 49.5t45.5 141.5q0 91 -45.5 140t-114.5 49t-114.5 -49t-45.5 -140q0 -92 46 -141.5t114 -49.5zM375 631l54 147h133
l-99 -147h-88zM191 631l54 147h133l-99 -147h-88z" />
    <glyph glyph-name="Omacron.sc" horiz-adv-x="668" 
d="M334 -10q-130 0 -210.5 87.5t-80.5 215.5q0 127 80.5 213.5t210.5 86.5q128 0 209.5 -87t81.5 -213q0 -128 -81 -215.5t-210 -87.5zM334 102q69 0 114.5 49.5t45.5 141.5q0 91 -45.5 140t-114.5 49t-114.5 -49t-45.5 -140q0 -92 46 -141.5t114 -49.5zM201 643v87h263v-87
h-263z" />
    <glyph glyph-name="Oslash.sc" horiz-adv-x="668" 
d="M84 -32l-48 43l74 81q-67 84 -67 201q0 127 80.5 213.5t210.5 86.5q101 0 179 -60l69 75l50 -44l-72 -78q65 -84 65 -193q0 -128 -81 -215.5t-210 -87.5q-103 0 -177 57zM173 293q0 -64 23 -107l239 261q-42 36 -101 36q-69 0 -115 -49.5t-46 -140.5zM334 101
q69 0 115 50t46 142q0 55 -20 100l-238 -259q41 -33 97 -33z" />
    <glyph glyph-name="Otilde.sc" horiz-adv-x="668" 
d="M334 -10q-130 0 -210.5 87.5t-80.5 215.5q0 127 80.5 213.5t210.5 86.5q128 0 209.5 -87t81.5 -213q0 -128 -81 -215.5t-210 -87.5zM334 102q69 0 114.5 49.5t45.5 141.5q0 91 -45.5 140t-114.5 49t-114.5 -49t-45.5 -140q0 -92 46 -141.5t114 -49.5zM168 628q6 57 34 94
t76 37q28 0 67.5 -21t52.5 -21q31 0 40 42h62q-6 -57 -33 -94t-72 -37q-28 0 -69 20.5t-54 20.5q-33 0 -42 -41h-62z" />
    <glyph glyph-name="P.sc" horiz-adv-x="551" 
d="M66 0v578h234q105 0 161 -51.5t56 -140.5q0 -84 -57 -135.5t-156 -51.5h-112v-199h-126zM192 309h106q90 0 90 77q0 82 -90 82h-106v-159z" />
    <glyph glyph-name="Q.sc" horiz-adv-x="668" 
d="M507 0l-29 26q-64 -36 -144 -36q-130 0 -210.5 87.5t-80.5 215.5q0 127 80.5 213.5t210.5 86.5q128 0 209.5 -87t81.5 -213q0 -120 -73 -206l95 -87h-140zM334 98q30 0 56 9l-112 103h140l46 -43q30 51 30 126q0 91 -45.5 140t-114.5 49t-114.5 -49t-45.5 -140
q0 -92 46 -143.5t114 -51.5z" />
    <glyph glyph-name="R.sc" horiz-adv-x="588" 
d="M66 0v578h262q93 0 150 -46.5t57 -127.5q0 -97 -97 -133q39 -20 58 -46.5t25 -83.5l8 -74q4 -32 22 -67h-125q-18 24 -22 61l-9 85q-4 37 -20 53.5t-49 16.5h-135v-216h-125zM191 319h134q80 0 80 76q0 35 -21 54t-58 19h-135v-149z" />
    <glyph glyph-name="Racute.sc" horiz-adv-x="588" 
d="M66 0v578h262q93 0 150 -46.5t57 -127.5q0 -97 -97 -133q39 -20 58 -46.5t25 -83.5l8 -74q4 -32 22 -67h-125q-18 24 -22 61l-9 85q-4 37 -20 53.5t-49 16.5h-135v-216h-125zM191 319h134q80 0 80 76q0 35 -21 54t-58 19h-135v-149zM226 631l53 147h165l-123 -147h-95z
" />
    <glyph glyph-name="Rcaron.sc" horiz-adv-x="588" 
d="M66 0v578h262q93 0 150 -46.5t57 -127.5q0 -97 -97 -133q39 -20 58 -46.5t25 -83.5l8 -74q4 -32 22 -67h-125q-18 24 -22 61l-9 85q-4 37 -20 53.5t-49 16.5h-135v-216h-125zM191 319h134q80 0 80 76q0 35 -21 54t-58 19h-135v-149zM241 628l-130 154h108l62 -71l61 71
h109l-130 -154h-80z" />
    <glyph glyph-name="Rcommaaccent.sc" horiz-adv-x="588" 
d="M66 0v578h262q93 0 150 -46.5t57 -127.5q0 -97 -97 -133q39 -20 58 -46.5t25 -83.5l8 -74q4 -32 22 -67h-125q-18 24 -22 61l-9 85q-4 37 -20 53.5t-49 16.5h-135v-216h-125zM191 319h134q80 0 80 76q0 35 -21 54t-58 19h-135v-149zM232 -311v64q63 0 63 62v9h-63v134
h135v-142q0 -61 -36.5 -94t-98.5 -33z" />
    <glyph glyph-name="S.sc" horiz-adv-x="579" 
d="M299 -10q-106 0 -181 50.5t-83 148.5h126q6 -41 40 -65t90 -24q116 0 116 62q0 11 -4 20.5t-14 16.5t-19 12t-27.5 10.5t-30 8l-36 7.5t-36.5 8q-28 6 -46.5 11.5t-47 19.5t-46 31t-30.5 46.5t-13 66.5q0 77 58 125t160 48q113 0 172 -57t64 -124h-127q-13 71 -110 71
q-42 0 -69 -15t-27 -43q0 -30 25.5 -42t88.5 -24q11 -2 17 -3q32 -6 55 -12t57 -21t56 -34t38 -51t16 -73q0 -77 -61 -126t-171 -49z" />
    <glyph glyph-name="Sacute.sc" horiz-adv-x="579" 
d="M299 -10q-106 0 -181 50.5t-83 148.5h126q6 -41 40 -65t90 -24q116 0 116 62q0 11 -4 20.5t-14 16.5t-19 12t-27.5 10.5t-30 8l-36 7.5t-36.5 8q-28 6 -46.5 11.5t-47 19.5t-46 31t-30.5 46.5t-13 66.5q0 77 58 125t160 48q113 0 172 -57t64 -124h-127q-13 71 -110 71
q-42 0 -69 -15t-27 -43q0 -30 25.5 -42t88.5 -24q11 -2 17 -3q32 -6 55 -12t57 -21t56 -34t38 -51t16 -73q0 -77 -61 -126t-171 -49zM225 631l53 147h165l-123 -147h-95z" />
    <glyph glyph-name="Scaron.sc" horiz-adv-x="579" 
d="M299 -10q-106 0 -181 50.5t-83 148.5h126q6 -41 40 -65t90 -24q116 0 116 62q0 11 -4 20.5t-14 16.5t-19 12t-27.5 10.5t-30 8l-36 7.5t-36.5 8q-28 6 -46.5 11.5t-47 19.5t-46 31t-30.5 46.5t-13 66.5q0 77 58 125t160 48q113 0 172 -57t64 -124h-127q-13 71 -110 71
q-42 0 -69 -15t-27 -43q0 -30 25.5 -42t88.5 -24q11 -2 17 -3q32 -6 55 -12t57 -21t56 -34t38 -51t16 -73q0 -77 -61 -126t-171 -49zM240 628l-130 154h108l62 -71l61 71h109l-130 -154h-80z" />
    <glyph glyph-name="Scedilla.sc" horiz-adv-x="579" 
d="M531 165q0 -73 -54.5 -121t-154.5 -53l-32 -49q11 4 26 4q36 0 62.5 -24.5t26.5 -64.5q0 -44 -33.5 -68.5t-81.5 -24.5q-44 0 -76.5 21.5t-42.5 57.5h74q10 -22 42 -22q16 0 28.5 9.5t12.5 25.5q0 17 -12 27t-29 10q-23 0 -39 -16l-38 34l46 82q-91 9 -152.5 58.5
t-68.5 137.5h126q6 -41 40 -65t90 -24q116 0 116 62q0 11 -4 20.5t-14 16.5t-19 12t-27.5 10.5t-30 8l-36 7.5t-36.5 8q-28 6 -46.5 11.5t-47 19.5t-46 31t-30.5 46.5t-13 66.5q0 77 58 125t160 48q113 0 172 -57t64 -124h-127q-13 71 -110 71q-42 0 -69 -15t-27 -43
q0 -30 25.5 -42t88.5 -24q11 -2 17 -3q32 -6 55 -12t57 -21t56 -34t38 -51t16 -73z" />
    <glyph glyph-name="Scircumflex.sc" horiz-adv-x="579" 
d="M299 -10q-106 0 -181 50.5t-83 148.5h126q6 -41 40 -65t90 -24q116 0 116 62q0 11 -4 20.5t-14 16.5t-19 12t-27.5 10.5t-30 8l-36 7.5t-36.5 8q-28 6 -46.5 11.5t-47 19.5t-46 31t-30.5 46.5t-13 66.5q0 77 58 125t160 48q113 0 172 -57t64 -124h-127q-13 71 -110 71
q-42 0 -69 -15t-27 -43q0 -30 25.5 -42t88.5 -24q11 -2 17 -3q32 -6 55 -12t57 -21t56 -34t38 -51t16 -73q0 -77 -61 -126t-171 -49zM105 631l130 154h80l130 -154h-108l-62 71l-61 -71h-109z" />
    <glyph glyph-name="Scommaaccent.sc" horiz-adv-x="579" 
d="M299 -10q-106 0 -181 50.5t-83 148.5h126q6 -41 40 -65t90 -24q116 0 116 62q0 11 -4 20.5t-14 16.5t-19 12t-27.5 10.5t-30 8l-36 7.5t-36.5 8q-28 6 -46.5 11.5t-47 19.5t-46 31t-30.5 46.5t-13 66.5q0 77 58 125t160 48q113 0 172 -57t64 -124h-127q-13 71 -110 71
q-42 0 -69 -15t-27 -43q0 -30 25.5 -42t88.5 -24q11 -2 17 -3q32 -6 55 -12t57 -21t56 -34t38 -51t16 -73q0 -77 -61 -126t-171 -49zM211 -311v64q63 0 63 62v9h-63v134h135v-142q0 -61 -36.5 -94t-98.5 -33z" />
    <glyph glyph-name="T.sc" horiz-adv-x="508" 
d="M192 0v466h-165v112h454v-112h-164v-466h-125z" />
    <glyph glyph-name="Tcaron.sc" horiz-adv-x="508" 
d="M192 0v466h-165v112h454v-112h-164v-466h-125zM215 628l-130 154h108l62 -71l61 71h109l-130 -154h-80z" />
    <glyph glyph-name="Tcommaaccent.sc" horiz-adv-x="508" 
d="M192 0v466h-165v112h454v-112h-164v-466h-125zM183 -311v64q63 0 63 62v9h-63v134h135v-142q0 -61 -36.5 -94t-98.5 -33z" />
    <glyph glyph-name="Thorn.sc" horiz-adv-x="551" 
d="M66 0v578h126v-84h108q105 0 161 -51.5t56 -140.5q0 -84 -57 -135.5t-156 -51.5h-112v-115h-126zM192 225h106q90 0 90 77q0 82 -90 82h-106v-159z" />
    <glyph glyph-name="U.sc" horiz-adv-x="591" 
d="M296 -10q-109 0 -171 61.5t-62 168.5v358h128v-358q0 -122 105 -122t105 122v358h127v-358q0 -107 -62 -168.5t-170 -61.5z" />
    <glyph glyph-name="Uacute.sc" horiz-adv-x="591" 
d="M296 -10q-109 0 -171 61.5t-62 168.5v358h128v-358q0 -122 105 -122t105 122v358h127v-358q0 -107 -62 -168.5t-170 -61.5zM243 631l53 147h165l-123 -147h-95z" />
    <glyph glyph-name="Ubreve.sc" horiz-adv-x="591" 
d="M296 -10q-109 0 -171 61.5t-62 168.5v358h128v-358q0 -122 105 -122t105 122v358h127v-358q0 -107 -62 -168.5t-170 -61.5zM296 629q-64 0 -104 41.5t-44 101.5h73q13 -54 75 -54t75 54h73q-4 -60 -44 -101.5t-104 -41.5z" />
    <glyph glyph-name="Ucircumflex.sc" horiz-adv-x="591" 
d="M296 -10q-109 0 -171 61.5t-62 168.5v358h128v-358q0 -122 105 -122t105 122v358h127v-358q0 -107 -62 -168.5t-170 -61.5zM123 631l130 154h80l130 -154h-108l-62 71l-61 -71h-109z" />
    <glyph glyph-name="Udieresis.sc" horiz-adv-x="591" 
d="M296 -10q-109 0 -171 61.5t-62 168.5v358h128v-358q0 -122 105 -122t105 122v358h127v-358q0 -107 -62 -168.5t-170 -61.5zM329 631v114h122v-114h-122zM141 631v114h122v-114h-122z" />
    <glyph glyph-name="Ugrave.sc" horiz-adv-x="591" 
d="M296 -10q-109 0 -171 61.5t-62 168.5v358h128v-358q0 -122 105 -122t105 122v358h127v-358q0 -107 -62 -168.5t-170 -61.5zM266 631l-123 147h165l53 -147h-95z" />
    <glyph glyph-name="Uhungarumlaut.sc" horiz-adv-x="591" 
d="M296 -10q-109 0 -171 61.5t-62 168.5v358h128v-358q0 -122 105 -122t105 122v358h127v-358q0 -107 -62 -168.5t-170 -61.5zM337 631l54 147h133l-99 -147h-88zM153 631l54 147h133l-99 -147h-88z" />
    <glyph glyph-name="Umacron.sc" horiz-adv-x="591" 
d="M296 -10q-109 0 -171 61.5t-62 168.5v358h128v-358q0 -122 105 -122t105 122v358h127v-358q0 -107 -62 -168.5t-170 -61.5zM163 643v87h263v-87h-263z" />
    <glyph glyph-name="Uogonek.sc" horiz-adv-x="591" 
d="M296 -236q-48 0 -83.5 26t-35.5 71q0 70 97 130q-99 6 -155 67t-56 162v358h128v-358q0 -122 105 -122t105 122v358h127v-358q0 -91 -46 -150.5t-129 -74.5q-88 -74 -88 -132q0 -36 32 -36q30 0 40 22h76q-23 -85 -117 -85z" />
    <glyph glyph-name="Uring.sc" horiz-adv-x="591" 
d="M296 -10q-109 0 -171 61.5t-62 168.5v358h128v-358q0 -122 105 -122t105 122v358h127v-358q0 -107 -62 -168.5t-170 -61.5zM296 623q-45 0 -77 31t-32 75t32 75.5t77 31.5t77 -31.5t32 -75.5t-32 -75t-77 -31zM296 678q20 0 34 15t14 36t-14 36t-34 15t-34 -15t-14 -36
t14 -36t34 -15z" />
    <glyph glyph-name="V.sc" horiz-adv-x="552" 
d="M213 0l-195 578h135l102 -338l24 -107q15 73 25 107l102 338h128l-195 -578h-126z" />
    <glyph glyph-name="W.sc" horiz-adv-x="783" 
d="M164 0l-144 578h133l58 -281q3 -17 6.5 -39.5t5.5 -39t3.5 -31t1.5 -15.5q8 57 27 123l81 283h115l80 -283q6 -21 12 -49t9.5 -50.5t3.5 -23.5q0 38 19 124l56 282h134l-144 -578h-119l-88 326q-20 71 -23 97q-10 -60 -20 -97l-87 -326h-120z" />
    <glyph glyph-name="X.sc" horiz-adv-x="558" 
d="M22 0l187 295l-176 283h146l105 -183l98 183h143l-176 -283l187 -295h-144l-116 195l-111 -195h-143z" />
    <glyph glyph-name="Y.sc" horiz-adv-x="553" 
d="M213 0v215l-195 363h140l119 -245l123 245h135l-194 -363v-215h-128z" />
    <glyph glyph-name="Yacute.sc" horiz-adv-x="553" 
d="M213 0v215l-195 363h140l119 -245l123 245h135l-194 -363v-215h-128zM224 631l53 147h165l-123 -147h-95z" />
    <glyph glyph-name="Ydieresis.sc" horiz-adv-x="553" 
d="M213 0v215l-195 363h140l119 -245l123 245h135l-194 -363v-215h-128zM310 631v114h122v-114h-122zM122 631v114h122v-114h-122z" />
    <glyph glyph-name="Z.sc" horiz-adv-x="531" 
d="M41 0v110l281 357h-270v111h428v-105l-282 -362h292v-111h-449z" />
    <glyph glyph-name="Zacute.sc" horiz-adv-x="531" 
d="M41 0v110l281 357h-270v111h428v-105l-282 -362h292v-111h-449zM211 631l53 147h165l-123 -147h-95z" />
    <glyph glyph-name="Zcaron.sc" horiz-adv-x="531" 
d="M41 0v110l281 357h-270v111h428v-105l-282 -362h292v-111h-449zM226 628l-130 154h108l62 -71l61 71h109l-130 -154h-80z" />
    <glyph glyph-name="Zdotaccent.sc" horiz-adv-x="531" 
d="M41 0v110l281 357h-270v111h428v-105l-282 -362h292v-111h-449zM203 631v114h122v-114h-122z" />
    <glyph glyph-name="ampersand.sc" horiz-adv-x="576" 
d="M242 -10q-97 0 -158 49t-61 131q0 56 27.5 92.5t88.5 67.5q-40 53 -40 118q0 61 46 103t113 42q66 0 109 -40t43 -102q0 -81 -111 -136l102 -120q15 41 15 92v18h107v-20q0 -98 -49 -175l95 -110h-147l-27 31q-66 -41 -153 -41zM250 96q44 0 76 15l-132 154
q-46 -32 -46 -86q0 -38 26.5 -60.5t75.5 -22.5zM209 452q0 -32 30 -67l7 -9q59 29 59 74q0 22 -13.5 36t-34.5 14q-22 0 -35 -14t-13 -34z" />
    <glyph glyph-name="backslash.cap" horiz-adv-x="350" 
d="M225 -60l-228 800h118l228 -800h-118z" />
    <glyph glyph-name="backslash.sc" horiz-adv-x="301" 
d="M180 -51l-188 680h116l188 -680h-116z" />
    <glyph glyph-name="braceleft.cap" horiz-adv-x="344" 
d="M319 -70q-93 -8 -144.5 35.5t-51.5 137.5v66q0 58 -25.5 83.5t-76.5 25.5v95q51 0 76.5 26t25.5 84v65q0 94 51.5 137t144.5 34v-100q-39 3 -58 -18t-19 -59v-71q0 -58 -22.5 -93t-72.5 -52q50 -17 72.5 -52.5t22.5 -93.5v-72q0 -39 19 -60t58 -18v-100z" />
    <glyph glyph-name="braceleft.sc" horiz-adv-x="301" 
d="M282 -60q-178 -16 -178 154v34q0 102 -89 102v91q89 0 89 103v37q0 168 178 150v-95q-34 3 -50 -14.5t-16 -46.5v-46q0 -53 -20 -85t-65 -49q85 -28 85 -133v-43q0 -31 16 -48.5t50 -14.5v-96z" />
    <glyph glyph-name="braceright.cap" horiz-adv-x="344" 
d="M25 -70v100q39 -3 58 18t19 60v72q0 58 22.5 93.5t72.5 52.5q-50 17 -72.5 52t-22.5 93v71q0 38 -19 59t-58 18v100q93 9 144.5 -34t51.5 -137v-65q0 -58 25.5 -84t76.5 -26v-95q-51 0 -76.5 -25.5t-25.5 -83.5v-66q0 -94 -51.5 -137.5t-144.5 -35.5z" />
    <glyph glyph-name="braceright.sc" horiz-adv-x="301" 
d="M19 -60v96q34 -3 50 14.5t16 48.5v43q0 105 85 133q-45 17 -65 49t-20 85v46q0 29 -16 46.5t-50 14.5v95q178 18 178 -150v-37q0 -103 89 -103v-91q-89 0 -89 -102v-34q0 -170 -178 -154z" />
    <glyph glyph-name="bracketleft.cap" horiz-adv-x="331" 
d="M66 -70v790h240v-104h-122v-582h122v-104h-240z" />
    <glyph glyph-name="bracketleft.sc" horiz-adv-x="285" 
d="M50 -60v672h216v-99h-103v-473h103v-100h-216z" />
    <glyph glyph-name="bracketright.cap" horiz-adv-x="331" 
d="M25 -70v104h122v582h-122v104h240v-790h-240z" />
    <glyph glyph-name="bracketright.sc" horiz-adv-x="285" 
d="M19 -60v100h103v473h-103v99h216v-672h-216z" />
    <glyph glyph-name="cent.sc" horiz-adv-x="475" 
d="M248 -10q-23 0 -40 4l-26 -88h-62l32 106q-57 27 -91.5 81.5t-34.5 124.5q0 98 65.5 164.5t156.5 66.5q2 0 35 -3l28 90h62l-32 -107q87 -39 111 -138h-116q-11 26 -26 38l-73 -239q4 -1 12 -1q68 0 89 59h116q-17 -72 -72 -115t-134 -43zM142 218q0 -69 41 -105l71 237
h-5q-46 0 -76.5 -36t-30.5 -96z" />
    <glyph glyph-name="degree.sc" horiz-adv-x="369" 
d="M184 286q-64 0 -108.5 45t-44.5 109q0 63 44.5 108t108.5 45t109 -45t45 -108q0 -64 -45 -109t-109 -45zM184 360q31 0 52 23t21 57q0 33 -21 56t-52 23t-52 -23t-21 -56q0 -34 21 -57t52 -23z" />
    <glyph glyph-name="dollar.sc" horiz-adv-x="479" 
d="M206 -70v74q-85 11 -139.5 59t-62.5 127h117q11 -67 85 -81v127q-4 0 -5 1q-35 7 -61.5 17t-55.5 28.5t-45 50.5t-16 75q0 66 49 111t134 50v70h63v-72q83 -11 127.5 -60.5t48.5 -108.5h-116q-8 49 -60 64v-122q32 -6 53.5 -11.5t50 -18.5t45.5 -30t29.5 -45.5
t12.5 -65.5q0 -75 -49.5 -119t-141.5 -48v-72h-63zM342 165q0 25 -17.5 38t-55.5 21v-117q73 5 73 58zM135 413q0 -24 16.5 -37.5t54.5 -23.5v114q-71 -8 -71 -53z" />
    <glyph glyph-name="eight.denominator" horiz-adv-x="376" 
d="M188 -7q-71 0 -114.5 35.5t-43.5 90.5q0 71 69 100q-53 29 -53 85q0 48 42 81.5t100 33.5q56 0 99.5 -33.5t43.5 -81.5q0 -55 -55 -83q69 -32 69 -100q0 -56 -44 -92t-113 -36zM188 72q24 0 44 14.5t20 37.5q0 26 -20.5 39t-43.5 13q-24 0 -44 -13t-20 -39q0 -24 19 -38
t45 -14zM188 254q20 0 35.5 12.5t15.5 32.5t-16.5 31t-34.5 11q-20 0 -35.5 -11t-15.5 -31t14.5 -32.5t36.5 -12.5z" />
    <glyph glyph-name="eight.inferior" horiz-adv-x="302" 
d="M151 -93q-60 0 -94.5 29t-34.5 76q0 23 15 46.5t40 33.5q-42 20 -42 71q0 41 33.5 70t82.5 29t83.5 -29t34.5 -70q0 -47 -44 -68q26 -10 40.5 -33.5t14.5 -47.5q0 -47 -35 -77t-94 -30zM151 -24q19 0 32.5 11t13.5 30t-13.5 30t-32.5 11t-32.5 -11t-13.5 -30t13.5 -30
t32.5 -11zM151 120q15 0 27 10t12 26t-12 26t-27 10q-16 0 -27.5 -10t-11.5 -26t12 -26t27 -10z" />
    <glyph glyph-name="eight.numerator" horiz-adv-x="376" 
d="M188 265q-71 0 -114.5 35.5t-43.5 90.5q0 71 69 100q-53 29 -53 85q0 48 42 81.5t100 33.5q56 0 99.5 -33.5t43.5 -81.5q0 -55 -55 -83q69 -32 69 -100q0 -56 -44 -92t-113 -36zM188 344q24 0 44 14.5t20 37.5q0 26 -20.5 39t-43.5 13q-24 0 -44 -13t-20 -39
q0 -24 19 -38t45 -14zM188 526q20 0 35.5 12.5t15.5 32.5t-16.5 31t-34.5 11q-20 0 -35.5 -11t-15.5 -31t14.5 -32.5t36.5 -12.5z" />
    <glyph glyph-name="eight.sc" horiz-adv-x="506" 
d="M253 -10q-99 0 -159.5 49t-60.5 128q0 100 101 146q-77 41 -77 123q0 68 58 112.5t138 44.5t138 -44.5t58 -112.5q0 -82 -77 -121q101 -46 101 -146q0 -80 -59.5 -129.5t-160.5 -49.5zM253 93q40 0 66 22t26 60t-26 59.5t-66 21.5t-66 -21.5t-26 -59.5t26 -60t66 -22z
M253 359q29 0 51 17.5t22 48.5t-22 48.5t-51 17.5t-51 -17.5t-22 -48.5t22 -48.5t51 -17.5z" />
    <glyph glyph-name="eight.superior" horiz-adv-x="302" 
d="M151 330q-60 0 -94.5 29t-34.5 76q0 23 15 46.5t40 33.5q-42 20 -42 71q0 41 33.5 70t82.5 29t83.5 -29t34.5 -70q0 -47 -44 -68q26 -10 40.5 -33.5t14.5 -47.5q0 -47 -35 -77t-94 -30zM151 399q19 0 32.5 11t13.5 30t-13.5 30t-32.5 11t-32.5 -11t-13.5 -30t13.5 -30
t32.5 -11zM151 543q15 0 27 10t12 26t-12 26t-27 10q-16 0 -27.5 -10t-11.5 -26t12 -26t27 -10z" />
    <glyph glyph-name="elevensixteenths" horiz-adv-x="1510" 
d="M1320 -7q-28 0 -54.5 9t-52.5 30t-42 63.5t-16 101.5q0 104 46 164t128 60q120 0 140 -113h-92q-10 34 -47 34q-32 0 -54.5 -31.5t-20.5 -89.5q26 43 92 43q48 0 86.5 -35t38.5 -93q0 -65 -42 -104t-110 -39zM474 0l373 680h101l-373 -680h-101zM424 272v259h-89v68
q48 1 79.5 22t33.5 59h75v-408h-99zM965 0v259h-89v68q48 1 79.5 22t33.5 59h75v-408h-99zM137 272v259h-89v68q48 1 79.5 22t33.5 59h75v-408h-99zM1318 71q26 0 42.5 18t16.5 43t-16 41t-42 16t-42.5 -16t-16.5 -41t16.5 -43t41.5 -18z" />
    <glyph glyph-name="emdash.cap" horiz-adv-x="867" 
d="M39 266v123h789v-123h-789z" />
    <glyph glyph-name="endash.cap" horiz-adv-x="552" 
d="M39 266v123h474v-123h-474z" />
    <glyph glyph-name="equal.sc" horiz-adv-x="479" 
d="M38 320v114h403v-114h-403zM38 106v114h403v-114h-403z" />
    <glyph glyph-name="exclam.sc" horiz-adv-x="245" 
d="M76 183l-21 395h135l-21 -395h-93zM62 0v126h124v-126h-124z" />
    <glyph glyph-name="exclamdown.sc" horiz-adv-x="245" 
d="M169 395l21 -395h-135l21 395h93zM183 578v-126h-124v126h124z" />
    <glyph glyph-name="ff.sc" horiz-adv-x="1012" 
d="M66 0v578h396v-112h-272v-131h228v-112h-228v-223h-124zM572 0v578h396v-112h-272v-131h228v-112h-228v-223h-124z" />
    <glyph glyph-name="ffi.sc" horiz-adv-x="1274" 
d="M66 0v578h396v-112h-272v-131h228v-112h-228v-223h-124zM572 0v578h396v-112h-272v-131h228v-112h-228v-223h-124zM1080 0v578h126v-578h-126z" />
    <glyph glyph-name="ffl.sc" horiz-adv-x="1510" 
d="M66 0v578h396v-112h-272v-131h228v-112h-228v-223h-124zM572 0v578h396v-112h-272v-131h228v-112h-228v-223h-124zM1078 0v578h126v-466h268v-112h-394z" />
    <glyph glyph-name="fi.sc" horiz-adv-x="768" 
d="M66 0v578h396v-112h-272v-131h228v-112h-228v-223h-124zM574 0v578h126v-578h-126z" />
    <glyph glyph-name="fifteensixteenths" horiz-adv-x="1576" 
d="M1386 -7q-28 0 -54.5 9t-52.5 30t-42 63.5t-16 101.5q0 104 46 164t128 60q120 0 140 -113h-92q-10 34 -47 34q-32 0 -54.5 -31.5t-20.5 -89.5q26 43 92 43q48 0 86.5 -35t38.5 -93q0 -65 -42 -104t-110 -39zM482 265q-67 0 -111.5 33t-50.5 88h97q10 -40 59 -40
q25 0 42 18t17 45t-17 42t-44 15q-37 0 -61 -31l-79 33l28 212h248v-82h-174l-12 -85q27 33 80 33q52 0 90 -34t38 -105q0 -57 -41.5 -99.5t-108.5 -42.5zM540 0l373 680h101l-373 -680h-101zM1031 0v259h-89v68q48 1 79.5 22t33.5 59h75v-408h-99zM137 272v259h-89v68
q48 1 79.5 22t33.5 59h75v-408h-99zM1384 71q26 0 42.5 18t16.5 43t-16 41t-42 16t-42.5 -16t-16.5 -41t16.5 -43t41.5 -18z" />
    <glyph glyph-name="five.denominator" horiz-adv-x="383" 
d="M195 -7q-67 0 -111.5 33t-50.5 88h97q10 -40 59 -40q25 0 42 18t17 45t-17 42t-44 15q-37 0 -61 -31l-79 33l28 212h248v-82h-174l-12 -85q27 33 80 33q52 0 90 -34t38 -105q0 -57 -41.5 -99.5t-108.5 -42.5z" />
    <glyph glyph-name="five.inferior" horiz-adv-x="312" 
d="M157 -86q-54 0 -91.5 28.5t-38.5 72.5h81q6 -28 47 -28q19 0 32.5 12.5t13.5 33.5q0 20 -14 31t-34 11q-13 0 -22.5 -4t-17.5 -11l-8 -6l-70 25l24 178h207v-70h-144l-10 -70q25 25 63 25q45 0 77.5 -29t32.5 -86q0 -49 -37 -81t-91 -32z" />
    <glyph glyph-name="five.numerator" horiz-adv-x="383" 
d="M195 265q-67 0 -111.5 33t-50.5 88h97q10 -40 59 -40q25 0 42 18t17 45t-17 42t-44 15q-37 0 -61 -31l-79 33l28 212h248v-82h-174l-12 -85q27 33 80 33q52 0 90 -34t38 -105q0 -57 -41.5 -99.5t-108.5 -42.5z" />
    <glyph glyph-name="five.sc" horiz-adv-x="497" 
d="M250 -10q-98 0 -155.5 48t-63.5 121h124q7 -26 31 -42.5t58 -16.5q40 0 64 24.5t24 66.5q0 41 -25.5 65.5t-63.5 24.5q-51 0 -89 -46l-104 41l40 302h339v-108h-242l-18 -123q41 41 103 41q76 0 132 -51.5t56 -144.5q0 -89 -56 -145.5t-154 -56.5z" />
    <glyph glyph-name="five.superior" horiz-adv-x="312" 
d="M157 337q-54 0 -91.5 28.5t-38.5 72.5h81q6 -28 47 -28q19 0 32.5 12.5t13.5 33.5q0 20 -14 31t-34 11q-13 0 -22.5 -4t-17.5 -10l-8 -7l-70 25l24 178h207v-70h-144l-10 -70q25 25 63 25q45 0 77.5 -29t32.5 -86q0 -49 -37 -81t-91 -32z" />
    <glyph glyph-name="fivesixteenths" horiz-adv-x="1289" 
d="M1099 -7q-28 0 -54.5 9t-52.5 30t-42 63.5t-16 101.5q0 104 46 164t128 60q120 0 140 -113h-92q-10 34 -47 34q-32 0 -54.5 -31.5t-20.5 -89.5q26 43 92 43q48 0 86.5 -35t38.5 -93q0 -65 -42 -104t-110 -39zM195 265q-67 0 -111.5 33t-50.5 88h97q10 -40 59 -40
q25 0 42 18t17 45t-17 42t-44 15q-37 0 -61 -31l-79 33l28 212h248v-82h-174l-12 -85q27 33 80 33q52 0 90 -34t38 -105q0 -57 -41.5 -99.5t-108.5 -42.5zM253 0l373 680h101l-373 -680h-101zM744 0v259h-89v68q48 1 79.5 22t33.5 59h75v-408h-99zM1097 71q26 0 42.5 18
t16.5 43t-16 41t-42 16t-42.5 -16t-16.5 -41t16.5 -43t41.5 -18z" />
    <glyph glyph-name="fl.sc" horiz-adv-x="1004" 
d="M66 0v578h396v-112h-272v-131h228v-112h-228v-223h-124zM572 0v578h126v-466h268v-112h-394z" />
    <glyph glyph-name="florin.sc" horiz-adv-x="416" 
d="M61 238v97h75l25 111q17 75 64 111t109 36q43 0 82 -15l-19 -93q-31 7 -43 7q-28 0 -44.5 -17.5t-26.5 -60.5l-17 -79h91v-97h-112l-53 -244q-15 -67 -59 -101.5t-111 -34.5q-41 0 -75 12l20 94q28 -7 39 -7q27 0 39.5 13.5t20.5 49.5l48 218h-53z" />
    <glyph glyph-name="four.denominator" horiz-adv-x="406" 
d="M228 0v78h-194v78l177 252h105v-256h64v-74h-64v-78h-88zM124 152h104v156z" />
    <glyph glyph-name="four.inferior" horiz-adv-x="339" 
d="M189 -80v61h-161v74l163 202h77v-208h45v-68h-45v-61h-79zM101 49h88v107z" />
    <glyph glyph-name="four.numerator" horiz-adv-x="406" 
d="M228 272v78h-194v78l177 252h105v-256h64v-74h-64v-78h-88zM124 424h104v156z" />
    <glyph glyph-name="four.sc" horiz-adv-x="545" 
d="M314 0v113h-282v108l261 357h139v-361h69v-104h-69v-113h-118zM160 217h154v213z" />
    <glyph glyph-name="four.superior" horiz-adv-x="339" 
d="M189 343v61h-161v74l163 202h77v-208h45v-68h-45v-61h-79zM101 472h88v107z" />
    <glyph glyph-name="germandbls.sc" horiz-adv-x="1158" 
d="M299 -10q-106 0 -181 50.5t-83 148.5h126q6 -41 40 -65t90 -24q116 0 116 62q0 11 -4 20.5t-14 16.5t-19 12t-27.5 10.5t-30 8l-36 7.5t-36.5 8q-28 6 -46.5 11.5t-47 19.5t-46 31t-30.5 46.5t-13 66.5q0 77 58 125t160 48q113 0 172 -57t64 -124h-127q-13 71 -110 71
q-42 0 -69 -15t-27 -43q0 -30 25.5 -42t88.5 -24q11 -2 17 -3q32 -6 55 -12t57 -21t56 -34t38 -51t16 -73q0 -77 -61 -126t-171 -49zM878 -10q-106 0 -181 50.5t-83 148.5h126q6 -41 40 -65t90 -24q116 0 116 62q0 11 -4 20.5t-14 16.5t-19 12t-27.5 10.5t-30 8l-36 7.5
t-36.5 8q-28 6 -46.5 11.5t-47 19.5t-46 31t-30.5 46.5t-13 66.5q0 77 58 125t160 48q113 0 172 -57t64 -124h-127q-13 71 -110 71q-42 0 -69 -15t-27 -43q0 -30 25.5 -42t88.5 -24q11 -2 17 -3q32 -6 55 -12t57 -21t56 -34t38 -51t16 -73q0 -77 -61 -126t-171 -49z" />
    <glyph glyph-name="greater.sc" horiz-adv-x="444" 
d="M37 23v132l252 106l-252 106v130l370 -175v-123z" />
    <glyph glyph-name="hyphen.cap" horiz-adv-x="339" 
d="M39 266v123h261v-123h-261z" />
    <glyph glyph-name="idotaccent" horiz-adv-x="254" 
d="M64 0v515h126v-515h-126zM61 589v125h132v-125h-132z" />
    <glyph glyph-name="less.sc" horiz-adv-x="444" 
d="M407 24l-370 175v123l370 176v-132l-252 -106l252 -106v-130z" />
    <glyph glyph-name="minus.sc" horiz-adv-x="481" 
d="M38 235v111h405v-111h-405z" />
    <glyph glyph-name="multiply.sc" horiz-adv-x="490" 
d="M117 82l-73 73l128 130l-128 130l73 73l128 -130l128 130l73 -73l-129 -130l129 -130l-73 -73l-128 129z" />
    <glyph glyph-name="nine.denominator" horiz-adv-x="394" 
d="M179 -7q-61 0 -101 32t-48 83h91q4 -15 21 -25.5t35 -10.5q35 0 54.5 30t18.5 88q-28 -41 -90 -41q-48 0 -87 35t-39 93q0 65 42.5 104.5t109.5 39.5q28 0 54.5 -9t53 -30t42.5 -63.5t16 -101.5q0 -105 -43.5 -164.5t-129.5 -59.5zM187 225q27 0 43 15.5t16 40.5
q0 26 -16.5 43.5t-42.5 17.5q-25 0 -41.5 -17.5t-16.5 -43.5q0 -25 16 -40.5t42 -15.5z" />
    <glyph glyph-name="nine.inferior" horiz-adv-x="330" 
d="M161 -86q-51 0 -85 28.5t-40 67.5h82q5 -26 41 -26q29 0 41.5 22.5t13.5 67.5q-23 -32 -72 -32q-48 0 -79.5 28.5t-31.5 78.5q0 52 36.5 85t90.5 33q68 0 105.5 -44t37.5 -128t-35.5 -132.5t-104.5 -48.5zM163 109q22 0 35 12t13 31t-13 31t-35 12q-21 0 -34.5 -12
t-13.5 -31t13.5 -31t34.5 -12z" />
    <glyph glyph-name="nine.numerator" horiz-adv-x="394" 
d="M179 265q-61 0 -101 32t-48 83h91q4 -15 21 -25.5t35 -10.5q35 0 54.5 30t18.5 88q-28 -41 -90 -41q-48 0 -87 35t-39 93q0 65 42.5 104.5t109.5 39.5q28 0 54.5 -9t53 -30t42.5 -63.5t16 -101.5q-1 -106 -44 -165t-129 -59zM187 497q27 0 43 15.5t16 40.5
q0 26 -16.5 43.5t-42.5 17.5q-25 0 -41.5 -17.5t-16.5 -43.5q0 -25 16 -40.5t42 -15.5z" />
    <glyph glyph-name="nine.sc" horiz-adv-x="492" 
d="M236 593q41 0 76.5 -13.5t69 -43.5t53 -88.5t19.5 -139.5q0 -152 -58 -235t-170 -83q-78 0 -129.5 45t-62.5 111h122q6 -21 25.5 -34.5t46.5 -13.5q46 0 72.5 42t26.5 117q-17 -22 -49.5 -35.5t-62.5 -13.5q-81 0 -131.5 51t-50.5 134q0 87 56.5 143.5t146.5 56.5z
M239 484q-37 0 -60 -25t-23 -62t23 -62t60 -25t60 25t23 62t-23 62t-60 25z" />
    <glyph glyph-name="nine.superior" horiz-adv-x="330" 
d="M161 337q-51 0 -85 28.5t-40 67.5h82q5 -26 41 -26q29 0 41.5 22.5t13.5 67.5q-23 -32 -72 -32q-48 0 -79.5 28.5t-31.5 78.5q0 52 36.5 85t90.5 33q68 0 105.5 -44t37.5 -128t-35.5 -132.5t-104.5 -48.5zM163 532q22 0 35 12t13 31t-13 31t-35 12q-21 0 -34.5 -12
t-13.5 -31t13.5 -31t34.5 -12z" />
    <glyph glyph-name="ninesixteenths" horiz-adv-x="1290" 
d="M179 265q-61 0 -101 32t-48 83h91q4 -15 21 -25.5t35 -10.5q35 0 54.5 30t18.5 88q-28 -41 -90 -41q-48 0 -87 35t-39 93q0 65 42.5 104.5t109.5 39.5q28 0 54.5 -9t53 -30t42.5 -63.5t16 -101.5q-1 -106 -44 -165t-129 -59zM1100 -7q-28 0 -54.5 9t-52.5 30t-42 63.5
t-16 101.5q0 104 46 164t128 60q120 0 140 -113h-92q-10 34 -47 34q-32 0 -54.5 -31.5t-20.5 -89.5q26 43 92 43q48 0 86.5 -35t38.5 -93q0 -65 -42 -104t-110 -39zM254 0l373 680h101l-373 -680h-101zM745 0v259h-89v68q48 1 79.5 22t33.5 59h75v-408h-99zM1098 71
q26 0 42.5 18t16.5 43t-16 41t-42 16t-42.5 -16t-16.5 -41t16.5 -43t41.5 -18zM187 497q27 0 43 15.5t16 40.5q0 26 -16.5 43.5t-42.5 17.5q-25 0 -41.5 -17.5t-16.5 -43.5q0 -25 16 -40.5t42 -15.5z" />
    <glyph glyph-name="numbersign.sc" horiz-adv-x="508" 
d="M83 72l14 104h-66l17 107h65l12 88h-68l16 107h66l14 100h98l-13 -100h75l14 100h98l-14 -100h65l-17 -107h-63l-12 -88h67l-16 -107h-66l-14 -104h-98l14 104h-76l-14 -104h-98zM210 283h77l13 88h-78z" />
    <glyph glyph-name="one.denominator" horiz-adv-x="287" 
d="M137 0v259h-89v68q48 1 79.5 22t33.5 59h75v-408h-99z" />
    <glyph glyph-name="one.inferior" horiz-adv-x="261" 
d="M102 -80v206h-64v59q76 4 85 72h65v-337h-86z" />
    <glyph glyph-name="one.numerator" horiz-adv-x="287" 
d="M137 272v259h-89v68q48 1 79.5 22t33.5 59h75v-408h-99z" />
    <glyph glyph-name="one.sc" horiz-adv-x="354" 
d="M140 0v388h-96v88q51 0 86.5 25.5t39.5 76.5h99v-578h-129z" />
    <glyph glyph-name="one.superior" horiz-adv-x="261" 
d="M102 343v206h-64v59q76 4 85 72h65v-337h-86z" />
    <glyph glyph-name="onesixteenth" horiz-adv-x="1223" 
d="M1033 -7q-28 0 -54.5 9t-52.5 30t-42 63.5t-16 101.5q0 104 46 164t128 60q120 0 140 -113h-92q-10 34 -47 34q-32 0 -54.5 -31.5t-20.5 -89.5q26 43 92 43q48 0 86.5 -35t38.5 -93q0 -65 -42 -104t-110 -39zM187 0l373 680h101l-373 -680h-101zM137 272v259h-89v68
q48 1 79.5 22t33.5 59h75v-408h-99zM678 0v259h-89v68q48 1 79.5 22t33.5 59h75v-408h-99zM1031 71q26 0 42.5 18t16.5 43t-16 41t-42 16t-42.5 -16t-16.5 -41t16.5 -43t41.5 -18z" />
    <glyph glyph-name="ordfeminine.sc" horiz-adv-x="433" 
d="M172 199q-57 0 -97 29.5t-40 84.5q0 94 141 112q65 9 87.5 18.5t22.5 31.5q0 35 -59 35q-62 0 -75 -43h-100q7 53 53 89.5t121 36.5q84 0 125 -37.5t41 -97.5v-170q0 -46 14 -79h-104q-10 19 -12 55q-37 -65 -118 -65zM198 280q41 0 64.5 21t23.5 55v32q-29 -20 -96 -31
q-47 -8 -47 -39q0 -38 55 -38z" />
    <glyph glyph-name="ordmasculine.sc" horiz-adv-x="443" 
d="M221 204q-79 0 -135 55.5t-56 138.5t56.5 139t134.5 56q79 0 135.5 -56t56.5 -139t-56.5 -138.5t-135.5 -55.5zM221 292q38 0 62.5 28.5t24.5 76.5q0 49 -24.5 78t-62.5 29q-37 0 -62 -29t-25 -78q0 -48 25 -76.5t62 -28.5z" />
    <glyph glyph-name="parenleft.cap" horiz-adv-x="322" 
d="M214 -80q-77 74 -125 179t-48 226q0 122 48 226.5t125 178.5h103q-146 -191 -146 -405q0 -212 146 -405h-103z" />
    <glyph glyph-name="parenleft.sc" horiz-adv-x="293" 
d="M186 -68q-68 61 -111.5 149.5t-43.5 192.5q0 106 44 196t111 151h105q-59 -71 -94.5 -161t-35.5 -186q0 -184 130 -342h-105z" />
    <glyph glyph-name="parenright.cap" horiz-adv-x="322" 
d="M5 -80q146 193 146 405q0 214 -146 405h103q77 -74 125 -178.5t48 -226.5q0 -121 -48 -226t-125 -179h-103z" />
    <glyph glyph-name="parenright.sc" horiz-adv-x="293" 
d="M107 -68h-105q130 158 130 342q0 96 -35.5 186t-94.5 161h105q67 -61 111 -151t44 -196q0 -104 -43.5 -192.5t-111.5 -149.5z" />
    <glyph glyph-name="percent.sc" horiz-adv-x="721" 
d="M172 291q-65 0 -109 43t-44 105t44 105t109 43t109.5 -43t44.5 -105t-44.5 -105t-109.5 -43zM550 -10q-65 0 -109.5 44t-44.5 105q0 62 44.5 104.5t109.5 42.5t109 -42.5t44 -104.5q0 -61 -44.5 -105t-108.5 -44zM157 0l313 578h95l-313 -578h-95zM172 372q24 0 42 17.5
t18 49.5t-17.5 49t-42.5 17t-43.5 -17t-18.5 -49t18.5 -49.5t43.5 -17.5zM550 72q26 0 43 17.5t17 49.5q0 31 -17 48.5t-43 17.5q-24 0 -42.5 -17.5t-18.5 -48.5q0 -32 18 -49.5t43 -17.5z" />
    <glyph glyph-name="perthousand.sc" horiz-adv-x="1064" 
d="M172 291q-65 0 -109 43t-44 105t44 105t109 43t109.5 -43t44.5 -105t-44.5 -105t-109.5 -43zM550 -10q-65 0 -109.5 44t-44.5 105q0 62 44.5 104.5t109.5 42.5t109 -42.5t44 -104.5q0 -61 -44.5 -105t-108.5 -44zM892 -10q-65 0 -109.5 44t-44.5 105q0 62 44.5 104.5
t109.5 42.5t109 -42.5t44 -104.5q0 -61 -44.5 -105t-108.5 -44zM157 0l313 578h95l-313 -578h-95zM172 372q24 0 42 17.5t18 49.5t-17.5 49t-42.5 17t-43.5 -17t-18.5 -49t18.5 -49.5t43.5 -17.5zM892 72q26 0 43 17.5t17 49.5q0 31 -17 48.5t-43 17.5q-24 0 -42.5 -17.5
t-18.5 -48.5q0 -32 18 -49.5t43 -17.5zM550 72q26 0 43 17.5t17 49.5q0 31 -17 48.5t-43 17.5q-24 0 -42.5 -17.5t-18.5 -48.5q0 -32 18 -49.5t43 -17.5z" />
    <glyph glyph-name="plus.sc" horiz-adv-x="511" 
d="M198 74v161h-160v111h160v160h115v-160h160v-111h-160v-161h-115z" />
    <glyph glyph-name="question.sc" horiz-adv-x="449" 
d="M150 183v10q0 33 7 58t24.5 45t27 29t34.5 27q30 22 39.5 38.5t9.5 38.5q0 23 -18.5 40t-51.5 17q-40 0 -63 -24.5t-25 -59.5h-115q-1 86 53.5 138.5t149.5 52.5q90 0 142 -46t52 -120q0 -45 -19.5 -77t-63.5 -62q-44 -29 -59.5 -49t-15.5 -46v-10h-108zM141 0v126h124
v-126h-124z" />
    <glyph glyph-name="questiondown.sc" horiz-adv-x="459" 
d="M304 395v-10q0 -33 -7 -58t-24.5 -45t-27 -29t-34.5 -27q-30 -22 -39.5 -38.5t-9.5 -38.5q0 -23 18.5 -40t51.5 -17q40 0 63 24.5t25 59.5h115q1 -86 -53.5 -138.5t-149.5 -52.5q-90 0 -142 46t-52 120q0 45 19.5 77t63.5 62q44 29 59.5 49t15.5 46v10h108zM313 578v-126
h-124v126h124z" />
    <glyph glyph-name="section.sc" horiz-adv-x="453" 
d="M231 -71q-78 0 -129 39.5t-59 103.5h117q7 -41 67 -41q26 0 41.5 10t15.5 24q0 17 -13.5 28t-55.5 20t-66 15.5t-52.5 18t-43.5 25t-25.5 34.5t-10.5 49q0 66 76 104q-38 36 -38 91q0 60 45.5 101.5t126.5 41.5q79 0 127.5 -39t53.5 -99h-120q-7 36 -60 36q-56 0 -56 -34
q0 -16 13 -27t52 -20q41 -9 63.5 -15.5t52.5 -18.5t45.5 -26t26.5 -36.5t11 -51.5q0 -62 -76 -101q40 -38 40 -90q0 -60 -45 -101t-124 -41zM214 305q-27 5 -50 12q-37 -14 -37 -43q0 -22 24.5 -34t86.5 -23q27 -5 47 -13q41 15 41 43q0 22 -24.5 34t-87.5 24z" />
    <glyph glyph-name="seven.denominator" horiz-adv-x="366" 
d="M93 0q-3 104 35 188.5t91 129.5h-185v90h293v-85q-58 -55 -97.5 -137.5t-36.5 -185.5h-100z" />
    <glyph glyph-name="seven.inferior" horiz-adv-x="297" 
d="M75 -80q-6 147 106 259h-152v78h242v-72q-50 -58 -81 -120.5t-29 -144.5h-86z" />
    <glyph glyph-name="seven.numerator" horiz-adv-x="366" 
d="M93 272q-3 104 35 188.5t91 129.5h-185v90h293v-85q-58 -55 -97.5 -137.5t-36.5 -185.5h-100z" />
    <glyph glyph-name="seven.sc" horiz-adv-x="464" 
d="M110 0q0 148 54 271t139 195h-280v112h419v-105q-202 -193 -202 -473h-130z" />
    <glyph glyph-name="seven.superior" horiz-adv-x="297" 
d="M75 343q-6 147 106 259h-152v78h242v-72q-50 -58 -81 -120.5t-29 -144.5h-86z" />
    <glyph glyph-name="sevensixteenths" horiz-adv-x="1242" 
d="M1052 -7q-28 0 -54.5 9t-52.5 30t-42 63.5t-16 101.5q0 104 46 164t128 60q120 0 140 -113h-92q-10 34 -47 34q-32 0 -54.5 -31.5t-20.5 -89.5q26 43 92 43q48 0 86.5 -35t38.5 -93q0 -65 -42 -104t-110 -39zM206 0l373 680h101l-373 -680h-101zM93 272q-3 104 35 188.5
t91 129.5h-185v90h293v-85q-58 -55 -97.5 -137.5t-36.5 -185.5h-100zM697 0v259h-89v68q48 1 79.5 22t33.5 59h75v-408h-99zM1050 71q26 0 42.5 18t16.5 43t-16 41t-42 16t-42.5 -16t-16.5 -41t16.5 -43t41.5 -18z" />
    <glyph glyph-name="six.denominator" horiz-adv-x="395" 
d="M205 -7q-28 0 -54.5 9t-52.5 30t-42 63.5t-16 101.5q0 104 46 164t128 60q120 0 140 -113h-92q-10 34 -47 34q-32 0 -54.5 -31.5t-20.5 -89.5q26 43 92 43q48 0 86.5 -35t38.5 -93q0 -65 -42 -104t-110 -39zM203 71q26 0 42.5 18t16.5 43t-16 41t-42 16t-42.5 -16
t-16.5 -41t16.5 -43t41.5 -18z" />
    <glyph glyph-name="six.inferior" horiz-adv-x="323" 
d="M170 -86q-68 0 -104.5 45t-36.5 131q0 82 38 129.5t104 47.5q95 0 120 -95h-84q-9 25 -36 25q-26 0 -41.5 -23.5t-14.5 -65.5q23 32 71 32q47 0 78.5 -28.5t31.5 -78.5q0 -53 -36 -86t-90 -33zM165 -14q21 0 34 12.5t13 31.5t-12.5 31t-33.5 12q-22 0 -35 -12t-13 -31
t13 -31.5t34 -12.5z" />
    <glyph glyph-name="six.numerator" horiz-adv-x="395" 
d="M205 265q-28 0 -54.5 9t-52.5 30t-42 63.5t-16 101.5q0 104 46 164t128 60q120 0 140 -113h-92q-10 34 -47 34q-32 0 -54.5 -31.5t-20.5 -89.5q26 43 92 43q48 0 86.5 -35t38.5 -93q0 -65 -42 -104t-110 -39zM203 343q26 0 42.5 18t16.5 43t-16 41t-42 16t-42.5 -16
t-16.5 -41t16.5 -43t41.5 -18z" />
    <glyph glyph-name="six.sc" horiz-adv-x="497" 
d="M259 -10q-41 0 -77 13.5t-70 43.5t-54 88.5t-20 139.5q0 150 60.5 234t169.5 84q78 0 126.5 -44t59.5 -111h-124q-13 47 -64 47q-42 0 -69 -44.5t-29 -114.5q17 22 49.5 35.5t62.5 13.5q81 0 131.5 -51t50.5 -134q0 -87 -56.5 -143.5t-146.5 -56.5zM256 99q37 0 60 25
t23 62t-23 62t-60 25t-60 -25t-23 -62t23 -62t60 -25z" />
    <glyph glyph-name="six.superior" horiz-adv-x="323" 
d="M170 337q-68 0 -104.5 45t-36.5 131q0 82 38 129.5t104 47.5q95 0 120 -95h-84q-9 25 -36 25q-26 0 -41.5 -23.5t-14.5 -65.5q23 32 71 32q47 0 78.5 -28.5t31.5 -78.5q0 -53 -36 -86t-90 -33zM165 409q21 0 34 12.5t13 31.5t-12.5 31t-33.5 12q-22 0 -35 -12t-13 -31
t13 -31.5t34 -12.5z" />
    <glyph glyph-name="slash.cap" horiz-adv-x="350" 
d="M7 -60l228 800h118l-228 -800h-118z" />
    <glyph glyph-name="slash.sc" horiz-adv-x="300" 
d="M4 -51l188 680h116l-188 -680h-116z" />
    <glyph glyph-name="sterling.sc" horiz-adv-x="466" 
d="M31 240v78h48q-24 46 -24 94q0 83 54.5 132t140.5 49q87 0 140.5 -51t53.5 -134h-111q0 34 -22 57t-61 23q-38 0 -58 -21t-20 -55q0 -10 1.5 -18.5t5.5 -20t6 -16.5t8.5 -20t8.5 -19h123v-78h-102q2 -18 2 -28q0 -30 -16 -58.5t-39 -45.5q28 10 50 10q27 0 64 -11t51 -11
q38 0 72 27l55 -86q-49 -46 -118 -46q-28 0 -77 18.5t-80 18.5q-55 0 -101 -36l-56 81q91 69 91 131q0 18 -5 36h-85z" />
    <glyph glyph-name="thirteensixteenths" horiz-adv-x="1578" 
d="M1388 -7q-28 0 -54.5 9t-52.5 30t-42 63.5t-16 101.5q0 104 46 164t128 60q120 0 140 -113h-92q-10 34 -47 34q-32 0 -54.5 -31.5t-20.5 -89.5q26 43 92 43q48 0 86.5 -35t38.5 -93q0 -65 -42 -104t-110 -39zM478 265q-76 0 -120 39.5t-44 104.5h95q0 -61 69 -61
q28 0 43.5 16t15.5 35q0 22 -15 33.5t-32 11.5h-33v78h22q18 0 31.5 13t13.5 30t-12.5 32t-35.5 15q-24 0 -38.5 -14.5t-14.5 -35.5h-96q3 56 42.5 94t109.5 38t105.5 -35.5t35.5 -81.5q0 -26 -16 -50t-42 -36q31 -8 52.5 -37t21.5 -56q0 -51 -41 -92t-117 -41zM542 0
l373 680h101l-373 -680h-101zM1033 0v259h-89v68q48 1 79.5 22t33.5 59h75v-408h-99zM137 272v259h-89v68q48 1 79.5 22t33.5 59h75v-408h-99zM1386 71q26 0 42.5 18t16.5 43t-16 41t-42 16t-42.5 -16t-16.5 -41t16.5 -43t41.5 -18z" />
    <glyph glyph-name="three.denominator" horiz-adv-x="385" 
d="M191 -7q-76 0 -120 39.5t-44 104.5h95q0 -61 69 -61q28 0 43.5 16t15.5 35q0 22 -15 33.5t-32 11.5h-33v78h22q18 0 31.5 13t13.5 30t-12.5 32t-35.5 15q-24 0 -38.5 -14.5t-14.5 -35.5h-96q3 56 42.5 94t109.5 38t105.5 -35.5t35.5 -81.5q0 -26 -16 -50t-42 -36
q31 -8 52.5 -37t21.5 -56q0 -51 -41 -92t-117 -41z" />
    <glyph glyph-name="three.inferior" horiz-adv-x="335" 
d="M173 -86q-63 0 -100 36.5t-38 92.5h78q1 -26 16 -42t42 -16q50 0 50 40q0 33 -39 33h-31v69h26q14 0 22.5 9.5t8.5 24.5t-11 26t-31 11t-32 -14.5t-12 -29.5h-77q1 46 33 80t92 34q58 0 89 -29t31 -68q0 -55 -48 -70q31 -7 45.5 -31t14.5 -49q0 -49 -34.5 -78t-94.5 -29z
" />
    <glyph glyph-name="three.numerator" horiz-adv-x="385" 
d="M191 265q-76 0 -120 39.5t-44 104.5h95q0 -61 69 -61q28 0 43.5 16t15.5 35q0 22 -15 33.5t-32 11.5h-33v78h22q18 0 31.5 13t13.5 30t-12.5 32t-35.5 15q-24 0 -38.5 -14.5t-14.5 -35.5h-96q3 56 42.5 94t109.5 38t105.5 -35.5t35.5 -81.5q0 -26 -16 -50t-42 -36
q31 -8 52.5 -37t21.5 -56q0 -51 -41 -92t-117 -41z" />
    <glyph glyph-name="three.sc" horiz-adv-x="500" 
d="M250 -10q-106 0 -166 60t-60 150h124q0 -44 27 -71.5t73 -27.5q43 0 66 20t23 54q0 35 -22.5 54t-57.5 19h-50v105h39q33 0 52 19t19 46t-20 46.5t-53 19.5q-37 0 -58.5 -26t-22.5 -57h-123q2 80 56.5 136t150.5 56q95 0 145 -48t50 -112q0 -39 -21 -72t-62 -51
q49 -12 77.5 -52.5t28.5 -85.5q0 -71 -56 -126.5t-159 -55.5z" />
    <glyph glyph-name="three.superior" horiz-adv-x="335" 
d="M173 337q-63 0 -100 36.5t-38 92.5h78q1 -26 16 -42t42 -16q50 0 50 40q0 33 -39 33h-31v69h26q14 0 22.5 9.5t8.5 24.5t-11 26t-31 11t-32 -14.5t-12 -29.5h-77q1 46 33 80t92 34q58 0 89 -29t31 -68q0 -55 -48 -70q31 -7 45.5 -31t14.5 -49q0 -49 -34.5 -78t-94.5 -29z
" />
    <glyph glyph-name="threesixteenths" horiz-adv-x="1291" 
d="M1101 -7q-28 0 -54.5 9t-52.5 30t-42 63.5t-16 101.5q0 104 46 164t128 60q120 0 140 -113h-92q-10 34 -47 34q-32 0 -54.5 -31.5t-20.5 -89.5q26 43 92 43q48 0 86.5 -35t38.5 -93q0 -65 -42 -104t-110 -39zM191 265q-76 0 -120 39.5t-44 104.5h95q0 -61 69 -61
q28 0 43.5 16t15.5 35q0 22 -15 33.5t-32 11.5h-33v78h22q18 0 31.5 13t13.5 30t-12.5 32t-35.5 15q-24 0 -38.5 -14.5t-14.5 -35.5h-96q3 56 42.5 94t109.5 38t105.5 -35.5t35.5 -81.5q0 -26 -16 -50t-42 -36q31 -8 52.5 -37t21.5 -56q0 -51 -41 -92t-117 -41zM255 0
l373 680h101l-373 -680h-101zM746 0v259h-89v68q48 1 79.5 22t33.5 59h75v-408h-99zM1099 71q26 0 42.5 18t16.5 43t-16 41t-42 16t-42.5 -16t-16.5 -41t16.5 -43t41.5 -18z" />
    <glyph glyph-name="two.denominator" horiz-adv-x="359" 
d="M36 0v41q0 95 123 169q26 16 42 29.5t21.5 26t6.5 17.5t1 17q0 19 -13 30t-31 11q-22 0 -35.5 -16.5t-13.5 -38.5h-98q0 53 42 94.5t109 41.5t102 -35.5t35 -85.5q0 -56 -30.5 -89t-96.5 -72q-56 -32 -59 -62h182v-78h-287z" />
    <glyph glyph-name="two.inferior" horiz-adv-x="321" 
d="M40 -80v33q0 80 102 141q55 34 55 69q0 34 -37 34q-18 0 -29 -13.5t-11 -29.5h-82q1 49 32.5 81.5t89.5 32.5q55 0 88 -28.5t33 -76.5q0 -32 -14.5 -56.5t-32.5 -38t-54 -34.5q-44 -26 -47 -44h143v-70h-236z" />
    <glyph glyph-name="two.numerator" horiz-adv-x="359" 
d="M36 272v41q0 99 123 169q26 16 42 29.5t21.5 26t6.5 17.5t1 17q0 19 -13 30t-31 11q-22 0 -35.5 -16.5t-13.5 -38.5h-98q0 53 42 94.5t109 41.5t102 -35.5t35 -85.5q0 -56 -30.5 -89t-96.5 -72q-56 -32 -59 -62h182v-78h-287z" />
    <glyph glyph-name="two.sc" horiz-adv-x="473" 
d="M34 0v53q0 83 47 140.5t125 101.5q70 40 89.5 64t19.5 64q0 28 -18.5 45.5t-47.5 17.5q-34 0 -53 -24t-20 -55h-129q3 77 55.5 131.5t144.5 54.5q101 0 149 -52.5t48 -124.5q0 -40 -12 -70.5t-36.5 -54t-51 -41t-65.5 -40.5q-9 -5 -13 -7q-50 -30 -69.5 -51t-21.5 -44
h262v-108h-403z" />
    <glyph glyph-name="two.superior" horiz-adv-x="321" 
d="M40 343v33q0 80 102 141q55 34 55 69q0 34 -37 34q-18 0 -29 -13.5t-11 -29.5h-82q1 49 32.5 81.5t89.5 32.5q55 0 88 -28.5t33 -76.5q0 -32 -14.5 -56.5t-32.5 -38t-54 -34.5q-44 -24 -47 -44h143v-70h-236z" />
    <glyph glyph-name="yen.sc" horiz-adv-x="528" 
d="M55 220v80h106l-161 278h144l122 -230l120 230h141l-161 -278h107v-80h-145v-47h145v-80h-145v-93h-128v93h-145v80h145v47h-145z" />
    <glyph glyph-name="zero.denominator" horiz-adv-x="414" 
d="M207 -7q-80 0 -125.5 56.5t-45.5 156.5q0 101 45.5 158.5t125.5 57.5q78 0 125 -58t47 -158q0 -99 -47 -156t-125 -57zM207 74q69 0 69 132q0 71 -19.5 103t-49.5 32q-70 0 -70 -135q0 -132 70 -132z" />
    <glyph glyph-name="zero.inferior" horiz-adv-x="340" 
d="M170 -93q-64 0 -102.5 50t-38.5 126q0 78 38 128.5t103 50.5t103.5 -50.5t38.5 -128.5q0 -76 -39 -126t-103 -50zM170 -21q55 0 55 104q0 51 -14.5 79t-40.5 28q-55 0 -55 -107q0 -104 55 -104z" />
    <glyph glyph-name="zero.numerator" horiz-adv-x="414" 
d="M207 265q-80 0 -125.5 56.5t-45.5 156.5q0 101 45.5 158.5t125.5 57.5q78 0 125 -58t47 -158q0 -99 -47 -156t-125 -57zM207 346q69 0 69 132q0 71 -19.5 103t-49.5 32q-70 0 -70 -135q0 -132 70 -132z" />
    <glyph glyph-name="zero.sc" horiz-adv-x="548" 
d="M273 -10q-106 0 -170.5 82.5t-64.5 219.5q0 136 64.5 218.5t170.5 82.5q105 0 171 -83t66 -218q0 -136 -65.5 -219t-171.5 -83zM273 102q48 0 78.5 47t30.5 143t-30.5 143.5t-78.5 47.5q-49 0 -78 -47t-29 -144t29 -143.5t78 -46.5z" />
    <glyph glyph-name="zero.superior" horiz-adv-x="340" 
d="M170 330q-64 0 -102.5 50t-38.5 126q0 78 38 128.5t103 50.5t103.5 -50.5t38.5 -128.5q0 -76 -39 -126t-103 -50zM170 402q55 0 55 104q0 51 -14.5 79t-40.5 28q-55 0 -55 -107q0 -104 55 -104z" />
    <glyph glyph-name="A.sc" horiz-adv-x="598" 
d="M21 0l214 578h127l216 -578h-131l-35 99h-230l-34 -99h-127zM278 381l-62 -181h161l-63 181q-3 8 -19 72q0 -1 -2.5 -13t-6.5 -29.5t-8 -29.5z" />
    </font>
</defs>
</svg>
