<?xml version="1.0" standalone="no"?>
<!DOCTYPE svg PUBLIC "-//W3C//DTD SVG 1.1//EN" "http://www.w3.org/Graphics/SVG/1.1/DTD/svg11.dtd" >
<svg xmlns="http://www.w3.org/2000/svg" xmlns:xlink="http://www.w3.org/1999/xlink" version="1.1">
<metadata>
Created by FontForge 20161003 at Wed Nov 20 14:20:17 2019
 By www-data
URW Software, Copyright 1994 by URW
</metadata>
<defs>
<font id="AlternateGotNo2D" horiz-adv-x="380" >
  <font-face 
    font-family="Alternate Gothic No2 D"
    font-weight="500"
    font-stretch="normal"
    units-per-em="1000"
    panose-1="0 0 0 0 0 0 0 0 0 0"
    ascent="800"
    descent="-200"
    x-height="497"
    cap-height="667"
    bbox="-93 -177 732 846"
    underline-thickness="62"
    underline-position="-98"
    stemh="83"
    stemv="91"
    unicode-range="U+0020-FB02"
  />
<missing-glyph horiz-adv-x="177" 
 />
    <glyph glyph-name=".notdef" horiz-adv-x="177" 
 />
    <glyph glyph-name="space" unicode=" " horiz-adv-x="177" 
 />
    <glyph glyph-name="exclam" unicode="!" horiz-adv-x="223" 
d="M143 197h-63l-20 470h103zM160 103v-103h-97v103h97z" />
    <glyph glyph-name="quotedbl" unicode="&#x22;" horiz-adv-x="357" 
d="M131 400h-72l-16 267h105zM296 400h-72l-16 267h105z" />
    <glyph glyph-name="numbersign" unicode="#" horiz-adv-x="400" 
d="M261 477l31 190h57l-31 -190h48l-11 -68h-48l-26 -159h53l-11 -68h-53l-30 -182h-57l30 182h-75l-29 -182h-58l30 182h-48l12 68h47l26 159h-51l13 67h49l31 191h58l-31 -190h74zM250 409h-75l-26 -159h75z" />
    <glyph glyph-name="dollar" unicode="$" 
d="M323 602l-67 -61c-20 34 -41 49 -68 49c-37 0 -62 -31 -62 -77c0 -27 8 -50 26 -73c14 -20 14 -20 82 -76c77 -62 109 -122 109 -199c0 -95 -45 -152 -133 -168v-98h-53v98c-49 4 -102 40 -127 87l69 58c22 -46 46 -65 82 -65c44 0 69 32 69 89c0 59 -14 78 -114 162
c-71 59 -100 112 -100 182c0 85 42 140 121 159v67h53v-67c48 -6 85 -28 113 -67z" />
    <glyph glyph-name="percent" unicode="%" horiz-adv-x="532" 
d="M203 576v-148c0 -37 -4 -54 -17 -71c-14 -19 -39 -30 -65 -30c-25 0 -50 11 -64 30c-13 17 -17 35 -17 71v148c0 36 4 54 17 71c14 19 38 30 65 30c26 0 50 -11 64 -30c13 -17 17 -34 17 -71zM97 576v-148c0 -41 5 -50 25 -50c19 0 24 9 24 50v148c0 41 -5 50 -25 50
c-19 0 -24 -9 -24 -50zM380 667h60l-288 -667h-60zM492 239v-147c0 -37 -4 -54 -17 -71c-14 -20 -38 -31 -65 -31c-26 0 -49 11 -64 31c-13 17 -17 34 -17 71v147c0 37 4 54 17 71c14 19 38 30 65 30c26 0 50 -11 64 -30c13 -17 17 -34 17 -71zM386 240v-149
c0 -41 5 -50 25 -50c19 0 24 9 24 50v149c0 40 -5 49 -25 49c-19 0 -24 -9 -24 -49z" />
    <glyph glyph-name="ampersand" unicode="&#x26;" horiz-adv-x="444" 
d="M330 318l81 -19c-13 -68 -29 -116 -57 -171c9 -16 30 -31 52 -38v-100c-48 8 -78 24 -107 58c-37 -40 -69 -55 -115 -55c-89 0 -144 58 -144 151c0 63 13 96 78 192c-33 82 -47 135 -47 186c0 90 52 152 128 152c71 0 116 -50 116 -130c0 -68 -23 -119 -95 -210
c19 -40 51 -96 76 -133c14 30 23 62 34 117zM182 416c34 46 50 87 50 133c0 40 -13 62 -37 62c-26 0 -42 -30 -42 -77c0 -34 9 -72 29 -118zM161 251c-22 -41 -31 -70 -31 -98c0 -36 24 -60 59 -60c22 0 37 7 53 24c-36 53 -58 89 -81 134z" />
    <glyph glyph-name="quoteright" unicode="&#x2019;" horiz-adv-x="190" 
d="M144 667v-103l-52 -116h-45l35 116h-35v103h97z" />
    <glyph glyph-name="parenleft" unicode="(" horiz-adv-x="293" 
d="M252 -88l-66 -36c-95 147 -137 274 -137 414s42 268 137 414l66 -36c-78 -127 -113 -245 -113 -378s35 -250 113 -378z" />
    <glyph glyph-name="parenright" unicode=")" horiz-adv-x="293" 
d="M42 668l66 36c95 -147 137 -274 137 -414s-42 -268 -137 -414l-66 36c78 128 113 245 113 378s-35 250 -113 378z" />
    <glyph glyph-name="asterisk" unicode="*" horiz-adv-x="313" 
d="M110 541l-70 15l23 69l64 -30l-7 72h73l-7 -72l64 30l23 -69l-70 -14l48 -53l-59 -44l-35 62l-36 -62l-59 44z" />
    <glyph glyph-name="plus" unicode="+" 
d="M338 379v-78h-107v-105h-81v105h-107v78h107v105h81v-105h107z" />
    <glyph glyph-name="comma" unicode="," horiz-adv-x="180" 
d="M139 103v-103l-52 -116h-45l35 116h-35v103h97z" />
    <glyph glyph-name="hyphen" unicode="-" horiz-adv-x="140" 
d="M140 298v-90h-140v90h140z" />
    <glyph glyph-name="period" unicode="." horiz-adv-x="180" 
d="M139 103v-103h-97v103h97z" />
    <glyph glyph-name="slash" unicode="/" horiz-adv-x="371" 
d="M280 667h71l-267 -734h-71z" />
    <glyph glyph-name="zero" unicode="0" 
d="M338 481v-295c0 -72 -7 -105 -31 -138c-26 -36 -69 -58 -116 -58c-48 0 -92 22 -117 58c-24 33 -31 66 -31 138v295c0 72 7 105 31 138c25 36 69 58 117 58c47 0 91 -22 116 -58c24 -33 31 -66 31 -138zM138 482v-297c0 -48 1 -62 7 -78c7 -18 24 -29 46 -29
c21 0 38 11 45 29c6 16 7 30 7 78v297c0 48 -1 62 -7 78c-7 18 -24 29 -45 29c-22 0 -39 -11 -46 -29c-6 -16 -7 -30 -7 -78z" />
    <glyph glyph-name="one" unicode="1" 
d="M253 667v-667h-95v524h-83v62c38 9 83 41 114 81h64z" />
    <glyph glyph-name="two" unicode="2" 
d="M328 88v-88h-292v91c159 232 206 329 206 428c0 44 -18 70 -50 70c-38 0 -58 -33 -58 -95c0 -5 0 -14 1 -26h-93c-1 12 -1 22 -1 27c0 116 56 182 154 182c88 0 143 -63 143 -163c0 -70 -26 -146 -90 -256c-27 -46 -40 -68 -110 -170h190z" />
    <glyph glyph-name="three" unicode="3" 
d="M141 302v89c76 4 91 21 91 103c0 66 -14 94 -46 94c-24 0 -39 -16 -43 -48c-2 -11 -2 -27 -2 -55h-92v18c0 106 54 174 140 174c85 0 133 -65 133 -183c0 -80 -16 -120 -58 -148c52 -29 69 -68 69 -162c0 -131 -47 -194 -144 -194c-96 0 -148 63 -148 178v22h94
c-1 -10 -1 -18 -1 -23c0 -59 18 -89 53 -89c39 0 53 29 53 112c0 61 -8 85 -35 101c-14 9 -29 11 -64 11z" />
    <glyph glyph-name="four" unicode="4" 
d="M197 163h-174v89l170 415h96v-416h62v-88h-62v-163h-92v163zM197 251v250l-93 -250h93z" />
    <glyph glyph-name="five" unicode="5" 
d="M312 667v-88h-171l-5 -164c26 33 53 47 90 47c32 0 61 -13 78 -37c21 -28 28 -60 28 -128v-121c0 -70 -10 -107 -36 -139c-25 -30 -64 -47 -109 -47c-64 0 -112 32 -133 89c-10 25 -13 57 -13 109h95c0 -44 2 -60 7 -75c7 -23 23 -35 45 -35c18 0 33 9 40 25
c7 15 9 28 9 71v107c0 50 -1 56 -7 70c-5 14 -19 22 -37 22c-28 0 -44 -15 -57 -54l-88 6l11 342h253z" />
    <glyph glyph-name="six" unicode="6" 
d="M332 489h-95c1 11 1 21 1 26c0 50 -16 74 -49 74c-36 0 -50 -25 -50 -90v-136c26 34 54 48 91 48c72 0 109 -47 109 -139v-92c0 -71 -9 -105 -35 -138c-27 -33 -68 -52 -112 -52c-45 0 -86 19 -113 52c-26 33 -35 68 -35 138v303c0 80 9 114 40 148c26 30 63 46 105 46
c88 0 144 -65 144 -165c0 -5 0 -14 -1 -23zM139 277v-111c0 -63 15 -88 53 -88c37 0 52 25 52 89v89c0 51 -12 70 -43 70c-27 0 -50 -18 -62 -49z" />
    <glyph glyph-name="seven" unicode="7" 
d="M42 667h282v-67l-124 -600h-96l123 579h-185v88z" />
    <glyph glyph-name="eight" unicode="8" 
d="M270 354c51 -29 68 -71 68 -161c0 -134 -50 -203 -148 -203s-148 69 -148 203c0 90 17 132 68 161c-44 37 -59 76 -59 148c0 63 12 104 40 134c25 27 60 41 99 41s74 -14 99 -41c28 -30 40 -71 40 -134c0 -72 -15 -111 -59 -148zM189 589c-33 0 -48 -29 -48 -95
s15 -95 49 -95s49 29 49 94c0 68 -15 96 -50 96zM189 301c-37 0 -50 -28 -50 -112c0 -83 13 -111 51 -111s51 28 51 109c0 87 -12 114 -52 114z" />
    <glyph glyph-name="nine" unicode="9" 
d="M48 178h95c-1 -11 -1 -21 -1 -26c0 -50 16 -74 49 -74c36 0 50 25 50 90v136c-26 -34 -54 -48 -91 -48c-72 0 -109 47 -109 139v92c0 71 9 105 35 138c27 33 68 52 112 52c45 0 86 -19 113 -52c26 -33 35 -68 35 -138v-303c0 -80 -9 -114 -40 -148
c-26 -30 -63 -46 -105 -46c-88 0 -144 65 -144 165c0 5 0 14 1 23zM241 390v111c0 63 -15 88 -53 88c-37 0 -52 -25 -52 -89v-89c0 -51 12 -70 43 -70c27 0 50 18 62 49z" />
    <glyph glyph-name="colon" unicode=":" horiz-adv-x="180" 
d="M139 103v-103h-97v103h97zM139 497v-103h-97v103h97z" />
    <glyph glyph-name="semicolon" unicode=";" horiz-adv-x="180" 
d="M139 497v-103h-97v103h97zM139 103v-103l-52 -116h-45l35 116h-35v103h97z" />
    <glyph glyph-name="less" unicode="&#x3c;" horiz-adv-x="500" 
d="M466 588v-97l-329 -156l329 -155v-97l-433 211v83z" />
    <glyph glyph-name="equal" unicode="=" 
d="M338 456v-78h-295v78h295zM338 302v-78h-295v78h295z" />
    <glyph glyph-name="greater" unicode="&#x3e;" horiz-adv-x="500" 
d="M34 83v97l329 156l-329 155v97l433 -211v-83z" />
    <glyph glyph-name="question" unicode="?" horiz-adv-x="346" 
d="M204 197h-81v17c0 116 12 161 70 266c18 31 22 44 22 65c0 29 -14 47 -37 47c-27 0 -44 -19 -64 -71l-81 32c26 84 70 121 145 121c78 0 127 -47 127 -124c0 -45 -10 -71 -54 -146c-37 -63 -48 -103 -48 -175c0 -7 0 -16 1 -32zM213 103v-103h-97v103h97z" />
    <glyph glyph-name="at" unicode="@" horiz-adv-x="449" 
d="M410 177h-61l-12 28c-23 -28 -41 -38 -70 -38c-53 0 -78 26 -78 84v188c0 57 31 91 83 91c23 0 37 -6 58 -26v21c0 50 -40 82 -100 82c-29 0 -56 -10 -75 -26c-22 -19 -28 -38 -28 -86v-311c0 -41 5 -64 19 -82c19 -27 51 -42 89 -42c35 0 67 12 95 35l48 -46
c-36 -40 -83 -59 -143 -59c-52 0 -105 16 -134 41c-33 28 -54 79 -54 131v349c0 106 65 166 182 166c114 0 181 -60 181 -161v-339zM269 425v-153c0 -28 8 -38 31 -38c22 0 30 10 30 38v153c0 29 -8 38 -30 38c-23 0 -31 -10 -31 -38z" />
    <glyph glyph-name="A" unicode="A" horiz-adv-x="405" 
d="M256 147h-107l-23 -147h-99l109 667h130l116 -667h-103zM241 240l-40 266l-38 -266h78z" />
    <glyph glyph-name="B" unicode="B" horiz-adv-x="401" 
d="M45 0v667h139c110 0 166 -58 166 -172c0 -71 -20 -114 -70 -150c58 -29 82 -78 82 -166c0 -67 -16 -115 -49 -146c-27 -25 -55 -33 -120 -33h-148zM145 391h21c61 0 86 29 86 99c0 57 -22 84 -69 84h-38v-183zM145 93h37c56 0 80 28 80 97c0 43 -11 76 -32 93
c-13 11 -29 15 -60 15h-25v-205z" />
    <glyph glyph-name="C" unicode="C" horiz-adv-x="388" 
d="M355 446h-101c0 39 -1 69 -2 85c-4 32 -25 53 -54 53c-26 0 -45 -17 -52 -46c-3 -13 -4 -46 -4 -99v-212c0 -67 2 -93 7 -108c9 -23 26 -36 49 -36c29 0 50 22 53 56c2 18 3 67 3 97h101v-44c0 -62 -5 -90 -23 -124c-25 -49 -74 -78 -133 -78c-47 0 -90 19 -117 53
c-33 40 -40 73 -40 177v226c0 105 7 138 40 178c27 34 70 53 117 53c58 0 107 -27 133 -73c18 -32 23 -58 23 -117v-41z" />
    <glyph glyph-name="D" unicode="D" horiz-adv-x="397" 
d="M45 0v667h142c115 0 169 -60 169 -188v-291c0 -128 -54 -188 -169 -188h-142zM145 93h31c28 0 50 9 63 26c13 18 17 38 17 88v253c0 50 -4 70 -17 88c-13 17 -35 26 -63 26h-31v-481z" />
    <glyph glyph-name="E" unicode="E" horiz-adv-x="348" 
d="M317 667v-93h-172v-182h124v-93h-124v-206h172v-93h-272v667h272z" />
    <glyph glyph-name="F" unicode="F" horiz-adv-x="330" 
d="M314 667v-93h-169v-182h123v-93h-123v-299h-100v667h269z" />
    <glyph glyph-name="G" unicode="G" horiz-adv-x="399" 
d="M355 338v-338h-49l-19 53c-28 -46 -56 -63 -105 -63c-48 0 -88 21 -110 57c-22 38 -30 83 -30 166v233c0 104 7 138 40 178c27 34 70 53 117 53c76 0 134 -45 150 -118c5 -22 6 -33 6 -110h-101c0 40 -1 66 -2 81c-4 32 -25 53 -54 53c-26 0 -45 -17 -52 -46
c-2 -12 -4 -48 -4 -98v-211c0 -53 3 -95 8 -108c7 -22 26 -36 49 -36c26 0 45 17 51 45c4 14 5 47 5 99v27h-61v83h161z" />
    <glyph glyph-name="H" unicode="H" horiz-adv-x="400" 
d="M256 301h-111v-301h-100v667h100v-273h111v273h100v-667h-100v301z" />
    <glyph glyph-name="I" unicode="I" horiz-adv-x="189" 
d="M145 667v-667h-100v667h100z" />
    <glyph glyph-name="J" unicode="J" horiz-adv-x="231" 
d="M86 667h100v-457c0 -95 -6 -133 -28 -166c-19 -29 -54 -44 -100 -44h-48v93h24c40 0 52 24 52 101v473z" />
    <glyph glyph-name="K" unicode="K" horiz-adv-x="399" 
d="M45 667h100v-267l118 267h105l-115 -232l130 -435h-107l-85 310l-46 -92v-218h-100v667z" />
    <glyph glyph-name="L" unicode="L" horiz-adv-x="324" 
d="M311 93v-93h-266v667h100v-574h166z" />
    <glyph glyph-name="M" unicode="M" horiz-adv-x="517" 
d="M473 0h-93v461l-96 -461h-45l-101 461v-461h-93v667h134l83 -406l76 406h135v-667z" />
    <glyph glyph-name="N" unicode="N" horiz-adv-x="420" 
d="M376 0h-93l-145 412v-412h-93v667h101l137 -396v396h93v-667z" />
    <glyph glyph-name="O" unicode="O" horiz-adv-x="397" 
d="M355 450v-233c0 -99 -8 -135 -40 -174c-27 -33 -70 -53 -117 -53c-46 0 -89 20 -116 53c-32 39 -40 76 -40 174v233c0 98 8 135 40 174c27 33 70 53 116 53c47 0 90 -20 117 -53c32 -39 40 -75 40 -174zM142 439v-211c0 -66 2 -94 7 -109c9 -23 27 -36 50 -36
c26 0 45 17 52 46c3 13 4 46 4 99v211c0 68 -2 94 -7 109c-9 23 -26 36 -49 36c-27 0 -46 -17 -53 -46c-2 -12 -4 -48 -4 -99z" />
    <glyph glyph-name="P" unicode="P" horiz-adv-x="386" 
d="M145 276v-276h-100v667h140c128 0 173 -51 173 -195c0 -145 -45 -196 -173 -196h-40zM145 369h32c65 0 81 21 81 103c0 81 -16 102 -81 102h-32v-205z" />
    <glyph glyph-name="Q" unicode="Q" horiz-adv-x="397" 
d="M376 48v-99c-58 1 -89 16 -111 55c-24 -10 -42 -14 -66 -14c-47 0 -90 19 -117 53c-32 39 -40 76 -40 174v233c0 98 8 135 40 174c27 33 70 53 116 53c47 0 90 -20 117 -53c32 -39 40 -75 40 -174v-233c0 -82 -5 -116 -22 -148c11 -13 21 -18 43 -21zM142 439v-211
c0 -66 2 -94 7 -109c9 -23 27 -36 50 -36c26 0 45 17 52 46c3 13 4 46 4 99v211c0 68 -2 94 -7 109c-9 23 -26 36 -49 36c-27 0 -46 -17 -53 -46c-2 -12 -4 -48 -4 -99z" />
    <glyph glyph-name="R" unicode="R" horiz-adv-x="389" 
d="M145 279v-279h-100v667h140c115 0 167 -60 167 -193c0 -86 -18 -132 -67 -168l77 -306h-106l-63 279h-48zM145 372h32c37 0 51 6 62 28c8 17 13 43 13 73s-5 56 -13 73c-11 22 -25 28 -62 28h-32v-202z" />
    <glyph glyph-name="S" unicode="S" horiz-adv-x="371" 
d="M340 517l-97 -14c-6 60 -21 81 -58 81c-34 0 -56 -26 -56 -66c0 -46 18 -73 89 -139c104 -95 129 -137 129 -218c0 -102 -64 -171 -158 -171c-98 0 -163 71 -166 180l95 17c3 -70 26 -104 71 -104c37 0 61 29 61 73c0 25 -9 49 -26 72c-16 21 -22 28 -78 79
c-84 78 -114 131 -114 205c0 99 62 165 157 165c88 0 139 -54 151 -160z" />
    <glyph glyph-name="T" unicode="T" horiz-adv-x="328" 
d="M213 574v-574h-100v574h-106v93h314v-93h-108z" />
    <glyph glyph-name="U" unicode="U" horiz-adv-x="403" 
d="M258 667h100v-450c0 -99 -8 -135 -40 -174c-27 -33 -70 -53 -117 -53c-46 0 -89 20 -116 53c-32 39 -40 76 -40 174v450h100v-439c0 -66 2 -94 7 -109c9 -23 27 -36 50 -36c26 0 45 17 52 46c3 13 4 46 4 99v439z" />
    <glyph glyph-name="V" unicode="V" horiz-adv-x="379" 
d="M249 0h-104l-128 667h102l77 -427l68 427h99z" />
    <glyph glyph-name="W" unicode="W" horiz-adv-x="550" 
d="M429 0h-87l-69 404l-66 -404h-87l-100 667h100l50 -399l63 399h83l66 -399l51 399h97z" />
    <glyph glyph-name="X" unicode="X" horiz-adv-x="394" 
d="M248 343l129 -343h-105l-78 215l-74 -215h-103l126 343l-121 324h105l69 -197l65 197h104z" />
    <glyph glyph-name="Y" unicode="Y" horiz-adv-x="372" 
d="M238 270v-270h-100v270l-125 397h104l71 -262l69 262h101z" />
    <glyph glyph-name="Z" unicode="Z" horiz-adv-x="352" 
d="M326 93v-93h-299v93l193 481h-178v93h284v-93l-192 -481h192z" />
    <glyph glyph-name="bracketleft" unicode="[" horiz-adv-x="293" 
d="M230 667v-87h-72v-588h72v-87h-160v762h160z" />
    <glyph glyph-name="backslash" unicode="\" horiz-adv-x="371" 
d="M91 667l267 -734h-71l-267 734h71z" />
    <glyph glyph-name="bracketright" unicode="]" horiz-adv-x="293" 
d="M63 -95v87h72v588h-72v87h160v-762h-160z" />
    <glyph glyph-name="asciicircum" unicode="^" horiz-adv-x="500" 
d="M117 368h-90l168 301h110l168 -301h-90l-133 235z" />
    <glyph glyph-name="underscore" unicode="_" horiz-adv-x="500" 
d="M0 -67h500v-62h-500v62z" />
    <glyph glyph-name="quoteleft" unicode="&#x2018;" horiz-adv-x="190" 
d="M47 448v103l52 116h45l-35 -116h35v-103h-97z" />
    <glyph glyph-name="a" unicode="a" horiz-adv-x="346" 
d="M312 0h-90c-4 25 -4 29 -7 56c-37 -43 -70 -63 -104 -63c-49 0 -81 46 -81 118c0 86 37 129 183 211v32c0 54 -8 68 -37 68c-28 0 -40 -19 -42 -68h-92c7 96 58 150 142 150c41 0 75 -15 94 -43c20 -27 25 -50 25 -117v-164c0 -115 1 -130 9 -180zM213 121v132
c-65 -41 -90 -75 -90 -126c0 -32 12 -52 31 -52c21 0 41 15 59 46z" />
    <glyph glyph-name="b" unicode="b" horiz-adv-x="338" 
d="M129 667v-218c33 40 59 55 93 55c29 0 52 -14 65 -40s16 -49 16 -116v-199c0 -67 -3 -90 -16 -116s-36 -40 -65 -40c-34 0 -60 15 -93 55v-48h-90v667h90zM129 400v-303c16 -15 30 -22 45 -22s27 7 32 18c6 12 7 20 7 55v201c0 35 -1 44 -7 55c-5 11 -17 18 -32 18
s-29 -7 -45 -22z" />
    <glyph glyph-name="c" unicode="c" horiz-adv-x="326" 
d="M300 325h-90c0 37 0 51 -2 60c-3 24 -17 37 -40 37c-30 0 -43 -21 -43 -69v-209c0 -47 14 -69 43 -69c26 0 39 16 41 51c1 7 1 27 1 55h90v-23c0 -58 -5 -81 -22 -109c-23 -35 -63 -56 -107 -56c-42 0 -84 20 -108 51c-20 28 -28 60 -28 117v174c0 58 8 90 28 118
c24 31 66 51 109 51c58 0 107 -35 122 -89c5 -19 6 -35 6 -90z" />
    <glyph glyph-name="d" unicode="d" horiz-adv-x="338" 
d="M209 667h90v-667h-90v48c-33 -40 -59 -55 -93 -55c-29 0 -52 14 -65 40s-16 49 -16 116v199c0 67 3 90 16 116s36 40 65 40c34 0 60 -15 93 -55v218zM209 97v303c-16 15 -30 22 -45 22s-27 -7 -32 -18c-6 -11 -7 -20 -7 -55v-201c0 -35 1 -43 7 -55c5 -11 17 -18 32 -18
s29 7 45 22z" />
    <glyph glyph-name="e" unicode="e" horiz-adv-x="340" 
d="M304 232h-179v-88c0 -47 14 -69 44 -69c29 0 42 17 43 56v25l1 16h91v-23c0 -55 -5 -77 -23 -102c-24 -34 -65 -54 -109 -54c-43 0 -85 20 -108 51c-21 28 -29 61 -29 118v173c0 58 8 90 28 118c23 31 65 51 107 51c43 0 82 -19 106 -51c20 -28 28 -60 28 -118v-103z
M214 307v46c0 48 -14 69 -44 69c-31 0 -45 -22 -45 -69v-46h89z" />
    <glyph glyph-name="f" unicode="f" horiz-adv-x="224" 
d="M211 497v-82h-58v-415h-90v415h-56v82h56v57c0 48 5 67 22 86c20 22 50 34 86 34c19 0 33 -2 50 -7v-77c-13 2 -18 2 -25 2c-32 0 -43 -17 -43 -63v-32h58z" />
    <glyph glyph-name="g" unicode="g" horiz-adv-x="339" 
d="M333 501v-76c-21 0 -40 -6 -54 -20c2 -16 2 -19 2 -52v-84c0 -48 -7 -74 -25 -99c-22 -29 -55 -44 -95 -44c-7 0 -12 0 -24 1c-14 -11 -21 -22 -21 -34c0 -16 14 -23 55 -25c81 -5 106 -10 129 -28c25 -19 38 -49 38 -86c0 -84 -62 -131 -176 -131c-95 0 -151 32 -151 87
c0 36 18 55 81 86c-40 17 -57 35 -57 64c0 27 18 52 57 81c-43 30 -57 62 -57 128v92c0 95 42 143 126 143c46 0 76 -16 103 -56c17 33 40 51 69 53zM117 363v-97c0 -44 12 -63 41 -63s41 19 41 63v97c0 45 -12 64 -41 64s-41 -19 -41 -64zM144 -13c-25 -12 -38 -28 -38 -47
c0 -28 28 -47 69 -47c50 0 83 21 83 51c0 24 -13 34 -50 38c-7 1 -18 2 -64 5z" />
    <glyph glyph-name="h" unicode="h" horiz-adv-x="337" 
d="M129 667v-224c42 46 67 61 103 61c22 0 39 -8 50 -23c13 -19 16 -35 16 -94v-387h-90v366c0 29 0 34 -3 41c-2 9 -10 15 -19 15c-19 0 -36 -13 -57 -42v-380h-90v667h90z" />
    <glyph glyph-name="i" unicode="i" horiz-adv-x="167" 
d="M129 497v-497h-90v497h90zM129 667v-90h-90v90h90z" />
    <glyph glyph-name="j" unicode="j" horiz-adv-x="175" 
d="M46 497h90v-510c0 -70 -3 -90 -18 -115c-15 -26 -49 -42 -88 -42c-16 0 -29 2 -47 6v87c10 -2 14 -3 21 -3c30 0 42 16 42 56v521zM136 667v-90h-90v90h90z" />
    <glyph glyph-name="k" unicode="k" horiz-adv-x="338" 
d="M129 667v-361l92 191h91l-90 -166l98 -331h-88l-63 231l-40 -72v-159h-90v667h90z" />
    <glyph glyph-name="l" unicode="l" horiz-adv-x="167" 
d="M129 667v-667h-90v667h90z" />
    <glyph glyph-name="m" unicode="m" horiz-adv-x="506" 
d="M129 497v-54c42 46 67 61 103 61s58 -21 64 -61c43 46 69 61 106 61c22 0 39 -8 50 -23c13 -19 16 -35 16 -94v-387h-90v366c0 29 0 34 -3 41c-2 9 -10 15 -19 15c-19 0 -37 -13 -58 -42v-380h-90v366c0 29 0 34 -3 41c-2 9 -10 15 -19 15c-19 0 -36 -13 -57 -42v-380
h-90v497h90z" />
    <glyph glyph-name="n" unicode="n" horiz-adv-x="337" 
d="M129 497v-54c42 46 67 61 103 61c22 0 39 -8 50 -23c13 -19 16 -35 16 -94v-387h-90v366c0 29 0 34 -3 41c-2 9 -10 15 -19 15c-19 0 -36 -13 -57 -42v-380h-90v497h90z" />
    <glyph glyph-name="o" unicode="o" horiz-adv-x="336" 
d="M301 335v-173c0 -58 -8 -90 -28 -118c-23 -31 -63 -51 -105 -51s-82 20 -105 51c-20 28 -28 60 -28 118v173c0 58 8 90 28 118c23 31 63 51 105 51s82 -20 105 -51c20 -28 28 -60 28 -118zM125 353v-209c0 -48 13 -69 43 -69s43 21 43 69v209c0 48 -13 69 -43 69
s-43 -21 -43 -69z" />
    <glyph glyph-name="p" unicode="p" horiz-adv-x="338" 
d="M39 497h90v-48c33 40 59 55 93 55c29 0 52 -14 65 -40s16 -49 16 -116v-199c0 -67 -3 -90 -16 -116s-36 -40 -65 -40c-34 0 -60 15 -93 55v-218h-90v667zM129 400v-303c16 -15 30 -22 45 -22s27 7 32 18c6 11 7 20 7 55v201c0 35 -1 43 -7 55c-5 11 -17 18 -32 18
s-29 -7 -45 -22z" />
    <glyph glyph-name="q" unicode="q" horiz-adv-x="338" 
d="M299 497v-667h-90v218c-33 -40 -59 -55 -93 -55c-29 0 -52 14 -65 40s-16 49 -16 116v199c0 67 3 90 16 116s36 40 65 40c34 0 60 -15 93 -55v48h90zM209 97v303c-16 15 -30 22 -45 22s-27 -7 -32 -18c-6 -12 -7 -20 -7 -55v-201c0 -35 1 -44 7 -55c5 -11 17 -18 32 -18
s29 7 45 22z" />
    <glyph glyph-name="r" unicode="r" horiz-adv-x="236" 
d="M39 497h90v-71c31 54 61 76 108 78v-99c-13 4 -21 5 -31 5c-52 0 -77 -35 -77 -109v-301h-90v497z" />
    <glyph glyph-name="s" unicode="s" horiz-adv-x="313" 
d="M292 380l-86 -20c-9 47 -22 62 -50 62c-25 0 -42 -18 -42 -44c0 -28 13 -45 66 -85c96 -73 116 -103 116 -169c0 -80 -53 -131 -136 -131c-82 0 -130 46 -145 143l85 20c12 -60 29 -81 62 -81c27 0 44 18 44 47s-12 45 -62 83c-95 72 -120 108 -120 170
c0 77 54 129 135 129c76 0 120 -41 133 -124z" />
    <glyph glyph-name="t" unicode="t" horiz-adv-x="244" 
d="M235 497v-82h-75v-247c0 -68 10 -85 48 -85c9 0 15 1 27 4v-85c-26 -7 -44 -9 -64 -9c-34 0 -62 13 -79 37c-18 24 -22 43 -22 103v282h-55v82h55v136h90v-136h75z" />
    <glyph glyph-name="u" unicode="u" horiz-adv-x="337" 
d="M298 497v-497h-90v54c-42 -46 -67 -61 -103 -61c-22 0 -39 8 -50 23c-13 19 -16 35 -16 94v387h90v-366c0 -29 0 -34 3 -41c2 -9 10 -15 19 -15c19 0 36 13 57 42v380h90z" />
    <glyph glyph-name="v" unicode="v" horiz-adv-x="314" 
d="M204 0h-85l-106 497h92l55 -308l51 308h89z" />
    <glyph glyph-name="w" unicode="w" horiz-adv-x="469" 
d="M368 0h-80l-52 284l-49 -284h-79l-91 497h85l48 -290l50 290h71l54 -283l46 283h82z" />
    <glyph glyph-name="x" unicode="x" horiz-adv-x="323" 
d="M208 262l100 -262h-92l-57 157l-54 -157h-90l97 262l-97 235h95l50 -136l48 136h91z" />
    <glyph glyph-name="y" unicode="y" horiz-adv-x="320" 
d="M214 497h89l-101 -510c-19 -94 -23 -106 -44 -129c-21 -24 -54 -35 -103 -35c-13 0 -19 1 -32 3v88c7 -1 15 -1 20 -1c28 0 48 11 60 33c5 10 8 19 15 48l-101 503h90l54 -320z" />
    <glyph glyph-name="z" unicode="z" horiz-adv-x="309" 
d="M278 82v-82h-251v77l152 338h-139v82h238v-82l-148 -333h148z" />
    <glyph glyph-name="braceleft" unicode="{" horiz-adv-x="313" 
d="M184 490v-89c0 -64 -14 -92 -55 -115c41 -24 55 -54 55 -117v-88c0 -73 19 -91 96 -92v-83c-109 0 -126 4 -153 32c-23 24 -33 58 -33 115v103c0 57 -15 82 -57 94v76c41 11 57 37 57 90v115c0 51 11 83 35 106c28 26 46 30 151 30v-88c-76 -1 -96 -19 -96 -89z" />
    <glyph glyph-name="bar" unicode="|" horiz-adv-x="500" 
d="M201 667h98v-834h-98v834z" />
    <glyph glyph-name="braceright" unicode="}" horiz-adv-x="313" 
d="M129 81v88c0 63 14 93 55 117c-41 23 -55 51 -55 115v89c0 69 -20 88 -95 89v88c104 0 122 -4 150 -30c24 -23 35 -55 35 -106v-115c0 -53 16 -79 58 -90v-76c-43 -12 -58 -37 -58 -94v-103c0 -57 -10 -91 -33 -115c-27 -28 -44 -32 -152 -32v83c76 1 95 19 95 92z" />
    <glyph glyph-name="asciitilde" unicode="~" horiz-adv-x="667" 
d="M144 573l-50 40c35 79 82 119 139 119c27 0 57 -10 115 -38c55 -26 68 -31 89 -31c34 0 59 20 87 72l50 -41c-35 -81 -82 -118 -148 -118c-26 0 -41 5 -117 43c-37 18 -60 25 -81 25c-31 0 -56 -21 -84 -71z" />
    <glyph glyph-name="exclamdown" unicode="&#xa1;" horiz-adv-x="223" 
d="M80 300h63l20 -470h-103zM63 394v103h97v-103h-97z" />
    <glyph glyph-name="cent" unicode="&#xa2;" 
d="M165 700h53v-107c73 -15 104 -61 104 -151v-26h-90v20c0 27 -1 39 -3 49c-5 17 -20 28 -39 28c-30 0 -43 -21 -43 -69v-209c0 -47 14 -69 43 -69c19 0 35 12 39 30c2 12 3 25 3 54v22h90v-31c0 -69 -14 -103 -52 -131c-16 -12 -31 -18 -52 -23v-120h-53v121
c-76 17 -108 66 -108 164v174c0 79 16 119 60 147c16 9 29 15 48 19v108z" />
    <glyph glyph-name="sterling" unicode="&#xa3;" 
d="M285 353v-61h-86c9 -34 12 -56 12 -82c0 -36 -7 -59 -26 -93c50 -22 52 -22 62 -22c22 0 36 32 37 82l84 -4c0 -112 -42 -180 -112 -180c-24 0 -48 8 -95 32c-22 11 -28 13 -39 13c-19 0 -39 -15 -62 -48l-58 62c33 51 62 73 103 77c13 28 18 48 18 77c0 26 -3 45 -15 86
h-85v61h65c-34 95 -39 117 -39 159c0 101 59 165 151 165c96 0 148 -66 147 -188l-93 -3c-1 70 -17 99 -54 99c-32 0 -54 -28 -54 -71c0 -35 3 -51 30 -143l5 -18h104z" />
    <glyph glyph-name="fraction" unicode="&#x2044;" horiz-adv-x="86" 
d="M-93 -33l223 733h50l-227 -733h-46z" />
    <glyph glyph-name="yen" unicode="&#xa5;" 
d="M240 279v-279h-95v279h-91v61h72l-100 327h99l68 -262l65 262h96l-96 -327h72v-61h-90z" />
    <glyph glyph-name="florin" unicode="&#x192;" 
d="M249 483h78l-16 -82h-78l-111 -571h-90l111 571h-76l16 82h76l27 138c9 47 17 66 39 86c23 21 56 33 92 33c19 0 33 -2 48 -7l-15 -77c-12 2 -16 2 -24 2c-32 0 -46 -16 -55 -63z" />
    <glyph glyph-name="section" unicode="&#xa7;" horiz-adv-x="389" 
d="M321 522h-90c0 35 0 42 -4 51c-5 14 -17 22 -32 22c-18 0 -31 -12 -31 -28c0 -11 5 -19 24 -40l127 -154c23 -29 34 -58 34 -91c0 -53 -24 -88 -75 -110l10 -13c16 -20 27 -53 27 -79c0 -69 -48 -113 -122 -113c-81 0 -130 49 -130 128c0 7 0 10 2 20h91
c-2 -9 -2 -13 -2 -18c0 -30 15 -48 39 -48c19 0 32 13 32 32c0 10 -4 18 -18 35l-108 130c-42 51 -55 77 -55 113c0 48 26 81 84 104l-10 12c-27 32 -40 62 -40 94c0 64 50 108 123 108c76 0 125 -50 125 -127c0 -7 0 -8 -1 -28zM235 327l-65 78c-28 -13 -40 -25 -40 -43
c0 -12 4 -21 20 -39l75 -91c24 11 34 25 34 49c0 12 -6 24 -24 46z" />
    <glyph glyph-name="currency" unicode="&#xa4;" horiz-adv-x="416" 
d="M334 265l37 -37l-57 -58l-37 37c-27 -13 -43 -17 -69 -17s-45 5 -71 18l-39 -39l-55 55l39 39c-13 24 -18 45 -18 70s5 45 18 69l-38 38l58 57l37 -37c25 12 45 17 69 17c25 0 45 -5 70 -18l40 39l54 -54l-39 -40c13 -24 18 -44 18 -70s-4 -44 -17 -69zM206 409
c-40 0 -75 -36 -75 -75c0 -42 35 -77 76 -77c42 0 77 35 77 75c0 43 -35 77 -78 77z" />
    <glyph glyph-name="quotesingle" unicode="'" horiz-adv-x="195" 
d="M134 400h-75l-16 267h108z" />
    <glyph glyph-name="quotedblleft" unicode="&#x201c;" horiz-adv-x="327" 
d="M183 448v103l52 116h45l-35 -116h35v-103h-97zM47 448v103l52 116h45l-35 -116h35v-103h-97z" />
    <glyph glyph-name="guillemotleft" unicode="&#xab;" horiz-adv-x="308" 
d="M268 100l-90 82v143l90 82v-120l-31 -34l31 -34v-119zM130 107l-90 75v143l90 75v-113l-31 -34l31 -34v-112z" />
    <glyph glyph-name="guilsinglleft" unicode="&#x2039;" horiz-adv-x="170" 
d="M130 100l-90 82v143l90 82v-120l-31 -34l31 -34v-119z" />
    <glyph glyph-name="guilsinglright" unicode="&#x203a;" horiz-adv-x="170" 
d="M40 407l90 -82v-143l-90 -82v119l31 34l-31 34v120z" />
    <glyph glyph-name="fi" unicode="&#xfb01;" horiz-adv-x="362" 
d="M153 0h-90v415h-56v82h56v57c0 61 11 87 47 106c17 9 40 14 68 14c22 0 39 -2 76 -9v-76c-28 2 -39 3 -51 3c-39 0 -50 -14 -50 -63v-32h170v-497h-90v415h-80v-415z" />
    <glyph glyph-name="fl" unicode="&#xfb02;" horiz-adv-x="362" 
d="M153 0h-90v415h-56v82h56v57c0 48 5 67 22 86c20 22 50 34 85 34c14 0 14 0 55 -6c4 -1 12 -1 23 -1h75v-667h-90v590c-15 2 -22 2 -32 2c-37 0 -48 -14 -48 -63v-32h51v-82h-51v-415z" />
    <glyph glyph-name="endash" unicode="&#x2013;" 
d="M338 298v-90h-295v90h295z" />
    <glyph glyph-name="dagger" unicode="&#x2020;" horiz-adv-x="388" 
d="M348 502v-82h-109v-420h-90v420h-109v82h109v165h90v-165h109z" />
    <glyph glyph-name="daggerdbl" unicode="&#x2021;" horiz-adv-x="388" 
d="M348 502v-82h-109v-173h109v-82h-109v-165h-90v165h-109v82h109v173h-109v82h109v165h90v-165h109z" />
    <glyph glyph-name="periodcentered" unicode="&#xb7;" horiz-adv-x="180" 
d="M139 305v-103h-97v103h97z" />
    <glyph glyph-name="paragraph" unicode="&#xb6;" horiz-adv-x="418" 
d="M189 -100v420c-84 3 -149 78 -149 172c0 102 70 175 169 175h172v-30h-40v-737h-48v737h-55v-737h-49z" />
    <glyph glyph-name="bullet" unicode="&#x2022;" horiz-adv-x="667" 
d="M337 478c74 0 136 -63 136 -138c0 -77 -62 -139 -138 -139s-139 62 -139 138c0 78 62 139 141 139z" />
    <glyph glyph-name="quotesinglbase" unicode="&#x201a;" horiz-adv-x="190" 
d="M144 103v-103l-52 -116h-45l35 116h-35v103h97z" />
    <glyph glyph-name="quotedblbase" unicode="&#x201e;" horiz-adv-x="327" 
d="M144 103v-103l-52 -116h-45l35 116h-35v103h97zM280 103v-103l-52 -116h-45l35 116h-35v103h97z" />
    <glyph glyph-name="quotedblright" unicode="&#x201d;" horiz-adv-x="327" 
d="M144 667v-103l-52 -116h-45l35 116h-35v103h97zM280 667v-103l-52 -116h-45l35 116h-35v103h97z" />
    <glyph glyph-name="guillemotright" unicode="&#xbb;" horiz-adv-x="308" 
d="M40 407l90 -82v-143l-90 -82v119l31 34l-31 34v120zM178 400l90 -75v-143l-90 -75v112l31 34l-31 34v113z" />
    <glyph glyph-name="ellipsis" unicode="&#x2026;" horiz-adv-x="540" 
d="M139 103v-103h-97v103h97zM319 103v-103h-97v103h97zM499 103v-103h-97v103h97z" />
    <glyph glyph-name="perthousand" unicode="&#x2030;" horiz-adv-x="748" 
d="M203 576v-148c0 -37 -4 -54 -17 -71c-14 -19 -39 -30 -65 -30c-25 0 -50 11 -64 30c-13 17 -17 35 -17 71v148c0 36 4 54 17 71c14 19 38 30 65 30c26 0 50 -11 64 -30c13 -17 17 -34 17 -71zM97 576v-148c0 -41 5 -50 25 -50c19 0 24 9 24 50v148c0 41 -5 50 -25 50
c-19 0 -24 -9 -24 -50zM380 667h60l-288 -667h-60zM492 239v-147c0 -37 -4 -54 -17 -71c-14 -20 -38 -31 -65 -31c-26 0 -49 11 -64 31c-13 17 -17 34 -17 71v147c0 37 4 54 17 71c14 19 38 30 65 30c26 0 50 -11 64 -30c13 -17 17 -34 17 -71zM386 240v-149
c0 -41 5 -50 25 -50c19 0 24 9 24 50v149c0 40 -5 49 -25 49c-19 0 -24 -9 -24 -49zM708 239v-147c0 -37 -4 -54 -17 -71c-14 -20 -38 -31 -65 -31c-26 0 -49 11 -64 31c-13 17 -17 34 -17 71v147c0 37 4 54 17 71c14 19 38 30 65 30c26 0 50 -11 64 -30
c13 -17 17 -34 17 -71zM602 240v-149c0 -41 5 -50 25 -50c19 0 24 9 24 50v149c0 40 -5 49 -25 49c-19 0 -24 -9 -24 -49z" />
    <glyph glyph-name="questiondown" unicode="&#xbf;" horiz-adv-x="346" 
d="M142 300h80c-1 -138 -11 -179 -70 -283c-18 -31 -22 -44 -22 -65c0 -29 14 -47 37 -47c27 0 45 19 64 71l81 -32c-26 -84 -69 -121 -145 -121c-78 0 -127 47 -127 124c0 45 10 71 54 146c37 63 48 103 48 177v30zM132 394v103h97v-103h-97z" />
    <glyph glyph-name="grave" unicode="`" horiz-adv-x="500" 
d="M291 580h-70l-72 80h97z" />
    <glyph glyph-name="acute" unicode="&#xb4;" horiz-adv-x="500" 
d="M202 580l46 80h96l-72 -80h-70z" />
    <glyph glyph-name="circumflex" unicode="&#x2c6;" horiz-adv-x="500" 
d="M199 660h101l58 -80h-80l-28 31l-29 -31h-80z" />
    <glyph glyph-name="tilde" unicode="&#x2dc;" horiz-adv-x="500" 
d="M153 580v70c20 11 34 15 55 15c16 0 26 -2 43 -8c27 -10 34 -12 48 -12c15 0 24 3 47 17v-69c-24 -14 -32 -17 -46 -17c-15 0 -22 2 -49 12c-17 6 -27 8 -42 8c-22 0 -36 -4 -56 -16z" />
    <glyph glyph-name="macron" unicode="&#xaf;" horiz-adv-x="500" 
d="M153 586v67h193v-67h-193z" />
    <glyph glyph-name="breve" unicode="&#x2d8;" horiz-adv-x="500" 
d="M302 662l56 -34c-23 -32 -61 -49 -108 -49s-84 17 -108 49l57 34c19 -12 33 -17 51 -17s33 5 52 17z" />
    <glyph glyph-name="dotaccent" unicode="&#x2d9;" horiz-adv-x="500" 
d="M294 667v-89h-87v89h87z" />
    <glyph glyph-name="dieresis" unicode="&#xa8;" horiz-adv-x="500" 
d="M224 667v-89h-87v89h87zM364 667v-89h-87v89h87z" />
    <glyph glyph-name="ring" unicode="&#x2da;" horiz-adv-x="500" 
d="M251 698c40 0 73 -31 73 -69c0 -39 -33 -70 -73 -70c-41 0 -74 31 -74 70c0 38 33 69 74 69zM250 663c-19 0 -36 -16 -36 -34c0 -19 16 -35 37 -35c20 0 36 16 36 35s-16 34 -37 34z" />
    <glyph glyph-name="cedilla" unicode="&#xb8;" horiz-adv-x="500" 
d="M290 -46v-68l-22 -56h-47l17 56h-27v68h79z" />
    <glyph glyph-name="hungarumlaut" unicode="&#x2dd;" horiz-adv-x="500" 
d="M132 580l46 80h96l-72 -80h-70zM272 580l46 80h96l-72 -80h-70z" />
    <glyph glyph-name="ogonek" unicode="&#x2db;" horiz-adv-x="500" 
d="M245 0h52c-34 -28 -49 -52 -49 -76s17 -37 48 -37c11 0 18 1 30 6l-8 -57c-15 -5 -23 -7 -39 -7c-55 0 -91 29 -91 73c0 34 17 63 57 98z" />
    <glyph glyph-name="caron" unicode="&#x2c7;" horiz-adv-x="500" 
d="M300 580h-101l-58 80h80l29 -31l28 31h80z" />
    <glyph glyph-name="emdash" unicode="&#x2014;" horiz-adv-x="429" 
d="M429 298v-90h-429v90h429z" />
    <glyph glyph-name="AE" unicode="&#xc6;" horiz-adv-x="576" 
d="M272 147h-107l-44 -147h-104l207 667h321v-93h-173v-182h124v-93h-124v-206h173v-93h-273v147zM272 240v266l-79 -266h79z" />
    <glyph glyph-name="ordfeminine" unicode="&#xaa;" horiz-adv-x="232" 
d="M207 267h-65c-2 14 -3 17 -4 28c-21 -21 -41 -32 -61 -32c-34 0 -55 28 -55 73c0 52 25 79 114 126v17c0 30 -4 37 -19 37s-21 -10 -22 -40h-65c4 62 36 95 92 95c27 0 48 -9 62 -26c13 -16 16 -31 16 -72v-97c0 -70 0 -76 7 -109zM136 343v70c-34 -21 -48 -40 -48 -68
c0 -17 6 -27 15 -27c12 0 23 8 33 25z" />
    <glyph glyph-name="Lslash" unicode="&#x141;" horiz-adv-x="331" 
d="M52 279l-27 -20v101l27 20v287h100v-223l56 43v-101l-56 -43v-250h166v-93h-266v279z" />
    <glyph glyph-name="Oslash" unicode="&#xd8;" horiz-adv-x="397" 
d="M300 678h53l-27 -68c24 -38 30 -70 30 -160v-233c0 -98 -8 -135 -40 -174c-27 -33 -70 -53 -116 -53c-38 0 -70 11 -100 34l-14 -36h-53l31 82c-17 33 -22 66 -22 147v233c0 98 8 135 40 174c27 33 69 52 117 52c35 0 62 -8 90 -26zM142 272l107 275
c-10 24 -26 36 -50 36c-27 0 -46 -17 -53 -46c-3 -13 -3 -18 -4 -98v-167zM256 427l-111 -287c4 -36 24 -56 54 -56c27 0 46 17 53 46c3 12 4 45 4 98v199z" />
    <glyph glyph-name="OE" unicode="&#x152;" horiz-adv-x="558" 
d="M526 667v-93h-172v-182h123v-93h-123v-206h172v-93h-314c-115 0 -169 60 -169 188v290c0 129 54 189 169 189h314zM254 93v481h-31c-60 0 -80 -26 -80 -101v-280c0 -74 21 -100 80 -100h31z" />
    <glyph glyph-name="ordmasculine" unicode="&#xba;" horiz-adv-x="226" 
d="M200 468v-102c0 -35 -5 -55 -18 -72c-15 -19 -42 -31 -68 -31c-27 0 -54 12 -69 31c-13 17 -18 37 -18 72v102c0 35 5 55 18 72c15 19 42 31 69 31c26 0 53 -12 68 -31c13 -17 18 -37 18 -72zM91 479v-124c0 -26 7 -37 23 -37c15 0 22 11 22 37v124c0 26 -7 37 -22 37
c-16 0 -23 -11 -23 -37z" />
    <glyph glyph-name="ae" unicode="&#xe6;" horiz-adv-x="518" 
d="M483 232h-180v-88c0 -47 14 -69 45 -69c29 0 42 17 43 56v25l1 16h91v-23c0 -55 -5 -77 -23 -102c-24 -34 -65 -54 -110 -54c-50 0 -90 22 -117 64c-40 -44 -75 -64 -112 -64c-56 0 -91 46 -91 119c0 85 36 126 183 210v32c0 54 -8 68 -37 68c-28 0 -40 -19 -42 -68h-92
c7 96 58 150 141 150c34 0 59 -9 82 -28c26 19 53 28 84 28c42 0 82 -19 106 -51c20 -28 28 -60 28 -118v-103zM213 121v132c-66 -42 -90 -75 -90 -125c0 -33 12 -53 31 -53c21 0 41 15 59 46zM393 307v46c0 48 -14 69 -45 69s-45 -21 -45 -69v-46h90z" />
    <glyph glyph-name="dotlessi" unicode="&#x131;" horiz-adv-x="167" 
d="M129 497v-497h-90v497h90z" />
    <glyph glyph-name="lslash" unicode="&#x142;" horiz-adv-x="208" 
d="M149 448l47 36v-95l-47 -35v-354h-90v295l-46 -36v94l46 36v278h90v-219z" />
    <glyph glyph-name="oslash" unicode="&#xf8;" horiz-adv-x="336" 
d="M220 527h40l-13 -49c40 -29 54 -67 54 -143v-173c0 -58 -8 -91 -28 -118c-23 -31 -64 -51 -105 -51c-14 0 -25 2 -41 7l-11 -42h-40l15 59c-42 32 -56 67 -56 145v173c0 58 8 90 28 118c23 31 63 51 106 51c16 0 26 -2 43 -8zM125 152l66 263c-8 5 -13 7 -22 7
c-31 0 -44 -21 -44 -69v-201zM211 334l-64 -253c8 -5 13 -6 21 -6c30 0 43 21 43 69v190z" />
    <glyph glyph-name="oe" unicode="&#x153;" horiz-adv-x="521" 
d="M485 232h-179v-88c0 -47 14 -69 44 -69c29 0 42 17 43 56v25l1 16h91v-23c0 -55 -5 -77 -23 -102c-24 -34 -65 -54 -108 -54c-35 0 -64 11 -92 33c-27 -22 -56 -33 -89 -33c-41 0 -82 20 -105 51c-20 28 -28 60 -28 118v173c0 58 8 90 28 118c23 31 63 51 105 51
c33 0 61 -11 88 -33c28 22 57 33 90 33c43 0 82 -19 106 -51c20 -28 28 -60 28 -118v-103zM130 353v-209c0 -47 13 -69 43 -69s43 21 43 69v209c0 47 -13 69 -43 69s-43 -22 -43 -69zM395 307v46c0 48 -14 69 -44 69c-31 0 -45 -22 -45 -69v-46h89z" />
    <glyph glyph-name="germandbls" unicode="&#xdf;" horiz-adv-x="342" 
d="M129 0h-90v531c0 88 49 143 129 143c75 0 121 -47 121 -122c0 -48 -15 -74 -52 -90c52 -26 69 -80 69 -215c0 -84 -6 -131 -23 -175c-17 -45 -50 -72 -88 -72h-32v82h11c33 0 42 38 42 178c0 114 -12 149 -53 155v82c31 2 43 15 43 48c0 32 -12 47 -37 47
c-29 0 -40 -18 -40 -66v-526z" />
    <glyph glyph-name="Adieresis" unicode="&#xc4;" horiz-adv-x="405" 
d="M256 147h-107l-23 -147h-99l109 667h130l116 -667h-103zM241 240l-40 266l-38 -266h78zM177 809v-89h-87v89h87zM317 809v-89h-87v89h87z" />
    <glyph glyph-name="Aacute" unicode="&#xc1;" horiz-adv-x="405" 
d="M256 147h-107l-23 -147h-99l109 667h130l116 -667h-103zM241 240l-40 266l-38 -266h78zM155 720l46 80h96l-72 -80h-70z" />
    <glyph glyph-name="Agrave" unicode="&#xc0;" horiz-adv-x="405" 
d="M256 147h-107l-23 -147h-99l109 667h130l116 -667h-103zM241 240l-40 266l-38 -266h78zM237 720h-70l-72 80h97z" />
    <glyph glyph-name="Acircumflex" unicode="&#xc2;" horiz-adv-x="405" 
d="M256 147h-107l-23 -147h-99l109 667h130l116 -667h-103zM241 240l-40 266l-38 -266h78zM152 800h101l58 -80h-80l-28 31l-29 -31h-80z" />
    <glyph glyph-name="Atilde" unicode="&#xc3;" horiz-adv-x="405" 
d="M256 147h-107l-23 -147h-99l109 667h130l116 -667h-103zM241 240l-40 266l-38 -266h78zM106 718v69c20 11 34 15 55 15c16 0 26 -2 43 -8c27 -10 34 -12 48 -12c15 0 23 3 47 17v-69c-24 -14 -32 -17 -47 -17c-14 0 -21 2 -48 12c-17 6 -27 8 -43 8c-21 0 -35 -4 -55 -15
z" />
    <glyph glyph-name="Aring" unicode="&#xc5;" horiz-adv-x="405" 
d="M256 147h-107l-23 -147h-99l109 667h130l116 -667h-103zM241 240l-40 266l-38 -266h78zM204 846c40 0 73 -31 73 -69c0 -39 -33 -70 -73 -70c-41 0 -74 31 -74 70c0 38 33 69 74 69zM203 811c-19 0 -36 -16 -36 -34c0 -19 16 -35 37 -35c20 0 36 16 36 35s-16 34 -37 34z
" />
    <glyph glyph-name="Edieresis" unicode="&#xcb;" horiz-adv-x="348" 
d="M317 667v-93h-172v-182h124v-93h-124v-206h172v-93h-272v667h272zM148 809v-89h-87v89h87zM288 809v-89h-87v89h87z" />
    <glyph glyph-name="Eacute" unicode="&#xc9;" horiz-adv-x="348" 
d="M317 667v-93h-172v-182h124v-93h-124v-206h172v-93h-272v667h272zM127 720l46 80h96l-72 -80h-70z" />
    <glyph glyph-name="Egrave" unicode="&#xc8;" horiz-adv-x="348" 
d="M317 667v-93h-172v-182h124v-93h-124v-206h172v-93h-272v667h272zM209 720h-70l-72 80h97z" />
    <glyph glyph-name="Ecircumflex" unicode="&#xca;" horiz-adv-x="348" 
d="M317 667v-93h-172v-182h124v-93h-124v-206h172v-93h-272v667h272zM124 800h101l58 -80h-80l-28 31l-29 -31h-80z" />
    <glyph glyph-name="Idieresis" unicode="&#xcf;" horiz-adv-x="189" 
d="M145 667v-667h-100v667h100zM75 809v-89h-87v89h87zM201 809v-89h-87v89h87z" />
    <glyph glyph-name="Iacute" unicode="&#xcd;" horiz-adv-x="189" 
d="M145 667v-667h-100v667h100zM47 720l46 80h96l-72 -80h-70z" />
    <glyph glyph-name="Igrave" unicode="&#xcc;" horiz-adv-x="189" 
d="M145 667v-667h-100v667h100zM129 720h-70l-72 80h97z" />
    <glyph glyph-name="Icircumflex" unicode="&#xce;" horiz-adv-x="189" 
d="M145 667v-667h-100v667h100zM44 800h101l58 -80h-80l-28 31l-29 -31h-80z" />
    <glyph glyph-name="Ntilde" unicode="&#xd1;" horiz-adv-x="420" 
d="M376 0h-93l-145 412v-412h-93v667h101l137 -396v396h93v-667zM114 718v69c20 11 34 15 55 15c16 0 26 -2 43 -8c27 -10 34 -12 48 -12c15 0 23 3 47 17v-69c-24 -14 -32 -17 -47 -17c-14 0 -21 2 -48 12c-17 6 -27 8 -43 8c-21 0 -35 -4 -55 -15z" />
    <glyph glyph-name="Odieresis" unicode="&#xd6;" horiz-adv-x="397" 
d="M355 450v-233c0 -99 -8 -135 -40 -174c-27 -33 -70 -53 -117 -53c-46 0 -89 20 -116 53c-32 39 -40 76 -40 174v233c0 98 8 135 40 174c27 33 70 53 116 53c47 0 90 -20 117 -53c32 -39 40 -75 40 -174zM142 439v-211c0 -66 2 -94 7 -109c9 -23 27 -36 50 -36
c26 0 45 17 52 46c3 13 4 46 4 99v211c0 68 -2 94 -7 109c-9 23 -26 36 -49 36c-27 0 -46 -17 -53 -46c-2 -12 -4 -48 -4 -99zM172 809v-89h-87v89h87zM312 809v-89h-87v89h87z" />
    <glyph glyph-name="Oacute" unicode="&#xd3;" horiz-adv-x="397" 
d="M355 450v-233c0 -99 -8 -135 -40 -174c-27 -33 -70 -53 -117 -53c-46 0 -89 20 -116 53c-32 39 -40 76 -40 174v233c0 98 8 135 40 174c27 33 70 53 116 53c47 0 90 -20 117 -53c32 -39 40 -75 40 -174zM142 439v-211c0 -66 2 -94 7 -109c9 -23 27 -36 50 -36
c26 0 45 17 52 46c3 13 4 46 4 99v211c0 68 -2 94 -7 109c-9 23 -26 36 -49 36c-27 0 -46 -17 -53 -46c-2 -12 -4 -48 -4 -99zM151 720l46 80h96l-72 -80h-70z" />
    <glyph glyph-name="Ograve" unicode="&#xd2;" horiz-adv-x="397" 
d="M355 450v-233c0 -99 -8 -135 -40 -174c-27 -33 -70 -53 -117 -53c-46 0 -89 20 -116 53c-32 39 -40 76 -40 174v233c0 98 8 135 40 174c27 33 70 53 116 53c47 0 90 -20 117 -53c32 -39 40 -75 40 -174zM142 439v-211c0 -66 2 -94 7 -109c9 -23 27 -36 50 -36
c26 0 45 17 52 46c3 13 4 46 4 99v211c0 68 -2 94 -7 109c-9 23 -26 36 -49 36c-27 0 -46 -17 -53 -46c-2 -12 -4 -48 -4 -99zM233 720h-70l-72 80h97z" />
    <glyph glyph-name="Ocircumflex" unicode="&#xd4;" horiz-adv-x="397" 
d="M355 450v-233c0 -99 -8 -135 -40 -174c-27 -33 -70 -53 -117 -53c-46 0 -89 20 -116 53c-32 39 -40 76 -40 174v233c0 98 8 135 40 174c27 33 70 53 116 53c47 0 90 -20 117 -53c32 -39 40 -75 40 -174zM142 439v-211c0 -66 2 -94 7 -109c9 -23 27 -36 50 -36
c26 0 45 17 52 46c3 13 4 46 4 99v211c0 68 -2 94 -7 109c-9 23 -26 36 -49 36c-27 0 -46 -17 -53 -46c-2 -12 -4 -48 -4 -99zM148 800h101l58 -80h-80l-28 31l-29 -31h-80z" />
    <glyph glyph-name="Otilde" unicode="&#xd5;" horiz-adv-x="397" 
d="M355 450v-233c0 -99 -8 -135 -40 -174c-27 -33 -70 -53 -117 -53c-46 0 -89 20 -116 53c-32 39 -40 76 -40 174v233c0 98 8 135 40 174c27 33 70 53 116 53c47 0 90 -20 117 -53c32 -39 40 -75 40 -174zM142 439v-211c0 -66 2 -94 7 -109c9 -23 27 -36 50 -36
c26 0 45 17 52 46c3 13 4 46 4 99v211c0 68 -2 94 -7 109c-9 23 -26 36 -49 36c-27 0 -46 -17 -53 -46c-2 -12 -4 -48 -4 -99zM102 718v69c20 11 34 15 55 15c16 0 26 -2 43 -8c27 -10 34 -12 48 -12c15 0 23 3 47 17v-69c-24 -14 -32 -17 -47 -17c-14 0 -21 2 -48 12
c-17 6 -27 8 -43 8c-21 0 -35 -4 -55 -15z" />
    <glyph glyph-name="Scaron" unicode="&#x160;" horiz-adv-x="371" 
d="M340 517l-97 -14c-6 60 -21 81 -58 81c-34 0 -56 -26 -56 -66c0 -46 18 -73 89 -139c104 -95 129 -137 129 -218c0 -102 -64 -171 -158 -171c-98 0 -163 71 -166 180l95 17c3 -70 26 -104 71 -104c37 0 61 29 61 73c0 25 -9 49 -26 72c-16 21 -22 28 -78 79
c-84 78 -114 131 -114 205c0 99 62 165 157 165c88 0 139 -54 151 -160zM236 720h-101l-58 80h80l29 -31l28 31h80z" />
    <glyph glyph-name="Udieresis" unicode="&#xdc;" horiz-adv-x="403" 
d="M258 667h100v-450c0 -99 -8 -135 -40 -174c-27 -33 -70 -53 -117 -53c-46 0 -89 20 -116 53c-32 39 -40 76 -40 174v450h100v-439c0 -66 2 -94 7 -109c9 -23 27 -36 50 -36c26 0 45 17 52 46c3 13 4 46 4 99v439zM175 809v-89h-87v89h87zM315 809v-89h-87v89h87z" />
    <glyph glyph-name="Uacute" unicode="&#xda;" horiz-adv-x="403" 
d="M258 667h100v-450c0 -99 -8 -135 -40 -174c-27 -33 -70 -53 -117 -53c-46 0 -89 20 -116 53c-32 39 -40 76 -40 174v450h100v-439c0 -66 2 -94 7 -109c9 -23 27 -36 50 -36c26 0 45 17 52 46c3 13 4 46 4 99v439zM154 720l46 80h96l-72 -80h-70z" />
    <glyph glyph-name="Ugrave" unicode="&#xd9;" horiz-adv-x="403" 
d="M258 667h100v-450c0 -99 -8 -135 -40 -174c-27 -33 -70 -53 -117 -53c-46 0 -89 20 -116 53c-32 39 -40 76 -40 174v450h100v-439c0 -66 2 -94 7 -109c9 -23 27 -36 50 -36c26 0 45 17 52 46c3 13 4 46 4 99v439zM236 720h-70l-72 80h97z" />
    <glyph glyph-name="Ucircumflex" unicode="&#xdb;" horiz-adv-x="403" 
d="M258 667h100v-450c0 -99 -8 -135 -40 -174c-27 -33 -70 -53 -117 -53c-46 0 -89 20 -116 53c-32 39 -40 76 -40 174v450h100v-439c0 -66 2 -94 7 -109c9 -23 27 -36 50 -36c26 0 45 17 52 46c3 13 4 46 4 99v439zM151 800h101l58 -80h-80l-28 31l-29 -31h-80z" />
    <glyph glyph-name="Yacute" unicode="&#xdd;" horiz-adv-x="372" 
d="M238 270v-270h-100v270l-125 397h104l71 -262l69 262h101zM138 720l46 80h96l-72 -80h-70z" />
    <glyph glyph-name="Zcaron" unicode="&#x17d;" horiz-adv-x="352" 
d="M326 93v-93h-299v93l193 481h-178v93h284v-93l-192 -481h192zM227 720h-101l-58 80h80l29 -31l28 31h80z" />
    <glyph glyph-name="Ydieresis" unicode="&#x178;" horiz-adv-x="372" 
d="M238 270v-270h-100v270l-125 397h104l71 -262l69 262h101zM159 809v-89h-87v89h87zM299 809v-89h-87v89h87z" />
    <glyph glyph-name="adieresis" unicode="&#xe4;" horiz-adv-x="346" 
d="M312 0h-90c-4 25 -4 29 -7 56c-37 -43 -70 -63 -104 -63c-49 0 -81 46 -81 118c0 86 37 129 183 211v32c0 54 -8 68 -37 68c-28 0 -40 -19 -42 -68h-92c7 96 58 150 142 150c41 0 75 -15 94 -43c20 -27 25 -50 25 -117v-164c0 -115 1 -130 9 -180zM213 121v132
c-65 -41 -90 -75 -90 -126c0 -32 12 -52 31 -52c21 0 41 15 59 46zM152 667v-89h-87v89h87zM292 667v-89h-87v89h87z" />
    <glyph glyph-name="aacute" unicode="&#xe1;" horiz-adv-x="346" 
d="M312 0h-90c-4 25 -4 29 -7 56c-37 -43 -70 -63 -104 -63c-49 0 -81 46 -81 118c0 86 37 129 183 211v32c0 54 -8 68 -37 68c-28 0 -40 -19 -42 -68h-92c7 96 58 150 142 150c41 0 75 -15 94 -43c20 -27 25 -50 25 -117v-164c0 -115 1 -130 9 -180zM213 121v132
c-65 -41 -90 -75 -90 -126c0 -32 12 -52 31 -52c21 0 41 15 59 46zM125 580l46 80h96l-72 -80h-70z" />
    <glyph glyph-name="agrave" unicode="&#xe0;" horiz-adv-x="346" 
d="M312 0h-90c-4 25 -4 29 -7 56c-37 -43 -70 -63 -104 -63c-49 0 -81 46 -81 118c0 86 37 129 183 211v32c0 54 -8 68 -37 68c-28 0 -40 -19 -42 -68h-92c7 96 58 150 142 150c41 0 75 -15 94 -43c20 -27 25 -50 25 -117v-164c0 -115 1 -130 9 -180zM213 121v132
c-65 -41 -90 -75 -90 -126c0 -32 12 -52 31 -52c21 0 41 15 59 46zM214 580h-70l-72 80h97z" />
    <glyph glyph-name="acircumflex" unicode="&#xe2;" horiz-adv-x="346" 
d="M312 0h-90c-4 25 -4 29 -7 56c-37 -43 -70 -63 -104 -63c-49 0 -81 46 -81 118c0 86 37 129 183 211v32c0 54 -8 68 -37 68c-28 0 -40 -19 -42 -68h-92c7 96 58 150 142 150c41 0 75 -15 94 -43c20 -27 25 -50 25 -117v-164c0 -115 1 -130 9 -180zM213 121v132
c-65 -41 -90 -75 -90 -126c0 -32 12 -52 31 -52c21 0 41 15 59 46zM122 660h101l58 -80h-80l-28 31l-29 -31h-80z" />
    <glyph glyph-name="atilde" unicode="&#xe3;" horiz-adv-x="346" 
d="M312 0h-90c-4 25 -4 29 -7 56c-37 -43 -70 -63 -104 -63c-49 0 -81 46 -81 118c0 86 37 129 183 211v32c0 54 -8 68 -37 68c-28 0 -40 -19 -42 -68h-92c7 96 58 150 142 150c41 0 75 -15 94 -43c20 -27 25 -50 25 -117v-164c0 -115 1 -130 9 -180zM213 121v132
c-65 -41 -90 -75 -90 -126c0 -32 12 -52 31 -52c21 0 41 15 59 46zM76 580v70c20 11 34 15 55 15c16 0 26 -2 43 -8c27 -10 34 -12 48 -12c15 0 24 3 47 17v-69c-24 -14 -32 -17 -46 -17c-15 0 -22 2 -49 12c-17 6 -27 8 -42 8c-22 0 -36 -4 -56 -16z" />
    <glyph glyph-name="aring" unicode="&#xe5;" horiz-adv-x="346" 
d="M312 0h-90c-4 25 -4 29 -7 56c-37 -43 -70 -63 -104 -63c-49 0 -81 46 -81 118c0 86 37 129 183 211v32c0 54 -8 68 -37 68c-28 0 -40 -19 -42 -68h-92c7 96 58 150 142 150c41 0 75 -15 94 -43c20 -27 25 -50 25 -117v-164c0 -115 1 -130 9 -180zM213 121v132
c-65 -41 -90 -75 -90 -126c0 -32 12 -52 31 -52c21 0 41 15 59 46zM171 698c40 0 73 -31 73 -69c0 -39 -33 -70 -73 -70c-41 0 -74 31 -74 70c0 38 33 69 74 69zM170 663c-19 0 -36 -16 -36 -34c0 -19 16 -35 37 -35c20 0 36 16 36 35s-16 34 -37 34z" />
    <glyph glyph-name="edieresis" unicode="&#xeb;" horiz-adv-x="340" 
d="M304 232h-179v-88c0 -47 14 -69 44 -69c29 0 42 17 43 56v25l1 16h91v-23c0 -55 -5 -77 -23 -102c-24 -34 -65 -54 -109 -54c-43 0 -85 20 -108 51c-21 28 -29 61 -29 118v173c0 58 8 90 28 118c23 31 65 51 107 51c43 0 82 -19 106 -51c20 -28 28 -60 28 -118v-103z
M214 307v46c0 48 -14 69 -44 69c-31 0 -45 -22 -45 -69v-46h89zM143 667v-89h-87v89h87zM283 667v-89h-87v89h87z" />
    <glyph glyph-name="eacute" unicode="&#xe9;" horiz-adv-x="340" 
d="M304 232h-179v-88c0 -47 14 -69 44 -69c29 0 42 17 43 56v25l1 16h91v-23c0 -55 -5 -77 -23 -102c-24 -34 -65 -54 -109 -54c-43 0 -85 20 -108 51c-21 28 -29 61 -29 118v173c0 58 8 90 28 118c23 31 65 51 107 51c43 0 82 -19 106 -51c20 -28 28 -60 28 -118v-103z
M214 307v46c0 48 -14 69 -44 69c-31 0 -45 -22 -45 -69v-46h89zM122 580l46 80h96l-72 -80h-70z" />
    <glyph glyph-name="egrave" unicode="&#xe8;" horiz-adv-x="340" 
d="M304 232h-179v-88c0 -47 14 -69 44 -69c29 0 42 17 43 56v25l1 16h91v-23c0 -55 -5 -77 -23 -102c-24 -34 -65 -54 -109 -54c-43 0 -85 20 -108 51c-21 28 -29 61 -29 118v173c0 58 8 90 28 118c23 31 65 51 107 51c43 0 82 -19 106 -51c20 -28 28 -60 28 -118v-103z
M214 307v46c0 48 -14 69 -44 69c-31 0 -45 -22 -45 -69v-46h89zM211 580h-70l-72 80h97z" />
    <glyph glyph-name="ecircumflex" unicode="&#xea;" horiz-adv-x="340" 
d="M304 232h-179v-88c0 -47 14 -69 44 -69c29 0 42 17 43 56v25l1 16h91v-23c0 -55 -5 -77 -23 -102c-24 -34 -65 -54 -109 -54c-43 0 -85 20 -108 51c-21 28 -29 61 -29 118v173c0 58 8 90 28 118c23 31 65 51 107 51c43 0 82 -19 106 -51c20 -28 28 -60 28 -118v-103z
M214 307v46c0 48 -14 69 -44 69c-31 0 -45 -22 -45 -69v-46h89zM119 660h101l58 -80h-80l-28 31l-29 -31h-80z" />
    <glyph glyph-name="idieresis" unicode="&#xef;" horiz-adv-x="167" 
d="M129 497v-497h-90v497h90zM64 667v-89h-87v89h87zM190 667v-89h-87v89h87z" />
    <glyph glyph-name="iacute" unicode="&#xed;" horiz-adv-x="167" 
d="M129 497v-497h-90v497h90zM36 580l46 80h96l-72 -80h-70z" />
    <glyph glyph-name="igrave" unicode="&#xec;" horiz-adv-x="167" 
d="M128 497v-497h-90v497h90zM124 580h-70l-72 80h97z" />
    <glyph glyph-name="icircumflex" unicode="&#xee;" horiz-adv-x="167" 
d="M129 497v-497h-90v497h90zM33 660h101l58 -80h-80l-28 31l-29 -31h-80z" />
    <glyph glyph-name="ntilde" unicode="&#xf1;" horiz-adv-x="337" 
d="M129 497v-54c42 46 67 61 103 61c22 0 39 -8 50 -23c13 -19 16 -35 16 -94v-387h-90v366c0 29 0 34 -3 41c-2 9 -10 15 -19 15c-19 0 -36 -13 -57 -42v-380h-90v497h90zM72 580v70c20 11 34 15 55 15c16 0 26 -2 43 -8c27 -10 34 -12 48 -12c15 0 24 3 47 17v-69
c-24 -14 -32 -17 -46 -17c-15 0 -22 2 -49 12c-17 6 -27 8 -42 8c-22 0 -36 -4 -56 -16z" />
    <glyph glyph-name="odieresis" unicode="&#xf6;" horiz-adv-x="336" 
d="M301 335v-173c0 -58 -8 -90 -28 -118c-23 -31 -63 -51 -105 -51s-82 20 -105 51c-20 28 -28 60 -28 118v173c0 58 8 90 28 118c23 31 63 51 105 51s82 -20 105 -51c20 -28 28 -60 28 -118zM125 353v-209c0 -48 13 -69 43 -69s43 21 43 69v209c0 48 -13 69 -43 69
s-43 -21 -43 -69zM142 667v-89h-87v89h87zM282 667v-89h-87v89h87z" />
    <glyph glyph-name="oacute" unicode="&#xf3;" horiz-adv-x="336" 
d="M301 335v-173c0 -58 -8 -90 -28 -118c-23 -31 -63 -51 -105 -51s-82 20 -105 51c-20 28 -28 60 -28 118v173c0 58 8 90 28 118c23 31 63 51 105 51s82 -20 105 -51c20 -28 28 -60 28 -118zM125 353v-209c0 -48 13 -69 43 -69s43 21 43 69v209c0 48 -13 69 -43 69
s-43 -21 -43 -69zM120 580l46 80h96l-72 -80h-70z" />
    <glyph glyph-name="ograve" unicode="&#xf2;" horiz-adv-x="336" 
d="M301 335v-173c0 -58 -8 -90 -28 -118c-23 -31 -63 -51 -105 -51s-82 20 -105 51c-20 28 -28 60 -28 118v173c0 58 8 90 28 118c23 31 63 51 105 51s82 -20 105 -51c20 -28 28 -60 28 -118zM125 353v-209c0 -48 13 -69 43 -69s43 21 43 69v209c0 48 -13 69 -43 69
s-43 -21 -43 -69zM209 580h-70l-72 80h97z" />
    <glyph glyph-name="ocircumflex" unicode="&#xf4;" horiz-adv-x="336" 
d="M301 335v-173c0 -58 -8 -90 -28 -118c-23 -31 -63 -51 -105 -51s-82 20 -105 51c-20 28 -28 60 -28 118v173c0 58 8 90 28 118c23 31 63 51 105 51s82 -20 105 -51c20 -28 28 -60 28 -118zM125 353v-209c0 -48 13 -69 43 -69s43 21 43 69v209c0 48 -13 69 -43 69
s-43 -21 -43 -69zM117 660h101l58 -80h-80l-28 31l-29 -31h-80z" />
    <glyph glyph-name="otilde" unicode="&#xf5;" horiz-adv-x="336" 
d="M301 335v-173c0 -58 -8 -90 -28 -118c-23 -31 -63 -51 -105 -51s-82 20 -105 51c-20 28 -28 60 -28 118v173c0 58 8 90 28 118c23 31 63 51 105 51s82 -20 105 -51c20 -28 28 -60 28 -118zM125 353v-209c0 -48 13 -69 43 -69s43 21 43 69v209c0 48 -13 69 -43 69
s-43 -21 -43 -69zM71 580v70c20 11 34 15 55 15c16 0 26 -2 43 -8c27 -10 34 -12 48 -12c15 0 24 3 47 17v-69c-24 -14 -32 -17 -46 -17c-15 0 -22 2 -49 12c-17 6 -27 8 -42 8c-22 0 -36 -4 -56 -16z" />
    <glyph glyph-name="scaron" unicode="&#x161;" horiz-adv-x="313" 
d="M292 380l-86 -20c-9 47 -22 62 -50 62c-25 0 -42 -18 -42 -44c0 -28 13 -45 66 -85c96 -73 116 -103 116 -169c0 -80 -53 -131 -136 -131c-82 0 -130 46 -145 143l85 20c12 -60 29 -81 62 -81c27 0 44 18 44 47s-12 45 -62 83c-95 72 -120 108 -120 170
c0 77 54 129 135 129c76 0 120 -41 133 -124zM207 580h-101l-58 80h80l29 -31l28 31h80z" />
    <glyph glyph-name="udieresis" unicode="&#xfc;" horiz-adv-x="337" 
d="M298 497v-497h-90v54c-42 -46 -67 -61 -103 -61c-22 0 -39 8 -50 23c-13 19 -16 35 -16 94v387h90v-366c0 -29 0 -34 3 -41c2 -9 10 -15 19 -15c19 0 36 13 57 42v380h90zM142 667v-89h-87v89h87zM282 667v-89h-87v89h87z" />
    <glyph glyph-name="uacute" unicode="&#xfa;" horiz-adv-x="337" 
d="M298 497v-497h-90v54c-42 -46 -67 -61 -103 -61c-22 0 -39 8 -50 23c-13 19 -16 35 -16 94v387h90v-366c0 -29 0 -34 3 -41c2 -9 10 -15 19 -15c19 0 36 13 57 42v380h90zM121 580l46 80h96l-72 -80h-70z" />
    <glyph glyph-name="ugrave" unicode="&#xf9;" horiz-adv-x="337" 
d="M298 497v-497h-90v54c-42 -46 -67 -61 -103 -61c-22 0 -39 8 -50 23c-13 19 -16 35 -16 94v387h90v-366c0 -29 0 -34 3 -41c2 -9 10 -15 19 -15c19 0 36 13 57 42v380h90zM210 580h-70l-72 80h97z" />
    <glyph glyph-name="ucircumflex" unicode="&#xfb;" horiz-adv-x="337" 
d="M298 497v-497h-90v54c-42 -46 -67 -61 -103 -61c-22 0 -39 8 -50 23c-13 19 -16 35 -16 94v387h90v-366c0 -29 0 -34 3 -41c2 -9 10 -15 19 -15c19 0 36 13 57 42v380h90zM118 660h101l58 -80h-80l-28 31l-29 -31h-80z" />
    <glyph glyph-name="yacute" unicode="&#xfd;" horiz-adv-x="320" 
d="M214 497h89l-101 -510c-19 -94 -23 -106 -44 -129c-21 -24 -54 -35 -103 -35c-13 0 -19 1 -32 3v88c7 -1 15 -1 20 -1c28 0 48 11 60 33c5 10 8 19 15 48l-101 503h90l54 -320zM113 580l46 80h96l-72 -80h-70z" />
    <glyph glyph-name="zcaron" unicode="&#x17e;" horiz-adv-x="309" 
d="M278 82v-82h-251v77l152 338h-139v82h238v-82l-148 -333h148zM204 580h-101l-58 80h80l29 -31l28 31h80z" />
    <glyph glyph-name="ydieresis" unicode="&#xff;" horiz-adv-x="320" 
d="M214 497h89l-101 -510c-19 -94 -23 -106 -44 -129c-21 -24 -54 -35 -103 -35c-13 0 -19 1 -32 3v88c7 -1 15 -1 20 -1c28 0 48 11 60 33c5 10 8 19 15 48l-101 503h90l54 -320zM134 667v-89h-87v89h87zM274 667v-89h-87v89h87z" />
    <glyph glyph-name="Ccedilla" unicode="&#xc7;" horiz-adv-x="388" 
d="M355 446h-101c0 39 -1 69 -2 85c-4 32 -25 53 -54 53c-26 0 -45 -17 -52 -46c-3 -13 -4 -46 -4 -99v-212c0 -67 2 -93 7 -108c9 -23 26 -36 49 -36c29 0 50 22 53 56c2 18 3 67 3 97h101v-44c0 -62 -5 -90 -23 -124c-25 -49 -74 -78 -133 -78c-47 0 -90 19 -117 53
c-33 40 -40 73 -40 177v226c0 105 7 138 40 178c27 34 70 53 117 53c58 0 107 -27 133 -73c18 -32 23 -58 23 -117v-41zM238 -46v-68l-22 -56h-47l17 56h-27v68h79z" />
    <glyph glyph-name="Eth" unicode="&#xd0;" horiz-adv-x="397" 
d="M44 0v299h-33v93h33v275h142c115 0 169 -60 169 -189v-290c0 -128 -54 -188 -169 -188h-142zM144 93h31c28 0 50 9 63 26c13 18 17 38 17 88v253c0 50 -4 70 -17 88c-13 17 -35 26 -63 26h-31v-182h57v-93h-57v-206z" />
    <glyph glyph-name="Thorn" unicode="&#xde;" horiz-adv-x="391" 
d="M145 162v-162h-100v667h100v-114h40c128 0 173 -51 173 -195c0 -145 -45 -196 -173 -196h-40zM145 255h32c65 0 81 21 81 103c0 81 -16 102 -81 102h-32v-205z" />
    <glyph glyph-name="ccedilla" unicode="&#xe7;" horiz-adv-x="326" 
d="M300 325h-90c0 37 0 51 -2 60c-3 24 -17 37 -40 37c-30 0 -43 -21 -43 -69v-209c0 -47 14 -69 43 -69c26 0 39 16 41 51c1 7 1 27 1 55h90v-23c0 -58 -5 -81 -22 -109c-23 -35 -63 -56 -107 -56c-42 0 -84 20 -108 51c-20 28 -28 60 -28 117v174c0 58 8 90 28 118
c24 31 66 51 109 51c58 0 107 -35 122 -89c5 -19 6 -35 6 -90zM207 -46v-68l-22 -56h-47l17 56h-27v68h79z" />
    <glyph glyph-name="eth" unicode="&#xf0;" horiz-adv-x="336" 
d="M203 654l48 40l26 -30l-47 -39c47 -59 71 -142 71 -244v-219c0 -58 -8 -90 -28 -118c-23 -31 -63 -51 -105 -51s-82 20 -105 51c-20 28 -28 60 -28 118v186c0 68 4 92 20 117c16 24 45 39 78 39c30 0 50 -11 76 -42c-5 48 -18 92 -34 116l-48 -40l-26 31l51 42
c-9 9 -14 14 -26 25l46 45c14 -11 17 -14 31 -27zM125 353v-209c0 -48 13 -69 43 -69s43 21 43 69v209c0 48 -13 69 -43 69s-43 -21 -43 -69z" />
    <glyph glyph-name="thorn" unicode="&#xfe;" horiz-adv-x="338" 
d="M39 667h90v-218c33 40 59 55 93 55c29 0 52 -14 65 -40s16 -49 16 -116v-199c0 -67 -3 -90 -16 -116s-36 -40 -65 -40c-34 0 -60 15 -93 55v-218h-90v837zM129 400v-303c16 -15 30 -22 45 -22s27 7 32 18c6 11 7 20 7 55v201c0 35 -1 43 -7 55c-5 11 -17 18 -32 18
s-29 -7 -45 -22z" />
    <glyph glyph-name="onesuperior" unicode="&#xb9;" horiz-adv-x="260" 
d="M173 667v-400h-67v309h-52v43c25 5 53 24 74 48h45z" />
    <glyph glyph-name="twosuperior" unicode="&#xb2;" horiz-adv-x="260" 
d="M224 325v-59h-191v58c99 136 129 194 129 252c0 24 -10 38 -27 38c-23 0 -33 -18 -33 -56v-15h-65c-1 8 -1 16 -1 20c0 69 37 110 100 110c58 0 94 -38 94 -99s-29 -120 -123 -249h117z" />
    <glyph glyph-name="threesuperior" unicode="&#xb3;" horiz-adv-x="260" 
d="M98 445v59c50 2 58 10 58 57c0 38 -7 53 -26 53s-26 -13 -26 -45c0 -4 0 -9 1 -16h-65v13c0 66 35 107 92 107c55 0 87 -40 87 -111c0 -46 -10 -72 -34 -87c29 -17 40 -42 40 -95c0 -80 -30 -119 -94 -119c-62 0 -96 39 -96 109v16h66c-1 -7 -1 -13 -1 -17
c0 -33 10 -49 30 -49c22 0 30 16 30 62c0 53 -10 63 -62 63z" />
    <glyph glyph-name="middot" unicode="&#xad;" horiz-adv-x="180" 
d="M139 305v-103h-97v103h97z" />
    <glyph glyph-name="sfthyphen" unicode="&#xb0;" horiz-adv-x="140" 
d="M140 298v-90h-140v90h140z" />
    <glyph glyph-name="degree" unicode="&#x2212;" horiz-adv-x="407" 
d="M206 674c77 0 141 -65 141 -144c0 -80 -64 -144 -143 -144c-80 0 -144 64 -144 143c0 81 64 145 146 145zM202 606c-40 0 -75 -36 -75 -76c0 -42 35 -77 76 -77c42 0 77 35 77 76c0 43 -35 77 -78 77z" />
    <glyph glyph-name="minus" unicode="&#xd7;" 
d="M338 379v-78h-295v78h295z" />
    <glyph glyph-name="multiply" unicode="&#xf7;" 
d="M267 472l54 -55l-75 -76l74 -74l-57 -57l-74 74l-76 -76l-55 55l76 76l-75 74l58 57l74 -74z" />
    <glyph glyph-name="divide" unicode="&#x2122;" 
d="M338 379v-78h-295v78h295zM229 249v-84h-78v84h78zM229 516v-84h-78v84h78z" />
    <glyph glyph-name="trademark" unicode="&#xb1;" horiz-adv-x="553" 
d="M154 608v-321h-65v321h-62v59h189v-59h-62zM514 287h-61v233l-55 -233h-35l-57 234v-234h-61v380h84l52 -214l48 214h85v-380z" />
    <glyph glyph-name="plusminus" unicode="&#xbd;" 
d="M338 137v-78h-295v78h295zM338 374v-78h-107v-105h-81v105h-107v78h107v105h81v-105h107z" />
    <glyph glyph-name="onehalf" unicode="&#xbc;" horiz-adv-x="606" 
d="M173 667v-400h-67v309h-52v43c25 5 53 24 74 48h45zM167 -33l222 733h51l-227 -733h-46zM570 59v-59h-191v58c99 136 129 193 129 251c0 24 -10 38 -27 38c-23 0 -33 -18 -33 -56v-15h-65c-1 8 -1 16 -1 20c0 69 37 110 100 110c58 0 94 -38 94 -99
c0 -60 -29 -119 -123 -248h117z" />
    <glyph glyph-name="onequarter" unicode="&#xbe;" horiz-adv-x="606" 
d="M173 667v-400h-67v309h-52v43c25 5 53 24 74 48h45zM167 -33l222 733h51l-227 -733h-46zM478 96h-110v57l109 247h65v-245h39v-59h-39v-96h-64v96zM480 153v143l-58 -143h58z" />
    <glyph glyph-name="threequarters" unicode="&#xa9;" horiz-adv-x="606" 
d="M98 445v59c50 2 58 10 58 57c0 38 -7 53 -26 53s-26 -13 -26 -45c0 -4 0 -9 1 -16h-65v13c0 66 35 107 92 107c55 0 87 -40 87 -111c0 -46 -10 -72 -34 -87c29 -17 40 -42 40 -95c0 -80 -30 -119 -94 -119c-62 0 -96 39 -96 109v16h66c-1 -7 -1 -13 -1 -17
c0 -33 10 -49 30 -49c22 0 30 16 30 62c0 53 -10 63 -62 63zM167 -33l222 733h51l-227 -733h-46zM478 96h-110v57l109 247h65v-245h39v-59h-39v-96h-64v96zM480 153v143l-58 -143h58z" />
    <glyph glyph-name="copyright" unicode="&#xae;" horiz-adv-x="775" 
d="M393 679c185 0 339 -157 339 -346c0 -190 -154 -345 -344 -345s-345 155 -345 345c0 194 154 346 350 346zM385 627c-157 0 -286 -133 -286 -293c0 -162 130 -294 289 -294s288 132 288 293c0 164 -128 294 -291 294zM479 395h-66c1 6 1 12 1 14c0 28 -1 42 -4 49
c-4 11 -14 18 -26 18c-14 0 -24 -9 -28 -25c-1 -7 -1 -10 -2 -57v-125c1 -51 1 -53 4 -62c5 -12 14 -19 26 -19c24 0 30 16 30 77c0 2 0 7 -1 13h66c1 -13 1 -27 1 -32c0 -78 -34 -120 -96 -120c-29 0 -55 12 -72 32c-19 25 -24 44 -24 107v133c0 63 4 83 24 108
c17 20 43 32 73 32c61 0 95 -40 95 -113c0 -5 0 -17 -1 -30z" />
    <glyph glyph-name="registered" unicode="&#xa0;" horiz-adv-x="775" 
d="M392 679c186 0 340 -157 340 -346c0 -190 -154 -345 -344 -345s-345 155 -345 345c0 193 154 346 349 346zM385 627c-157 0 -286 -133 -286 -294s129 -293 289 -293c158 0 288 131 288 293c0 164 -128 294 -291 294zM362 301v-164h-66v400h86c70 0 102 -37 102 -118
c0 -50 -11 -79 -39 -100l46 -182h-70l-37 164h-22zM362 363h16c20 0 27 3 33 14c4 10 7 25 7 42c0 42 -10 56 -40 56h-16v-112z" />
    <glyph glyph-name="nbspace" unicode="&#xac;" horiz-adv-x="177" 
 />
    <glyph glyph-name="logicalnot" unicode="&#xa6;" horiz-adv-x="500" 
d="M371 0v195h-338v86h433v-281h-95z" />
    <glyph glyph-name="brokenbar" unicode="&#xb5;" horiz-adv-x="500" 
d="M201 667h98v-339h-98v339zM201 153h98v-320h-98v320z" />
    <glyph glyph-name="mu" horiz-adv-x="337" 
d="M208 497h90v-497h-90v40c-10 -36 -21 -47 -44 -47c-17 0 -27 8 -35 30v-193h-90v667h90v-370c0 -47 10 -65 37 -65c20 0 34 13 42 40v395z" />
    </font>
</defs>
</svg>
